<?xml version="1.0" encoding="utf-8"?>
<svg version="1.1" id="Livello_1" x="0px" y="0px" viewBox="0 0 864 864" style="enable-background:new 0 0 864 864;" xmlns="http://www.w3.org/2000/svg">
  <path d="M760.3387451,432.0878296c0-10.1427002-0.5286255-20.1585999-1.4283447-30.0670471l89.7145386-49.8358459 c-3.881958-20.3975525-9.2269897-40.2651367-15.914917-59.5159912l-102.5991821,1.697998 c-8.4660645-18.3317566-18.5687256-35.7377625-30.1210938-52.0591583l52.7399902-87.9564514 c-13.4666748-15.5658112-28.0333252-30.1331177-43.6011353-43.5991058l-87.9551392,52.7406311 c-16.3206787-11.5537262-33.7280273-21.6563873-52.0591431-30.1224365l1.697998-102.5985107 c-19.2521973-6.6872749-39.1184082-12.0329571-59.5159912-15.9169025l-49.8351746,89.7158813 c-9.9104309-0.8983994-19.9249878-1.4270325-30.0677185-1.4270325c-10.1427002,0-20.1572571,0.5286331-30.065033,1.4270325 l-49.8378601-89.7158813c-20.3975525,3.8839455-40.2664795,9.22896-59.5159912,15.916235l1.697998,102.5991821 c-18.3310852,8.4667206-35.7384338,18.5687103-52.0591583,30.1224365l-87.9577789-52.7406311 c-15.565155,13.4659882-30.1344604,28.0332947-43.5984497,43.5991058l52.7399597,87.9557953 c-11.5523834,16.3213806-21.6550446,33.7280579-30.1210938,52.0598145l-102.5991821-1.697998 c-6.6879425,19.2508545-12.0329571,39.1184387-15.9175711,59.5159912l89.7172165,49.8365173 c-0.8997345,9.9084473-1.4283676,19.9236755-1.4283676,30.0663757c0,10.1427307,0.5286331,20.1585999,1.4283676,30.0670471 L14.1592722,511.991394c3.884614,20.397583,9.2296286,40.2644653,15.9175711,59.5153198l102.5991821-1.697998 c8.4660492,18.3324585,18.5687103,35.7391357,30.1210938,52.0604858l-52.7399597,87.9551392 c13.4639893,15.5657959,28.0332947,30.1344604,43.5984497,43.5997925l87.9577789-52.7406616 c16.3207245,11.5537109,33.7280731,21.6557007,52.0591583,30.1224365l-1.697998,102.5991821 c19.2495117,6.6873169,39.1184387,12.0322876,59.5159912,15.9162598l49.8352051-89.7158813 c9.9104309,0.8983765,19.9249878,1.427002,30.067688,1.427002c10.1427307,0,20.1572876-0.5286255,30.0677185-1.427002 l49.8351746,89.7158813c20.397583-3.8839722,40.2637939-9.2296143,59.5159912-15.9169312l-1.697998-102.5985107 c18.3311157-8.4660645,35.7384644-18.5687256,52.0591431-30.1224365l87.9551392,52.7406616 c15.5678101-13.465332,30.1344604-28.0339966,43.6011353-43.5997925l-52.7399902-87.9558105 c11.5523682-16.3213501,21.6550293-33.727356,30.1210938-52.0598145l102.5991821,1.697998 c6.6853027-19.2508545,12.032959-39.1184082,15.914917-59.5159912l-89.7145386-49.8358459 C759.8101196,452.2464294,760.3387451,442.2305603,760.3387451,432.0878296z M431.3933716,701.9082031 c-149.0185242,0-269.8203125-120.8023682-269.8203125-269.8197021s120.8017731-269.8197021,269.8203125-269.8197021 c149.0161133,0,269.8190918,120.8023987,269.8190918,269.8197021S580.4094849,701.9082031,431.3933716,701.9082031z" style="fill: rgb(1, 56, 70); stroke: rgb(157, 197, 201); stroke-width: 4px;"/>
  <text style="fill: rgb(236, 125, 0); font-family: Arial, sans-serif; font-size: 338px; stroke: rgb(1, 56, 70); stroke-width: 1.76556px; white-space: pre;" transform="matrix(1.196025, 0, 0, 1.060249, -86.375343, -153.915192)" x="320.281" y="546.57">A</text>
  <text style="fill: rgb(157, 197, 201); font-family: Arial, sans-serif; font-size: 297px; stroke: rgb(0, 0, 0); stroke-width: 2.3945px; white-space: pre;" transform="matrix(-0.80434, -0.001995, -0.002149, 0.866148, 248.094727, 1083.642822)" x="-208.25" y="-542.854">W</text>
  <text style="fill: rgb(157, 197, 201); font-family: Arial, sans-serif; font-size: 297px; stroke: rgb(0, 0, 0); stroke-width: 2.3945px; white-space: pre;" transform="matrix(-0.80434, -0.001995, -0.002149, 0.866148, 501.076599, 1083.959839)" x="-208.25" y="-542.854">W</text>
</svg>