<?xml version="1.0" encoding="utf-8"?>
<svg viewBox="42.805 4.743 777.27 855.032" xmlns="http://www.w3.org/2000/svg">
  <g>
    <path d="M186.3839722,804.5283203c-0.2045898-2.0039063-0.5561523-3.9641113-1.0341797-5.8740234l8.6181641-4.9169922 c-0.5151367-1.6789551-1.1103516-3.3227539-1.7880859-4.9233398l-9.7641602,1.7731934 c-0.8745117-1.7971191-1.8720703-3.5227051-2.9858398-5.1643066l6.409668-7.5595703 c-1.0566406-1.3959961-2.1855469-2.7329102-3.3764648-4.0124512l-8.5629883,5.0024414 c-1.4257813-1.3818359-2.9492188-2.6623535-4.5605469-3.8308105l3.4394531-9.3007813 c-1.4638672-0.949707-2.9780273-1.8254395-4.5390625-2.6252441l-6.3339844,7.6274414 c-1.8037109-0.8078613-3.6738281-1.4902344-5.6015625-2.0385742l0.050293-9.9143066 c-1.6914063-0.3867188-3.4140625-0.6894531-5.1655273-0.904541l-3.3442383,9.3366699 c-0.984375-0.0695801-1.9750977-0.1174316-2.9770508-0.1174316c-1.0024414,0-1.9931641,0.0478516-2.9775391,0.1174316 l-3.3442383-9.3366699c-1.7504883,0.2150879-3.4736328,0.5178223-5.1655273,0.904541l0.0507813,9.9143066 c-1.9282227,0.5483398-3.7983398,1.2307129-5.6015625,2.0385742l-6.3339844-7.6274414 c-1.5610352,0.7995605-3.0756836,1.6755371-4.5390625,2.6252441l3.4389648,9.3007813 c-1.6113281,1.168457-3.1342773,2.4492188-4.5605469,3.8308105l-8.5629883-5.0024414 c-1.1904297,1.279541-2.3198242,2.6164551-3.3759766,4.0124512l6.409668,7.5595703 c-1.1137695,1.6416016-2.1118164,3.3671875-2.9858398,5.1643066l-9.7646484-1.7731934 c-0.6777344,1.6005859-1.2724609,3.2443848-1.7875977,4.9233398l8.6181641,4.9169922 c-0.4780273,1.9099121-0.8300781,3.8701172-1.034668,5.8740234l-9.7729492,1.671875 c-0.043457,0.8679199-0.0664063,1.7416992-0.0664063,2.6206055s0.0229492,1.7524414,0.0664063,2.6206055l9.7729492,1.6716309 c0.2045898,2.0041504,0.5566406,3.9643555,1.034668,5.8742676l-8.6181641,4.9169922 c0.5151367,1.6789551,1.1098633,3.3227539,1.7875977,4.9233398l9.7646484-1.7734375 c0.8740234,1.7971191,1.8720703,3.5229492,2.9858398,5.1645508l-6.409668,7.5595703 c1.0561523,1.3959961,2.1855469,2.7329102,3.3759766,4.012207l8.5629883-5.0024414 c1.4262695,1.3820801,2.9492188,2.6625977,4.5605469,3.8310547l-3.4389648,9.3007813 c1.4633789,0.949707,2.9780273,1.8256836,4.5390625,2.6252441l6.3339844-7.6274414 c1.8032227,0.8078613,3.6733398,1.4899902,5.6015625,2.0383301l-0.0507813,9.9145508 c1.6918945,0.3867188,3.4150391,0.6894531,5.1655273,0.904541l3.3442383-9.3366699 c0.984375,0.0693359,1.9750977,0.1174316,2.9775391,0.1174316c1.0019531,0,1.9926758-0.0480957,2.9770508-0.1174316 l3.3442383,9.3366699c1.7514648-0.2150879,3.4741211-0.5178223,5.1655273-0.904541l-0.050293-9.9145508 c1.9277344-0.5483398,3.7978516-1.2304688,5.6015625-2.0383301l6.3339844,7.6274414 c1.5610352-0.7998047,3.0751953-1.6755371,4.5390625-2.6252441l-3.4394531-9.3007813 c1.6113281-1.168457,3.1347656-2.4489746,4.5605469-3.8308105l8.5625,5.0021973 c1.190918-1.2792969,2.3203125-2.6162109,3.3769531-4.012207l-6.409668-7.5595703 c1.1137695-1.6416016,2.1113281-3.3674316,2.9858398-5.1645508l9.7641602,1.7734375 c0.6777344-1.6005859,1.2729492-3.2446289,1.7880859-4.9233398l-8.6181641-4.9169922 c0.4780273-1.9099121,0.8295898-3.8701172,1.0341797-5.8742676l9.7729492-1.6713867 c0.0439453-0.8681641,0.0664063-1.7419434,0.0664063-2.6208496s-0.0224609-1.7526855-0.0664063-2.6206055L186.3839722,804.5283203z M144.8673706,773.8215332c8.3071289,0,15.9433594,2.9145508,21.9521484,7.7675781l-13.7050781,13.7053223 c-2.4038086-1.4711914-5.2280273-2.3203125-8.2470703-2.3203125s-5.8427734,0.8491211-8.246582,2.3203125l-13.7050781-13.7050781 C128.9244995,776.736084,136.5602417,773.8215332,144.8673706,773.8215332z M142.65448,812.7805176 c-1.0576172-0.5910645-1.8217773-1.5588379-2.1518555-2.7248535c-0.3295898-1.1657715-0.1855469-2.390625,0.4057617-3.4477539 c0.8300781-1.4853516,2.3759766-2.3225098,3.9672852-2.3225098c0.7485352,0,1.5068359,0.1853027,2.2050781,0.5756836 c2.1835938,1.2202148,2.9667969,3.989502,1.746582,6.1728516v-0.0002441 C147.6071167,813.2172852,144.8380737,814.0004883,142.65448,812.7805176z M143.2711792,801.269043 c-2.1069336,0.4467773-4.019043,1.7575684-5.1503906,3.7807617c-1.0073242,1.802002-1.2529297,3.8886719-0.6904297,5.8752441 c0.027832,0.098877,0.065918,0.192627,0.0976563,0.2897949l-3.3974609,1.9614258 c-0.5478516-1.3457031-0.8525391-2.8154297-0.8525391-4.3554688c0-5.8483887,4.3554688-10.6960449,9.9931641-11.4765625V801.269043 z M139.1203003,813.982666c0.5615234,0.6240234,1.222168,1.1633301,1.9760742,1.5852051 c1.190918,0.6650391,2.4829102,0.980957,3.7583008,0.980957c2.1635742,0,4.2768555-0.9116211,5.762207-2.5649414 l3.3862305,1.9550781c-2.1225586,2.7182617-5.4272461,4.4709473-9.1357422,4.4709473 c-3.7080078,0-7.0126953-1.7526855-9.1352539-4.4709473L139.1203003,813.982666z M152.213562,811.2182617 c1.1235352-3.439209-0.300293-7.3139648-3.5742188-9.1445313c-0.6982422-0.3901367-1.4311523-0.6601563-2.175293-0.8166504 v-3.9128418c5.637207,0.7805176,9.9926758,5.6281738,9.9926758,11.4765625c0,1.5400391-0.3046875,3.0097656-0.8525391,4.3552246 L152.213562,811.2182617z M117.6364136,830.7727051c-4.8535156-6.0085449-7.7680664-13.6447754-7.7680664-21.9519043 c0-8.5048828,3.0522461-16.3085938,8.1147461-22.3798828l13.6611328,13.6611328 c-1.65625,2.5029297-2.6235352,5.4995117-2.6235352,8.71875c0,3.0187988,0.8491211,5.8427734,2.3208008,8.246582 L117.6364136,830.7727051z M144.8673706,843.8198242c-8.5048828,0-16.3081055-3.0517578-22.3793945-8.114502l13.6606445-13.6611328 c2.5029297,1.6560059,5.4995117,2.623291,8.71875,2.623291c3.2197266,0,6.2158203-0.9672852,8.71875-2.623291l13.6611328,13.661377 C161.1759644,840.7680664,153.3722534,843.8198242,144.8673706,843.8198242z M172.0988159,830.7729492l-13.7050781-13.7055664 c1.4711914-2.4038086,2.3203125-5.2277832,2.3203125-8.246582c0-3.2192383-0.9672852-6.2158203-2.6230469-8.71875 l13.6611328-13.661377c5.0629883,6.0715332,8.1147461,13.8752441,8.1147461,22.380127 C179.8668823,817.1281738,176.9523315,824.7641602,172.0988159,830.7729492z" style="fill: rgb(255, 255, 255);"/>
    <path d="M707.7949219,82.5571289c0-1.6337891-0.0859375-3.2468262-0.2304688-4.8430176l14.4501953-8.0270996 c-0.625-3.2854004-1.4863281-6.4855957-2.5634766-9.5861816l-16.5253906,0.2734375 c-1.3632813-2.9526367-2.9912109-5.7563477-4.8515625-8.3852539l8.4951172-14.1672363 c-2.1689453-2.5073242-4.515625-4.8535156-7.0234375-7.0224609l-14.1669922,8.494873 c-2.6289063-1.861084-5.4326172-3.4882813-8.3847656-4.8518066l0.2734375-16.5258789 c-3.1015625-1.0771484-6.3007813-1.9379883-9.5869141-2.5637207l-8.0263672,14.4506836 c-1.5966797-0.1447754-3.2099609-0.2297363-4.84375-0.2297363s-3.2460938,0.0849609-4.8427734,0.2297363l-8.0273438-14.4506836 c-3.2851563,0.6257324-6.4853516,1.4865723-9.5859375,2.5637207l0.2734375,16.5258789 c-2.9521484,1.3635254-5.7568359,2.9907227-8.3857422,4.8518066l-14.1669922-8.494873 c-2.5068359,2.1689453-4.8535156,4.5151367-7.0224609,7.0224609l8.4951172,14.1672363 c-1.8613281,2.6289063-3.4882813,5.4326172-4.8515625,8.3852539l-16.5263672-0.2734375 c-1.0771484,3.1005859-1.9375,6.3007813-2.5634766,9.5861816l14.4511719,8.0273438 c-0.1455078,1.5959473-0.2304688,3.2089844-0.2304688,4.8427734s0.0849609,3.2470703,0.2304688,4.8430176l-14.4511719,8.0270996 c0.6259766,3.2856445,1.4863281,6.4855957,2.5634766,9.5864258l16.5263672-0.2734375 c1.3632813,2.9526367,2.9902344,5.7563477,4.8515625,8.3852539l-6.8827515,12.0097122 c0.2724609,0.3151855,6.8613281,6.8832932,7.0224609,7.0229416l12.5546265-6.3378296 c2.6289063,1.861084,5.4335938,3.4880371,8.3857422,4.8520508l-0.0683594,4.1201172 c-2.2685547-0.9221191-4.5966797-1.7412109-6.984375-2.4433594l-5.6455078,10.1464844 c-1.6835938-0.4230957-3.3886719-0.7978516-5.1308594-1.0859375c-1.7431641-0.2880859-3.4804688-0.4821777-5.2119141-0.623291 c0,0-1.9763794-11.520813-1.9226685-11.4634399c-1.6660156-0.010498-6.1066284,0.0115356-7.7531128,0.1121216 l-1.8349609,11.4663086c-3.5117188,0.3608398-6.9550781,1.0151367-10.3027344,1.9416504l-5.8681641-10.0339355 c-2.4199219,0.7739258-4.7910156,1.6677246-7.1074219,2.6791992L577,146.916748 c-3.1464844,1.5305176-6.1650391,3.3061523-9.0107422,5.3269043l-8.9511719-7.4255371 c-2.0039063,1.5473633-3.9335938,3.190918-5.7724609,4.9362793l5.9794922,9.987793 c-2.4306641,2.4968262-4.6650391,5.1958008-6.6650391,8.0844727l-10.9628906-3.9206543 c-0.5244141,0.8295898-1.0195313,1.6811523-1.5117188,2.534668l-4.1347656-8.5546875 c1.6650391-1.2224121,3.2705078-2.5168457,4.8291016-3.8669434l12.1992188,9.7563477 c1.8359375-1.6933594,3.6025391-3.4599609,5.2958984-5.2963867l-9.7558594-12.1992188 c1.3496094-1.5578613,2.6445313-3.1643066,3.8662109-4.8286133l14.0585938,6.7941895 c1.4130859-2.0539551,2.7353516-4.173584,3.9804688-6.34375l-12.2080078-9.708252 c0.9697266-1.8171387,1.8662109-3.6784668,2.6904297-5.5795898l15.2070313,3.4931641 c0.9169922-2.3117676,1.7568359-4.6618652,2.4863281-7.0610352l-14.0859375-6.7595215 c0.5371094-1.9816895,0.9912109-3.9956055,1.3681641-6.0375977l15.6347656,0.0217285 c0.375-2.4487305,0.625-4.9370117,0.8017578-7.4455566l-15.2177734-3.4511719 c0.0410156-1.0270996,0.078125-2.0554199,0.078125-3.0925293c0-1.0373535-0.0371094-2.0656738-0.078125-3.0930176 l15.2177734-3.4509277c-0.1767578-2.5083008-0.4267578-4.9968262-0.8017578-7.4458008l-15.6347656,0.0217285 c-0.3769531-2.041748-0.8310547-4.0559082-1.3681641-6.0373535l14.0859375-6.7595215 c-0.7294922-2.3994141-1.5693359-4.7497559-2.4863281-7.0612793l-15.2070313,3.4934082 c-0.8242188-1.9013672-1.7207031-3.7626953-2.6904297-5.579834l12.2080078-9.708252 c-1.2451172-2.170166-2.5673828-4.2897949-3.9814453-6.34375l-14.0576172,6.7941895 c-1.2216797-1.6643066-2.5166016-3.270752-3.8662109-4.8283691l9.7558594-12.1994629 c-1.6933594-1.8364258-3.4599609-3.6030273-5.2958984-5.2963867l-12.1992188,9.7565918 c-1.5585938-1.3503418-3.1640625-2.6447754-4.8291016-3.8671875l6.7949219-14.0578613 c-2.0546875-1.4130859-4.1738281-2.7353516-6.34375-3.980957l-9.7080078,12.2084961 c-1.8173828-0.9699707-3.6787109-1.8666992-5.5800781-2.6901855l3.4931641-15.2075195 c-2.3125-0.9172363-4.6621094-1.7565918-7.0615234-2.4870605l-6.7597656,14.0859375 c-1.9814453-0.536377-3.9951172-0.9899902-6.0371094-1.3674316l0.0214844-15.6347656 c-2.4482422-0.3742676-4.9375-0.6247559-7.4453125-0.8015137l-3.4511719,15.2175293 c-1.0273438-0.0407715-2.0556641-0.078125-3.0927734-0.078125s-2.0654297,0.0373535-3.0927734,0.078125l-3.4511719-15.2175293 c-2.5087891,0.1767578-4.9970703,0.427002-7.4453125,0.8015137l0.0214844,15.6347656 c-2.0419922,0.3771973-4.0556641,0.8310547-6.0371094,1.3674316l-6.7597656-14.0859375 c-2.3994141,0.7304688-4.7490234,1.5695801-7.0615234,2.4868164l3.4931641,15.2075195 c-1.9013672,0.8234863-3.7626953,1.720459-5.5800781,2.6904297l-9.7080078-12.2084961 c-2.1699219,1.2456055-4.2890625,2.5673828-6.3427734,3.980957l6.7939453,14.0578613 c-1.6650391,1.2224121-3.2705078,2.5168457-4.8291016,3.8669434l-12.1992188-9.7563477 C426.7666016,30.4799805,425,32.246582,423.3066406,34.0830078L433.0625,46.2822266 c-1.3496094,1.5578613-2.6445313,3.1643066-3.8662109,4.8286133l-14.0576172-6.7941895 c-1.4140625,2.0539551-2.7363281,4.1733398-3.9814453,6.3435059l12.2080078,9.7084961 c-0.9697266,1.8171387-1.8671875,3.6784668-2.6904297,5.579834l-15.2070313-3.4934082 c-0.8388672,2.114502-1.6025391,4.2661133-2.2871094,6.453125l-15.9472656,3.6630859 c-0.90625-2.090332-1.8925781-4.137207-2.9580078-6.1357422l13.4248047-10.6757813 c-1.3701172-2.3864746-2.8242188-4.7172852-4.3779297-6.9760742l-15.4589844,7.4714355 c-1.3447266-1.8303223-2.7675781-3.5966797-4.2519531-5.3098145l10.7285156-13.4150391 c-1.8623047-2.0195313-3.8046875-3.9621582-5.8242188-5.8244629l-13.4150391,10.7290039 c-1.7138672-1.4848633-3.4794922-2.9084473-5.3105469-4.2526855l7.4716797-15.4589844 c-2.2587891-1.5541992-4.5898438-3.0078125-6.9755859-4.3776855l-10.6757813,13.425293 c-1.9990234-1.0666504-4.0458984-2.0529785-6.1367188-2.9584961l3.8417969-16.7231445 c-2.5419922-1.0085449-5.1259766-1.9318848-7.765625-2.7348633l-7.4326172,15.4899902 c-2.1787109-0.5898438-4.3935547-1.0888672-6.6396484-1.5039063l0.0244141-17.1928711 c-2.6933594-0.4118652-5.4296875-0.6870117-8.1875-0.8815918l-3.7958984,16.734375 c-1.1289063-0.045166-2.2607422-0.0861816-3.4003906-0.0861816c-1.1416016,0-2.2714844,0.0410156-3.4013672,0.0861816 l-3.7949219-16.734375c-2.7587891,0.1945801-5.4951172,0.4694824-8.1875,0.8811035l0.0234375,17.1933594 c-2.2451172,0.4150391-4.4599609,0.9140625-6.6386719,1.5039063L280.6855469,9.354248 c-2.6386719,0.8029785-5.2226563,1.7258301-7.765625,2.7346191l3.8417969,16.7231445 c-2.0908203,0.9057617-4.1376953,1.8920898-6.1357422,2.9587402l-10.6757813-13.425293 c-2.3867188,1.369873-4.7177734,2.8232422-6.9765625,4.3776855l7.4716797,15.4589844 c-1.8300781,1.3442383-3.5966797,2.7675781-5.3095703,4.2524414l-13.4150391-10.7287598 c-2.0195313,1.8620605-3.9628906,3.8049316-5.824707,5.8244629L246.625,50.9453125 c-1.4853516,1.7131348-2.9082031,3.4794922-4.2519531,5.3098145l-15.4594727-7.4714355 c-1.5546875,2.2587891-3.0087891,4.5893555-4.378418,6.9758301l13.425293,10.6760254 c-1.0664063,1.9985352-2.0532227,4.0454102-2.9584961,6.1357422l-15.9453125-3.6625977 c-0.7695313-2.059082-1.6074219-4.0822754-2.5170898-6.0656738l-14.706543,4.1994629 c-0.9042969-1.8186035-1.8774414-3.5947266-2.9194336-5.3239746l11.4521484-10.1291504 c-1.3305664-2.0605469-2.7338867-4.0673828-4.2226563-6.0053711l-13.4121094,7.3713379 c-1.2817383-1.5661621-2.6308594-3.0725098-4.0327148-4.5280762l8.9243164-12.4418945 c-1.7514648-1.7106934-3.5717773-3.3491211-5.4560547-4.9128418l-11.440918,10.1762695 c-1.5942383-1.2419434-3.2333984-2.4267578-4.9248047-3.5378418l5.9291992-14.109375 c-2.0825195-1.277832-4.2255859-2.463623-6.4135742-3.5715332l-8.8764648,12.4484863 c-1.8291016-0.8562012-3.6967773-1.6386719-5.6005859-2.347168l2.6396484-15.0654297 c-2.3100586-0.7790527-4.6533203-1.4804688-7.0400391-2.0722656l-5.8935547,14.1350098 c-1.9672852-0.423584-3.9619141-0.7644043-5.9804688-1.0290527l-0.7807617-15.3051758 c-2.4160156-0.2412109-4.8642578-0.3583984-7.3295898-0.4030762l-2.597168,15.0734863 c-1.0078125,0.0124512-2.0161133,0.0285645-3.03125,0.0817871c-1.015625,0.0532227-2.0200195,0.142334-3.0234375,0.2353516 l-4.1586914-14.7192383c-2.4462891,0.302002-4.8696289,0.6740723-7.2470703,1.1662598l0.8227539,15.3032227 c-1.9790039,0.4743652-3.9272461,1.0217285-5.8398438,1.6484375l-7.3383789-13.4414063 c-2.3115234,0.8376465-4.5693359,1.7797852-6.7851563,2.7963867l4.199707,14.7067871 c-1.8188477,0.9035645-3.5952148,1.8771973-5.324707,2.9199219L84.0024414,24.7094727 c-2.0600586,1.3305664-4.0673828,2.7333984-6.0048828,4.2224121l7.3710938,13.4125977 c-1.5664063,1.2817383-3.0722656,2.6311035-4.527832,4.0327148l-12.4418945-8.9245605 c-1.7109375,1.751709-3.3496094,3.5717773-4.9125977,5.4560547l10.175293,11.4411621 c-1.2416992,1.5939941-2.4257813,3.2331543-3.5371094,4.9248047l-14.109375-5.9294434 c-1.2783203,2.0830078-2.4638672,4.2255859-3.5717773,6.4135742l12.4487305,8.8769531 c-0.855957,1.8288574-1.6391602,3.6967773-2.3476563,5.6000977l-15.0654297-2.6396484 c-0.7788086,2.3098145-1.4804688,4.6538086-2.0722656,7.0397949l14.1347656,5.894043 c-0.4228516,1.967041-0.7636719,3.9621582-1.0288086,5.9804688l-15.3051758,0.7805176 c-0.2412109,2.4162598-0.3579102,4.8647461-0.4023438,7.3295898l15.0727539,2.5974121 c0.0126953,1.0075684,0.0288086,2.0161133,0.0820313,3.0314941s0.1425781,2.0197754,0.2353516,3.0231934l-14.71875,4.1586914 c0.3012695,2.4465332,0.6733398,4.8693848,1.1660156,7.2473145l15.3032227-0.8232422 c0.4741211,1.9794922,1.0214844,3.9277344,1.6479492,5.840332l-13.4414063,7.338623 c0.8374023,2.3110352,1.7797852,4.5686035,2.7963867,6.7844238l14.7070313-4.1992188 c0.9033203,1.8186035,1.8774414,3.5947266,2.9199219,5.3237305l-11.4526367,10.1293945 c1.3305664,2.0603027,2.7329102,4.0673828,4.222168,6.0056152l13.4125977-7.3718262 c1.2822266,1.5666504,2.6308594,3.0727539,4.0327148,4.5283203l-8.9243164,12.4418945 c1.7514648,1.7109375,3.5717773,3.3493652,5.4560547,4.9125977l11.440918-10.1757813 c1.5942383,1.2416992,3.2329102,2.4267578,4.9248047,3.5373535l-5.9291992,14.1098633 c2.0825195,1.2780762,4.2250977,2.4631348,6.4135742,3.5712891l8.8764648-12.4484863 c1.8286133,0.8564453,3.6972656,1.6386719,5.6005859,2.347168l-2.6396484,15.0654297 c2.3100586,0.7792969,4.6538086,1.4804688,7.0400391,2.0722656l5.8935547-14.1347656 c1.9672852,0.4230957,3.9619141,0.763916,5.9799805,1.0288086l0.5625,11.0227051 c-1.4223633,0.8913574-2.8251953,1.810791-4.2060547,2.7609863l9.1616211,18.9575195 c-2.2441406,1.6484375-4.4101563,3.3937988-6.5112305,5.2145996l-16.4506836-13.1564941 c-2.4765625,2.2832031-4.8588867,4.6657715-7.1425781,7.142334l13.1567383,16.4504395 c-1.8208008,2.1010742-3.565918,4.267334-5.2143555,6.5114746l-18.9570313-9.1618652 c-1.90625,2.7700195-3.6894531,5.6279297-5.3691406,8.5544434l16.4633789,13.0917969 c-1.3076172,2.4509277-2.5170898,4.9609375-3.6279297,7.5244141L74.28125,244.7644043 c-1.2368164,3.1171875-2.3686523,6.2866211-3.3535156,9.5222168l18.9951172,9.1149902 c-0.7236328,2.6721191-1.3354492,5.3881836-1.8442383,8.1418457l-21.0839844-0.0290527 c-0.5048828,3.302002-0.8417969,6.6577148-1.0805664,10.0407715l20.5214844,4.6535645 c-0.0551758,1.3852539-0.105957,2.7717285-0.105957,4.1706543s0.0507813,2.7851563,0.105957,4.1704102l-20.5214844,4.6540527 c0.2387695,3.3825684,0.5756836,6.7380371,1.0805664,10.0402832l21.0839844-0.0292969 c0.5087891,2.7539063,1.1206055,5.4699707,1.8442383,8.1420898l-18.9951172,9.1152344 c0.9848633,3.2353516,2.1162109,6.404541,3.3535156,9.5219727l20.5073242-4.7106934 c1.1108398,2.5637207,2.3203125,5.0739746,3.6279297,7.5244141l-16.4633789,13.092041 c1.6796875,2.9262695,3.4624023,5.784668,5.3686523,8.5544434l18.9575195-9.1621094 c1.6484375,2.2443848,3.3935547,4.4106445,5.2143555,6.5114746l-13.1567383,16.4506836 c2.2836914,2.4765625,4.6660156,4.8591309,7.1425781,7.142334l16.4506836-13.1564941 c2.1010742,1.8208008,4.2670898,3.5664063,6.5112305,5.2143555l-9.1616211,18.9577637 c2.7700195,1.9060059,5.6279297,3.6884766,8.5541992,5.3684082l13.0917969-16.4633789 c2.4506836,1.3078613,4.9609375,2.5175781,7.5244141,3.6279297l-3.8852539,16.9160156l-0.1181641-0.4023438 c-3.6645508,0.4611816-7.2734375,1.0864258-10.8125,1.8845215l0.9243164,14.5007324 c-2.6118164,0.652832-5.1821289,1.402832-7.7021484,2.2563477l-7.0844727-12.6743164 c-3.4560547,1.2617188-6.8286133,2.6853027-10.1113281,4.2617188l4.1225586,13.9152832 c-2.3930664,1.2189941-4.7290039,2.5297852-7.0029297,3.9313965l-9.7167969-10.7700195 c-3.0776367,1.9975586-6.0493164,4.1386719-8.90625,6.4147949l7.1142578,12.6467285 c-2.0551758,1.7158203-4.0288086,3.5200195-5.9360352,5.3930664l-11.9033203-8.3608398 c-2.5517578,2.6235352-4.9750977,5.3696289-7.262207,8.2265625l9.7758789,10.7729492 c-1.621582,2.125-3.1669922,4.3081055-4.6137695,6.5600586l-13.4326172-5.4887695 c-1.9033203,3.1181641-3.6586914,6.331543-5.2597656,9.6337891l11.8950195,8.3046875 c-1.1083984,2.4301758-2.1196289,4.9108887-3.0317383,7.4372559l-14.3188477-2.3620605 c-1.1567383,3.4533691-2.1508789,6.9760742-2.9736328,10.5615234l13.456543,5.4550781 c-0.5341797,2.6074219-0.9589844,5.25-1.2827148,7.9230957l-14.5024414,0.8840332 c-0.3520508,3.6113281-0.5253906,7.269043-0.5268555,10.9626465l14.3300781,2.3239746 c0.0297852,1.3320313,0.0649414,2.6655273,0.1484375,4.0078125c0.0839844,1.3422852,0.2148438,2.6699219,0.3505859,3.9956055 l-13.9306641,4.0859375c0.4604492,3.6647949,1.0864258,7.2724609,1.8847656,10.8122559l14.4995117-0.9245605 c0.6533203,2.6120605,1.4033203,5.1816406,2.2573242,7.7023926l-12.6748047,7.0844727 c1.2617188,3.4558105,2.6855469,6.8271484,4.262207,10.1105957l13.9145508-4.1230469 c1.2192383,2.3937988,2.5307617,4.7297363,3.9321289,7.0031738l-10.7709961,9.7180176 c1.9985352,3.0776367,4.1386719,6.0478516,6.4155273,8.9060059l12.6469727-7.1147461 c1.715332,2.0549316,3.5200195,4.0290527,5.3930664,5.9360352l-8.3618164,11.9038086 c2.6240234,2.5507813,5.3701172,4.9743652,8.2275391,7.2609863l10.7724609-9.7749023 c2.125,1.6213379,4.3081055,3.166748,6.5600586,4.6142578l-5.4882813,13.432373 c3.1176758,1.9035645,6.3320313,3.6589355,9.6342773,5.2587891l8.3032227-11.8937988 c2.4306641,1.1083984,4.9111328,2.1188965,7.4375,3.03125l-2.3623047,14.3190918 c0.8422852,0.2819824,1.6894531,0.5539551,2.5405273,0.8166504l0.0063477,4.6948242 c-1.7011719,0.3144531-3.3793945,0.6923828-5.0302734,1.1394043l-5.6313477-11.7355957 c-1.9990234,0.6086426-3.9570313,1.3076172-5.8828125,2.0720215l2.9101563,12.6696777 c-1.5839844,0.6862793-3.1347656,1.4333496-4.6484375,2.2414551l-8.0883789-10.1711426 c-1.8081055,1.0378418-3.5737305,2.138916-5.2851563,3.3164063l5.6601563,11.7124023 c-1.3862305,1.0183105-2.7246094,2.0966797-4.0224609,3.2216797l-10.1635742-8.128418 c-1.5302734,1.4106445-3.0019531,2.8825684-4.4125977,4.4125977l8.1279297,10.1635742 c-1.1245117,1.2978516-2.2026367,2.6362305-3.2211914,4.0227051l-11.7119141-5.6604004 c-1.1777344,1.7114258-2.2792969,3.4770508-3.3173828,5.2851563l10.1713867,8.0883789 c-0.8076172,1.5141602-1.5551758,3.0649414-2.2412109,4.6486816l-12.6699219-2.9104004 c-0.7641602,1.9260254-1.4633789,3.8840332-2.0717773,5.8830566l11.7353516,5.6313477 c-0.4472656,1.6508789-0.8251953,3.3288574-1.1391602,5.0302734l-13.0258789-0.0180664 c-0.3120117,2.0402832-0.5205078,4.1132813-0.6679688,6.2033691l12.6787109,2.875 c-0.0341797,0.855957-0.0654297,1.7124023-0.0654297,2.5766602s0.03125,1.7207031,0.0654297,2.5766602l-12.6787109,2.8752441 c0.1474609,2.0898438,0.355957,4.1628418,0.6679688,6.203125l13.0258789-0.0180664 c0.3139648,1.701416,0.6918945,3.3793945,1.1391602,5.0302734l-11.7353516,5.6313477 c0.6083984,1.9987793,1.3076172,3.9567871,2.0717773,5.8830566l12.6699219-2.9104004 c0.6860352,1.5837402,1.4335938,3.1345215,2.2412109,4.6486816l-10.1713867,8.0883789 c1.0380859,1.8078613,2.1391602,3.5737305,3.3168945,5.2851563l11.7124023-5.6606445 c1.0185547,1.3867188,2.0966797,2.7250977,3.2211914,4.0229492l-8.1279297,10.1635742 c1.4106445,1.5300293,2.8823242,3.0019531,4.4125977,4.4125977l10.1635742-8.128418 c1.2978516,1.125,2.6362305,2.2033691,4.0224609,3.2216797l-5.6601563,11.7121582 c1.7114258,1.1777344,3.4770508,2.2790527,5.2851563,3.3166504l8.0883789-10.1711426 c1.5136719,0.8078613,3.0644531,1.5554199,4.6484375,2.2414551l-2.9101563,12.6699219 c1.9257813,0.7641602,3.8837891,1.4633789,5.8828125,2.0717773l5.6313477-11.7355957 c1.6508789,0.4467773,3.3291016,0.8249512,5.0302734,1.1394043l-0.0180664,13.0258789 c2.0400391,0.3120117,4.1132813,0.5202637,6.203125,0.6674805l2.8754883-12.6782227 c0.855957,0.0341797,1.7124023,0.0654297,2.5766602,0.0654297s1.7207031-0.03125,2.5761719-0.0654297l2.8754883,12.6782227 c2.0898438-0.1472168,4.1630859-0.3557129,6.203125-0.6677246l-0.0180664-13.0256348 c1.7016602-0.3146973,3.3793945-0.692627,5.0302734-1.1394043l5.6313477,11.7355957 c1.9990234-0.6083984,3.9570313-1.3081055,5.8833008-2.0720215l-2.9106445-12.6699219 c1.5839844-0.6862793,3.1347656-1.4333496,4.6489258-2.2412109l8.0878906,10.1711426 c1.8081055-1.0375977,3.5742188-2.1391602,5.2851563-3.3166504l-5.6601563-11.7121582 c1.3867188-1.0185547,2.7246094-2.0966797,4.0224609-3.2216797l10.1640625,8.128418 c1.5297852-1.4108887,3.0014648-2.8828125,4.4125977-4.4125977l-8.128418-10.1638184 c1.125-1.2976074,2.203125-2.6359863,3.2216797-4.0227051l11.7124023,5.6606445 c1.1772461-1.7114258,2.2788086-3.4775391,3.3164063-5.2851563l-10.1713867-8.0883789 c0.8081055-1.5141602,1.5551758-3.0649414,2.2416992-4.6486816l12.6694336,2.9104004 c0.7641602-1.9262695,1.4633789-3.8840332,2.0717773-5.8830566l-11.7353516-5.6315918 c0.4467773-1.6508789,0.824707-3.3286133,1.1391602-5.0300293l13.0263672,0.0180664 c0.3120117-2.0402832,0.5200195-4.1132813,0.6674805-6.203125l-12.6787109-2.8752441 c0.0341797-0.855957,0.0654297-1.7124023,0.0654297-2.5766602s-0.03125-1.7209473-0.0654297-2.5766602l12.6787109-2.8752441 c-0.1474609-2.0898438-0.3554688-4.1628418-0.6674805-6.203125l-13.0263672,0.0180664 c-0.3144531-1.7011719-0.6923828-3.3791504-1.1391602-5.0302734l11.7353516-5.6313477 c-0.6083984-1.9992676-1.3076172-3.9570313-2.0717773-5.8830566l-12.6694336,2.9104004 c-0.6865234-1.5837402-1.4335938-3.1345215-2.2416992-4.6486816l10.1713867-8.0881348 c-1.0375977-1.8083496-2.1396484-3.5739746-3.3168945-5.2854004l-11.7119141,5.6604004 c-1.0185547-1.3864746-2.0966797-2.7248535-3.2216797-4.0227051l8.128418-10.1635742 c-1.4111328-1.5300293-2.8828125-3.001709-4.4125977-4.4125977l-10.1640625,8.128418 c-1.2978516-1.1247559-2.6357422-2.2033691-4.0224609-3.2216797l5.6601563-11.7121582 c-0.4941406-0.3400879-1.0029297-0.6608887-1.5058594-0.9885254c1.6938477-0.3000488,3.3754883-0.6337891,5.0410156-1.0092773 l-0.9243164-14.5007324c2.6118164-0.6530762,5.1816406-1.4025879,7.7016602-2.2565918l7.0854492,12.6745605 c3.4550781-1.2614746,6.8276367-2.6853027,10.1113281-4.2619629l-4.1230469-13.9150391 c2.3935547-1.2192383,4.7290039-2.5297852,7.003418-3.9316406l9.7163086,10.7702637 c3.0786133-1.9980469,6.0488281-4.1386719,8.90625-6.4147949l-7.1142578-12.6464844 c2.0551758-1.7163086,4.0288086-3.520752,5.9360352-5.3935547l11.9038086,8.3613281 c2.5517578-2.6245117,4.9746094-5.369873,7.2607422-8.2268066l-2.0898438-2.3029785l11.5234375,4.5083008 c0.0664063,1.5380859,0.1923828,3.0847168,0.4023438,4.6401367c0.2099609,1.5551758,0.4980469,3.0800781,0.8408203,4.5805664 l-12.7255859,9.4980469c1.0175781,3.0473633,2.2480469,5.9831543,3.671875,8.7966309l15.6972656-2.3825684 c1.6767578,2.6357422,3.5869141,5.0959473,5.6962891,7.3596191l-5.5654297,12.9428711l-0.1123047-0.371582 c-2.6835938-0.0673828-5.3408203,0.064209-7.9570313,0.3823242l-2.5927734,13.0117188 c-2.5478516,0.5681152-5.0244141,1.3684082-7.4033203,2.3815918l-9.6708984-9.0720215 c-2.3364258,1.2756348-4.5756836,2.7177734-6.703125,4.3161621l4.2568359,12.5581055 c-1.90625,1.7463379-3.659668,3.6694336-5.230957,5.7543945l-12.918457-3.0229492 c-1.3720703,2.2497559-2.5913086,4.6140137-3.640625,7.0852051l9.9736328,8.7531738 c-0.3852539,1.2275391-0.7260742,2.4787598-1.003418,3.7602539c-0.277832,1.2817383-0.4848633,2.5620117-0.6425781,3.838623 l-12.7011719,3.842041c-0.0673828,2.684082,0.0644531,5.3408203,0.3823242,7.956543l13.0117188,2.5935059 c0.5678711,2.5483398,1.3681641,5.0244141,2.3813477,7.4030762l-9.0712891,9.6711426 c1.2749023,2.3354492,2.7172852,4.5751953,4.3154297,6.7026367l12.5585938-4.2570801 c1.7460938,1.9067383,3.6694336,3.659668,5.7543945,5.2312012l-2.3774414,10.1589355l0.0527344-3.1726074 c-1.5424805-0.5358887-3.1347656-0.9641113-4.769043-1.2753906l-3.9931641,7.1889648 c-0.7939453-0.0720215-1.5966797-0.114502-2.4091797-0.114502c-0.8129883,0-1.6157227,0.0424805-2.409668,0.114502 l-3.9931641-7.1889648c-1.6347656,0.3112793-3.2265625,0.739502-4.769043,1.2753906l0.1362305,8.2211914 c-1.4692383,0.6784668-2.8637695,1.4880371-4.1713867,2.4138184l-7.0483398-4.2260742 c-1.2470703,1.0791016-2.4145508,2.2460938-3.4931641,3.4934082l4.2255859,7.0478516 c-0.9257813,1.3078613-1.7353516,2.7026367-2.4135742,4.1716309l-8.2211914-0.1359863 c-0.5356445,1.5424805-0.9638672,3.1345215-1.2753906,4.769043l7.1889648,3.9934082 c-0.0722656,0.7939453-0.1147461,1.5964355-0.1147461,2.4091797s0.0424805,1.6152344,0.1147461,2.4091797l-7.1889648,3.9934082 c0.3115234,1.6345215,0.7397461,3.2263184,1.2753906,4.769043l8.2211914-0.1362305 c0.6782227,1.4689941,1.487793,2.8637695,2.4135742,4.1716309l-4.2255859,7.0478516 c1.0786133,1.2473145,2.2460938,2.4147949,3.4931641,3.4936523l7.0483398-4.2260742 c1.3076172,0.9257813,2.7021484,1.7353516,4.1713867,2.4135742l-0.1362305,8.2211914 c1.5424805,0.5361328,3.1342773,0.9643555,4.769043,1.2756348l3.9931641-7.1889648 c0.7939453,0.0720215,1.5966797,0.114502,2.409668,0.114502c0.8125,0,1.6152344-0.0424805,2.4091797-0.114502l3.9931641,7.1889648 c1.6342773-0.3112793,3.2265625-0.7397461,4.769043-1.2756348l-0.1362305-8.2211914 c1.4697266-0.6782227,2.8642578-1.487793,4.171875-2.4135742l7.0478516,4.2260742 c1.2470703-1.0788574,2.4150391-2.2463379,3.4931641-3.4936523l-4.2255859-7.0478516 c0.9257813-1.3078613,1.7353516-2.7026367,2.4140625-4.1716309l8.2207031,0.1362305 c0.5361328-1.5427246,0.9648438-3.1345215,1.2753906-4.769043l-7.1884766-3.9934082 c0.0722656-0.7939453,0.1142578-1.5964355,0.1142578-2.4091797s-0.0419922-1.6154785-0.1142578-2.4091797l7.1884766-3.9934082 c-0.3105469-1.6345215-0.7392578-3.2265625-1.2753906-4.769043l-8.2207031,0.1359863 c-0.6787109-1.4689941-1.4882813-2.8635254-2.4140625-4.1716309l4.2255859-7.0478516 c-1.078125-1.2473145-2.2460938-2.4143066-3.4931641-3.4934082l-4.0527344,2.4301758l8.109375-9.2397461 c1.2275391,0.3847656,2.4794922,0.7255859,3.7607422,1.0031738s2.5615234,0.4851074,3.8388672,0.6425781l3.8417969,12.7011719 c2.6835938,0.0673828,5.3408203-0.0644531,7.9560547-0.3825684l2.59375-13.0114746 c2.5478516-0.5681152,5.0244141-1.3684082,7.4033203-2.3815918l9.6708984,9.0717773 c2.3359375-1.2753906,4.5751953-2.7177734,6.703125-4.3161621l-4.2578125-12.5581055 c1.9072266-1.7463379,3.6601563-3.6691895,5.2314453-5.7541504l12.9189453,3.0227051 c1.3710938-2.2497559,2.5908203-4.6140137,3.6396484-7.0852051l-9.9726563-8.7529297 c0.3847656-1.2275391,0.7255859-2.4787598,1.0029297-3.760498c0.2783203-1.2814941,0.4853516-2.5617676,0.6425781-3.838623 l12.7011719-3.842041c0.0673828-2.6838379-0.0644531-5.3408203-0.3818359-7.9562988l-13.0117188-2.5935059 c-0.5683594-2.5483398-1.3691406-5.0244141-2.3818359-7.4030762l9.0712891-9.6713867 c-1.2753906-2.3354492-2.7177734-4.5749512-4.3154297-6.7026367l-12.5585938,4.2573242 c-1.7460938-1.9067383-3.6689453-3.659668-5.7539063-5.2312012l3.0224609-12.918457 c-2.25-1.3720703-4.6132813-2.5910645-7.0849609-3.6403809l-8.7529297,9.9731445 c-1.2275391-0.3847656-2.4785156-0.7255859-3.7607422-1.0031738c-1.28125-0.2775879-2.5615234-0.4848633-3.8378906-0.6425781 l-2.8203125-9.3203125c1.9082031,1.5793457,3.9003906,3.0534668,5.9746094,4.409668l12.3964844-9.9069824 c2.7412109,1.434082,5.6191406,2.6230469,8.6054688,3.5422363l1.8623047,15.7675781 c3.0898438,0.6271973,6.2470703,1.0358887,9.4550781,1.2094727l5.7861328-14.7878418 c1.5380859-0.0673828,3.0849609-0.1933594,4.6396484-0.4033203c1.5556641-0.2097168,3.0800781-0.4980469,4.5810547-0.8408203 l9.4980469,12.7260742c3.046875-1.0175781,5.9833984-2.248291,8.796875-3.671875l-2.3828125-15.6972656 c2.6357422-1.6772461,5.0957031-3.5866699,7.359375-5.6958008l14.578125,6.2675781 c2.1083984-2.3867188,4.0410156-4.9221191,5.7841797-7.5874023l-9.9072266-12.3959961 c1.4335938-2.7416992,2.6230469-5.619873,3.5419922-8.605957l15.7675781-1.8623047 c0.6269531-3.0900879,1.0361328-6.2470703,1.2089844-9.4550781l-14.7871094-5.7861328 c-0.0673828-1.5378418-0.1933594-3.0847168-0.4033203-4.6398926c-0.2099609-1.5554199-0.4980469-3.0803223-0.8408203-4.5810547 l12.7255859-9.4975586c-1.0166016-3.0476074-2.2480469-5.9833984-3.6708984-8.7971191l-15.6982422,2.3830566 c-1.6767578-2.6359863-3.5859375-5.0959473-5.6953125-7.3598633l6.2675781-14.578125 c-2.3867188-2.1081543-4.921875-4.0405273-7.5878906-5.7834473l-12.3955078,9.9067383 c-2.7421875-1.434082-5.6201172-2.6230469-8.6064453-3.5419922l-1.8613281-15.7675781 c-2.7617188-0.5605469-5.5791016-0.935791-8.4355469-1.135498l2.71875-4.269043 c3.2480469,0.987793,6.5820313,1.7475586,9.9863281,2.2661133l2.0517578,16.9074707 c2.9667969,0.2944336,5.9677734,0.4387207,8.9980469,0.4277344l3.6865234-16.6328125 c1.6923828-0.0939941,3.390625-0.2258301,5.0996094-0.4418945c1.7070313-0.2163086,3.3847656-0.5114746,5.0478516-0.8422852 l7.7128906,15.190918c2.9375-0.7441406,5.8085938-1.6315918,8.6083984-2.6555176l-2.2246094-16.885498 c3.1679688-1.3500977,6.2080078-2.9162598,9.1074219-4.6816406l12.4384766,11.6328125 c2.4882813-1.6992188,4.8808594-3.5183105,7.1699219-5.4526367l-7.8662109-15.1088867 c2.4941406-2.3388672,4.8134766-4.8496094,6.9462891-7.512207l15.6708984,6.6789551 c1.7539063-2.4372559,3.390625-4.9589844,4.8896484-7.5661621l-12.5537109-11.5014648 c1.5439453-3.0373535,2.8730469-6.1936035,3.9755859-9.4448242l17.0224609,0.9169922 c0.8105469-2.8742676,1.4697266-5.8039551,1.9853516-8.776123l-15.7470703-6.5214844 c0.4023438-3.3579102,0.5791016-6.7746582,0.4960938-10.2341309l16.2949219-4.9558105 c-0.1132813-1.4890137-0.2626953-2.9829102-0.4521484-4.4807129c-0.1894531-1.4980469-0.4169922-2.9821777-0.6777344-4.4521484 l-17.0166016-0.7416992c-0.7802734-3.3713379-1.8027344-6.6359863-3.0292969-9.7880859l13.6269531-10.237793 c-1.2392578-2.75-2.6074219-5.4233398-4.1083984-8.0048828l-16.2578125,5.1274414 c-1.8779297-2.8742676-3.9501953-5.6000977-6.2021484-8.1574707l9.2939453-14.2653809 c-2.1015625-2.1516113-4.3144531-4.1860352-6.6201172-6.1098633l-3.2314453,2.4804688l5.59375-15.6181641 c1.8095703,0.1276855,3.6308594,0.2158203,5.4736328,0.2158203c1.8417969,0,3.6630859-0.0878906,5.4736328-0.2158203 l6.1484375,17.1652832c3.21875-0.3952637,6.3867188-0.9521484,9.4960938-1.6633301l-0.0927734-18.2270508 c3.5449219-1.0080566,6.9824219-2.2626953,10.2978516-3.7475586l11.6455078,14.0227051 c2.8701172-1.4702148,5.6533203-3.0803223,8.3447266-4.826416l-6.3232422-17.098877 c2.9628906-2.1484375,5.7626953-4.5024414,8.3847656-7.0429688l15.7421875,9.1965332 c2.1884766-2.3522949,4.265625-4.8098145,6.2080078-7.3764648l-11.7841797-13.8981934 c2.0478516-3.0178223,3.8818359-6.1906738,5.4892578-9.4943848l17.9511719,3.2602539 c1.2460938-2.9428711,2.3398438-5.9650879,3.2871094-9.0515137l-15.84375-9.0395508 c0.8789063-3.5114746,1.5253906-7.1149902,1.9013672-10.7995605l17.9667969-3.0732422 c0.0800781-1.5957031,0.1220703-3.2021484,0.1220703-4.8181152s-0.0419922-3.222168-0.1220703-4.8181152l-17.9667969-3.0732422 c-0.3759766-3.6843262-1.0224609-7.2880859-1.9013672-10.7995605l15.84375-9.0395508 c-0.0507813-0.1633301-0.1054688-0.324707-0.15625-0.487793c1.5039063,0.7004395,3.0585938,1.3007813,4.6572266,1.7929688 l1.3349609,11.3017578c2.2148438,0.4494629,4.4785156,0.7424316,6.7773438,0.8666992l4.1474609-10.5993652 c1.1025391-0.0483398,2.2109375-0.1386719,3.3251953-0.2890625c1.1152344-0.1503906,2.2080078-0.3569336,3.2841797-0.6025391 l6.8076172,9.121582c2.1835938-0.7294922,4.2880859-1.6115723,6.3046875-2.6318359l-1.7070313-11.2514648 c1.8886719-1.2021484,3.6523438-2.5708008,5.2744141-4.0825195l10.4492188,4.4924316 c1.5117188-1.7106934,2.8964844-3.5280762,4.1455078-5.4384766l-7.1005859-8.8850098 c0.7275391-1.3908691,1.3623047-2.8330078,1.9072266-4.3146973c0.8730469,1.5402832,1.78125,3.0598145,2.7587891,4.5344238 l10.8652344-4.1506348c2.0449219,2.8293457,4.3300781,5.4816895,6.8173828,7.9433594l-5.7626953,10.1123047 c1.8671875,1.7028809,3.8242188,3.3122559,5.8662109,4.8237305l8.7851563-7.6120605 c2.8720703,1.9545898,5.921875,3.682373,9.1298828,5.1540527l-1.9521484,11.4470215 c2.3261719,0.9521484,4.7167969,1.7919922,7.1679688,2.5129395l5.6464844-10.1467285 c1.6845703,0.4238281,3.390625,0.7988281,5.1347656,1.0869141c1.7421875,0.2880859,3.4775391,0.4819336,5.2070313,0.6230469 l2.0800781,11.4233398c2.5527344,0.1062012,5.0869141,0.0805664,7.5957031-0.0727539l1.8349609-11.465332 c3.5117188-0.3608398,6.9550781-1.0153809,10.3037109-1.9418945l5.8671875,10.0334473 c2.4199219-0.7741699,4.7910156-1.6679688,7.1074219-2.6794434l-2.2021484-11.4282227 c3.1464844-1.5305176,6.1640625-3.3066406,9.0107422-5.3273926l8.9511719,7.4257813 c2.0039063-1.5471191,3.9335938-3.1906738,5.7734375-4.9362793l-5.9804688-9.9882813 c2.4306641-2.496582,4.6640625-5.1958008,6.6650391-8.0839844l10.9628906,3.9206543 c1.3466797-2.1274414,2.5849609-4.3359375,3.7177734-6.6135254l-9.0214844-7.3291016 c1.4169922-3.1557617,2.5791016-6.4633789,3.4726563-9.8989258l11.6210938-0.0651855 c0.2675781-1.2302246,0.5068359-2.4733887,0.7138672-3.7294922c0.2080078-1.2561035,0.3818359-2.5100098,0.5244141-3.7609863 l-10.9814453-3.8010254c0.2597656-3.5405273,0.2226563-7.0466309-0.1025391-10.4902344l10.8994141-4.0361328 c-0.3398438-2.520752-0.8017578-5.010498-1.3916016-7.458252l-11.640625,0.1845703 c-0.9648438-3.3789063-2.2109375-6.6533203-3.7089844-9.7993164l8.875-7.5322266 c-1.1796875-2.2446289-2.4775391-4.421875-3.8769531-6.5314941l-10.8642578,4.1501465 c-2.0449219-2.8295898-4.3310547-5.4819336-6.8183594-7.9438477l5.7626953-10.1113281 c-1.8671875-1.703125-3.8242188-3.3122559-5.8662109-4.8239746l-6.7128906,5.8164063l7.9746094-14.3562012 c1.5966797,0.1445313,3.2089844,0.2297363,4.8427734,0.2297363s3.2470703-0.0852051,4.84375-0.2297363l8.0263672,14.4506836 c3.2861328-0.6257324,6.4853516-1.4865723,9.5869141-2.5637207l-0.2734375-16.5256348 c2.9521484-1.3637695,5.7558594-2.9909668,8.3847656-4.8520508l14.1669922,8.4951172 c2.5078125-2.1689453,4.8544922-4.515625,7.0234375-7.0229492l-8.4951172-14.1669922 c1.8603516-2.6289063,3.4882813-5.4326172,4.8515625-8.3852539l16.5253906,0.2734375 c1.0771484-3.1008301,1.9384766-6.3010254,2.5634766-9.5864258l-14.4501953-8.0270996 C707.7089844,85.8041992,707.7949219,84.190918,707.7949219,82.5571289z M224.152832,773.2131348 c-7.2910156,0-13.2006836-5.9104004-13.2006836-13.2009277s5.909668-13.2009277,13.2006836-13.2009277 s13.2006836,5.9104004,13.2006836,13.2009277S231.4438477,773.2131348,224.152832,773.2131348z M239.3603516,738.4897461 c-1.3076172-0.9257813-2.7021484-1.7353516-4.171875-2.4138184l0.0322266-1.9411621 c1.9697266,1.1674805,4.0234375,2.220459,6.1591797,3.144043L239.3603516,738.4897461z M250.9814453,719.5551758 c-14.4082031-5.3815918-23.6206055-19.6889648-22.5585938-35.0317383l19.1357422,4.1442871 c0.5556641,4.8652344,3.3681641,9.2329102,7.5673828,11.7521973L250.9814453,719.5551758z M260.8613281,721.6950684 l4.1445313-19.1350098c4.8652344-0.5561523,9.2333984-3.3688965,11.7519531-7.5681152l19.1357422,4.1445313 C290.5126953,713.5444336,276.2050781,722.7573242,260.8613281,721.6950684z M275.4746094,654.2246094 c14.4082031,5.3813477,23.6210938,19.6884766,22.5595703,35.0314941l-19.1357422-4.1445313 c-0.5566406-4.8649902-3.3691406-9.232666-7.5673828-11.7519531L275.4746094,654.2246094z M270.8818359,688.5473633 c-0.9140625,4.2202148-5.0917969,6.9101563-9.3115234,5.9960938c-4.2197266-0.9138184-6.9101563-5.0910645-5.9960938-9.3115234 c0.9140625-4.2202148,5.0917969-6.9099121,9.3115234-5.9958496S271.7958984,684.3271484,270.8818359,688.5473633z M265.5947266,652.0844727l-4.1445313,19.1352539c-4.8652344,0.5561523-9.2324219,3.3684082-11.7519531,7.567627 l-19.1352539-4.1442871C235.9443359,660.2355957,250.2509766,651.0224609,265.5947266,652.0844727z M630.5273438,53.6132813 c2.5703125,0,4.6621094,2.0908203,4.6621094,4.6611328c0,2.5700684-2.0917969,4.6608887-4.6621094,4.6608887 s-4.6601563-2.0908203-4.6601563-4.6608887C625.8671875,55.7041016,627.9570313,53.6132813,630.5273438,53.6132813z M616.4785156,82.557373c0-5.5002441,4.4746094-9.9753418,9.9746094-9.9753418 c5.5009766,0,9.9755859,4.4750977,9.9755859,9.9753418s-4.4746094,9.9750977-9.9755859,9.9750977 C620.953125,92.5324707,616.4785156,88.0576172,616.4785156,82.557373z M641.8955078,149.7519531l-1.9736328,1.7102051 c-2.1474609-1.4611816-4.3945313-2.7956543-6.7324219-3.9909668 C636.015625,148.4123535,638.9179688,149.1831055,641.8955078,149.7519531z M630.5273438,111.5009766 c-2.5703125,0-4.6601563-2.0908203-4.6601563-4.6608887s2.0898438-4.6611328,4.6601563-4.6611328 s4.6621094,2.0910645,4.6621094,4.6611328S633.0976563,111.5009766,630.5273438,111.5009766z M632.5390625,136.0610352 l-0.1826172,11.0056152c-0.5195313-0.2561035-1.0371094-0.5158691-1.5654297-0.7583008L632.5390625,136.0610352z M608.0087891,151.0424805l-3.4101563,20.6286621c-7.9853516-0.0275879-15.4980469,2.9470215-21.2470703,8.0041504 l-16.1474609-13.2573242C577.6943359,155.9443359,592.4355469,149.9941406,608.0087891,151.0424805z M490.8007813,159.4016113 c-21.0810547,0-39.7802734-10.3898926-51.25-26.315918l35.6201172-20.5649414 c9.6728516-5.5849609,21.5908203-5.5849609,31.2646484,0l35.6171875,20.5632324 C530.5820313,149.0109863,511.8828125,159.4016113,490.8007813,159.4016113z M497.0507813,33.4697266 c31.8818359,3.1484375,56.8720703,30.1171875,56.8720703,62.8127441c0,9.2609863-2.0048828,18.0617676-5.6035156,25.9924316 l-35.6357422-20.574707c-9.6738281-5.5849609-15.6328125-15.9067383-15.6328125-27.0766602V33.4697266z M490.8007813,90.3540039 c3.2734375,0,5.9277344,2.6535645,5.9277344,5.9272461c0,3.2731934-2.6542969,5.927002-5.9277344,5.927002 s-5.9277344-2.6538086-5.9277344-5.927002C484.8730469,93.0075684,487.5273438,90.3540039,490.8007813,90.3540039z M484.5556641,33.4689941V74.623291c0,11.170166-5.9589844,21.4919434-15.6328125,27.0769043l-35.6396484,20.5766602 c-3.5986328-7.9313965-5.6044922-16.7329102-5.6044922-25.9943848 C427.6787109,63.5854492,452.671875,36.6154785,484.5556641,33.4689941z M406.6914063,76.4951172 c-0.6435547-2.1137695-1.3808594-4.1845703-2.1601563-6.2348633l12.5351563,6.0153809 c-0.5361328,1.9812012-0.9902344,3.9956055-1.3671875,6.0375977l-15.6347656-0.0217285 c-0.375,2.4489746-0.625,4.9375-0.8017578,7.4458008l3.5996094,0.8164063l-10.1572266,0.013916 c-0.4150391-2.2453613-0.9140625-4.4604492-1.5039063-6.6394043L406.6914063,76.4951172z M394.0449219,109.3286133 c0.0449219-1.1296387,0.0859375-2.2602539,0.0859375-3.4008789s-0.0410156-2.2717285-0.0859375-3.401123l16.734375-3.795166 c-0.1542969-2.197998-0.3828125-4.375-0.6689453-6.5341797l4.3701172,0.9912109 c-0.0410156,1.0270996-0.078125,2.0554199-0.078125,3.0927734c0,1.0371094,0.0371094,2.0654297,0.078125,3.0925293 l-15.2177734,3.4511719c0.1767578,2.5085449,0.4267578,4.9968262,0.8017578,7.4455566l15.6347656-0.0217285 c0.3769531,2.0419922,0.8310547,4.0561523,1.3671875,6.0378418l-6.9511719,3.3354492 c0.2832031-2.1474609,0.5097656-4.3125,0.6640625-6.4985352L394.0449219,109.3286133z M340.5507813,123.9382324 c1.6904297-2.845459,2.9980469-5.9436035,3.8398438-9.2280273l37.390625-2.2744141 c-1.3486328,14.9643555-7.2861328,28.621582-16.4042969,39.545166L340.5507813,123.9382324z M356.171875,161.1872559 c-10.9238281,9.1193848-24.5810547,15.057373-39.5458984,16.4050293l2.2744141-37.3930664 c3.2841797-0.8417969,6.3818359-2.1494141,9.2275391-3.8393555L356.171875,161.1872559z M365.3769531,59.875 c9.1171875,10.9238281,15.0546875,24.5805664,16.4033203,39.5444336l-37.3896484-2.2744141 c-0.8427734-3.2841797-2.1503906-6.3820801-3.8408203-9.2272949L365.3769531,59.875z M356.1708984,50.668457 l-28.0439453,24.8271484c-2.8447266-1.6899414-5.9423828-2.9975586-9.2265625-3.8393555l-2.2744141-37.3933105 C331.5898438,35.6108398,345.2470703,41.5490723,356.1708984,50.668457z M310.1171875,82.5571289 c12.8857422,0,23.3720703,10.4841309,23.3720703,23.3718262c0,12.8847656-10.4863281,23.3691406-23.3720703,23.3691406 c-12.8837891,0-23.3710938-10.484375-23.3710938-23.3691406C286.7460938,93.0412598,297.2333984,82.5571289,310.1171875,82.5571289 z M184.0844727,403.4165039l-2.7114258,6.6865234l3.8115234-16.8041992 c1.3847656,0.0551758,2.7709961,0.1054688,4.1699219,0.1054688s2.7856445-0.050293,4.1704102-0.1054688l4.6542969,20.5209961 c3.0742188-0.2165527,6.1240234-0.5219727,9.1337891-0.9538574l-7.5913086,10.8737793 c-2.4306641-1.1083984-4.9111328-2.1184082-7.4375-3.0310059l2.362793-14.3195801 C191.1928711,405.232666,187.6694336,404.2390137,184.0844727,403.4165039z M202.6513672,288.5537109l21.394043-6.9509277 c0.5439453,2.4714355,0.8393555,5.0361328,0.8393555,7.6711426c0,10.5847168-4.6337891,20.0825195-11.9770508,26.5915527 l-13.2143555-18.1875c1.8696289-2.2954102,2.9946289-5.2199707,2.9946289-8.4042969 C202.6879883,289.0307617,202.6645508,288.793457,202.6513672,288.5537109z M200.5385742,282.0395508 c-1.7768555-2.7373047-4.527832-4.7753906-7.7597656-5.6364746v-22.4919434 c13.0947266,1.2524414,24.1098633,9.6120605,29.1533203,21.1774902L200.5385742,282.0395508z M195.8388672,289.2736816 c0,3.5754395-2.9091797,6.484375-6.4848633,6.484375c-3.5751953,0-6.4838867-2.9089355-6.4838867-6.484375 s2.9086914-6.4838867,6.4838867-6.4838867C192.9296875,282.7897949,195.8388672,285.6982422,195.8388672,289.2736816z M185.9296875,276.4030762c-3.2314453,0.861084-5.9824219,2.8991699-7.7587891,5.6362305l-21.3935547-6.9509277 c5.0429688-11.5651855,16.0581055-19.9243164,29.1523438-21.1772461V276.4030762z M176.0576172,288.5541992 c-0.0126953,0.2397461-0.0361328,0.4768066-0.0361328,0.7194824c0,3.1843262,1.125,6.1083984,2.9936523,8.4038086 l-13.2138672,18.1879883c-7.3432617-6.5090332-11.9770508-16.0068359-11.9770508-26.5915527 c0-2.6350098,0.2954102-5.1994629,0.8398438-7.6708984L176.0576172,288.5541992z M184.559082,301.7004395 c1.4907227,0.5771484,3.1035156,0.9064941,4.7949219,0.9064941c1.6918945,0,3.3051758-0.3291016,4.7954102-0.9064941 l13.2197266,18.1950684c-5.2827148,3.1149902-11.4379883,4.9086914-18.0146484,4.9086914 s-12.7314453-1.7937012-18.0146484-4.9086914L184.559082,301.7004395z M198.6850586,449.7858887 c2.7202148-5.4836426,9.887207-7.1328125,14.6416016-3.2741699c13.4960938,10.9528809,23.6918945,25.8974609,28.7016602,43.1643066 c1.7158203,5.8972168-2.5673828,11.8945313-8.6953125,12.2766113l-45.9365234,2.8642578 c-7.3671875,0.4592285-12.4702148-7.2319336-9.1845703-13.8408203L198.6850586,449.7858887z M195.7138672,376.3579102v-40.2851563 c0.9599609-0.1306152,1.9145508-0.2783203,2.8569336-0.4697266l3,7.0581055 c1.5332031-0.3583984,3.0400391-0.7915039,4.5244141-1.2797852l-1.1030273-7.5795898 c1.703125-0.6147461,3.3637695-1.3244629,4.9731445-2.1289063l4.7133789,6.0263672 c1.3847656-0.7421875,2.7368164-1.5395508,4.0493164-2.3977051l-3.0263672-7.0334473 c1.480957-1.0300293,2.9003906-2.1450195,4.2514648-3.340332l6.1176758,4.6049805 c1.1445313-1.0715332,2.2392578-2.1965332,3.2880859-3.3666992l-4.7397461-6.0058594 c1.1625977-1.3728027,2.2456055-2.8181152,3.2456055-4.3276367l7.1035156,2.8659668 c0.8256836-1.326416,1.6030273-2.6884766,2.3139648-4.0932617l-6.1474609-4.5856934 c0.7636719-1.6228027,1.4477539-3.293457,2.0229492-5.0209961l7.5834961,0.9277344 c0.4501953-1.4919434,0.8398438-3.0117188,1.1621094-4.5605469l-7.1074219-2.8312988 c0.105957-0.5925293,0.1875-1.1950684,0.2729492-1.7956543h40.2651367 C272.2285156,339.2907715,238.265625,373.2531738,195.7138672,376.3579102z M235.0751953,284.0195313 c-0.1308594-0.9680176-0.2797852-1.9309082-0.4731445-2.8806152l7.059082-3.0002441 c-0.3583984-1.5332031-0.7919922-3.0400391-1.2802734-4.5241699l-7.5795898,1.1027832 c-0.6147461-1.703125-1.3242188-3.3635254-2.1289063-4.9729004l6.0268555-4.7133789 c-0.7426758-1.3847656-1.5400391-2.7373047-2.3979492-4.0495605l-7.0341797,3.0266113 c-1.0292969-1.480957-2.1445313-2.9003906-3.3398438-4.251709l4.6049805-6.1171875 c-1.0712891-1.1450195-2.1967773-2.2397461-3.3666992-3.2885742l-6.0053711,4.7397461 c-1.3730469-1.1628418-2.8188477-2.2451172-4.328125-3.2453613l2.8662109-7.1035156 c-1.3266602-0.8254395-2.6884766-1.6030273-4.0932617-2.3139648l-4.5854492,6.1472168 c-1.6225586-0.7636719-3.2939453-1.4472656-5.0214844-2.0229492l0.9272461-7.5830078 c-1.4912109-0.4504395-3.0112305-0.8398438-4.5600586-1.1623535l-2.8310547,7.1071777 c-0.6010742-0.107666-1.2114258-0.1899414-1.8203125-0.2768555v-40.2363281 c42.5517578,3.1049805,76.5146484,37.0673828,79.6201172,79.6191406H235.0751953z M250.2675781,207.3037109l7.3447266-15.1953125 c0.7753906,0.4716797,1.5488281,0.9484863,2.3378906,1.4013672l10.6757813-13.425293 c1.9980469,1.0666504,4.0449219,2.0529785,6.1357422,2.9584961l-3.796875,16.5314941l-16.1855469,12.9440918 C254.6787109,210.6977539,252.5126953,208.9521484,250.2675781,207.3037109z M264.0654297,161.185791l28.0419922-24.8259277 c2.8457031,1.6899414,5.9433594,2.9975586,9.2275391,3.8393555l2.2744141,37.3925781 C288.6464844,176.2429199,274.9892578,170.3046875,264.0654297,161.185791z M303.609375,34.2634277L301.3349609,71.65625 c-3.2841797,0.8417969-6.3818359,2.1494141-9.2265625,3.8393555l-28.0419922-24.8256836 C274.9902344,41.5507813,288.6464844,35.6123047,303.609375,34.2634277z M254.8603516,59.8764648l24.8251953,28.0412598 c-1.6904297,2.8452148-2.9980469,5.9431152-3.8398438,9.2272949l-37.390625,2.2744141 C239.8037109,84.4562988,245.7412109,70.7998047,254.8603516,59.8764648z M275.8447266,114.7102051 c0.8417969,3.2844238,2.1494141,6.3825684,3.8398438,9.2280273l-24.8251953,28.0412598 c-9.1191406-10.9233398-15.0566406-24.5800781-16.4042969-39.5437012L275.8447266,114.7102051z M215.5825195,70.5849609 c-0.7329102,1.9453125-1.4291992,3.907959-2.0385742,5.9101563l15.4897461,7.4331055 c-0.5898438,2.1789551-1.0883789,4.3937988-1.5039063,6.6394043l-10.1992188-0.0141602l4.6821289-1.3227539 c-0.3022461-2.4465332-0.6743164-4.8693848-1.1665039-7.2473145l-15.3037109,0.8232422 c-0.4736328-1.9794922-1.0209961-3.9279785-1.6484375-5.8400879L215.5825195,70.5849609z M226.1904297,109.3286133 l-16.734375,3.7949219c0.1098633,1.5595703,0.2553711,3.1086426,0.4272461,4.6499023l-3.9370117-1.6416016 c0.4238281-1.9672852,0.7646484-3.9619141,1.0288086-5.9799805l15.3061523-0.7807617 c0.2412109-2.4160156,0.3579102-4.8647461,0.402832-7.3293457l-15.0732422-2.5979004 c-0.0126953-1.0073242-0.0288086-2.015625-0.0820313-3.03125c-0.0532227-1.0151367-0.1425781-2.0200195-0.2353516-3.0234375 l2.7792969-0.7851563c-0.2587891,2.0266113-0.4716797,4.0673828-0.6166992,6.1276855l16.734375,3.795166 c-0.0449219,1.1293945-0.0864258,2.2602539-0.0864258,3.4008789S226.1455078,108.1989746,226.1904297,109.3286133z M209.4741211,147.3168945c1.2773438-2.0830078,2.4633789-4.2255859,3.5712891-6.4138184l-12.4482422-8.8769531 c0.855957-1.8288574,1.6381836-3.6967773,2.347168-5.5998535l15.0649414,2.6394043 c0.7792969-2.3100586,1.4799805-4.6533203,2.0722656-7.0397949l-1.7407227-0.7255859l9.1889648-0.0126953 c0.4155273,2.2456055,0.9140625,4.4604492,1.5039063,6.6396484l-15.4897461,7.4326172 c0.8032227,2.6386719,1.7260742,5.2229004,2.7348633,7.7651367l16.7231445-3.8413086 c0.9052734,2.0905762,1.8920898,4.1374512,2.9584961,6.1359863l-13.425293,10.6760254 c1.3696289,2.3862305,2.8232422,4.717041,4.3774414,6.9755859l15.4604492-7.4711914 c1.34375,1.8303223,2.7666016,3.5966797,4.2519531,5.3098145l-10.7290039,13.4150391 c1.8618164,2.0197754,3.8051758,3.9624023,5.824707,5.8244629l13.4150391-10.7287598 c1.7128906,1.4846191,3.4794922,2.9082031,5.3095703,4.2521973l-5.6367188,11.6630859 c-1.296875-0.8061523-2.6054688-1.5961914-3.9326172-2.3579102l-13.0917969,16.4631348 c-2.4511719-1.3078613-4.9614258-2.5170898-7.5253906-3.6276855l4.7114258-20.5075684 c-3.1176758-1.2368164-6.2871094-2.3688965-9.5224609-3.3537598l-9.1152344,18.9951172 c-2.6723633-0.7233887-5.3881836-1.3349609-8.1420898-1.8442383l0.0292969-21.0834961 c-3.3022461-0.5048828-6.6577148-0.8422852-10.0405273-1.0810547l-4.6542969,20.5214844 c-1.3847656-0.0554199-2.7714844-0.1054688-4.1704102-0.1054688s-2.7851563,0.0500488-4.1699219,0.1054688l-2.7543945-12.1430664 c1.7270508-1.1437988,3.4233398-2.3286133,5.0610352-3.5869141l-7.3710938-13.4125977 c1.565918-1.2817383,3.0722656-2.6313477,4.527832-4.0327148l12.4418945,8.9248047 c1.7109375-1.7519531,3.3496094-3.5717773,4.9130859-5.4562988l-10.1762695-11.4411621 c1.2421875-1.5939941,2.4267578-3.2329102,3.5375977-4.9248047L209.4741211,147.3168945z M194.5332031,97.0952148 c0.4750977,9.0649414-1.0366211,17.782959-4.1523438,25.7304688l-24.7329102-12.6025391 c0.2602539-0.8630371,0.4985352-1.7380371,0.6918945-2.6347656c0.2236328-1.0356445,0.390625-2.0703125,0.5175781-3.1022949 l10.262207-3.1101074c0.0537109-2.1691895-0.0541992-4.3161621-0.3125-6.4296875l-10.5161133-2.0900879 c-0.4599609-2.059082-1.1079102-4.0598145-1.9277344-5.9814453l7.3271484-7.8195801 c-1.0317383-1.8869629-2.1982422-3.6958008-3.4912109-5.4145508l-10.1464844,3.4458008 c-1.4116211-1.5400391-2.9667969-2.9560547-4.6523438-4.2248535l2.4370117-10.4411621 c-1.8183594-1.1079102-3.7294922-2.092041-5.7270508-2.9387207l-7.0688477,8.0632324 c-0.9926758-0.3103027-2.0039063-0.5852051-3.0395508-0.809082c-0.9711914-0.2097168-1.9414063-0.3662109-2.9086914-0.4899902 l-1.4526367-27.7199707C167.0102539,39.9729004,192.8564453,65.0900879,194.5332031,97.0952148z M158.1743164,105.824707 c-0.0380859,0.1772461-0.0859375,0.3498535-0.1274414,0.5253906l-3.6044922-1.8366699 c-9.7558594-4.9709473-16.1181641-14.769043-16.690918-25.7026367l-0.2119141-4.0419922 c0.2329102,0.0437012,0.465332,0.0822754,0.6982422,0.1325684 C152.2822266,77.9350586,161.2084961,91.7800293,158.1743164,105.824707z M132.4404297,94.5290527 c3.2045898-0.1677246,5.9379883,2.2937012,6.105957,5.4980469s-2.293457,5.9377441-5.4980469,6.1057129 c-3.2041016,0.1679688-5.9379883-2.2932129-6.105957-5.4975586 C126.7744141,97.4306641,129.2363281,94.6970215,132.4404297,94.5290527z M148.8818359,115.4257813l3.6166992,1.8427734 c-6.0180664,7.0063477-15.5854492,10.5795898-25.2475586,8.4921875c-4.8222656-1.0415039-9.0410156-3.3583984-12.3798828-6.5195313 l3.40625-2.2119141C127.4599609,111.065918,139.1264648,110.4545898,148.8818359,115.4257813z M125.5205078,79.4511719 c0.5727539,10.934082-4.730957,21.3432617-13.9135742,27.3066406l-3.4038086,2.2102051 c-1.5493164-4.3891602-1.9433594-9.2470703-0.8886719-14.1303711c2.0742188-9.6025391,9.2036133-16.8088379,17.9936523-19.439209 L125.5205078,79.4511719z M77.7753906,128.7275391c-3.9301758-7.5791016-6.3442383-16.092041-6.8193359-25.1574707 c-1.6772461-32.0065918,21.4047852-59.6884766,52.4536133-64.4035645l1.4526367,27.7189941 c-1.9150391,0.4526367-3.7797852,1.0612793-5.5742188,1.8266602l-7.8193359-7.3269043 c-1.8867188,1.0317383-3.6962891,2.1982422-5.4145508,3.4907227l3.4453125,10.1464844 c-1.5400391,1.4121094-2.9555664,2.967041-4.2246094,4.6523438l-10.440918-2.4367676 c-1.1079102,1.8183594-2.0922852,3.7297363-2.9389648,5.7272949l8.0634766,7.0688477 c-0.3105469,0.9924316-0.5854492,2.0036621-0.809082,3.0393066c-0.2241211,1.0358887-0.3911133,2.0705566-0.5175781,3.1022949 l-10.262207,3.1103516c-0.0537109,2.1689453,0.0537109,4.315918,0.3125,6.4296875l10.515625,2.090332 c0.4462891,1.9960938,1.0722656,3.9360352,1.8569336,5.8041992L77.7753906,128.7275391z M84.4648438,138.9865723 l23.2714844-15.1120605c1.3344727,1.4204102,2.7807617,2.7426758,4.3520508,3.9262695l-2.4370117,10.440918 c1.8183594,1.107666,3.7299805,2.0917969,5.7275391,2.9384766l7.0688477-8.0629883 c0.9921875,0.3105469,2.003418,0.5849609,3.0395508,0.809082c1.0356445,0.2236328,2.0703125,0.390625,3.1020508,0.5175781 l3.1103516,10.2624512c2.1689453,0.0529785,4.315918-0.0544434,6.4296875-0.3127441l2.0898438-10.5158691 c2.059082-0.4602051,4.0600586-1.1079102,5.9814453-1.9279785l7.8193359,7.3271484 c1.887207-1.0317383,3.6962891-2.1982422,5.4150391-3.4909668l-3.4458008-10.1464844 c1.4926758-1.3684082,2.8618164-2.876709,4.1010742-4.5024414l24.7104492,12.5910645 c-10.4111328,16.1787109-28.1821289,27.3088379-48.8188477,28.3901367 C115.3461914,163.1994629,96.5092773,153.9880371,84.4648438,138.9865723z M170.5185547,189.1030273 c-2.753418,0.5092773-5.4692383,1.1208496-8.1416016,1.8442383l-8.9492188-18.6496582 c0.9008789-0.2568359,1.7954102-0.526123,2.6811523-0.8161621l7.3383789,13.4416504 c2.3120117-0.8381348,4.5688477-1.7802734,6.7851563-2.7966309l-4.199707-14.7072754 c1.8193359-0.9035645,3.5952148-1.876709,5.3242188-2.9196777l2.6943359,3.0461426 c-1.1923828,0.1408691-2.3813477,0.2932129-3.5610352,0.473877L170.5185547,189.1030273z M148.4501953,195.8132324 c-2.5634766,1.1105957-5.0737305,2.3200684-7.5244141,3.6279297l-9.4291992-11.8574219l2.1352539-12.3862305 c1.0073242-0.0124512,4.0332184-0.2218781,5.0366364-0.3146515l2.8285522,15.049408 c1.0322266-0.1271973,4.4048309-0.6087799,5.4268036-0.7647858L148.4501953,195.8132324z M182.9946289,204.4003906v40.2373047 c-0.9599609,0.1303711-1.9145508,0.277832-2.8564453,0.4697266l-3-7.0581055 c-1.5332031,0.3581543-3.0400391,0.7915039-4.5244141,1.2792969l1.1030273,7.579834 c-1.703125,0.6149902-3.3637695,1.3244629-4.9731445,2.1289063l-4.7128906-6.0266113 c-1.3852539,0.7421875-2.7373047,1.5395508-4.0498047,2.3981934l3.0263672,7.0332031 c-1.480957,1.0302734-2.8999023,2.1447754-4.2514648,3.340332l-6.1171875-4.6052246 c-1.1445313,1.0717773-2.2392578,2.1970215-3.2885742,3.3664551l4.7397461,6.0061035 c-1.1625977,1.3730469-2.2456055,2.8186035-3.2456055,4.3276367l-7.1030273-2.8657227 c-0.8256836,1.3266602-1.6030273,2.6879883-2.3139648,4.0930176l6.1469727,4.5854492 c-0.7636719,1.6230469-1.4472656,3.2939453-2.0229492,5.0212402l-7.5830078-0.9272461 c-0.4501953,1.4912109-0.8398438,3.0114746-1.1621094,4.5603027l7.1069336,2.8312988 c-0.1088867,0.6083984-0.1928711,1.2270508-0.2802734,1.84375h-40.2568359 C106.480957,241.4680176,140.4433594,207.5058594,182.9946289,204.4003906z M103.3759766,296.7387695h40.2646484 c0.1293945,0.9516602,0.2763672,1.8984375,0.4663086,2.8325195l-7.0581055,3 c0.3579102,1.5332031,0.7915039,3.0400391,1.2792969,4.5246582l7.5800781-1.1027832 c0.6147461,1.703125,1.3242188,3.3632813,2.1289063,4.9729004l-6.0268555,4.7131348 c0.7421875,1.3850098,1.5395508,2.7370605,2.3979492,4.0490723l7.0336914-3.0258789 c1.0297852,1.480957,2.1450195,2.9003906,3.3398438,4.251709l-4.6049805,6.1171875 c1.0717773,1.1442871,2.1967773,2.2392578,3.3666992,3.2880859l6.0058594-4.739502 c1.3730469,1.1625977,2.8183594,2.2453613,4.3276367,3.2456055l-2.8657227,7.1030273 c1.3266602,0.8256836,2.6879883,1.6032715,4.0927734,2.3144531l4.5859375-6.1474609 c1.6230469,0.7634277,3.2939453,1.4475098,5.0209961,2.0231934l-0.9272461,7.5827637 c1.4916992,0.4499512,3.0117188,0.8395996,4.5605469,1.1621094l2.8310547-7.1071777 c0.6005859,0.1079102,1.2104492,0.1899414,1.8193359,0.2768555v40.284668 C140.4433594,373.2524414,106.480957,339.2905273,103.3759766,296.7387695z M179.8867188,413.7695313l-1.2583008,3.1032715 c-2.6064453-0.5339355-5.25-0.9587402-7.9223633-1.2824707l-0.1733398-2.8452148 C173.6108398,413.2148438,176.7368164,413.5354004,179.8867188,413.7695313z M153.262207,408.8063965l9.1147461-18.9951172 c2.6723633,0.7231445,5.3881836,1.3352051,8.1416016,1.8442383l-0.027832,20.4072266l-0.6689453-10.9755859 c-3.6118164-0.3520508-7.269043-0.5241699-10.9628906-0.5266113l-2.3237305,14.3305664 c-1.3325195,0.0297852-2.6650391,0.064209-4.0073242,0.1479492c-1.3427734,0.0837402-2.6694336,0.2148438-3.9946289,0.3510742 l-2.6821289-9.1445313C148.2890625,407.1674805,150.7504883,408.0419922,153.262207,408.8063965z M127.5874023,432.8837891 c8.027832-3.121582,16.6479492-5.1000977,25.6953125-5.6640625c9.0532227-0.5644531,17.8574219,0.3273926,26.2167969,2.4301758 c5.9106445,1.4887695,8.8798828,8.1704102,6.1635742,13.6342773l-20.4824219,41.2075195 c-3.2856445,6.614502-12.4970703,7.1887207-16.578125,1.0336914l-25.4433594-38.3493652 C119.7856445,442.0942383,121.9018555,435.0927734,127.5874023,432.8837891z M159.4448242,526.0507813 c-6.706543,0.4179688-12.4863281-4.6831055-12.9047852-11.3955078c-0.418457-6.7119141,4.6826172-12.4887695,11.3896484-12.9069824 c6.7119141-0.418457,12.4916992,4.6801758,12.909668,11.3918457 C171.2583008,519.8525391,166.1567383,525.6323242,159.4448242,526.0507813z M72.9936523,500.215332 c2.8261719-17.7583008,11.0859375-33.8535156,23.1171875-46.4006348c4.2387695-4.416748,11.5546875-3.6679688,14.9350586,1.4299316 l25.4311523,38.3337402c4.0810547,6.1494141-0.0268555,14.4147949-7.3935547,14.8742676l-45.9370117,2.8640137 C77.0185547,511.6987305,72.0239258,506.2797852,72.9936523,500.215332z M118.6948242,578.0126953 c-2.7202148,5.4807129-9.8867188,7.1330566-14.6416016,3.2741699 c-13.4912109-10.9562988-23.6865234-25.9003906-28.6962891-43.1674805 c-1.715332-5.8972168,2.5673828-11.8942871,8.6953125-12.2763672l45.9365234-2.8642578 c7.3671875-0.4592285,12.4702148,7.2316895,9.1845703,13.8435059L118.6948242,578.0126953z M132.9907227,636.3674316v24.8591309 c-0.5927734,0.0805664-1.1826172,0.1716309-1.7646484,0.2900391l-1.8535156-4.3603516 c-0.9467773,0.2211914-1.8779297,0.4890137-2.7949219,0.7902832l0.6811523,4.6828613 c-1.0522461,0.3798828-2.078125,0.8183594-3.0722656,1.3154297l-2.9121094-3.7233887 c-0.8554688,0.4584961-1.690918,0.9511719-2.5014648,1.4816895l1.8696289,4.3452148 c-0.9150391,0.6364746-1.7919922,1.3249512-2.6269531,2.0637207l-3.7792969-2.8452148 c-0.7070313,0.6621094-1.3833008,1.3571777-2.03125,2.079834l2.9282227,3.7106934 c-0.71875,0.8483887-1.387207,1.7412109-2.0053711,2.673584l-4.3881836-1.7705078 c-0.5102539,0.8195801-0.9907227,1.6606445-1.4296875,2.5288086l3.7978516,2.8330078 c-0.4716797,1.0024414-0.8945313,2.0349121-1.25,3.1020508l-4.6850586-0.5727539 c-0.277832,0.9213867-0.5185547,1.8603516-0.7182617,2.8173828l4.3911133,1.7492676 c-0.0668945,0.3757324-0.1191406,0.7580566-0.1733398,1.138916H83.8012695 C85.7197266,659.2683105,106.7021484,638.2861328,132.9907227,636.3674316z M145.1352539,688.3583984l13.2172852-4.2941895 c0.3359375,1.5266113,0.5185547,3.1113281,0.5185547,4.7392578c0,6.5393066-2.862793,12.4072266-7.3994141,16.4287109 l-8.1640625-11.2365723c1.1547852-1.4182129,1.8500977-3.2250977,1.8500977-5.1923828 C145.1577148,688.6533203,145.1430664,688.5065918,145.1352539,688.3583984z M143.8295898,684.3339844 c-1.0976563-1.6911621-2.796875-2.9501953-4.7939453-3.4824219v-13.8959961 c8.090332,0.7739258,14.8955078,5.9387207,18.0112305,13.0839844L143.8295898,684.3339844z M140.9262695,688.8032227 c0,2.2089844-1.7973633,4.0063477-4.0063477,4.0063477s-4.0058594-1.7973633-4.0058594-4.0063477 s1.796875-4.0058594,4.0058594-4.0058594S140.9262695,686.5942383,140.9262695,688.8032227z M136.9204102,625.8361816 c-0.8642578,0-1.7207031,0.0310059-2.5766602,0.0651855l-0.5961914-2.6298828l5.0063477-12.3498535 c2.6069336,0.5344238,5.2504883,0.9592285,7.9228516,1.2827148l0.0888672,1.4543457 c-1.4541016-0.1801758-2.9169922-0.331543-4.3935547-0.435791l-2.8754883,12.6784668 C138.6411133,625.8671875,137.784668,625.8361816,136.9204102,625.8361816z M134.8041992,666.9558105v13.895752 c-1.996582,0.5322266-3.6958008,1.7912598-4.793457,3.4821777l-13.2172852-4.2944336 C119.9091797,672.8942871,126.7143555,667.7299805,134.8041992,666.9558105z M130.5327148,693.9951172l-8.1640625,11.2370605 c-4.5366211-4.0214844-7.3994141-9.8894043-7.3994141-16.4287109c0-1.6279297,0.1826172-3.2124023,0.5185547-4.7392578 l13.2172852,4.2946777c-0.0078125,0.1479492-0.0224609,0.2944336-0.0224609,0.4443359 C128.6826172,690.7705078,129.3779297,692.5771484,130.5327148,693.9951172z M132.9907227,742.6052246 c-26.2885742-1.9187012-47.2709961-22.9008789-49.1894531-49.1896973h24.8759766 c0.0800781,0.5876465,0.1708984,1.1726074,0.2880859,1.7497559l-4.3603516,1.8535156 c0.2211914,0.9470215,0.4887695,1.8781738,0.7905273,2.795166l4.6826172-0.6811523 c0.3798828,1.0522461,0.8183594,2.0778809,1.3154297,3.0722656l-3.7231445,2.9118652 c0.4584961,0.8557129,0.9511719,1.690918,1.4814453,2.501709l4.3452148-1.8696289 c0.6362305,0.9150391,1.3251953,1.7919922,2.0634766,2.626709l-2.8447266,3.7792969 c0.6616211,0.7072754,1.3569336,1.3835449,2.0795898,2.0314941l3.7104492-2.9282227 c0.8486328,0.7182617,1.7416992,1.3874512,2.6738281,2.0053711l-1.7705078,4.3881836 c0.8198242,0.5102539,1.6606445,0.9907227,2.5288086,1.4299316l2.8330078-3.7978516 c1.0024414,0.4716797,2.0351563,0.8942871,3.1020508,1.2497559l-0.5727539,4.6850586 c0.9213867,0.277832,1.8603516,0.5185547,2.8173828,0.7177734l1.7490234-4.3908691 c0.3710938,0.0666504,0.7480469,0.1174316,1.1240234,0.1708984V742.6052246z M136.9204102,710.7543945 c-4.0634766,0-7.8662109-1.1081543-11.1298828-3.0324707l8.1669922-11.2412109 c0.9208984,0.3566895,1.9169922,0.5600586,2.9624023,0.5600586c1.0449219,0,2.0419922-0.2033691,2.9624023-0.5600586 l8.1674805,11.2412109C144.7861328,709.6462402,140.9833984,710.7543945,136.9204102,710.7543945z M140.8491211,742.6052246 v-24.888916c0.5927734-0.0805664,1.1826172-0.171875,1.7651367-0.2900391l1.8535156,4.3605957 c0.9467773-0.2216797,1.8779297-0.4890137,2.7949219-0.7907715l-0.6811523-4.6828613 c1.0522461-0.3796387,2.078125-0.8181152,3.0722656-1.3151855l2.9121094,3.7231445 c0.8554688-0.4584961,1.690918-0.9511719,2.5014648-1.4812012l-1.8696289-4.345459 c0.9150391-0.6364746,1.7919922-1.3251953,2.6269531-2.0637207l3.7792969,2.8449707 c0.7070313-0.6618652,1.3833008-1.3569336,2.03125-2.079834l-2.9282227-3.7106934 c0.7182617-0.8479004,1.387207-1.7409668,2.0053711-2.673584l4.3881836,1.770752 c0.5102539-0.8195801,0.9907227-1.6611328,1.4301758-2.5288086l-3.7983398-2.833252 c0.472168-1.0026855,0.8945313-2.034668,1.25-3.1020508l4.6850586,0.572998 c0.277832-0.9216309,0.5185547-1.8603516,0.7182617-2.8173828l-4.3911133-1.7492676 c0.0654297-0.3659668,0.1157227-0.7382813,0.168457-1.1091309h24.8759766 C188.1206055,719.7045898,167.1381836,740.6870117,140.8491211,742.6052246z M190.0390625,685.5571289h-24.8720703 c-0.0810547-0.5979004-0.1728516-1.1928711-0.2919922-1.779541l4.3603516-1.8537598 c-0.2211914-0.9472656-0.4887695-1.8781738-0.7905273-2.7949219l-4.6826172,0.6811523 c-0.3798828-1.0522461-0.8183594-2.0778809-1.3154297-3.0722656l3.7231445-2.9121094 c-0.4584961-0.8554688-0.9506836-1.690918-1.480957-2.501709l-4.3457031,1.869873 c-0.6362305-0.9150391-1.3251953-1.7919922-2.0634766-2.626709l2.8447266-3.7792969 c-0.6616211-0.7072754-1.3569336-1.3837891-2.0795898-2.0317383l-3.7104492,2.9282227 c-0.8486328-0.7185059-1.7416992-1.3869629-2.6738281-2.005127l1.7705078-4.3886719 c-0.8193359-0.5097656-1.6606445-0.9902344-2.5288086-1.4294434l-2.8330078,3.7978516 c-1.0024414-0.4716797-2.0351563-0.8942871-3.1020508-1.2497559l0.5727539-4.6848145 c-0.9213867-0.2785645-1.8603516-0.519043-2.8173828-0.7182617l-1.7490234,4.3908691 c-0.3710938-0.0664063-0.7485352-0.1174316-1.1245117-0.1708984v-24.8586426 C167.1381836,638.2856445,188.1206055,659.2680664,190.0390625,685.5571289z M148.5571289,626.9165039v-0.1245117 c1.8125,0.159668,3.6362305,0.2749023,5.4707031,0.3464355l-0.4404297,0.9174805 C151.9365234,627.6088867,150.2587891,627.230957,148.5571289,626.9165039z M160.2392578,616.6564941l0.6088867-3.7529297 c1.331543-0.029541,2.6645508-0.0644531,4.0068359-0.1481934c1.3427734-0.0837402,2.6694336-0.2145996,3.9951172-0.3508301 l3.9365234,13.4213867l-5.9462891,7.4775391c-1.5141602-0.8081055-3.0649414-1.5551758-4.6489258-2.2412109l2.9106445-12.6699219 C163.5068359,617.7595215,161.8833008,617.1855469,160.2392578,616.6564941z M189.8032227,594.9086914 c-8.0332031,3.125-16.6582031,5.1032715-25.7114258,5.6677246s-17.8520508-0.3276367-26.2055664-2.4282227 c-5.9165039-1.4880371-8.8862305-8.1726074-6.1699219-13.6337891l20.4882813-41.2160645 c3.2851563-6.6142578,12.4960938-7.1887207,16.578125-1.0336914l25.4487305,38.3493652 C197.5996094,585.6958008,195.4833984,592.6972656,189.8032227,594.9086914z M221.2739258,573.9755859 c-4.2382813,4.4165039-11.5546875,3.6674805-14.9350586-1.4301758l-25.4306641-38.328125 c-4.0810547-6.1496582,0.0268555-14.4150391,7.394043-14.8742676l45.9365234-2.8640137 c6.128418-0.3820801,11.1225586,5.0366211,10.152832,11.1010742 C241.5654297,545.3359375,233.3051758,561.4279785,221.2739258,573.9755859z M258.7460938,489.5092773l-4.0019531,0.255127 c-0.6523438-2.6120605-1.4023438-5.1816406-2.2568359-7.7023926l12.6757813-7.0844727 c-1.2617188-3.4558105-2.6855469-6.8273926-4.2626953-10.1103516l-13.9150391,4.1225586 c-1.21875-2.3935547-2.5302734-4.7294922-3.9316406-7.003418l5.0947266-4.5961914c0,0.0024414,0,0.0048828,0.0009766,0.0075684 c0.1894531,1.4978027,0.4160156,2.9816895,0.6777344,4.4519043l17.015625,0.7416992 c0.78125,3.3710938,1.8027344,6.6362305,3.0302734,9.7880859l-13.6279297,10.237793 C256.3105469,484.9790039,257.4892578,487.2702637,258.7460938,489.5092773z M243.0664063,571.673584 c-0.4863281,2.3974609-0.8378906,4.8359375-1.0537109,7.3061523l-4.5761719-5.043457 c1.6220703-2.1245117,3.1679688-4.3076172,4.6142578-6.5600586l8.3867188,3.427002L243.0664063,571.673584z M258.8339844,569.8115234l-1.6699219,0.1972656c1.265625-2.215332,2.4628906-4.4736328,3.5791016-6.777832l-11.8945313-8.3041992 c1.1083984-2.4299316,2.1191406-4.9106445,3.03125-7.4375l1.3369141,0.2207031 c-0.25,0.3659668-0.5048828,0.7285156-0.7470703,1.0996094l9.90625,12.3962402 C260.9423828,563.9472656,259.7529297,566.8256836,258.8339844,569.8115234z M255.7148438,533.8352051 c0.5351563-2.607666,0.9599609-5.2502441,1.2822266-7.9233398l14.5048828-0.8835449 c0.3515625-3.6115723,0.5244141-7.269043,0.5263672-10.9626465l-14.3300781-2.3237305 c-0.0302734-1.3325195-0.0654297-2.6660156-0.1494141-4.0083008c-0.0830078-1.3422852-0.2138672-2.6699219-0.3496094-3.9958496 l13.9296875-4.0854492c-0.4599609-3.6647949-1.0859375-7.2727051-1.8837891-10.8122559l-5.3144531,0.338623l11.6816406-3.684082 c1.8779297,2.8740234,3.9511719,5.6000977,6.2021484,8.1572266l-9.2939453,14.265625 c2.1015625,2.1513672,4.3144531,4.1860352,6.6201172,6.1098633l13.5136719-10.371582 c2.7285156,2.0476074,5.6005859,3.9013672,8.5986328,5.5456543l-3.8554688,16.5922852 c2.6992188,1.3027344,5.46875,2.4689941,8.3017578,3.494873l3.7109375-5.826416l-4.0859375,10.4448242 c-1.5390625,0.0671387-3.0849609,0.1933594-4.640625,0.4030762c-1.5546875,0.2099609-3.0800781,0.4980469-4.5800781,0.8408203 l-9.4980469-12.7260742c-3.0478516,1.0175781-5.984375,2.248291-8.796875,3.671875l2.3828125,15.6975098 c-2.6357422,1.6772461-5.0966797,3.5864258-7.3603516,5.6958008L267.625,545.251709 c0.5664063-1.9675293,1.0869141-3.9533691,1.5478516-5.9614258L255.7148438,533.8352051z M293.7851563,585.0234375 c1.4609375-0.1970215,2.8125,0.8310547,3.0097656,2.293457s-0.8330078,2.8134766-2.2939453,3.010498 c-1.4619141,0.1970215-2.8134766-0.8325195-3.0107422-2.2946777 C291.2929688,586.5703125,292.3242188,585.2207031,293.7851563,585.0234375z M290.4394531,572.1259766l-17.8808594-7.3398438 c5.203125-9.0786133,13.8505859-16.0454102,24.4335938-18.8974609l2.5888672,19.1860352 C295.8808594,566.5588379,292.7382813,569.0214844,290.4394531,572.1259766z M296.1650391,576.2922363 c-0.4365234-0.5671387-0.6279297-1.2683105-0.5361328-1.9782715c0.0908203-0.7087402,0.4521484-1.3398438,1.0166016-1.7763672 c0.3837891-0.2963867,0.8232422-0.4726563,1.2744141-0.5334473c0.9169922-0.1237793,1.8759766,0.2316895,2.4814453,1.015625 c0.4355469,0.565918,0.6279297,1.2683105,0.5361328,1.9770508s-0.453125,1.3395996-1.0175781,1.776123 C298.7539063,577.6743164,297.0712891,577.4599609,296.1650391,576.2922363z M300.8720703,596.753418 c0.3759766-0.9165039,1.2060547-1.5131836,2.1230469-1.6369629c0.4511719-0.060791,0.9228516-0.0075684,1.3701172,0.1767578 c1.3662109,0.560791,2.0214844,2.1269531,1.4619141,3.4924316c-0.5595703,1.3669434-2.1337891,2.019043-3.4941406,1.4602051 C300.9667969,599.6850586,300.3125,598.1191406,300.8720703,596.753418z M267.5585938,590.1364746 c-0.7324219-5.4279785-0.3330078-10.7502441,1.0009766-15.7380371l17.9296875,7.3598633 c-0.2685547,1.890625-0.3046875,3.8442383-0.0361328,5.829834c0.2675781,1.9855957,0.8193359,3.8598633,1.5800781,5.6115723 l-15.3378906,11.8479004C270.0869141,600.5908203,268.2910156,595.5649414,267.5585938,590.1364746z M279.0976563,613.2565918 l15.296875-11.8154297c3.0390625,2.3840332,6.7226563,3.9260254,10.6826172,4.376709l2.5888672,19.1862793 C296.7060547,625.0578613,286.5205078,620.6313477,279.0976563,613.2565918z M308.3242188,590.949707 c-3.4238281,0.4619141-6.5732422-1.9396973-7.0351563-5.3630371c-0.4619141-3.4238281,1.9394531-6.5737305,5.3632813-7.0356445 s6.5732422,1.939209,7.0351563,5.3630371C314.1494141,587.3374023,311.7480469,590.487793,308.3242188,590.949707z M309.1494141,570.7148438c0.3769531-0.9165039,1.2070313-1.5131836,2.1240234-1.6367188 c0.4511719-0.0610352,0.921875-0.0078125,1.3701172,0.1767578c1.3662109,0.560791,2.0205078,2.126709,1.4609375,3.4921875 c-0.5615234,1.3649902-2.1259766,2.0170898-3.4941406,1.4589844c-0.6621094-0.2709961-1.1777344-0.7836914-1.4541016-1.4428711 C308.8828125,572.1037598,308.8798828,571.3759766,309.1494141,570.7148438z M314.5751953,596.480957 c-0.9013672-1.1674805-0.6845703-2.8508301,0.4814453-3.753418c0.3847656-0.296875,0.8232422-0.4726563,1.2744141-0.5334473 c0.9169922-0.1237793,1.875,0.2316895,2.4804688,1.0144043c0.4355469,0.5668945,0.6279297,1.2683105,0.5361328,1.9782715 c-0.0908203,0.7087402-0.4521484,1.3395996-1.0166016,1.776123 C317.1699219,597.8647461,315.4814453,597.6499023,314.5751953,596.480957z M320.4755859,579.1733398 c1.4619141-0.1972656,2.8134766,0.8325195,3.0107422,2.2946777c0.1972656,1.4624023-0.8339844,2.8120117-2.2949219,3.0090332 c-1.4609375,0.1972656-2.8125-0.8310547-3.0097656-2.293457 C317.984375,580.7214355,319.0146484,579.3703613,320.4755859,579.1733398z M317.9833984,623.6120605l-2.5878906-19.1862793 c3.7001953-1.4838867,6.8417969-3.9467773,9.1416016-7.0510254l17.8798828,7.3395996 C337.2148438,613.7924805,328.5664063,620.7597656,317.9833984,623.6120605z M347.4169922,579.3630371 c0.7324219,5.4284668,0.3330078,10.7507324-1.0009766,15.7390137l-17.9287109-7.3598633 c0.2685547-1.890625,0.3046875-3.8439941,0.0361328-5.8295898c-0.2675781-1.9858398-0.8203125-3.8598633-1.5800781-5.6118164 l15.3388672-11.8479004C344.8896484,568.9091797,346.6855469,573.9350586,347.4169922,579.3630371z M335.8789063,556.2438965 l-15.296875,11.8154297c-3.0390625-2.3842773-6.7226563-3.9257813-10.6835938-4.376709l-2.5878906-19.1860352 C318.2714844,544.4423828,328.4560547,548.8686523,335.8789063,556.2438965z M396.4091797,438.6396484 c4.2373047,33.4912109-19.5625,64.1853027-53.0537109,68.4226074S279.1708984,487.5,274.9335938,454.0087891 s19.5615234-64.1850586,53.0527344-68.4223633S392.171875,405.1484375,396.4091797,438.6396484z M400.0371094,353.3156738 c-15.6357422,0-29.9814453-5.6108398-41.1435547-14.918457l25.1142578-25.1154785 c4.6015625,3.0441895,10.1113281,4.8227539,16.0292969,4.8227539c5.9189453,0,11.4277344-1.7785645,16.0292969-4.8227539 l25.1152344,25.1157227C430.0195313,347.704834,415.6728516,353.3156738,400.0371094,353.3156738z M395.96875,296.2507324 c-1.9443359-1.0869141-3.3486328-2.8659668-3.9550781-5.0095215c-0.6074219-2.1430664-0.3427734-4.3947754,0.7451172-6.3388672 c1.5253906-2.7302246,4.3681641-4.2695313,7.2939453-4.2695313c1.3759766,0,2.7695313,0.3408203,4.0537109,1.0583496 c4.0146484,2.2434082,5.4541016,7.3347168,3.2109375,11.3486328v-0.0004883 C405.0742188,297.0537109,399.9833984,298.4936523,395.96875,296.2507324z M397.1025391,275.0874023 c-3.8730469,0.8212891-7.3886719,3.230957-9.4677734,6.9504395c-1.8535156,3.3132324-2.3037109,7.1494141-1.2705078,10.8017578 c0.0517578,0.1816406,0.1220703,0.354248,0.1796875,0.5327148l-6.2460938,3.605957 c-1.0068359-2.473877-1.5664063-5.1757813-1.5664063-8.0073242c0-10.7521973,8.0068359-19.6640625,18.3710938-21.0993652 V275.0874023z M389.4716797,298.4609375c1.0322266,1.1472168,2.2460938,2.138916,3.6328125,2.9140625 c2.1894531,1.2231445,4.5644531,1.8034668,6.9091797,1.8034668c3.9785156,0,7.8632813-1.6755371,10.59375-4.7155762 l6.2255859,3.5942383c-3.9023438,4.9978027-9.9775391,8.2202148-16.7958984,8.2202148 c-6.8173828,0-12.8925781-3.2224121-16.7949219-8.2197266L389.4716797,298.4609375z M413.5429688,293.3789063 c2.0654297-6.322998-0.5517578-13.4467773-6.5712891-16.8120117c-1.2832031-0.7172852-2.6308594-1.213623-3.9990234-1.5014648 v-7.1938477c10.3642578,1.4353027,18.3710938,10.347168,18.3710938,21.0993652 c0,2.8312988-0.5595703,5.5332031-1.5664063,8.0070801L413.5429688,293.3789063z M415.1992188,264.1035156 c-4.4199219-2.704834-9.6113281-4.2663574-15.1621094-4.2663574c-5.5498047,0-10.7412109,1.5615234-15.1611328,4.2661133 l-25.1953125-25.1965332c11.0458984-8.9221191,25.0839844-14.2805176,40.3564453-14.2805176 s29.3115234,5.3583984,40.3583984,14.2805176L415.1992188,264.1035156z M375.7265625,272.9418945 c-3.0439453,4.6015625-4.8222656,10.1105957-4.8222656,16.0290527c0,5.5500488,1.5605469,10.7416992,4.265625,15.161377 l-25.1962891,25.1962891c-8.921875-11.0463867-14.2802734-25.0849609-14.2802734-40.357666 c0-15.6357422,5.6113281-29.982666,14.9179688-41.1445313L375.7265625,272.9418945z M450.1015625,329.3291016 l-25.1962891-25.1967773c2.7041016-4.4196777,4.265625-9.6113281,4.265625-15.161377 c0-5.918457-1.7783203-11.4274902-4.8222656-16.0290527l25.1152344-25.1157227 c9.3076172,11.1618652,14.9189453,25.5087891,14.9189453,41.1447754 C464.3828125,304.2438965,459.0244141,318.2824707,450.1015625,329.3291016z M453.4130859,233.8769531 c-2.6220703-2.5405273-5.421875-4.8947754-8.3847656-7.0429688l6.3232422-17.0991211 c-2.6914063-1.7460938-5.4746094-3.355957-8.3447266-4.8261719l-11.6455078,14.0224609 c-3.3154297-1.4848633-6.7529297-2.739502-10.2978516-3.7475586l0.0927734-18.2270508 c-3.109375-0.7109375-6.2773438-1.2678223-9.4960938-1.6630859l-6.1484375,17.1650391 c-1.8105469-0.1279297-3.6318359-0.2158203-5.4736328-0.2158203c-1.8427734,0-3.6640625,0.0878906-5.4736328,0.2158203 l-6.1484375-17.1650391c-3.21875,0.3952637-6.3857422,0.9516602-9.4970703,1.6628418l0.09375,18.2272949 c-3.5449219,1.0080566-6.9833984,2.2626953-10.2988281,3.7475586l-11.6445313-14.0224609 c-2.8701172,1.4699707-5.6542969,3.0800781-8.3447266,4.8261719l6.3222656,17.0991211 c-2.9619141,2.1481934-5.7617188,4.5026855-8.3837891,7.0429688l-15.7431641-9.1967773 c-2.1884766,2.3525391-4.2646484,4.8100586-6.2070313,7.3764648l11.7841797,13.8984375 c-2.0478516,3.0178223-3.8818359,6.1904297-5.4892578,9.4941406l-17.9511719-3.2602539 c-1.2460938,2.9428711-2.3398438,5.9648438-3.2871094,9.0512695l15.84375,9.0397949 c-0.8789063,3.5114746-1.5253906,7.1152344-1.9013672,10.7995605l-17.9677734,3.0732422 c-0.0800781,1.5961914-0.1220703,3.2021484-0.1220703,4.8181152s0.0419922,3.222168,0.1220703,4.8181152l17.9677734,3.0732422 c0.3759766,3.6845703,1.0224609,7.2880859,1.9013672,10.7995605l-15.84375,9.0397949 c0.9472656,3.0864258,2.0410156,6.1083984,3.2871094,9.0512695l17.9511719-3.2602539 c1.6074219,3.3037109,3.4423828,6.4765625,5.4892578,9.4943848l-11.7841797,13.8981934 c1.9423828,2.5664063,4.0185547,5.0241699,6.2070313,7.3764648l15.7431641-9.1967773 c2.6220703,2.5405273,5.421875,4.8947754,8.3837891,7.0432129l-6.3222656,17.098877 c2.6904297,1.7460938,5.4746094,3.3564453,8.3447266,4.826416l11.6445313-14.0227051 c3.3154297,1.4848633,6.7539063,2.739502,10.2988281,3.7475586l-0.09375,18.2272949 c2.7089844,0.6193848,5.4638672,1.1137695,8.2548828,1.4943848l-8.4853516,6.5124512 c-2.7294922-2.0476074-5.6005859-3.901123-8.5986328-5.5454102l3.8554688-16.592041 c-2.6992188-1.3029785-5.46875-2.4689941-8.3017578-3.4953613l-9.1494141,14.3647461 c-3.2480469-0.987793-6.5830078-1.7473145-9.9863281-2.2663574l-2.0517578-16.9072266 c-2.9658203-0.2944336-5.9677734-0.4389648-8.9980469-0.4277344l-3.6865234,16.6330566 c-1.6923828,0.09375-3.3916016,0.2255859-5.0986328,0.4416504c-1.7089844,0.2160645-3.3867188,0.5114746-5.0498047,0.8422852 l-7.7119141-15.190918c-2.9375,0.7438965-5.8085938,1.6313477-8.6083984,2.6552734l2.2246094,16.885498 c-3.1679688,1.3503418-6.2080078,2.9165039-9.1074219,4.6818848l-12.4394531-11.6330566 c-2.4882813,1.6994629-4.8798828,3.5185547-7.1689453,5.4526367l7.8662109,15.1091309 c-2.4941406,2.3388672-4.8134766,4.8496094-6.9462891,7.512207l-15.671875-6.6789551 c-1.7539063,2.4372559-3.3896484,4.9587402-4.8896484,7.5661621l12.5546875,11.5012207 c-1.5439453,3.0375977-2.8730469,6.1936035-3.9755859,9.4450684l-17.0224609-0.9169922 c-0.8105469,2.8742676-1.4697266,5.8037109-1.9863281,8.7758789l15.7480469,6.5214844 c-0.4033203,3.3583984-0.5800781,6.7746582-0.4960938,10.234375l-10.8554688,3.3017578 c-1.8046875-2.7150879-3.7041016-5.359375-5.7275391-7.9001465l-12.6469727,7.1149902 c-1.715332-2.0546875-3.5200195-4.0290527-5.3935547-5.9355469l8.3618164-11.9042969 c-2.6240234-2.5512695-5.3691406-4.9743652-8.2265625-7.2609863l-10.7729492,9.7751465 c-2.125-1.621582-4.3076172-3.1669922-6.5600586-4.6142578l5.4882813-13.4326172 c-3.0566406-1.8662109-6.2070313-3.5876465-9.4404297-5.1621094l-0.0283203-20.2873535 c2.7539063-0.5092773,5.4697266-1.1210938,8.1420898-1.8442383l9.1152344,18.9951172 c3.2353516-0.9848633,6.4047852-2.1169434,9.5224609-3.3537598l-4.7114258-20.5075684 c2.5639648-1.1105957,5.0742188-2.3198242,7.5253906-3.6276855l13.0917969,16.4633789 c2.9257813-1.6799316,5.7841797-3.4628906,8.5537109-5.3684082l-9.1621094-18.9577637 c2.2451172-1.6484375,4.4111328-3.3937988,6.5117188-5.2145996l16.4511719,13.1567383 c2.4765625-2.2834473,4.859375-4.6657715,7.1425781-7.142334l-13.1572266-16.4509277 c1.8212891-2.1005859,3.5664063-4.2668457,5.2148438-6.5114746l18.9580078,9.1623535 c1.9052734-2.7697754,3.6884766-5.628418,5.3681641-8.5546875l-16.4638672-13.0917969 c1.3076172-2.4504395,2.5175781-4.9606934,3.6289063-7.5244141l20.5068359,4.7106934 c1.2373047-3.1174316,2.3681641-6.2866211,3.3535156-9.5219727l-18.9951172-9.1152344 c0.7236328-2.6723633,1.3349609-5.3881836,1.84375-8.1420898l21.0839844,0.0292969 c0.5058594-3.3022461,0.8427734-6.6577148,1.0810547-10.0402832l-20.5214844-4.6540527 c0.0556641-1.3852539,0.1054688-2.7714844,0.1054688-4.1704102s-0.0498047-2.7856445-0.1054688-4.1706543l20.5214844-4.6540527 c-0.2382813-3.3825684-0.5751953-6.7382813-1.0810547-10.0402832l-21.0839844,0.0290527 c-0.5087891-2.753418-1.1201172-5.4697266-1.84375-8.1418457l18.9951172-9.1149902 c-0.9853516-3.2358398-2.1171875-6.4050293-3.3535156-9.5222168l-20.5068359,4.7104492 c-1.1113281-2.5634766-2.3212891-5.0734863-3.6289063-7.5244141l16.4638672-13.0915527 c-1.6796875-2.9267578-3.4628906-5.784668-5.3691406-8.5546875l-18.9570313,9.1618652 c-1.6484375-2.2441406-3.3935547-4.4104004-5.2148438-6.5109863l13.1572266-16.4509277 c-2.0048828-2.1738281-4.0976563-4.2614746-6.2519531-6.2868652c2.1572266,0.8278809,4.3378906,1.605957,6.5644531,2.2836914 l7.4335938-15.4899902c2.1787109,0.5898438,4.3935547,1.0888672,6.6386719,1.5039063l-0.0234375,17.1931152 c2.6923828,0.4116211,5.4287109,0.6867676,8.1875,0.8813477l3.7949219-16.734375 c1.1298828,0.0449219,2.2597656,0.0859375,3.4013672,0.0859375c1.1396484,0,2.2714844-0.0410156,3.4003906-0.0859375 l3.7958984,16.734375c2.7578125-0.1945801,5.4941406-0.4697266,8.1875-0.8815918l-0.0244141-17.1928711 c2.2460938-0.4152832,4.4609375-0.9140625,6.6396484-1.5039063l7.4326172,15.4899902 c2.6396484-0.8032227,5.2236328-1.7263184,7.765625-2.7348633l-3.8417969-16.7231445 c2.0908203-0.9060059,4.1376953-1.8918457,6.1367188-2.9584961l10.6757813,13.425293 c2.3857422-1.369873,4.7167969-2.8237305,6.9755859-4.3779297l-7.4716797-15.4589844 c1.8310547-1.3442383,3.5966797-2.7675781,5.3105469-4.2524414l13.4150391,10.7290039 c2.0195313-1.8623047,3.9619141-3.8049316,5.8242188-5.8244629l-10.7285156-13.4152832 c1.484375-1.7128906,2.9072266-3.4797363,4.2519531-5.3095703l15.4589844,7.4711914 c1.5537109-2.2585449,3.0078125-4.5893555,4.3779297-6.9758301l-13.4248047-10.6757813 c1.0654297-1.9985352,2.0517578-4.0454102,2.9580078-6.1359863L403.9570313,143.125 c1.0078125-2.5422363,1.9306641-5.1264648,2.734375-7.7651367l-15.4902344-7.4331055 c0.5898438-2.1789551,1.0888672-4.3935547,1.5039063-6.6391602l13.8994141,0.0192871l-3.6240234,1.7390137 c0.7304688,2.3991699,1.5693359,4.7492676,2.4873047,7.0610352l15.2070313-3.4931641 c0.8232422,1.901123,1.7207031,3.7624512,2.6904297,5.5795898l-12.2080078,9.7084961 c1.2451172,2.1699219,2.5673828,4.2895508,3.9804688,6.3435059l14.0585938-6.7941895 c1.2216797,1.6645508,2.5166016,3.270752,3.8662109,4.8286133l-9.7558594,12.1992188 c1.6933594,1.8364258,3.4599609,3.6030273,5.2958984,5.2963867l12.1992188-9.7563477 c1.5585938,1.3503418,3.1640625,2.6445313,4.8291016,3.8669434l-6.7939453,14.0578613 c2.0537109,1.4135742,4.1728516,2.7353516,6.3427734,3.980957l9.7080078-12.2084961 c1.8173828,0.9702148,3.6787109,1.8669434,5.5800781,2.6904297l-3.4931641,15.2075195 c2.3125,0.9172363,4.6621094,1.7565918,7.0615234,2.4868164l6.7597656-14.0859375 c1.9814453,0.536377,3.9951172,0.9902344,6.0371094,1.3676758l-0.0214844,15.6345215 c2.4482422,0.3745117,4.9365234,0.6247559,7.4453125,0.8015137l0.1904297-0.8369141l1.5019531,9.9001465 c-1.8886719,1.2023926-3.6523438,2.5708008-5.2744141,4.0825195l-10.4501953-4.4924316 c-1.5107422,1.7109375-2.8955078,3.527832-4.1445313,5.4384766l7.1005859,8.8850098 c-1.0283203,1.9650879-1.8798828,4.0280762-2.5390625,6.168457l-11.3017578,1.3347168 c-0.4492188,2.2150879-0.7421875,4.4777832-0.8671875,6.7773438l5.9921875,2.3442383L453.4130859,233.8769531z M500.8203125,220.6806641c-0.0664063,0.5080566-0.3251953,0.9604492-0.7294922,1.2731934 c-0.8359375,0.6459961-2.0419922,0.4924316-2.6914063-0.3444824c-0.3125-0.4064941-0.4501953-0.9091797-0.3847656-1.4179688 c0.0654297-0.5080566,0.3242188-0.9604492,0.7294922-1.2731934c0.2744141-0.2126465,0.5898438-0.3388672,0.9130859-0.3825684 c0.6572266-0.088623,1.3447266,0.1662598,1.7783203,0.7280273 C500.7480469,219.6691895,500.8857422,220.1728516,500.8203125,220.6806641z M502.2949219,235.1020508 c0.3232422-0.0437012,0.6611328-0.0056152,0.9824219,0.1264648c0.9785156,0.4020996,1.4482422,1.5246582,1.046875,2.503418 c-0.4003906,0.9797363-1.5292969,1.4472656-2.5039063,1.0466309c-0.9794922-0.4020996-1.4482422-1.5246582-1.0478516-2.5031738 C501.0429688,235.6181641,501.6376953,235.1906738,502.2949219,235.1020508z M496.2060547,231.6691895 c-1.046875,0.1413574-2.0166016-0.5966797-2.1572266-1.6447754c-0.1416016-1.0480957,0.5976563-2.015625,1.6445313-2.1567383 c1.046875-0.1413574,2.0166016,0.5957031,2.1572266,1.6437988 C497.9921875,230.5595703,497.2539063,231.527832,496.2060547,231.6691895z M493.2949219,218.6230469l-12.8154297-5.2609863 c3.7285156-6.5073242,9.9277344-11.5007324,17.5126953-13.545166l1.8554688,13.7519531 C497.1962891,214.6328125,494.9433594,216.3979492,493.2949219,218.6230469z M478.2636719,253.7792969l-9.1953125,1.6699219 c-1.1337891-2.3310547-2.3867188-4.5927734-3.7421875-6.784668l9.3994141-1.4267578 c1.2021484,1.8891602,2.5712891,3.6525879,4.0830078,5.2751465L478.2636719,253.7792969z M476.8955078,231.5324707 c-0.5253906-3.890625-0.2382813-7.7053223,0.7167969-11.2805176l12.8515625,5.2753906 c-0.1923828,1.3549805-0.2177734,2.7553711-0.0263672,4.1784668c0.1923828,1.4233398,0.5878906,2.7666016,1.1328125,4.0222168 l-10.9931641,8.4921875C478.7070313,239.0258789,477.4199219,235.4233398,476.8955078,231.5324707z M485.1660156,248.1040039 l10.9638672-8.46875c2.1787109,1.7089844,4.8183594,2.8139648,7.6572266,3.1369629l1.8554688,13.7521973 C497.7871094,256.5629883,490.4863281,253.3901367,485.1660156,248.1040039z M506.1152344,232.1152344 c-2.4541016,0.3310547-4.7119141-1.3901367-5.0429688-3.8439941c-0.3310547-2.4541016,1.3896484-4.7119141,3.84375-5.0429688 s4.7119141,1.3898926,5.0429688,3.8439941C510.2900391,229.526123,508.5693359,231.7841797,506.1152344,232.1152344z M514.9003906,215.708252c-2.1777344-1.7089844-4.8183594-2.8139648-7.6572266-3.137207l-1.8554688-13.7519531 c7.8564453-0.0388184,15.1572266,3.1337891,20.4775391,8.420166L514.9003906,215.708252z M515.3378906,227.4760742 c-1.0478516,0.1411133-2.0166016-0.5957031-2.1582031-1.644043c-0.1416016-1.0480957,0.5976563-2.0163574,1.6445313-2.1577148 c1.0478516-0.1413574,2.0166016,0.5966797,2.1582031,1.6447754S516.3847656,227.3347168,515.3378906,227.4760742z M510.2578125,219.0683594c-0.4033203,0.9782715-1.5234375,1.4455566-2.5039063,1.0456543 c-0.4755859-0.1943359-0.8447266-0.5617676-1.0429688-1.0341797c-0.1953125-0.4726563-0.1982422-0.9943848-0.0048828-1.4682617 c0.2705078-0.6567383,0.8652344-1.0844727,1.5224609-1.1730957c0.3232422-0.0437012,0.6611328-0.0056152,0.9824219,0.1264648 C510.1894531,216.967041,510.6591797,218.0893555,510.2578125,219.0683594z M510.5947266,236.079834 c-0.6455078-0.8366699-0.4902344-2.0432129,0.3447266-2.6901855c0.2763672-0.2128906,0.5908203-0.3388672,0.9140625-0.3823242 c0.6572266-0.0888672,1.34375,0.1660156,1.7783203,0.7270508c0.3125,0.40625,0.4501953,0.9091797,0.3847656,1.4179688 c-0.0664063,0.5078125-0.3251953,0.9602051-0.7294922,1.2729492 C512.4550781,237.0717773,511.2451172,236.9179688,510.5947266,236.079834z M513.0380859,255.5268555l-1.8554688-13.7524414 c2.6523438-1.0634766,4.9052734-2.8286133,6.5527344-5.0537109l12.8164063,5.2607422 C526.8222656,248.4882813,520.6240234,253.4821777,513.0380859,255.5268555z M533.4179688,235.0915527l-12.8515625-5.2751465 c0.1933594-1.3552246,0.21875-2.7553711,0.0263672-4.1787109c-0.1914063-1.4233398-0.5878906-2.7666016-1.1318359-4.0222168 l10.9931641-8.4921875c2.2988281,3.9182129,3.1728516,7.942627,3.1728516,7.942627 c0.2109375,0.8974609,0.3828125,1.8120117,0.5087891,2.7443848 C534.6601563,227.7011719,534.3740234,231.5161133,533.4179688,235.0915527z M536.3056641,208.1057129 c-1.203125-1.8894043-2.5712891-3.6525879-4.0830078-5.2751465l2.6054688-6.0600586l6.7421875,2.3337402 c-0.2021484,2.7631836-0.21875,5.5041504-0.0634766,8.2119141L536.3056641,208.1057129z M541.9589844,226.1201172 c-0.0488281-1.1022949-0.1386719-2.2109375-0.2890625-3.3256836c-0.0839844-0.6242676-0.1894531-1.2399902-0.3066406-1.8513184 l2.4433594-0.0385742c0.6708984,2.3493652,1.4863281,4.6447754,2.4199219,6.885498L541.9589844,226.1201172z M543.4472656,187.7478027l-11.6201172,0.0651855c-0.0517578,0.2358398-0.0878906,0.4782715-0.1367188,0.7150879 c-0.140625-0.0939941-0.2724609-0.199707-0.4140625-0.2922363l-8.8847656,7.1008301 c-1.9648438-1.027832-4.0283203-1.880127-6.1689453-2.5388184l-1.3339844-11.3017578 c-2.2148438-0.4492188-4.4785156-0.7424316-6.7773438-0.8666992l-4.1474609,10.5993652 c-1.1025391,0.0483398-2.2109375,0.1386719-3.3261719,0.2890625c-1.1142578,0.1503906-2.2070313,0.3569336-3.2832031,0.6025391 l-6.8076172-9.121582c-1.9785156,0.6608887-3.8886719,1.4533691-5.7304688,2.3540039l2.8916016-12.7514648 c1.0273438,0.0410156,2.0556641,0.078125,3.0927734,0.078125s2.0654297-0.0371094,3.0927734-0.078125l3.4511719,15.2175293 c2.5078125-0.1767578,4.9970703-0.4272461,7.4453125-0.8017578l-0.0214844-15.6342773 c2.0419922-0.3776855,4.0556641-0.8312988,6.0371094-1.3676758l6.7597656,14.0859375 c2.3994141-0.7302246,4.7490234-1.5698242,7.0615234-2.4870605l-3.4931641-15.2072754 c1.9013672-0.8237305,3.7626953-1.7202148,5.5800781-2.6904297l9.7080078,12.2084961 c1.5722656-0.902832,3.1074219-1.8620605,4.6220703-2.8508301l5.8759766,4.7741699 C545.5039063,181.0041504,544.3408203,184.3120117,543.4472656,187.7478027z M552.4580078,195.0693359 c1.2675781-7.6689453,4.1523438-14.6708984,8.2285156-20.7380371l16.1513672,13.260498 c-1.9023438,3.2644043-3.2597656,6.9169922-3.9111328,10.8608398c-0.6523438,3.9445801-0.5429688,7.8408203,0.2080078,11.5444336 l-19.5595703,7.3574219C551.6679688,210.2978516,551.1904297,202.739502,552.4580078,195.0693359z M590.8857422,254.6333008 c-15.0820313-4.019043-27.1240234-14.3959961-33.6865234-27.6889648l19.5556641-7.355957 c3.8164063,6.6381836,9.9716797,11.8725586,17.5400391,14.4160156L590.8857422,254.6333008z M583.1455078,200.1420898 c1.9462891-11.776123,13.1103516-19.7729492,24.8916016-17.8256836 c11.7763672,1.9465332,19.7724609,13.1105957,17.8261719,24.8867188 c-1.9472656,11.7783203-13.1113281,19.7753906-24.8867188,17.8286133 C589.1953125,223.0844727,581.1982422,211.9204102,583.1455078,200.1420898z M601,256.3054199l3.4101563-20.6286621 c7.984375,0.0283203,15.4970703-2.9470215,21.2460938-8.0048828l16.1484375,13.2575684 C631.3134766,251.404541,616.5712891,257.3544922,601,256.3054199z M656.5507813,212.2756348 c-1.2675781,7.670166-4.1523438,14.6726074-8.2285156,20.7402344l-16.1523438-13.260498 c1.9033203-3.2651367,3.2607422-6.9187012,3.9130859-10.8630371c0.6513672-3.9440918,0.5419922-7.8391113-0.2080078-11.5419922 l19.5585938-7.357666C657.3408203,197.0488281,657.8183594,204.6064453,656.5507813,212.2756348z M651.8095703,180.402832 l-19.5546875,7.355957c-3.8164063-6.6394043-9.9716797-11.8740234-17.5419922-14.4162598l3.4101563-20.6286621 C633.2041016,156.7316895,645.2480469,167.109375,651.8095703,180.402832z M654.8105469,120.8894043 c-5.5,0-9.9746094-4.4750977-9.9746094-9.9753418c0-5.5004883,4.4746094-9.9750977,9.9746094-9.9750977 s9.9746094,4.4746094,9.9746094,9.9750977C664.7851563,116.4143066,660.3105469,120.8894043,654.8105469,120.8894043z M646.0751953,82.557373c0-4.8168945,3.9189453-8.7353516,8.7353516-8.7353516s8.7353516,3.918457,8.7353516,8.7353516 c0,4.8164063-3.9189453,8.7351074-8.7353516,8.7351074S646.0751953,87.3737793,646.0751953,82.557373z M654.8105469,64.175293 c-5.5,0-9.9746094-4.4746094-9.9746094-9.9748535s4.4746094-9.9755859,9.9746094-9.9755859 s9.9746094,4.4753418,9.9746094,9.9755859S660.3105469,64.175293,654.8105469,64.175293z M679.09375,53.6132813 c2.5703125,0,4.6601563,2.0908203,4.6601563,4.6611328c0,2.5700684-2.0898438,4.6608887-4.6601563,4.6608887 s-4.6611328-2.0908203-4.6611328-4.6608887C674.4326172,55.7041016,676.5234375,53.6132813,679.09375,53.6132813z M679.09375,111.5009766c-2.5703125,0-4.6611328-2.0908203-4.6611328-4.6608887s2.0908203-4.6611328,4.6611328-4.6611328 s4.6601563,2.0910645,4.6601563,4.6611328S681.6640625,111.5009766,679.09375,111.5009766z M683.1679688,92.5324707 c-5.5009766,0-9.9755859-4.4748535-9.9755859-9.9750977s4.4746094-9.9753418,9.9755859-9.9753418 c5.5,0,9.9746094,4.4750977,9.9746094,9.9753418S688.6679688,92.5324707,683.1679688,92.5324707z" style="fill: rgb(255, 255, 255);"/>
    <circle cx="310.1168823" cy="105.9276352" r="11.8787842" style="fill: rgb(255, 255, 255);"/>
    <path d="M328.6139526,390.5469055c-30.8046875,3.8974609-52.6181641,32.029541-48.7207031,62.8347168 c3.8974609,30.8049316,32.0292969,52.6176758,62.8349609,48.7202148 c30.8046875-3.8974609,52.6181641-32.0292969,48.7207031-62.8342285 C387.5514526,408.4624329,359.4186401,386.6494446,328.6139526,390.5469055z M338.7819214,470.9104309 c-13.5791016,1.7180176-25.9794922-7.8967285-27.6972656-21.4753418s7.8974609-25.9790039,21.4755859-27.6967773 c13.578125-1.7180176,25.9785156,7.8967285,27.6972656,21.4755859 C361.9752808,456.7922668,352.3600464,469.1924133,338.7819214,470.9104309z" style="fill: rgb(255, 255, 255);"/>
    <circle cx="335.6710815" cy="446.3244934" r="8.3388615" style="fill: rgb(255, 255, 255);"/>
    <path d="M808.6598511,99.4194565c0-1.3115234-0.0683594-2.6064453-0.1845703-3.8876953l11.5996094-6.4436035 c-0.5019531-2.6374512-1.1933594-5.2060547-2.0576172-7.6950684l-13.265625,0.2194824 c-1.0947266-2.3703613-2.4013672-4.6208496-3.8945313-6.7312012l6.8183594-11.3723183 c-1.7402344-2.0124512-3.6240234-3.8959961-5.6367188-5.637207l-11.3730469,6.8190956 c-2.109375-1.4936562-4.3603516-2.8000526-6.7304688-3.8945351l0.2197266-13.265625 c-2.4892578-0.8647461-5.0576172-1.5556641-7.6953125-2.0581055l-6.4433594,11.6000977 c-1.28125-0.1162109-2.5761719-0.1845703-3.8876953-0.1845703s-2.6064453,0.0683594-3.8876953,0.1845703l-6.4433594-11.6000977 c-2.6376953,0.5024414-5.2070313,1.1933594-7.6953125,2.0578613l0.2197266,13.2658691 c-2.3701172,1.0947266-4.6210938,2.4008789-6.7314453,3.8945351l-11.3720703-6.8190956 c-2.0126953,1.7412109-3.8964844,3.6247559-5.6376953,5.637207l6.8193359,11.3723183 c-1.4941406,2.1103516-2.7998047,4.3608398-3.8945313,6.7312012l-13.265625-0.2194824 c-0.8652344,2.4890137-1.5556641,5.0576172-2.0585938,7.6950684l11.6005859,6.4436035 c-0.1162109,1.28125-0.1845703,2.5761719-0.1845703,3.8876953c0,1.3112793,0.0683594,2.6064453,0.1845703,3.8874512 l-11.6005859,6.4436035c0.5029297,2.637207,1.1933594,5.2060547,2.0585938,7.6953125l13.265625-0.2197266 c1.0947266,2.3703613,2.4003906,4.6210938,3.8945313,6.7312012l-6.8193359,11.3723068 c1.7412109,2.0126953,3.625,3.8962402,5.6376953,5.637207l11.3720703-6.8190918 c2.1103516,1.4938965,4.3613281,2.8000488,6.7314453,3.8947754l-0.2197266,13.265625 c2.4882813,0.8647461,5.0576172,1.5556641,7.6953125,2.0578613l6.4433594-11.5998535 c1.28125,0.1162109,2.5761719,0.1845703,3.8876953,0.1845703s2.6064453-0.0683594,3.8876953-0.1845703l6.4433594,11.5998535 c2.6376953-0.5021973,5.2060547-1.1933594,7.6953125-2.0578613l-0.2197266-13.265625 c2.3701172-1.0947266,4.6210938-2.4008789,6.7304688-3.8947754l11.3730469,6.8190918 c2.0126953-1.7409668,3.8964844-3.6245117,5.6367188-5.637207l-6.8183594-11.3723068 c1.4931641-2.1103516,2.7998047-4.3608398,3.8945313-6.7312012l13.265625,0.2197266 c0.8642578-2.4892578,1.5556641-5.0581055,2.0576172-7.6953125l-11.5996094-6.4436035 C808.5914917,102.0259018,808.6598511,100.7307358,808.6598511,99.4194565z M761.0739136,64.9018784v19.5788574 c-4.6376953,1.5734863-8.3105469,5.246582-9.8847656,9.8837891h-19.578125 C733.8209839,79.1445541,745.8532104,67.1118393,761.0739136,64.9018784z M761.0739136,133.937027 c-15.2207031-2.2099609-27.2529297-14.2426682-29.4628906-29.4631271h19.578125 c1.5742188,4.6374512,5.2470703,8.310791,9.8847656,9.8842773V133.937027z M766.1286011,107.2505112 c-4.3183594,0-7.8310547-3.5131836-7.8310547-7.8312988s3.5126953-7.8308105,7.8310547-7.8308105 c4.3173828,0,7.8300781,3.5126953,7.8300781,7.8308105S770.4459839,107.2505112,766.1286011,107.2505112z M771.1832886,133.937027 v-19.5788498c4.6367188-1.5734863,8.3105469-5.2468262,9.8837891-9.8842773h19.5791016 C798.4362183,119.6943588,786.4030151,131.7273102,771.1832886,133.937027z M781.0670776,94.3645248 c-1.5732422-4.637207-5.2470703-8.3103027-9.8837891-9.8837891V64.9018784 c15.2197266,2.2097168,27.2529297,14.2424316,29.4628906,29.4626465H781.0670776z" style="fill: rgb(255, 255, 255);"/>
  </g>
</svg>