<?xml version="1.0" encoding="utf-8"?>
<!-- Generator: Adobe Illustrator 19.0.1, SVG Export Plug-In . SVG Version: 6.00 Build 0)  -->
<svg version="1.1" id="Livello_1" xmlns="http://www.w3.org/2000/svg" xmlns:xlink="http://www.w3.org/1999/xlink" x="0px" y="0px"
	 viewBox="0 0 864 864" style="enable-background:new 0 0 864 864;" xml:space="preserve">
<path d="M853.8033447,453.1401062c0.3583984-7.142334,0.5454102-14.3312988,0.5454102-21.5639648
	s-0.1870117-14.4211426-0.5454102-21.5639648l-80.4140625-13.7541504
	c-1.6831055-16.4897461-4.5756836-32.6176758-8.5102539-48.333252l70.9111328-40.4575195
	c-4.2392578-13.8139648-9.1342773-27.3391113-14.7109375-40.5100098l-80.3417969,14.5910645
	c-7.1938477-14.7868652-15.4033203-28.9858246-24.5673828-42.491684l52.7392578-62.2016602
	c-8.6918945-11.487793-17.9833984-22.4863281-27.78125-33.0146484l-70.4550781,41.1601563
	c-11.7348633-11.3706055-24.2675781-21.9057617-37.5258789-31.5219727l28.2983398-76.5258865
	c-12.0429688-7.8146973-24.503418-15.0209923-37.3491211-21.6005821l-52.1152344,62.758297
	c-14.8398438-6.6459961-30.2272949-12.2607422-46.0915527-16.7722168l0.4172363-81.5756836
	c-13.9189453-3.1833496-28.0939636-5.6743174-42.5028992-7.4440928l-27.5163574,76.822998
	c-8.1005859-0.5710449-16.2519531-0.9660645-24.4978027-0.9660645c-8.2480469,0-16.3972168,0.3950195-24.4973145,0.9660645
	l-27.5166016-76.822998c-14.4060059,1.7697754-28.5817871,4.2597666-42.5029297,7.442872l0.4169922,81.5769043
	c-15.8640137,4.5114746-31.251709,10.1262207-46.0910645,16.7722168l-52.1159668-62.758297
	c-12.8457031,6.5795898-25.3059082,13.7858849-37.348877,21.5996056l28.2980957,76.5268631
	c-13.2583008,9.6162109-25.7907715,20.1525879-37.5253906,31.5219727l-70.4555664-41.1601563
	c-9.7973633,10.5283203-19.0893555,21.5268555-27.78125,33.0146484l52.7392578,62.2016602
	c-9.1633301,13.5063477-17.3735352,27.7048187-24.5671387,42.491684l-80.3417969-14.5910645
	c-5.5769043,13.1708984-10.4719238,26.6960449-14.7111816,40.5095215l70.9111328,40.4580078
	c-3.9343262,15.7155762-6.8266602,31.8435059-8.5102539,48.333252l-80.4140625,13.755127
	c-0.3583984,7.1425781-0.5454102,14.3303223-0.5454102,21.5629883s0.1870117,14.4204102,0.5454102,21.5629883l80.4140625,13.755127
	c1.6835938,16.4897461,4.5759277,32.6188965,8.5102539,48.3332825l-70.9111328,40.4580078
	c4.2392578,13.8134766,9.1342773,27.338623,14.7111816,40.5095215l80.3417969-14.5910645
	c7.1936035,14.7861328,15.4067383,28.9863281,24.5671387,42.4916992l-52.7392578,62.2016602
	c8.6918945,11.4870605,17.9838867,22.486084,27.78125,33.0144043l70.4555664-41.1599121
	c11.7346191,11.3701172,24.2670898,21.9057617,37.5253906,31.5219727l-28.2980957,76.5268555
	c12.0429688,7.814209,24.5031738,15.0205078,37.348877,21.5996094l52.1159668-62.7583008
	c14.8393555,6.6459961,30.2270508,12.2607422,46.0910645,16.7722168l-0.4169922,81.5769043
	c13.9211426,3.1826172,28.0969238,5.6730957,42.5029297,7.4428711l27.5166016-76.822998
	c8.1000977,0.5710449,16.2492676,0.9660645,24.4973145,0.9660645c8.2458496,0,16.3972168-0.3945313,24.4978027-0.9660645
	l27.5163574,76.822998c14.4089355-1.7697754,28.5839539-4.2609863,42.5028992-7.4436035l-0.4172363-81.5761719
	c15.8642578-4.5114746,31.251709-10.1262207,46.0915527-16.7722168l52.1152344,62.7583008
	c12.8457031-6.5795898,25.3061523-13.7854004,37.3491211-21.6005859l-28.2983398-76.5258789
	c13.2583008-9.6162109,25.7910156-20.1513672,37.5258789-31.5219727l70.4521484,41.1599121
	c9.7978516-10.5283203,19.0922852-21.5266113,27.7841797-33.0144043l-52.7392578-62.2016602
	c9.1640625-13.5053711,17.3735352-27.7055664,24.5673828-42.4916992l80.3417969,14.5910645
	c5.5766602-13.1708984,10.4716797-26.6960449,14.7109375-40.5100098l-70.9111328-40.4575195
	c3.9345703-15.714386,6.8271484-31.8435364,8.5102539-48.3332825L853.8033447,453.1401062z M639.1075439,269.2729187
	c17.6489258-10.1894531,40.2163086-4.1425781,50.4057617,13.5063477
	c10.1894531,17.6486816,4.1425781,40.2160645-13.5063477,50.4057617
	c-17.6484375,10.1894531-40.2158203,4.1425781-50.4052734-13.5063477
	C615.4117432,302.0299988,621.4586182,279.4623718,639.1075439,269.2729187z M607.104126,402.7392273H503.7447815
	c-8.625,0-14.015625-9.3369141-9.703125-16.8063965l52.0439148-90.1428223
	c3.6447754-6.3125,12.21875-7.4851074,17.4936523-2.4545898c26.6914063,25.4526367,46.0214844,58.5551758,54.4716797,95.7915039
	C619.6348877,396.1071472,614.2623291,402.7392273,607.104126,402.7392273z M540.8328857,193.5083466
	c6.7930908-11.7658691,21.8378906-15.7971191,33.6037598-9.0041504
	c11.7658691,6.7930908,15.7971191,21.8380127,9.0041504,33.6038818
	c-6.7932129,11.7658691-21.8380127,15.7971191-33.6037598,9.0041504
	C538.071167,220.3191376,534.0397949,205.2742157,540.8328857,193.5083466z M431.7897034,133.9821625
	c20.3791504,0,36.8996582,16.5205078,36.8996582,36.8996582c0,20.3789063-16.5205078,36.8994141-36.8996582,36.8994141
	s-36.8996582-16.5205078-36.8996582-36.8994141C394.8900452,150.5026703,411.410553,133.9821625,431.7897034,133.9821625z
	 M379.158844,247.9247894c16.7192383-4.7839355,34.3752441-7.3476563,52.6308594-7.3476563
	c21.4633789,0,42.0986328,3.5427246,61.3554688,10.0720215c6.6809082,2.2651367,9.5991211,10.1013031,6.0720215,16.210434
	l-52.854248,91.5461426c-4.3125,7.4694824-15.09375,7.4694824-19.40625,0l-54.3430176-94.1242676
	C368.98526,257.9965515,372.1817932,249.9211273,379.158844,247.9247894z M469.7181702,431.5761414
	c0,20.9472656-16.9812012,37.9287109-37.9284668,37.9287109c-20.9475098,0-37.9287109-16.9814453-37.9287109-37.9287109
	s16.9812012-37.9287109,37.9287109-37.9287109C452.736969,393.6474304,469.7181702,410.6288757,469.7181702,431.5761414z
	 M289.1426392,184.5041962c11.7658691-6.7929688,26.8109131-2.7617188,33.6040039,9.0041504
	c6.7929688,11.7658691,2.7617188,26.810791-9.0041504,33.6038818c-11.7658691,6.7929688-26.8109131,2.7617188-33.6038818-9.0041504
	C273.34552,206.3422089,277.37677,191.297287,289.1426392,184.5041962z M245.5387268,389.08078
	c9.1657715-40.342041,31.1013184-75.8303223,61.3325195-101.9904785c5.309082-4.5944824,13.5026855-3.1816406,17.0131836,2.8989258
	l55.3933105,95.9436035c4.3127441,7.4694824-1.0778809,16.8063965-9.703125,16.8063965H256.4796448
	C249.3033752,402.7392273,243.9486389,396.079071,245.5387268,389.08078z M146.495636,431.5761414
	c0-13.5860596,11.0136719-24.5997314,24.5997314-24.5997314s24.5997314,11.0136719,24.5997314,24.5997314
	s-11.0136719,24.5997314-24.5997314,24.5997314S146.495636,445.1622009,146.495636,431.5761414z M224.4715881,593.8793945
	c-17.6489258,10.1894531-40.2163086,4.1425781-50.4057617-13.5063477
	c-10.1894531-17.6486816-4.1425781-40.2160645,13.5061035-50.4057617
	c17.6489258-10.1894531,40.2163086-4.1425781,50.4060059,13.5063477
	C248.1673889,561.1223145,242.1205139,583.6899414,224.4715881,593.8793945z M237.9779358,319.6786804
	c-10.1896973,17.6489258-32.7570801,23.6958008-50.4060059,13.5063477
	c-17.6486816-10.1896973-23.6955566-32.7570801-13.5061035-50.4057617
	c10.1894531-17.6489258,32.7568359-23.6958008,50.4057617-13.5063477S248.1673889,302.0299988,237.9779358,319.6786804z
	 M255.9137268,457.7939148h113.6608887c8.6252441,0,14.0158691,9.3369141,9.7033691,16.8063965l-56.394043,97.6765442
	c-3.5275879,6.1098633-11.7758789,7.5004883-17.076416,2.8447266
	c-30.3474121-26.6557617-52.1682129-62.779541-60.8515625-103.759552
	C243.4762268,464.3778992,248.7745667,457.7939148,255.9137268,457.7939148z M322.7466431,669.6439819
	c-6.7930908,11.7658691-21.8381348,15.7971191-33.6040039,9.0041504
	c-11.7658691-6.7930908-15.7971191-21.8380127-9.0040283-33.6038818
	c6.7929688-11.7658691,21.8380127-15.7971191,33.6038818-9.0041504
	C325.5083618,642.8331909,329.5396118,657.8781128,322.7466431,669.6439819z M431.7897034,729.170166
	c-20.3791504,0-36.8996582-16.5205078-36.8996582-36.8996582s16.5205078-36.8996582,36.8996582-36.8996582
	s36.8996582,16.5205078,36.8996582,36.8996582S452.1688538,729.170166,431.7897034,729.170166z M494.4669495,612.0444336
	c-19.6335449,6.8203125-40.7214355,10.5307617-62.6772461,10.5307617c-18.7502441,0-36.8657227-2.7094727-53.984375-7.748291
	c-6.9360352-2.041748-10.0969238-10.0788574-6.4819336-16.3405762l55.6333008-96.3589172
	c4.3125-7.4697266,15.09375-7.4697266,19.40625,0l54.1135254,93.7270813
	C503.990387,601.9406738,501.1053772,609.7382813,494.4669495,612.0444336z M574.4366455,678.6481323
	c-11.7658691,6.7929688-26.8106689,2.7617188-33.6037598-9.0041504s-2.7617188-26.810791,9.0041504-33.6038818
	c11.7657471-6.7929688,26.8105469-2.7617188,33.6037598,9.0041504
	C590.2337646,656.8101196,586.2025146,671.8550415,574.4366455,678.6481323z M618.6446533,471.2621765
	c-8.003418,37.8742676-27.2260742,71.6072083-54.0332031,97.5571594
	c-5.2626953,5.0942383-13.8925781,3.9482422-17.5551758-2.3950195l-53.0146179-91.8240051
	c-4.3125-7.4694824,1.078125-16.8063965,9.703125-16.8063965h103.9203796
	C614.7623291,457.7939148,620.1119385,464.3180847,618.6446533,471.2621765z M689.5133057,580.3730469
	c-10.1894531,17.6489258-32.7568359,23.6958008-50.4057617,13.5063477s-23.6958008-32.7570801-13.5058594-50.4057617
	c10.1894531-17.6489258,32.7568359-23.6958008,50.4052734-13.5063477
	C693.6558838,540.1569824,699.7027588,562.7243652,689.5133057,580.3730469z M692.4838867,456.1758728
	c-13.5861816,0-24.5998535-11.0136719-24.5998535-24.5997314s11.0136719-24.5997314,24.5998535-24.5997314
	c13.5859375,0,24.5996094,11.0136719,24.5996094,24.5997314S706.0698242,456.1758728,692.4838867,456.1758728z"/>
</svg>
