<?xml version="1.0" encoding="utf-8"?>
<svg version="1.1" id="Livello_1" x="0px" y="0px" viewBox="0 0 864 864" style="enable-background:new 0 0 864 864;" xmlns="http://www.w3.org/2000/svg">
  <path d="M783.9631348,432.2599792c0-4.7757874-0.1720581-9.5108032-0.3612671-14.2393188l70.0630493-15.8891602 c-0.8139038-11.5488586-1.9638672-23.0055542-3.6887207-34.2796021l-71.9836426,0.0995178 c-1.737915-9.4007263-3.8264771-18.6742554-6.2959595-27.797699l64.8517456-31.1201782 c-3.3624878-11.0473022-7.2272949-21.8670654-11.4493408-32.5098572l-70.0149536,16.082428 c-3.7922363-8.7523804-7.9221191-17.322052-12.3864136-25.6895142l56.2078247-44.6964722 c-5.7348633-9.9919891-11.822876-19.7499237-18.3292847-29.2069244l-64.7228394,31.2800293 c-5.6288452-7.6620026-11.5863647-15.058136-17.8032227-22.2299957l44.9191284-56.1654205 c-7.7965698-8.4555054-15.9299927-16.5888977-24.385498-24.3854523l-56.1661987,44.9191284 c-7.171875-6.2160492-14.5671997-12.1760101-22.2300415-17.8040619l31.2800293-64.7228775 c-9.4553223-6.5063782-19.2149048-12.5935669-29.2061157-18.3284454l-44.6958618,56.2078323 c-8.3674316-4.4658966-16.9379272-8.594162-25.6911011-12.3856049l16.0840454-70.0157394 c-10.6436157-4.2228661-21.4650269-8.0877094-32.5106812-11.4501801l-31.1209717,64.851738 c-9.1234741-2.4694595-18.3953552-4.5580521-27.797699-6.2959671l0.1003113-71.9820023 c-11.2748413-1.7240515-22.7307434-2.8764095-34.2803955-3.6911335l-15.8899841,70.0630417 c-4.7285156-0.189209-9.4619141-0.3604736-14.2377014-0.3604736c-4.7758179,0-9.5091858,0.1712646-14.2377014,0.3604736 L402.093689,10.8150434c-11.5496826,0.814724-23.0063782,1.9662666-34.2787781,3.6903181l0.0978699,71.9828186 c-9.4015503,1.737915-18.6734009,3.8265076-27.796875,6.2959671l-31.1193542-64.851738 c-11.0473022,3.3624706-21.8670654,7.2256851-32.5106812,11.4493637l16.082428,70.0157394 c-8.7531738,3.7914429-17.3237,7.9205246-25.6894836,12.3864212l-44.6973114-56.2078323 c-9.9911804,5.7348785-19.749115,11.8204346-29.2061157,18.3276291l31.2800293,64.7236938 c-7.6628113,5.6280518-15.0581207,11.5871887-22.2299805,17.8032379l-56.1662445-44.9183044 c-8.4555054,7.7957458-16.5888977,15.9299469-24.3846359,24.3854523l44.9183121,56.1646118 c-6.2168732,7.1726685-12.1743927,14.5688019-17.8032379,22.2308044l-64.7220688-31.2800293 c-6.5071945,9.4570007-12.5951996,19.2141113-18.3300781,29.2061157l56.2078323,44.6972809 c-4.4642715,8.3674622-8.594162,16.9371338-12.3864212,25.6895142l-70.0149231-16.082428 c-4.2220497,10.6427917-8.0868931,21.4633789-11.4493656,32.5098572l64.851738,31.1201782 c-2.4702759,9.1226501-4.5588684,18.3961487-6.2959671,27.797699l-71.9836349-0.0995178 c-1.7232361,11.2740479-2.8747787,22.7307434-3.6886873,34.280426l70.0630341,15.8883362 c-0.1892014,4.7293091-0.3612823,9.4635315-0.3612823,14.2393188c0,4.7758179,0.172081,9.5092163,0.3612823,14.2385254 l-70.0630341,15.8891602c0.8139086,11.5488586,1.9654512,23.0047607,3.6886873,34.2796021l71.9836349-0.1003113 c1.7370987,9.4023438,3.8256912,18.6750488,6.2959671,27.7984619l-64.851738,31.1202393 c3.3624725,11.0456543,7.2256832,21.8662109,11.4493656,32.5098267l70.0149231-16.083252 c3.7922592,8.7531738,7.9221497,17.322876,12.3864212,25.6895142l-56.2078323,44.6981201 c5.7348785,9.9903564,11.8212509,19.7490845,18.3284454,29.2061157l64.7237015-31.2808838 c5.6288452,7.6628418,11.5863647,15.0581665,17.8032379,22.230835l-44.9183121,56.1654053 c7.7957382,8.4555054,15.9291306,16.5897217,24.3846359,24.3846436l56.1662445-44.9182739 c7.1718597,6.2168579,14.5671692,12.1759644,22.2299805,17.8032227l-31.2800293,64.7236938 c9.4570007,6.5079956,19.2149353,12.5935669,29.2061157,18.3284302l44.6973114-56.2078247 c8.3657837,4.4650879,16.9363098,8.5949707,25.6894836,12.3864136l-16.082428,70.0157471 c10.6436157,4.2228394,21.4633789,8.0869141,32.5106812,11.4493408l31.1193542-64.8525391 c9.1234741,2.4694824,18.3953247,4.5588989,27.796875,6.296814l-0.0978699,71.9827881 c11.2723999,1.7240601,22.7290955,2.8756104,34.2787781,3.6895142l15.8899841-70.0621948 c4.7285156,0.189209,9.4618835,0.3604126,14.2377014,0.3604126c4.7757874,0,9.5091858-0.1712036,14.2377014-0.3604126 l15.8899841,70.0621948c11.5496521-0.8139038,23.0055542-1.9662476,34.2803955-3.6903076l-0.1003113-71.9819946 c9.4023438-1.7387695,18.6742249-3.8273315,27.797699-6.296814l31.1209717,64.8525391 c11.0456543-3.3624268,21.8670654-7.2280884,32.5106812-11.4501343l-16.0840454-70.0157471 c8.7531738-3.7922974,17.3236694-7.9205322,25.6911011-12.3856201l44.6958618,56.2078247 c9.9912109-5.7348633,19.7507935-11.8220825,29.2061157-18.3284302L640.1875,715.8909302 c7.6628418-5.6280518,15.0581665-11.5872192,22.2300415-17.8040771l56.1661987,44.9191284 c8.4555054-7.7957153,16.5889282-15.9299316,24.385498-24.3846436l-44.9191284-56.1661987 c6.2168579-7.171875,12.1743774-14.5679932,17.8032227-22.230835l64.7244873,31.2816772 c6.5064087-9.4570313,12.5927734-19.2165527,18.3276367-29.2069092l-56.2078247-44.6973267 c4.4642944-8.3666382,8.5941772-16.9363403,12.3864136-25.6895142l70.0149536,16.083252 c4.2228394-10.6436157,8.086853-21.4633789,11.4493408-32.5098267l-64.8517456-31.1210327 c2.4694824-9.1234131,4.5580444-18.3953247,6.2959595-27.7976685l71.9836426,0.1003113 c1.7248535-11.2748413,2.8748169-22.7307434,3.6887207-34.2796021l-70.0630493-15.8891602 C783.7910767,441.7691956,783.9631348,437.0357971,783.9631348,432.2599792z M443.9113159,307.7514954 c44.7079163,4.2767029,82.3157349,32.8173523,99.5341797,72.3033447l-73.0405579,23.7313843 c-6.066803-9.3452759-15.4585571-16.3034668-26.4936218-19.2434692V307.7514954z M477.6184082,426.026825l73.0413818-23.7314148 c1.8577881,8.4375916,2.8666382,17.1940308,2.8666382,26.1902771c0,36.1373901-15.8198853,68.5648804-40.8911743,90.7875061 l-45.1156921-62.0951843c6.3824158-7.8365479,10.2236328-17.821991,10.2236328-28.6931458 C477.7431946,427.6554565,477.6624451,426.8456116,477.6184082,426.026825z M454.3600159,428.4848633 c0,12.2070007-9.9332886,22.1386414-22.1402893,22.1386414s-22.1369934-9.9316406-22.1369934-22.1386414 s9.9299927-22.1370239,22.1369934-22.1370239S454.3600159,416.2778625,454.3600159,428.4848633z M420.5281677,307.7523193 v76.7904358c-11.0326233,2.9400024-20.4243774,9.8981934-26.490387,19.2426453l-73.0405579-23.7313843 C338.2156982,340.5688477,375.8218994,312.0298157,420.5281677,307.7523193z M396.9215393,457.1763611l-45.1140442,62.0968323 c-25.0713196-22.2226257-40.8919678-54.650116-40.8919678-90.7875061c0-8.9962463,1.0088196-17.7518616,2.8666077-26.1894531 l73.0413818,23.7322083c-0.0440369,0.8188171-0.1239624,1.6278381-0.1239624,2.4564209 C386.6995544,439.3560181,390.540741,449.3398438,396.9215393,457.1763611z M410.5068054,138.7153625v137.3760681 c-3.2760315,0.444458-6.5357361,0.9484863-9.7514038,1.603363l-10.2423706-24.09758 c-5.2341309,1.2232971-10.380188,2.7026825-15.4471436,4.3680267l3.7653503,25.8787231 c-5.8148193,2.0991821-11.4836121,4.5213318-16.9779053,7.2680969l-16.0922546-20.5752869 c-4.7284851,2.533905-9.3452759,5.2561646-13.8250122,8.1872253l10.3320618,24.0127563 c-5.0563354,3.5174255-9.9014587,7.3227234-14.5157776,11.4045105L306.867157,298.418457 c-3.9072266,3.6585083-7.6448669,7.5005188-11.2267151,11.4934082l16.1819458,20.5059509 c-3.9700317,4.6877136-7.6660767,9.6225586-11.0807495,14.775116l-24.251709-9.7840271 c-2.8184814,4.5286865-5.4730835,9.1772766-7.900116,13.9734802l20.987915,15.6559143 c-2.6072693,5.5407715-4.9421692,11.2454834-6.9067993,17.1426392l-25.8901367-3.1651001 c-1.5364838,5.0914001-2.8666229,10.2814941-3.9684296,15.569458l24.2655792,9.6665955 c-0.3718872,2.077179-0.6589661,4.1886292-0.957428,6.294342H138.6775513 C149.2795715,265.2692261,265.2305908,149.3181915,410.5068054,138.7153625z M410.5068054,725.8029785 c-145.2762146-10.6028442-261.2272339-126.553833-271.8292542-271.8308716h137.4698486 c0.4420471,3.248291,0.9427795,6.4811096,1.5919495,9.6698608l-24.09758,10.2431946 c1.2225037,5.2341309,2.701889,10.37854,4.3680267,15.4471436l25.8787231-3.7653503 c2.0983887,5.8147888,4.5213623,11.4836121,7.2689209,16.9787292l-20.5760803,16.0914001 c2.5338745,4.7285156,5.256134,9.3444824,8.1863708,13.8242188l24.0144043-10.3312378 c3.5157776,5.0563354,7.3227234,9.9022827,11.4028625,14.5157471l-15.7219543,20.8851929 c3.6585083,3.9072266,7.4996948,7.6448975,11.4942017,11.2258911l20.504303-16.1810913 c4.6885376,3.9692383,9.6233826,7.6660767,14.7759705,11.0807495l-9.7840271,24.2508545 c4.5286865,2.8193359,9.1772461,5.473938,13.9734497,7.9017944l15.6559143-20.987915 c5.5407715,2.6064453,11.2454834,4.9421387,17.1434631,6.9067993l-3.1659241,25.8892822 c5.0922241,1.536499,10.2815247,2.8666382,15.5694885,3.9676514l9.6657715-24.2647705 c2.0502625,0.3677979,4.1331482,0.6483154,6.2111511,0.944397V725.8029785z M432.2213745,549.7907104 c-22.4542542,0-43.4674683-6.1239014-61.5047607-16.7585449l45.1319885-62.1204834 c5.0889587,1.9703674,10.5954895,3.0949707,16.3711243,3.0949707c5.7756653,0,11.2838135-1.1238098,16.3719788-3.0949707 l45.133606,62.1204834C475.6888428,543.6668091,454.6748047,549.7907104,432.2213745,549.7907104z M453.9326782,725.8029785 v-137.539978c3.276825-0.4453125,6.5373535-0.9492798,9.7538452-1.6033325l10.2431946,24.0975342 c5.2341309-1.2241211,10.379364-2.7026978,15.4471436-4.3696289l-3.7661743-25.8779297 c5.8148193-2.0983887,11.484436-4.5213623,16.9787292-7.2680664l16.0922241,20.5752563 c4.7277222-2.5338745,9.3444824-5.2561646,13.8242188-8.1864014l-10.3320923-24.0135498 c5.0563965-3.5166016,9.9023438-7.3235474,14.5158081-11.4037476l20.8851929,15.7219849 c3.9080811-3.6585083,7.6456909-7.4996948,11.2275391-11.4942017l-16.1828003-20.505127 c3.9700928-4.6868896,7.6660767-9.6217041,11.081604-14.7751465l24.2508545,9.7848511 c2.8193359-4.5286865,5.473938-9.178894,7.901001-13.9750977l-20.9879761-15.6558838 c2.6072998-5.540802,4.9421997-11.2446899,6.9068604-17.1426697l25.8900757,3.166748 c1.536499-5.0930481,2.8666382-10.2815247,3.9684448-15.569458l-24.265564-9.6665955 c0.3620605-2.0233765,0.6393433-4.0801697,0.9313354-6.1304321h137.4692383 C715.1633911,599.249939,599.2105103,715.2025757,453.9326782,725.8029785z M588.3181763,410.5462341 c-0.4477539-3.3045654-0.9550171-6.5920105-1.6148071-9.8345947l24.0975952-10.2431641 c-1.2233276-5.2349548-2.7019043-10.3793945-4.3688354-15.4463501l-25.8779297,3.7653503 c-2.0983887-5.8147888-4.5213013-11.4836121-7.2688599-16.9787292l20.5760498-16.0922241 c-2.534729-4.7276917-5.2561646-9.3452759-8.1864014-13.8250427l-24.0144043,10.3329163 c-3.5157471-5.056366-7.3226929-9.9023132-11.402832-14.5158081l15.7219849-20.8851624 c-3.6585693-3.9088745-7.4997559-7.6465149-11.4942627-11.2275391l-20.5042725,16.1819458 c-4.6877441-3.9700623-9.6234131-7.6652527-14.7759399-11.0799255l9.78479-24.252533 c-4.52948-2.817688-9.1780396-5.4730835-13.9750366-7.9001465l-15.6551208,20.9879456 c-5.539978-2.6072998-11.2463074-4.9421692-17.1434631-6.9068298l3.1659241-25.8893127 c-5.0922546-1.5381012-10.2807007-2.8674316-15.5694885-3.969223l-9.6657715,24.2647552 c-2.0510864-0.3670044-4.1356201-0.6483459-6.2144165-0.944397V138.7153625 c145.277832,10.6011963,261.2307129,126.5530396,271.8327026,271.8308716H588.3181763z" style="fill: rgb(1, 56, 70);"/>
</svg>