<?xml version="1.0" encoding="utf-8"?>
<!-- Generator: Adobe Illustrator 19.0.1, SVG Export Plug-In . SVG Version: 6.00 Build 0)  -->
<svg version="1.1" id="Livello_1" xmlns="http://www.w3.org/2000/svg" xmlns:xlink="http://www.w3.org/1999/xlink" x="0px" y="0px"
	 viewBox="0 0 864 864" style="enable-background:new 0 0 864 864;" xml:space="preserve">
<g>
	<circle cx="432.206543" cy="432.2591858" r="50.1405449"/>
	<path d="M786.8287354,432.2594299c0-4.8144226-0.1735229-9.5884705-0.3640747-14.3557434l70.6364136-16.0195007
		c-0.8209839-11.6430359-1.9802246-23.1932373-3.7192993-34.5601807l-72.5743408,0.1006165
		c-1.7503052-9.4781494-3.8554077-18.8274841-6.3474121-28.0251465l65.3830566-31.375061
		c-3.3897705-11.1375427-7.2855225-22.0461426-11.5419312-32.7758789l-70.5882568,16.2139282
		c-3.8243408-8.8238831-7.9869385-17.4640503-12.487854-25.8995972l56.6685791-45.0629425
		c-5.7821655-10.0730743-11.920105-19.911377-18.4804077-29.4454041l-65.2523193,31.5364227
		c-5.6742554-7.7254028-11.6809692-15.1815338-17.9486694-22.4121399l45.2855225-56.6257629
		c-7.8590698-8.5244904-16.0593872-16.7242966-24.583374-24.5848312l-56.6257324,45.2870102
		c-7.2316284-6.2672272-14.6872559-12.2758789-22.413147-17.950119l31.536438-65.2523422
		c-9.5325928-6.5603256-19.3723145-12.6968079-29.4454346-18.4789543l-45.0609741,56.6685448
		c-8.4360352-4.5028458-17.0766602-8.6654434-25.9020386-12.4878082l16.2153931-70.5887604
		c-10.7312012-4.256897-21.6392822-8.1536255-32.777832-11.5433941L525.0669556,90.004982
		c-9.1981201-2.4895935-18.5460205-4.5951996-28.025116-6.3479233l0.0996399-72.5713959
		c-11.365509-1.7381439-22.9157104-2.8998232-34.5592346-3.7207751l-16.019989,70.6359177
		c-4.7677307-0.1900482-9.5413208-0.3630829-14.3547363-0.3630829c-4.8158875,0-9.5870056,0.1730347-14.3542786,0.3630829
		L401.833252,7.3648868c-11.6440125,0.8209519-23.1942139,1.9816594-34.5596924,3.7198033l0.0996399,72.5723724
		c-9.479126,1.7517548-18.8269958,3.8583298-28.0246582,6.3479233l-31.3745728-65.3825989
		c-11.138031,3.3897686-22.0461426,7.2850399-32.777832,11.5429096l16.2158813,70.588768
		c-8.8258362,3.8223572-17.4660034,7.9854431-25.9020386,12.4882889l-45.0614777-56.6685448
		c-10.0730743,5.7821465-19.9128265,11.9171715-29.4454041,18.4779854l31.5364227,65.2533112
		c-7.7254028,5.6742401-15.1815338,11.6819153-22.4126282,17.9491425l-56.6257629-45.2860336
		c-8.5240021,7.8595657-16.7247772,16.0603409-24.5833664,24.5848312l45.2855453,56.6248016
		c-6.2682037,7.2315674-12.2744293,14.6876984-17.9486694,22.4131012l-65.252327-31.5364227
		c-6.5608139,9.5340271-12.6982727,19.3713684-18.4804192,29.4449158l56.6680641,45.0634308
		c-4.500412,8.4355469-8.6659317,17.0757141-12.4878082,25.8995972l-70.5882797-16.2139282
		c-4.2559261,10.7297363-8.1545982,21.6393127-11.5443668,32.7758789l65.3830795,31.3745728
		c-2.4891052,9.1976624-4.5947037,18.5469971-6.3479156,28.0256348l-72.5713959-0.1006165
		c-1.7391167,11.3669434-2.898365,22.9171448-3.719317,34.5611572l70.6363983,16.0190125
		c-0.1900482,4.7677612-0.3635712,9.5408325-0.3635712,14.3552551c0,4.8143921,0.1735229,9.5874939,0.3635712,14.3552246
		L7.313951,462.633667c0.8209519,11.6440125,1.9802003,23.1937256,3.719317,34.5606995l72.5713959-0.1011047
		c1.753212,9.4790955,3.8588104,18.8279419,6.3479156,28.026123l-65.3830795,31.3740845
		c3.3897686,11.1370239,7.2855244,22.0456543,11.5443668,32.7758789l70.5882797-16.2139282
		c3.8218765,8.8248291,7.9873962,17.4640503,12.4878082,25.9000854l-56.6680641,45.0634155
		c5.7821465,10.0720825,11.9166908,19.9108887,18.4774971,29.4448853l65.255249-31.536377
		c5.6742401,7.7258911,11.6804657,15.1815186,17.9486694,22.4125977l-45.2855453,56.6253052
		c7.8585892,8.5249634,16.0593643,16.7247314,24.5833664,24.5843506l56.6257629-45.2860718
		c7.2310944,6.2672119,14.6872253,12.2758789,22.4126282,17.9491577l-31.5364227,65.2532959
		c9.5325775,6.5608521,19.3723297,12.6963501,29.4454041,18.4785156l45.0614777-56.6685791
		c8.4360352,4.5023804,17.0762024,8.6659546,25.9020386,12.4882813l-16.2158813,70.5888062
		c10.7316895,4.2573853,21.639801,8.1531372,32.777832,11.5429077l31.3745728-65.3831177
		c9.1976624,2.4901123,18.5455322,4.5961914,28.0246582,6.3479004l-0.0996399,72.5723877
		c11.3654785,1.7381592,22.9156799,2.8988647,34.5596924,3.7202759l16.019989-70.6358643
		c4.7672729,0.1900024,9.5383911,0.3625488,14.3542786,0.3625488c4.8134155,0,9.5870056-0.1725464,14.3547363-0.3625488
		l16.019989,70.6358643c11.6435242-0.8214111,23.1937256-1.9830933,34.5592346-3.7212524l-0.0996399-72.5714111
		c9.4790955-1.7526855,18.8269958-3.8577881,28.025116-6.3479004l31.3740845,65.3831177
		c11.1385498-3.3897705,22.0466309-7.286499,32.777832-11.543396l-16.2153931-70.5892944
		c8.8253784-3.8233032,17.4660034-7.9849243,25.9020386-12.4873047l45.0609741,56.6685791
		c10.0731201-5.7821655,19.9128418-11.9186401,29.4454346-18.4790039l-31.536438-65.2528076
		c7.7258911-5.6742554,15.1815186-11.6824341,22.413147-17.949646l56.6257324,45.2865601
		c8.5239868-7.8600464,16.7243042-16.0603638,24.583374-24.5843506l-45.2855225-56.6257935
		c6.2677002-7.2305908,12.2744141-14.6881714,17.9486694-22.4125977l65.2547607,31.5368652
		c6.5578613-9.5339966,12.6958008-19.3728027,18.4779663-29.4458618l-56.6685791-45.062439
		c4.5009155-8.4360352,8.6635132-17.0752563,12.487854-25.9000854l70.5882568,16.2139282
		c4.2564087-10.7302246,8.1521606-21.6383667,11.5419312-32.7758789l-65.3830566-31.375061
		c2.4920044-9.1981812,4.5971069-18.546051,6.3474121-28.0251465l72.5743408,0.1011047
		c1.7390747-11.3669739,2.8983154-22.916687,3.7192993-34.5606995l-70.6364136-16.0190125
		C786.6552124,441.8469238,786.8287354,437.073822,786.8287354,432.2594299z M404.7355042,129.7640533l-9.601593,157.8352203
		c-13.8604431,3.5535889-26.9363708,9.0722961-38.9458923,16.2061462L237.8241119,199.0161591
		C283.9315796,160.524231,341.5751648,135.4577332,404.7355042,129.7640533z M303.7520752,356.2394409
		c-7.1353455,12.0095215-12.6550293,25.0864258-16.2100525,38.9478455l-157.8250275,9.6006165
		c5.6927185-63.1593628,30.7577667-120.8039246,69.2467651-166.9113922L303.7520752,356.2394409z M287.5400696,469.3305969
		c3.5540771,13.8633423,9.0727844,26.9407349,16.2090759,38.9517212L198.9608459,626.6452637
		c-38.489975-46.1074829-63.5540466-103.7529907-69.2438507-166.9148254L287.5400696,469.3305969z M356.1860657,560.7143555
		c12.010498,7.1334229,25.0864258,12.6520996,38.9478455,16.2052002l9.601593,157.8347168
		c-63.1613159-5.6936646-120.8068237-30.758728-166.9143066-69.2496338L356.1860657,560.7143555z M333.5532532,432.2652588
		c0-54.3991394,44.2672729-98.6528015,98.6532898-98.6528015c54.3869934,0,98.6532593,44.2536621,98.6532593,98.6528015
		c0,54.3865051-44.2662659,98.640625-98.6532593,98.640625
		C377.8205261,530.9058838,333.5532532,486.6517639,333.5532532,432.2652588z M508.2250671,303.8054199
		c-12.0095215-7.1338501-25.0854797-12.6525574-38.9458923-16.2061462l-9.601593-157.8371735
		c63.1651917,5.6893158,120.811676,30.754364,166.9191589,69.2472534L508.2250671,303.8054199z M665.4541626,237.8711548
		c38.4880371,46.1089478,63.5501709,103.7544556,69.2419434,166.916748l-157.8250732-9.6006165
		c-3.5549927-13.8614197-9.074707-26.938324-16.210022-38.9478455L665.4541626,237.8711548z M469.2791748,576.9195557
		c13.8613892-3.5531006,26.9382935-9.0717773,38.9478149-16.2052002l118.3726807,104.7965698
		c-46.1074829,38.4924316-103.7549438,63.5565186-166.9220886,69.2453003L469.2791748,576.9195557z M560.6639404,508.2823181
		c7.1362915-12.0109863,12.6559448-25.0883789,16.210022-38.9517212l157.8230591-9.6001587
		c-5.6897583,63.1647034-30.7509155,120.8117371-69.2389526,166.9201355L560.6639404,508.2823181z"/>
</g>
</svg>
