<?xml version="1.0" encoding="utf-8"?>
<!-- Generator: Adobe Illustrator 19.0.1, SVG Export Plug-In . SVG Version: 6.00 Build 0)  -->
<svg version="1.1" id="Livello_1" xmlns="http://www.w3.org/2000/svg" xmlns:xlink="http://www.w3.org/1999/xlink" x="0px" y="0px"
	 viewBox="0 0 864 864" style="enable-background:new 0 0 864 864;" xml:space="preserve">
<g>
	<path d="M682.949707,585.7385254l-50.4931641,0.8359375c-4.1660156-9.0217285-9.1381836-17.5878906-14.8232422-25.6203613
		l25.9550781-43.286377c-6.6274414-7.660614-13.7963867-14.8295593-21.4575195-21.4567566l-43.2861328,25.9555359
		c-8.0317383-5.6860352-16.5986328-10.6579285-25.6201172-14.8241882l0.8359375-50.4924316
		c-9.4746094-3.2910156-19.2514648-5.921875-29.2905273-7.833252l-24.5253601,44.1523438
		c-4.8774414-0.4421387-9.8056641-0.7023926-14.7973633-0.7023926s-9.9204102,0.2602539-14.7958984,0.7023926
		l-24.5273438-44.1523438c-10.0380859,1.911377-19.8164063,4.541748-29.2895508,7.8327637l0.8354492,50.4929199
		c-9.0214844,4.1665039-17.5883789,9.1381531-25.6201172,14.8241882l-43.2871094-25.9555359
		c-7.6601563,6.6271973-14.8300781,13.7961426-21.456543,21.4567566l25.9555664,43.286377
		c-5.6855469,8.0322266-10.6577148,16.5986328-14.8242188,25.6203613l-50.4921875-0.8359375
		c-3.2915039,9.4743652-5.9223633,19.251709-7.8339844,29.2900391l44.1533203,24.5266113
		c-0.4428711,4.8759766-0.703125,9.8051758-0.703125,14.796875c0,4.9912109,0.2602539,9.9204102,0.703125,14.7966309
		l-44.1533203,24.5266113c1.9116211,10.0383301,4.5424805,19.8154297,7.8339844,29.2895508l50.4921875-0.8356934
		c4.1665039,9.0219727,9.1386719,17.5883789,14.8242188,25.6206055l-25.9555664,43.2861328
		c6.6264648,7.6604004,13.7963867,14.8303223,21.456543,21.4570313l43.2871094-25.9555664
		c8.0317383,5.6860352,16.5986328,10.6577148,25.6201172,14.8244629l-0.8354492,50.4926758
		c9.4731445,3.2910156,19.2514648,5.9213867,29.2895508,7.8327637l24.5258789-44.1523438
		c4.8769531,0.4421387,9.8056641,0.7023926,14.7973633,0.7023926s9.9199219-0.2602539,14.7973633-0.7023926l24.5253601,44.1523438
		c10.0390625-1.911377,19.815918-4.5422363,29.2905273-7.833252l-0.8359375-50.4921875
		c9.0214844-4.1665039,17.5883789-9.1384277,25.6201172-14.8244629l43.2861328,25.9555664
		c7.6611328-6.626709,14.8300781-13.7966309,21.4575195-21.4570313l-25.9550781-43.2861328
		c5.6850586-8.0324707,10.6572266-16.5986328,14.8232422-25.6206055l50.4931641,0.8356934
		c3.2900391-9.4741211,5.9213867-19.251709,7.8325195-29.2897949l-44.1518555-24.5263672
		c0.4428711-4.8762207,0.7026367-9.8054199,0.7026367-14.7966309c0-4.9916992-0.2597656-9.9208984-0.7026367-14.7973633
		l44.1518555-24.526123C688.8710938,604.9902344,686.2412109,595.2128906,682.949707,585.7385254z M502.0039368,527.3930664
		c34.5712585,4.4902344,64.7934265,22.7727051,85.0536804,49.1765137l-53.2397461,30.7392578
		c-8.5668945-8.8083496-19.5209961-15.2336426-31.8139343-18.3391113V527.3930664z M537.2695313,650.8085938
		c0,4.6933594-3.8237305,8.5092773-8.5131836,8.5092773c-4.6889648,0-8.5131836-3.815918-8.5131836-8.5092773
		c0-4.6928711,3.8242188-8.5131836,8.5131836-8.5131836C533.4458008,642.2954102,537.2695313,646.1157227,537.2695313,650.8085938z
		 M496.651886,610.8173828c1.5766602-2.7282715,4.4467773-4.2563477,7.3896484-4.2563477
		c1.4472656,0,2.9106445,0.3679199,4.2446289,1.1398926c4.0663757,2.3486328,5.4653015,7.5632324,3.1206055,11.6296387
		c-2.3530273,4.0629883-7.559082,5.4536133-11.6337891,3.112793c-1.9731445-1.1357422-3.3798828-2.9709473-3.9697266-5.1660156
		C495.2212219,615.0822754,495.52005,612.786377,496.651886,610.8173828z M468.8887024,527.3930664v61.5766602
		c-12.2924805,3.1054688-23.2451172,9.5317383-31.8129883,18.3391113l-53.2402344-30.7392578
		C404.0957336,550.1657715,434.3174133,531.8833008,468.8887024,527.3930664z M468.9458313,620.8225098
		c-0.590332,2.1950684-1.9970703,4.0302734-3.9614258,5.1660156c-4.0585938,2.3447266-9.2734375,0.9541016-11.6342773-3.1125488
		c-1.1318359-1.9726563-1.4389648-4.2648926-0.8486328-6.4638672c0.5898438-2.1948242,1.996582-4.0302734,3.9614258-5.1660156
		c1.3339844-0.7719727,2.7973633-1.1401367,4.2446289-1.1401367c2.9423828,0,5.8129883,1.5283203,7.3891602,4.2568359
		C469.2285461,616.3312988,469.535675,618.6274414,468.9458313,620.8225098z M450.6499329,657.8952637
		c0,4.6928711-3.8242188,8.5131836-8.5131836,8.5131836c-4.6894531,0-8.5136719-3.8203125-8.5136719-8.5131836
		c0-4.6936035,3.8242188-8.5092773,8.5136719-8.5092773C446.8257141,649.3859863,450.6499329,653.2016602,450.6499329,657.8952637z
		 M357.2954407,654.3500977c0-17.4206543,3.5229492-34.0268555,9.847168-49.1816406l53.3857422,30.822998
		c-1.6503906,5.8452148-2.5942383,11.9875488-2.5942383,18.3605957c0,6.3728027,0.9428711,12.5151367,2.5942383,18.3601074
		l-53.3837891,30.8232422C360.8193665,688.3786621,357.2954407,671.7724609,357.2954407,654.3500977z M468.8887024,781.310791
		c-34.5703125-4.4912109-64.7929688-22.7749023-85.0522461-49.1774902l53.2392578-30.7382813
		c8.5678711,8.807373,19.5205078,15.2336426,31.8129883,18.3381348V781.310791z M474.2412415,697.8864746
		c-2.3447266,4.0705566-7.5834961,5.4567871-11.6337891,3.1164551c-4.0668945-2.3486328-5.465332-7.5632324-3.1210938-11.6298828
		c1.5766602-2.7287598,4.4467773-4.2568359,7.3896484-4.2568359c1.4472656,0,2.9106445,0.3681641,4.2446289,1.1401367
		C475.1870422,688.6047363,476.585968,693.8195801,474.2412415,697.8864746z M485.4468079,674.248291
		c-10.9887695,0-19.8964844-8.9089355-19.8964844-19.8962402c0-10.9887695,8.9077148-19.8964844,19.8964844-19.8964844
		c10.9882813,0,19.8959961,8.9077148,19.8959961,19.8964844C505.342804,665.3393555,496.4350891,674.248291,485.4468079,674.248291z
		 M505.9092102,682.715332c1.3417969-0.7724609,2.796875-1.1401367,4.2446289-1.1401367
		c2.9428406,0,5.8129578,1.5283203,7.3891296,4.2526855c1.1318359,1.9726563,1.4389648,4.2648926,0.8486328,6.4638672
		c-0.5898438,2.1948242-1.9970703,4.0300293-3.9614258,5.1660156c-4.0419617,2.3486328-9.2729187,0.9541016-11.6337585-3.1166992
		C500.4516907,690.2783203,501.8506165,685.0639648,505.9092102,682.715332z M502.0039368,781.310791v-61.5776367
		c12.2929382-3.1044922,23.2460632-9.5307617,31.8139343-18.3381348l53.2387695,30.7382813
		C566.7973633,758.5358887,536.5742188,776.8195801,502.0039368,781.310791z M603.7495117,703.5354004l-53.3842773-30.8232422
		c1.6508789-5.8449707,2.5942383-11.9873047,2.5942383-18.3601074c0-6.3730469-0.9443359-12.5153809-2.5942383-18.3605957
		l53.3852539-30.822998c6.3242188,15.1547852,9.847168,31.7609863,9.847168,49.1816406
		C613.5976563,671.7724609,610.074707,688.3786621,603.7495117,703.5354004z"/>
	<path d="M324.6860657,553.3791504l-0.84375-50.9977722c9.1118164-4.208252,17.7641602-9.2299805,25.8764648-14.9729004
		l43.7192383,26.2155457c7.7382813-6.6930847,14.9790039-13.9347839,21.6728516-21.6720886l-26.215332-43.7194824
		c5.7421875-8.1130371,10.7641602-16.7646484,14.972168-25.8769531l50.9980469,0.84375
		c3.3232422-9.5683594,5.9814453-19.4440918,7.9106445-29.5827637l-44.59375-24.7717285
		c0.4472656-4.925293,0.7099609-9.9035645,0.7099609-14.9453125c0-5.0415039-0.2626953-10.0200195-0.7099609-14.9453125
		l44.59375-24.7714844c-1.9291992-10.1386719-4.5864258-20.0144043-7.9106445-29.5830078l-50.9980469,0.84375
		c-4.2080078-9.1118164-9.2299805-17.763916-14.972168-25.8764648l26.215332-43.7197418
		c-6.6938477-7.7373047-13.9345703-14.9780273-21.6728516-21.6713867l-43.7192383,26.2150879
		c-8.1123047-5.7429199-16.7646484-10.7644043-25.8764648-14.9724121l0.84375-50.9980469
		c-9.5693359-3.3239746-19.4443359-5.9814453-29.5830078-7.9121094l-24.7709961,44.5947266
		c-4.9262695-0.4467773-9.9042969-0.7094727-14.9458008-0.7094727s-10.0195313,0.2626953-14.9443359,0.7094727
		l-24.7724609-44.5947266c-10.1386719,1.9306641-20.0151367,4.5874023-29.5830078,7.911377l0.84375,50.9987793
		c-9.1118164,4.2080078-17.7641602,9.2294922-25.8764648,14.9724121l-43.7207108-26.2150879
		c-7.7368164,6.6933594-14.9785156,13.934082-21.6708984,21.6713867l26.2148438,43.7194977
		c-5.7421875,8.112793-10.7636719,16.7648926-14.972168,25.876709l-50.9980469-0.84375
		c-3.3242188,9.5686035-5.9814453,19.4443359-7.9121094,29.5830078l44.5952148,24.7722168
		c-0.4472656,4.9250488-0.7099609,9.9030762-0.7099609,14.9445801c0,5.041748,0.2626953,10.0200195,0.7099609,14.9453125
		l-44.5952148,24.7717285c1.9306641,10.138916,4.5878906,20.0144043,7.9121094,29.5827637l50.9980469-0.84375
		c4.2084961,9.1123047,9.2299805,17.7646484,14.972168,25.8771973l-26.2148438,43.7192383
		c6.6923828,7.7373047,13.934082,14.9790039,21.6708984,21.6720886l43.7207108-26.2155457
		c8.1123047,5.7429199,16.7646484,10.7641602,25.8764648,14.9729004l-0.84375,50.9977722
		c9.5678711,3.3239746,19.4443359,5.9807129,29.5830078,7.911377l24.7714844-44.5942383
		c4.9257813,0.4467773,9.9038086,0.7092285,14.9453125,0.7092285s10.0195313-0.2624512,14.9458008-0.7092285l24.7709961,44.5942383
		C305.2417297,559.3598633,315.1167297,556.703125,324.6860657,553.3791504z M255.3857727,442.0791321
		c-48.7001953,0-88.1791992-39.4794922-88.1791992-88.1796875c0-48.6999512,39.4790039-88.1789551,88.1791992-88.1789551
		c48.699707,0,88.1787109,39.4790039,88.1787109,88.1789551
		C343.5644836,402.5996399,304.0854797,442.0791321,255.3857727,442.0791321z"/>
	<circle cx="255.3857727" cy="353.8994446" r="34.0102539"/>
	<path d="M769.7050781,212.2221832c0-5.0415039-0.2631836-10.0200195-0.7099609-14.9453125l44.59375-24.7714844
		c-1.9296875-10.1386719-4.5864258-20.0144043-7.9106445-29.5830078l-50.9985352,0.84375
		c-4.2080078-9.1118164-9.2294922-17.7639084-14.972168-25.8764572l26.215332-43.7197266
		C759.2290039,66.4326401,751.9882813,59.1919136,744.25,52.4983101l-43.71875,26.2153358
		c-8.112793-5.7429199-16.7651367-10.7644043-25.8769531-14.9724159l0.8442383-50.9980469
		c-9.5698242-3.3239746-19.4443359-5.9814453-29.5834961-7.9121094L621.144043,49.4258003
		c-4.9262695-0.4467773-9.9038086-0.7094727-14.9458008-0.7094727c-5.0415039,0-10.019043,0.2626953-14.9438477,0.7094727
		L566.4814453,4.8310747c-10.1386719,1.9306641-20.0146484,4.5874023-29.5830078,7.911377l0.8442383,50.9987793
		c-9.1118164,4.2080116-17.7646484,9.229496-25.8769226,14.9724159l-43.7202148-26.2153358
		c-7.7373047,6.6936035-14.9790039,13.93433-21.6713867,21.6716347l26.2148438,43.7194824
		c-5.7421875,8.112793-10.7636719,16.7648849-14.972168,25.8767014l-50.9980469-0.84375
		c-3.3242188,9.5686035-5.980957,19.4443359-7.9121094,29.5830078l44.5952148,24.7722168
		c-0.4472656,4.9250488-0.7099609,9.9030762-0.7099609,14.9445801s0.2626953,10.0200195,0.7099609,14.9453125
		l-44.5952148,24.7717285c1.9311523,10.1389313,4.5878906,20.0144196,7.9121094,29.5827789l50.9980469-0.84375
		c4.2084961,9.1123047,9.2299805,17.7646484,14.972168,25.8771973l-26.2148438,43.7192383
		c6.6923828,7.7373047,13.934082,14.9790039,21.6713867,21.6721191l43.7202148-26.2155762
		c8.1122742,5.7429199,16.7651062,10.763916,25.8769226,14.9729004l-0.8442383,50.9978027
		c9.5683594,3.3239746,19.4443359,5.9807129,29.5830078,7.911377l24.7714844-44.5942383
		c4.9262695,0.4467773,9.9038086,0.7092285,14.9453125,0.7092285c5.0419922,0,10.0195313-0.2624512,14.9458008-0.7092285
		l24.7709961,44.5942383c10.1391602-1.9306641,20.0136719-4.5874023,29.5834961-7.911377l-0.8442383-50.9978027
		c9.1118164-4.208252,17.7641602-9.2299805,25.8769531-14.9729004L744.25,371.9468079
		c7.7382813-6.6931152,14.9790039-13.9348145,21.6728516-21.6721191l-26.215332-43.7194824
		c5.7426758-8.1130371,10.7641602-16.7646484,14.972168-25.8769531l50.9985352,0.84375
		c3.3227539-9.5683594,5.980957-19.4443359,7.9106445-29.5827789l-44.59375-24.7717285
		C769.4418945,222.2422028,769.7050781,217.2636871,769.7050781,212.2221832z M531.2607422,122.9021225
		c7.9311523,0,14.3852539,6.4526291,14.3852539,14.3837814c0,7.9313965-6.4541016,14.3837891-14.3852539,14.3837891
		s-14.3823242-6.4523926-14.3823242-14.3837891C516.878418,129.3547516,523.3295898,122.9021225,531.2607422,122.9021225z
		 M531.2607422,301.5422668c-7.9311523,0-14.3823242-6.4523926-14.3823242-14.3837891
		c0-7.9311523,6.4511719-14.3835449,14.3823242-14.3835449s14.3852539,6.4523926,14.3852539,14.3835449
		C545.6459961,295.0898743,539.1918945,301.5422668,531.2607422,301.5422668z M518.6884766,243.0056305
		c-16.9750671,0-30.7836609-13.8088379-30.7836609-30.7827148s13.8085938-30.7839355,30.7836609-30.7839355
		c16.9750977,0,30.7841797,13.8100586,30.7841797,30.7839355S535.6635742,243.0056305,518.6884766,243.0056305z
		 M606.1962891,330.514679c-16.9726563,0-30.78125-13.8103027-30.78125-30.7841797
		c0-16.9736328,13.8085938-30.7827148,30.78125-30.7827148c16.9750977,0,30.7841797,13.809082,30.7841797,30.7827148
		C636.9804688,316.7043762,623.1713867,330.514679,606.1962891,330.514679z M579.2416992,212.2229156
		c0-14.8647461,12.0913086-26.9572754,26.9545898-26.9572754s26.9570313,12.0925293,26.9570313,26.9572754
		c0,14.8635254-12.09375,26.9558105-26.9570313,26.9558105S579.2416992,227.086441,579.2416992,212.2229156z
		 M606.1962891,155.4965973c-16.9726563,0-30.78125-13.809082-30.78125-30.7827072
		c0-16.973877,13.8085938-30.7841797,30.78125-30.7841797c16.9750977,0,30.7841797,13.8103027,30.7841797,30.7841797
		C636.9804688,141.6875153,623.1713867,155.4965973,606.1962891,155.4965973z M681.1347656,122.9021225
		c7.9311523,0,14.3823242,6.4526291,14.3823242,14.3837814c0,7.9313965-6.4511719,14.3837891-14.3823242,14.3837891
		s-14.3852539-6.4523926-14.3852539-14.3837891C666.7495117,129.3547516,673.2036133,122.9021225,681.1347656,122.9021225z
		 M681.1347656,301.5422668c-7.9311523,0-14.3852539-6.4523926-14.3852539-14.3837891
		c0-7.9311523,6.4541016-14.3835449,14.3852539-14.3835449s14.3823242,6.4523926,14.3823242,14.3835449
		C695.5170898,295.0898743,689.065918,301.5422668,681.1347656,301.5422668z M693.706543,243.0056305
		c-16.9750977,0-30.7836914-13.8088379-30.7836914-30.7827148s13.8085938-30.7839355,30.7836914-30.7839355
		s30.7841797,13.8100586,30.7841797,30.7839355S710.6816406,243.0056305,693.706543,243.0056305z"/>
</g>
</svg>
