<?xml version="1.0" encoding="utf-8"?>
<!-- Generator: Adobe Illustrator 19.0.1, SVG Export Plug-In . SVG Version: 6.00 Build 0)  -->
<svg version="1.1" id="Livello_1" xmlns="http://www.w3.org/2000/svg" xmlns:xlink="http://www.w3.org/1999/xlink" x="0px" y="0px"
	 viewBox="0 0 864 864" style="enable-background:new 0 0 864 864;" xml:space="preserve">
<path d="M800.5060425,431.5761414c0-5.0107727-0.1776123-9.9785767-0.37677-14.9413452l52.7525024-11.9628296
	c-0.8610229-13.7357788-2.352478-27.2981873-4.500061-40.6464233l-54.1421509,0.0752258
	c-1.819519-9.8646851-4.0115356-19.594696-6.6060791-29.1671143l48.7825317-23.4070435
	c-3.8925781-13.1440735-8.4054565-26.0130615-13.5072021-38.5876465l-52.7037964,12.1046753
	c-3.9785767-9.1834412-8.3138428-18.1749268-12.9972534-26.95578l42.3082886-33.6406403
	c-6.7177734-11.9083862-13.9914551-23.4528809-21.7923584-34.6083984l-48.682312,23.5266571
	c-5.9026489-8.0387268-12.15625-15.79953-18.6806641-23.3239288l33.854126-42.331955
	c-9.1647949-10.0953522-18.812439-19.7429733-28.9085083-28.9092255l-42.329834,33.8540955
	c-7.5258179-6.5229645-15.2851563-12.7765961-23.3253784-18.6806488l23.5245361-48.6808395
	c-11.1533813-7.8023453-22.6992798-15.075325-34.607666-21.7909851l-33.6377563,42.3054504
	c-8.7822876-4.6855621-17.7723389-9.0172577-26.9558105-12.9965057l12.1061401-52.7045174
	c-12.5760498-5.101757-25.4486084-9.6139641-38.5905762-13.5043926l-23.4098511,48.7768402
	c-9.5703125-2.5902786-19.3010254-4.7822723-29.164978-6.6060638l0.0744934-54.1400566
	c-13.3496704-2.146863-26.9113464-3.6354122-40.6463928-4.5007477l-11.9656982,52.7546577
	c-4.9613647-0.1984253-9.9255676-0.3789406-14.9370728-0.3789406s-9.9771423,0.1805153-14.9370728,0.3789406L404.5377197,10.131999
	c-13.7350464,0.8653355-27.3010559,2.3538847-40.6463928,4.5007477l0.0744934,54.1400566
	c-9.8639832,1.8230743-19.5961304,4.0157852-29.1664124,6.6060638L311.3909607,26.602026
	C298.2475891,30.4924545,285.375,35.0046616,272.800415,40.1064186l12.1061096,52.7045174
	c-9.1834412,3.9778214-18.1734619,8.3109436-26.95578,12.9965057l-33.6377563-42.3054504
	c-11.9083862,6.7156601-23.4557495,13.9886398-34.6076813,21.7909851l23.5245056,48.6808395
	c-8.0401611,5.9040527-15.79953,12.15625-23.3267975,18.6792145l-42.3283691-33.8526611
	c-10.0960693,9.1648178-19.7451248,18.8153076-28.9128113,28.9092255l33.8569641,42.3305206
	c-6.5229645,7.5258331-12.7765961,15.2866364-18.6792145,23.3253632l-48.6822739-23.5266571
	c-7.8009186,11.1555176-15.0746078,22.6985779-21.7938499,34.6076813l42.3097496,33.6413574
	c-4.684845,8.7808533-9.0201187,17.7723389-12.9986572,26.95578l-52.7023697-12.1046753
	c-5.1017532,12.574585-9.6161118,25.4443054-13.5072556,38.5876465l48.7782745,23.4063416
	c-2.5902786,9.5731201-4.7837067,19.3023987-6.6074982,29.1678162l-54.1364746-0.0752258
	c-2.1475792,13.3482361-3.6389933,26.9106445-4.5014629,40.6464233l52.7525101,11.9649658
	c-0.1977119,4.9606323-0.3767967,9.9284363-0.3767967,14.939209c0,5.0115051,0.1790848,9.9785767,0.3767967,14.9406433
	L9.9977665,458.4810791c0.8624697,13.7357483,2.3538837,27.2974548,4.5014629,40.6463928l54.1364746-0.0766296
	c1.8237915,9.8660889,4.0172195,19.5961304,6.6074982,29.1677856l-48.7782745,23.4070435
	c3.8911438,13.1447754,8.4055023,26.0123901,13.5072556,38.5883789l52.7023697-12.1068115
	c3.9785385,9.1848755,8.3138123,18.1763306,12.9986572,26.9557495l-42.3097496,33.6420898
	c6.7192421,11.9083862,13.988636,23.4514771,21.7938499,34.607666l48.6822739-23.5259399
	c5.9026184,8.0394897,12.15625,15.7995605,18.6792145,23.3253784l-33.8569641,42.329834
	c9.1676865,10.0946045,18.8167419,19.7436523,28.9128113,28.9106445l42.3283691-33.8533936
	c7.5272675,6.5215454,15.2866364,12.7751465,23.3267975,18.6799316l-23.5245056,48.6808472
	c11.1519318,7.8016357,22.699295,15.0753174,34.6076813,21.7902832l33.6377563-42.305481
	c8.7823181,4.6855469,17.7723389,9.0180054,26.95578,12.9972534l-12.1061096,52.7023315
	c12.574585,5.1017456,25.4471741,9.6161499,38.5905457,13.5065308l23.4084473-48.7782593
	c9.570282,2.5917358,19.3024292,4.7844238,29.1664124,6.6068115l-0.0744934,54.1400146
	c13.3453369,2.1469116,26.9113464,3.6361694,40.6463928,4.5007935l11.9656982-52.7546997
	c4.9599304,0.1991577,9.9255676,0.3782349,14.9370728,0.3782349s9.975708-0.1790771,14.9370728-0.3782349l11.9656982,52.7546997
	c13.7350464-0.864624,27.2967224-2.3538818,40.6463928-4.5007935l-0.0744934-54.1400146
	c9.8639526-1.8237915,19.5946655-4.0150757,29.164978-6.6068115l23.4098511,48.7782593
	c13.1419678-3.8903809,26.0145264-8.4033203,38.5905762-13.5050659l-12.1061401-52.7037964
	c9.1834717-3.979248,18.1735229-8.3117065,26.9558105-12.9972534l33.6377563,42.305481
	c11.9112549-6.7163696,23.4542847-13.9886475,34.607666-21.7902832l-23.5245361-48.6808472
	c8.0402222-5.906189,15.7995605-12.1583862,23.3253784-18.6813354l42.329834,33.8547974
	c10.0960693-9.168396,19.7437134-18.81604,28.9085083-28.9106445l-33.854126-42.3312378
	c6.5244141-7.5244141,12.7780151-15.2852173,18.6806641-23.3261108l48.682312,23.5266724
	c7.8009033-11.1547852,15.074585-22.697876,21.7923584-34.607666l-42.3082886-33.640686
	c4.6834106-8.7794189,9.0186768-17.770874,12.9972534-26.9557495l52.7037964,12.1068115
	c5.1017456-12.5753174,9.614624-25.4436035,13.5072021-38.5883789l-48.7825317-23.4070435
	c2.5945435-9.5731201,4.7865601-19.3016968,6.6060791-29.1677856l54.1421509,0.0766296
	c2.147583-13.348938,3.6390381-26.9106445,4.500061-40.6463928l-52.7525024-11.9642944
	C800.3284302,441.554718,800.5060425,436.5876465,800.5060425,431.5761414z M462.390564,323.7258301
	c-13.7522583,23.8361206-48.1407471,23.8361206-61.8915405,0L314.7720642,175.210495
	c-11.3682861-19.6799316-1.8753662-45.2273865,19.7809448-52.1235657
	c30.57901-9.7479172,63.0935364-15.1061249,96.8717041-15.1061249c33.7982483,0,66.3328552,5.3582077,96.9319153,15.1161499
	c21.6362305,6.9069214,31.1291504,32.443634,19.7608643,52.133606L462.390564,323.7258301z M476.7932434,431.5775757
	c0,25.0589294-20.3110352,45.3699341-45.3685303,45.3699341c-25.0388489,0-45.3498535-20.3110046-45.3498535-45.3699341
	c0-25.0574646,20.3110046-45.3584595,45.3498535-45.3584595
	C456.4822083,386.2191162,476.7932434,406.5201111,476.7932434,431.5775757z M212.6438599,193.627533
	c16.7866516-15.4428101,43.821228-10.9613953,55.2095337,8.7801361l85.6868591,148.4544525
	c13.7507935,23.8153687-3.4427185,53.6006775-30.9458008,53.6006775H151.0975952
	c-22.8769531,0-40.1936951-21.3103333-35.1821976-43.6385803
	C130.5429993,295.4391174,164.9916687,237.4988861,212.6438599,193.627533z M151.0975952,458.6938171h171.4968567
	c27.5030823,0,44.6965942,29.7845764,30.9458008,53.6106873l-85.7069092,148.4336548
	c-11.3883362,19.7508545-38.4228973,24.2337036-55.209549,8.7808838
	c-47.6321259-43.8728027-82.0807953-101.8115845-96.7083969-167.1873779
	C110.9039001,480.003418,128.2206421,458.6938171,151.0975952,458.6938171z M314.7505798,687.9360962l85.7484436-148.526123
	c13.7507935-23.8361206,48.1392822-23.8361206,61.8915405,0l85.7484131,148.5160522
	c11.3468018,19.6792603,1.8538818,45.2266846-19.7823486,52.1328735
	c-30.5990601,9.758667-63.133667,15.1161499-96.9319153,15.1161499s-66.3127747-5.3574829-96.8917542-15.1060791
	C312.8766479,733.1627197,303.3822937,707.6152954,314.7505798,687.9360962z M650.2457275,669.5090332
	c-16.7866821,15.4420776-43.821228,10.9599609-55.2095337-8.7808838l-85.6868591-148.4336548
	c-13.750824-23.8161011,3.4427185-53.6006775,30.9457703-53.6006775h171.4954224
	c22.878418,0,40.1951294,21.3096008,35.1836548,43.6378479
	C732.3465576,567.7074585,697.8964844,625.6362305,650.2457275,669.5090332z M711.7905273,404.4627991H540.295105
	c-27.5030518,0-44.6965942-29.7853088-30.9457703-53.6006775l85.6868591-148.43367
	c11.3883057-19.7623138,38.4228516-24.2336884,55.2095337-8.7808685
	c47.6507568,43.8613281,82.1008301,101.8015747,96.7284546,167.1766357
	C751.9856567,383.1524658,734.6689453,404.4627991,711.7905273,404.4627991z"/>
</svg>
