<?xml version="1.0" encoding="utf-8"?>
<!-- Generator: Adobe Illustrator 19.0.1, SVG Export Plug-In . SVG Version: 6.00 Build 0)  -->
<svg version="1.1" id="Livello_1" xmlns="http://www.w3.org/2000/svg" xmlns:xlink="http://www.w3.org/1999/xlink" x="0px" y="0px"
	 viewBox="0 0 864 864" style="enable-background:new 0 0 864 864;" xml:space="preserve">
<g>
	<path d="M763.5968628,432.2591858c0-10.2495422-0.5343018-20.3708191-1.4432983-30.3839417l90.6591187-50.3604736
		c-3.9229126-20.611908-9.3244019-40.689209-16.0825195-60.1419067l-103.6794434,1.7153015
		c-8.5550537-18.5245056-18.7642822-36.1141357-30.4382935-52.6070251l53.2954102-88.8823853
		c-13.6086426-15.7299194-28.3284302-30.4504089-44.0603638-44.0580292l-88.8810425,53.2954407
		c-16.4925537-11.6753693-34.0831909-21.8839417-52.6073608-30.4389954l1.7159424-103.6787567
		c-19.4547119-6.757803-39.5303345-12.1602859-60.1425476-16.0852127l-50.3598328,90.66082
		c-10.014801-0.9080276-20.1347046-1.4419632-30.3842468-1.4419632s-20.3694458,0.5339355-30.3815613,1.4419632l-50.362854-90.66082
		c-20.6122437,3.9249258-40.6902161,9.3260641-60.1425476,16.0838699l1.7159729,103.6800995
		c-18.5242004,8.5550537-36.1148376,18.7636261-52.6073761,30.4389954l-88.883728-53.2954407
		c-15.7289276,13.6076202-30.4517593,28.3281097-44.0573654,44.0580292l53.2951126,88.8817139
		c-11.6740417,16.4935608-21.8829346,34.0831909-30.438324,52.6076965l-103.6791-1.7153015
		c-6.7584743,19.4526978-12.1599503,39.5299988-16.0852127,60.1419067l90.6618271,50.3618164
		c-0.9093628,10.0124512-1.443634,20.1330566-1.443634,30.3825989s0.5342712,20.3707886,1.443634,30.3839111L9.5614023,513.0036011
		c3.9252615,20.6125488,9.3267374,40.689209,16.0852127,60.1419067l103.6791-1.715332
		c8.5553894,18.5252075,18.7642822,36.1154785,30.438324,52.6083984l-53.2951126,88.8810425
		c13.6056061,15.7299194,28.3284378,30.4523926,44.0573654,44.0593262l88.883728-53.2960815
		c16.4925385,11.675354,34.0831757,21.8832397,52.6073761,30.4396362l-1.7159729,103.678772
		c19.4523315,6.7578125,39.530304,12.1589355,60.1425476,16.0838623l50.3601685-90.6601563
		c10.014801,0.9080811,20.1347046,1.4420166,30.3842468,1.4420166s20.3694458-0.5339355,30.3842468-1.4420166l50.3598328,90.6601563
		c20.6122131-3.9249268,40.6878357-9.3260498,60.1425476-16.0838623l-1.7159424-103.678772
		c18.5241699-8.5550537,36.1148071-18.7642822,52.6073608-30.4396362l88.8810425,53.2960815
		c15.7319336-13.6069336,30.4517212-28.3294067,44.0603638-44.0593262l-53.2954102-88.8817139
		c11.6740112-16.4935913,21.8832397-34.0825195,30.4382935-52.6077271l103.6794434,1.715332
		c6.7554321-19.4526978,12.1596069-39.5300293,16.0825195-60.1419067l-90.6591187-50.3605042
		C763.062561,452.6299744,763.5968628,442.508728,763.5968628,432.2591858z M431.1867065,611.5283813
		c-99.0073242,0-179.2678375-80.262207-179.2678375-179.2691956S332.1793823,252.991333,431.1867065,252.991333
		c99.007019,0,179.2678223,80.2608337,179.2678223,179.2678528S530.1937256,611.5283813,431.1867065,611.5283813z"/>
	<circle cx="431.1867065" cy="432.2591858" r="69.1429062"/>
</g>
</svg>
