<?xml version="1.0" encoding="utf-8"?>
<svg version="1.1" id="Livello_1" x="0px" y="0px" viewBox="0 0 864 864" style="enable-background:new 0 0 864 864;" xmlns="http://www.w3.org/2000/svg">
  <path d="M856.4503174,454.0518799C856.8109741,446.8541565,857,439.6107788,857,432.3218079 c0-7.2879028-0.1890259-14.5323486-0.5496826-21.730072l-70.8247681-12.1142883 c-1.8010864-19.003479-5.0610352-37.5865784-9.7407227-55.61026l62.4136353-35.6095581 c-4.2712402-13.9196777-9.2041016-27.5493164-14.8245239-40.8215637l-70.8161011,12.8605652 c-8.1503906-17.0525513-17.6456299-33.3338013-28.2988281-48.7634125l46.5440674-54.8933258 c-8.7597656-11.5765533-18.1224976-22.658844-27.9957275-33.2686005l-62.1290894,36.2960815 c-13.3808594-13.1679535-27.817627-25.2485504-43.1310425-36.1874542l24.9639893-67.5116272 c-12.1359863-7.8755722-24.6912842-15.1363144-37.635498-21.7670097l-45.935791,55.3158836 c-16.9906006-7.7886734-34.684021-14.2748871-52.9749146-19.3391571l0.3671265-71.840477 c-14.026123-3.2078037-28.310791-5.7182121-42.8300781-7.5008087L459.3800049,77.461319 c-9.3181458-0.7343292-18.7036743-1.2198944-28.2065125-1.2198944c-9.4941406,0-18.8709717,0.4844818-28.1804199,1.2177277 L378.7732239,9.8367252c-14.5171509,1.7825966-28.8018188,4.293005-42.8301086,7.4997215l0.367157,71.8372116 c-18.2919922,5.0631866-35.9865112,11.5504837-52.9781799,19.3402481l-45.9325562-55.3126259 C224.4553528,59.8308907,211.8989563,67.09272,199.76297,74.9672089l24.9639435,67.5094452 c-15.3144684,10.9389038-29.7522888,23.0205841-43.1342621,36.1885529l-62.1258087-36.2939148 c-9.8732605,10.6097565-19.2359619,21.6920471-27.9946899,33.2686005l46.5419464,54.8933258 c-10.6532135,15.4296112-20.1484451,31.7108612-28.298851,48.7634125l-70.8150177-12.8605652 c-5.6204453,13.2722473-10.552187,26.9008179-14.8234673,40.8215637l62.413681,35.60849 c-4.680809,18.0236511-7.9407578,36.6078491-9.7418213,55.6124268L5.924912,410.592804 c-0.3617334,7.1977539-0.5507469,14.4411011-0.5507469,21.7290039c0,7.2889709,0.1890135,14.5323486,0.5507469,21.730072 l70.8247986,12.1142578c1.8021469,19.0035095,5.0620956,37.5866089,9.7429047,55.6091919L24.0767593,557.387085 c4.2712803,13.9207153,9.203022,27.5493164,14.8234673,40.8215332l70.8193665-12.8616333 c8.1514969,17.050354,17.6456375,33.331604,28.29776,48.7601318l-46.5451965,54.8977051 c8.758728,11.5754395,18.1214294,22.6588135,27.9946899,33.2680664l62.1312408-36.2966309 c13.3808746,13.1679077,27.8165436,25.2485352,43.1299286,36.1885376l-24.9650421,67.512146 c12.1359863,7.8745117,24.6923828,15.1362915,37.6365662,21.7664795l45.9336243-55.3148193 c16.9906006,7.7897949,34.6862183,14.2770996,52.9771118,19.3413696l-0.367157,71.8377075 c14.0282898,3.2072754,28.3129578,5.7171631,42.8301086,7.5003052l24.2209167-67.6235352 c9.3083801,0.7332764,18.6852112,1.218811,28.1793518,1.218811c9.5028381,0,18.8883667-0.486084,28.2065125-1.220459 l24.2220459,67.6251831c14.5192871-1.7831421,28.8039551-4.2941284,42.8300781-7.5007935l-0.3671265-71.8421631 c18.2897949-5.064209,35.9832153-11.5510254,52.9727173-19.34021l45.9379883,55.3186035 c12.9442139-6.6306763,25.4995117-13.8919678,37.635498-21.7670288l-24.9661255-67.5159302 c15.3133545-10.9389038,29.7479248-23.0184326,43.1288452-36.1853027l62.1312256,36.2977295 c9.87323-10.6092529,19.2381592-21.6920776,27.9979248-33.2680664l-46.5473633-54.8988037 c10.6521606-15.4274292,20.1473389-31.7086792,28.2977905-48.7590332l70.8204346,12.8616333 c5.6204224-13.2722168,10.5532837-26.9018555,14.8245239-40.8226318l-62.4179688-35.6106567 c4.6818848-18.0236816,7.9418335-36.6056824,9.7439575-55.6091919L856.4503174,454.0518799z M495.8227539,432.322876 c0,35.6964722-28.9386597,64.6340637-64.6340332,64.6340637c-35.6975708,0-64.6362305-28.9375916-64.6362305-64.6340637 c0-35.6975403,28.9386597-64.6351318,64.6362305-64.6351318 C466.8840942,367.6877441,495.8227539,396.6253357,495.8227539,432.322876z M462.33255,222.3502197v-86.029541 c107.5836487,11.2419739,198.2277527,80.0397644,240.6667786,174.936676l-81.7409058,26.5585938 C542.8154907,363.3045959,462.33255,304.8308716,462.33255,222.3502197z M400.0405273,222.3491364 c0,82.4806366-80.4808044,140.954361-158.9258881,115.4668121l-81.7387238-26.5585938 c42.4390411-94.9023438,133.0874939-163.704483,240.6646118-174.938858V222.3491364z M221.8678131,397.0576782 c78.4450836,25.4886475,109.1848297,120.0998535,60.7038727,186.8282471l-50.4754028,69.4745483 c-60.4670563-54.5174561-98.5544281-133.407959-98.5544281-221.0451965c0-21.2032166,2.2681732-41.8817749,6.5046844-61.8422852 L221.8678131,397.0576782z M332.9666748,620.5003052c48.4831543-66.7283936,147.9631042-66.7283936,196.4440918,0 l50.4818726,69.484314c-43.7903442,25.3713379-94.5655823,39.9764404-148.7191467,39.9764404 c-54.1405029,0-104.9070129-14.6040649-148.6930542-39.9721069L332.9666748,620.5003052z M579.8057251,583.8859253 c-48.480957-66.7283936-17.7412109-161.3406982,60.7038574-186.8282471l81.8191528-26.5857849 c4.2365112,19.9616089,6.5046387,40.6390686,6.5046387,61.8433838c0,87.6351013-38.0852051,166.5245056-98.5543823,221.040863 L579.8057251,583.8859253z" style="fill: rgb(236, 125, 0);"/>
</svg>