<?xml version="1.0" encoding="utf-8"?>
<!-- Generator: Adobe Illustrator 19.0.1, SVG Export Plug-In . SVG Version: 6.00 Build 0)  -->
<svg version="1.1" id="Livello_1" xmlns="http://www.w3.org/2000/svg" xmlns:xlink="http://www.w3.org/1999/xlink" x="0px" y="0px"
	 viewBox="0 0 864 864" style="enable-background:new 0 0 864 864;" xml:space="preserve">
<path d="M856.4546509,453.2546692c0.361084-7.1808167,0.5493774-14.407959,0.5493774-21.6785278
	c0-7.2705383-0.1882935-14.4969482-0.5493774-21.6784973l-75.2643433-12.8729553
	c-1.7564087-17.8759155-4.8470459-35.3649597-9.1954346-52.3582458l66.350647-37.8561401
	c-4.2608032-13.8872375-9.1821289-27.4839172-14.788208-40.7246399l-75.2459717,13.6658325
	c-7.7287598-16.0253601-16.6748047-31.3512573-26.6564331-45.9151459l49.4573975-58.329895
	c-8.7386475-11.5482941-18.0796509-22.6045227-27.9289551-33.1885529l-66.0498047,38.5857544
	c-12.6383057-12.3507385-26.210022-23.7335358-40.5863647-34.0800018l26.5314331-71.7478561
	c-12.1065674-7.8567505-24.6323242-15.1000862-37.5465088-21.7152939l-48.8233643,58.7939911
	c-16.0238647-7.2786407-32.6802979-13.3789902-49.8751221-18.2054291l0.3912964-76.3668671
	c-13.9924316-3.1994839-28.2437439-5.7046413-42.7281799-7.4831133l-25.7466431,71.8817139
	c-8.771759-0.6604919-17.6023254-1.1076813-26.5402832-1.1076813c-8.9394226,0-17.7714539,0.4471893-26.5461426,1.1076813
	L379.9177551,10.099082c-14.4822388,1.7784719-28.7328186,4.2828941-42.727417,7.4823771l0.3905334,76.3690796
	c-17.1948242,4.8257065-33.8505249,10.9267883-49.8744202,18.204689l-48.8248291-58.7947235
	c-12.912674,6.6137352-25.439209,13.8585434-37.5457458,21.7138214l26.5307007,71.7507935
	c-14.3763428,10.3457336-27.9480438,21.7285309-40.5856323,34.0792694l-66.0498276-38.5864868
	c-9.8492584,10.5840302-19.1902771,21.6402588-27.9281769,33.1885529l49.4559097,58.329895
	c-9.9809113,14.5646362-18.9276962,29.8897858-26.6549988,45.9151459l-75.2466888-13.6658325
	c-5.6068192,13.2407227-10.5274029,26.8374023-14.7889671,40.7239075l66.3521271,37.8568726
	c-4.3490906,16.9932861-7.4389801,34.4823303-9.1961212,52.3582458L7.9598618,409.8991089
	c-0.3604016,7.1800842-0.5486932,14.4064941-0.5486932,21.6770325c0,7.2705688,0.1882915,14.4969788,0.5486932,21.677063
	l75.2636032,12.8744202c1.7564087,17.8759155,4.8470306,35.3649597,9.1953888,52.3582764l-66.3506546,37.8568726
	c4.2615643,13.8864746,9.182148,27.4831543,14.7889671,40.723877l75.2452087-13.6658325
	c7.7280426,16.0253296,16.6748276,31.3512573,26.6564713,45.9158936L93.3029404,687.645813
	c8.7378998,11.5483398,18.0789185,22.6045532,27.9281769,33.1885986l66.0490952-38.5857544
	c12.6383209,12.3514404,26.210022,23.7335205,40.5863647,34.0800171l-26.5307007,71.7493286
	c12.1065369,7.8552856,24.6330719,15.1000366,37.5457458,21.7138062l48.8248291-58.7947388
	c16.0238953,7.2778931,32.6795959,13.3796997,49.8744202,18.2054443l-0.3905334,76.3683472
	c13.9945984,3.1994629,28.2451782,5.7039185,42.727417,7.4823608l25.7459106-71.8817139
	c8.7746887,0.6604614,17.60672,1.107666,26.5461426,1.107666c8.9379578,0,17.7685242-0.4472046,26.5402832-1.107666
	l25.7466431,71.8817139c14.484436-1.7784424,28.7357483-4.2836304,42.7281799-7.4830933l-0.3912964-76.3668823
	c17.1948242-4.8264771,33.8512573-10.9268188,49.8751221-18.2054443l48.8233643,58.7940063
	c12.9141846-6.614502,25.4399414-13.8585205,37.5465088-21.715332l-26.5314331-71.7470703
	c14.3763428-10.3464966,27.9495239-21.7293091,40.5870972-34.0800171l66.0461426,38.585022
	c9.8499756-10.5840454,19.1932373-21.6402588,27.9318848-33.1885986l-49.4559326-58.3283691
	c9.980896-14.5646362,18.9276733-29.8912964,26.6557007-45.916626l75.2452393,13.6658325
	c5.6060791-13.2407227,10.5274048-26.8374023,14.788208-40.7246704l-66.3499146-37.8553467
	c4.3491211-16.9940491,7.4382935-34.4830933,9.1947021-52.3590088L856.4546509,453.2546692z M556.8528442,651.9697876
	l95.7461548-95.7462158c13.2481079,0,25.9989624-2.119751,37.987793-5.9664917
	c-28.3937378,61.5712891-78.1320801,111.3067017-139.7004395,139.7005005
	C554.7316284,677.9701538,556.8528442,665.2178345,556.8528442,651.9697876z M550.8863525,173.1947479
	c61.5683594,28.3944855,111.303772,78.1298981,139.6975098,139.6997223
	c-11.9859009-3.8460083-24.7367554-5.9657593-37.9848633-5.9657593l-95.7461548-95.74617
	C556.8528442,197.9344635,554.7316284,185.1821442,550.8863525,173.1947479z M652.598999,489.9450073
	c-32.1860352,0-58.3703003-26.1842651-58.3703003-58.3673706c0-32.1860657,26.1842651-58.3703613,58.3703003-58.3703613
	c32.1860962,0,58.3703613,26.1842957,58.3703613,58.3703613
	C710.9693604,463.7607422,684.7850952,489.9450073,652.598999,489.9450073z M432.2098083,500.1127625
	c-37.7936096,0-68.5380554-30.7444763-68.5380554-68.5351257s30.7444458-68.5380859,68.5380554-68.5380859
	c37.7877502,0,68.532196,30.747406,68.532196,68.5380859S469.9975586,500.1127625,432.2098083,500.1127625z
	 M490.5742798,651.9697876c0,32.1860352-26.1842957,58.3703003-58.3644714,58.3703003
	c-32.1860657,0-58.3703308-26.1842651-58.3703308-58.3703003c0-32.1860962,26.1842651-58.3703613,58.3703308-58.3703613
	C464.3899841,593.5994263,490.5742798,619.7836914,490.5742798,651.9697876z M373.8394775,211.1825409
	c0-32.1831207,26.1842651-58.3674011,58.3703308-58.3674011c32.1801758,0,58.3644714,26.1842804,58.3644714,58.3674011
	c0,32.1860504-26.1842957,58.3703156-58.3644714,58.3703156
	C400.0237427,269.5528564,373.8394775,243.3685913,373.8394775,211.1825409z M211.8147278,556.2235718l95.7461853,95.7462158
	c0,13.2480469,2.1182861,26.0003662,5.9664917,37.9870605c-61.5713043-28.3945313-111.3067169-78.1299438-139.70047-139.6997681
	C185.8128662,554.1038208,198.5666656,556.2235718,211.8147278,556.2235718z M153.444397,431.5776367
	c0-32.1860657,26.1842651-58.3703613,58.3703308-58.3703613s58.3703308,26.1842957,58.3703308,58.3703613
	c0,32.1831055-26.1842651,58.3673706-58.3703308,58.3673706S153.444397,463.7607422,153.444397,431.5776367z
	 M307.5609131,211.1825409l-95.7461853,95.74617c-13.2480621,0-25.9989319,2.119751-37.987793,5.9650269
	c28.396698-61.5683594,78.1291656-111.3030396,139.70047-139.697525
	C309.6791992,185.1828766,307.5609131,197.9344635,307.5609131,211.1825409z"/>
</svg>
