<?xml version="1.0" encoding="utf-8"?>
<!-- Generator: Adobe Illustrator 19.0.1, SVG Export Plug-In . SVG Version: 6.00 Build 0)  -->
<svg version="1.1" id="Livello_1" xmlns="http://www.w3.org/2000/svg" xmlns:xlink="http://www.w3.org/1999/xlink" x="0px" y="0px"
	 viewBox="0 0 864 864" style="enable-background:new 0 0 864 864;" xml:space="preserve">
<path d="M853.40625,453.8863831c0.3582764-7.142395,0.5452881-14.3313599,0.5452881-21.5640259
	c0-7.2326965-0.1870117-14.4210815-0.5452881-21.5640259l-80.4140015-13.7540283
	c-1.6831055-16.4898071-4.5761719-32.6177979-8.5102539-48.3333435l70.9110107-40.45755
	c-4.2393799-13.8140259-9.1341553-27.3390808-14.7111816-40.5099487l-80.3417969,14.5911865
	c-7.1936035-14.7869263-15.4032593-28.9860382-24.5671997-42.4918823l52.7393799-62.2015533
	c-8.6920166-11.4878082-17.9835205-22.4862366-27.78125-33.0145416l-70.4555054,41.1601105
	c-11.7348022-11.3707123-24.2671509-21.9060059-37.5253906-31.5219879l28.2979736-76.5259247
	c-12.0429688-7.8146667-24.5031128-15.021122-37.348877-21.6007271l-52.1154175,62.758503
	c-14.8399658-6.646019-30.2275391-12.2608795-46.0916138-16.7723389l0.4171143-81.5756836
	c-13.9189148-3.1831913-28.0941162-5.674283-42.5029602-7.4441462l-27.5162048,76.8230362
	c-8.100708-0.5709229-16.2520752-0.9659042-24.4978638-0.9659042c-8.2481079,0-16.3971558,0.3949814-24.4972839,0.9659042
	l-27.5167847-76.8230362c-14.4059143,1.7698631-28.5817261,4.2597895-42.5029297,7.4429808l0.4171143,81.5768509
	c-15.8641052,4.5114594-31.2516785,10.1263199-46.0910339,16.7723389l-52.1160126-62.758503
	c-12.8457794,6.5796051-25.3059082,13.7860603-37.3489075,21.5995598l28.2980194,76.527092
	c-13.258255,9.6159821-25.7906036,20.1524506-37.5254211,31.5219879l-70.4554901-41.1601105
	c-9.7971725,10.5283051-19.0892487,21.5267334-27.7812729,33.0145416l52.7393723,62.2015533
	c-9.1633148,13.5064392-17.3735504,27.7049561-24.5671921,42.4918823l-80.3417969-14.5911865
	c-5.5769958,13.1708679-10.4717922,26.6959229-14.7111931,40.5093689l70.9110641,40.4581299
	c-3.9341278,15.7155457-6.8266144,31.8435364-8.5102615,48.3333435l-80.414032,13.755188
	c-0.358284,7.1423645-0.5452909,14.3301697-0.5452909,21.5628662c0,7.232666,0.187007,14.4204712,0.5452909,21.5628357
	l80.414032,13.755188c1.6836472,16.4898071,4.5761337,32.618988,8.5102615,48.333374l-70.9110641,40.4581299
	c4.2394009,13.8134155,9.1341972,27.338501,14.7111931,40.5093384l80.3417969-14.5911865
	c7.1936417,14.786377,15.4067764,28.9866333,24.5671921,42.4918823L94.2722092,687.043457
	c8.6920242,11.4872437,17.9841003,22.4862671,27.7812729,33.0145874l70.4554901-41.1600952
	c11.7348175,11.3701172,24.2671661,21.9059448,37.5254211,31.5219727l-28.2980194,76.5270996
	c12.0429993,7.8140259,24.5031281,15.0205078,37.3489075,21.5995483l52.1160126-62.7585449
	c14.8393555,6.6460571,30.2269287,12.2609253,46.0910339,16.7723389l-0.4171143,81.5769043
	c13.9212036,3.1825562,28.0970154,5.6730957,42.5029297,7.4429321l27.5167847-76.822998
	c8.1001282,0.5709229,16.249176,0.9658813,24.4972839,0.9658813c8.2457886,0,16.3971558-0.3944092,24.4978638-0.9658813
	l27.5162048,76.822998c14.408844-1.7698364,28.5840454-4.2609253,42.5029602-7.4435425l-0.4171143-81.5762939
	c15.8640747-4.5114136,31.2516479-10.1262817,46.0916138-16.7723389l52.1154175,62.7585449
	c12.8457642-6.5796509,25.3059082-13.7855225,37.348877-21.600769l-28.2979736-76.5258789
	c13.2582397-9.6160278,25.7905884-20.1513062,37.5253906-31.5219727l70.4525757,41.1600952
	c9.7977905-10.5283203,19.0921631-21.5267334,27.7841797-33.0145874l-52.7393799-62.2015381
	c9.1639404-13.505249,17.3735962-27.7055054,24.5671997-42.4918823l80.3417969,14.5911865
	c5.5770264-13.1708374,10.4718018-26.6959229,14.7111816-40.5099487l-70.9110107-40.4575195
	c3.934082-15.714386,6.8271484-31.8435669,8.5102539-48.333374L853.40625,453.8863831z M431.3922119,623.3214111
	c-105.4857483,0-190.9984741-85.5133057-190.9984741-190.9996338c0-105.4857483,85.5127258-190.9984894,190.9984741-190.9984894
	S622.390686,326.8360291,622.390686,432.3217773C622.390686,537.8081055,536.8779297,623.3214111,431.3922119,623.3214111z"/>
</svg>
