<?xml version="1.0" encoding="utf-8"?>
<!-- Generator: Adobe Illustrator 19.0.1, SVG Export Plug-In . SVG Version: 6.00 Build 0)  -->
<svg version="1.1" id="Livello_1" xmlns="http://www.w3.org/2000/svg" xmlns:xlink="http://www.w3.org/1999/xlink" x="0px" y="0px"
	 viewBox="0 0 864 864" style="enable-background:new 0 0 864 864;" xml:space="preserve">
<path d="M858.4480591,454.1020813C858.8103638,446.8877258,859,439.6272888,859,432.3223572
	c0-7.3049622-0.1896362-14.5653687-0.5519409-21.7797241l-78.8735962-13.4906616
	c-1.7333374-17.195343-4.7425537-34.0160522-8.8878174-50.3900146l69.5673828-39.6920166
	c-4.281189-13.9512634-9.2248535-27.6123352-14.8578491-40.9156799l-78.8873901,14.3273926
	c-7.4754028-15.4020996-16.0576782-30.1670685-25.6287231-44.2088928l51.8239136-61.1232605
	c-8.7788086-11.6022339-18.1640625-22.7116547-28.059082-33.3451233l-69.2357788,40.4474182
	c-12.1917725-11.8571014-25.2410278-22.8191223-39.0502319-32.8108368l27.8041992-75.1942596
	c-12.1625977-7.8929672-24.7474365-15.1710434-37.722229-21.8173447l-51.1730347,61.6229935
	c-15.4435425-6.9671783-31.4735718-12.835083-48.0064087-17.520813l0.4099121-80.0480957
	c-14.0579224-3.2141447-28.3761292-5.7312651-42.9292297-7.5183506l-26.9859009,75.3424072
	c-8.4472046-0.6141205-16.9481506-1.035553-25.550415-1.035553c-8.6007385,0-17.1001587,0.4214325-25.5473633,1.035553
	L379.6725159,8.8650856c-14.5500183,1.7870855-28.8682251,4.3026705-42.9284668,7.5175838l0.4099426,80.0481033
	c-16.5336304,4.6864929-32.5636597,10.5543976-48.0072327,17.5215759l-51.1729889-61.6229935
	c-12.9740295,6.6455345-25.5588684,13.9243774-37.7222595,21.8165741l27.804245,75.1934891
	c-13.8099976,9.9917145-26.8600311,20.9552765-39.0518341,32.8115997l-69.23423-40.44664
	c-9.894989,10.6334686-19.2802582,21.7428894-28.0590897,33.3451233l51.8231964,61.1217346
	c-9.5718079,14.0418243-18.154129,28.8083191-25.6294861,44.2104187l-78.8851166-14.3273926
	c-5.6330032,13.3033447-10.5774288,26.9628906-14.8586063,40.9156799l69.5658569,39.6904907
	c-4.1453018,16.3739624-7.1552582,33.1961975-8.8878403,50.3915405L5.9665489,410.5426331
	c-0.3615627,7.2143555-0.5511718,14.474762-0.5511718,21.7797241c0,7.3049316,0.1896091,14.5653687,0.5511718,21.7797241
	l78.8720551,13.4906616c1.7325821,17.1953125,4.7425385,34.0175781,8.8878403,50.39151l-69.5658569,39.6904907
	c4.2811775,13.9528198,9.2256031,27.6123657,14.8586063,40.9157104l78.8851166-14.3273926
	c7.4753571,15.4020996,16.0584412,30.1670532,25.630249,44.2103882l-51.8239594,61.1217651
	c8.7788315,11.6022339,18.1641006,22.7116089,28.0590897,33.3450928l69.2350082-40.4473877
	c12.1925659,11.8555298,25.2425842,22.8190918,39.0525818,32.8100586l-27.8057709,75.1958008
	c12.1633911,7.8922119,24.74823,15.1710205,37.7222595,21.8165894l51.1745453-61.6245728
	c15.4435425,6.9672241,31.4720459,12.835083,48.0056763,17.520813l-0.4099426,80.050415
	c14.0602417,3.2149048,28.3784485,5.7304688,42.9284668,7.5175781l26.9866638-75.345459
	c8.4464417,0.6148682,16.9458618,1.0363159,25.5466003,1.0363159c8.6022644,0,17.1016541-0.4214478,25.5496521-1.0363159
	l26.9866638,75.345459c14.5531006-1.7871094,28.8713074-4.3041992,42.9292297-7.5183716l-0.4099121-80.0511475
	c16.5328369-4.68573,32.5613403-10.5528564,48.0048828-17.5200195l51.1745605,61.6253052
	c12.9747925-6.6463013,25.5596313-13.9243774,37.722229-21.8173828l-27.8057861-75.1965332
	c13.8099976-9.9909668,26.859314-20.9530029,39.0510864-32.8085327l69.2334595,40.4473877
	c9.895752-10.6334839,19.2833252-21.7428589,28.0621338-33.3450928l-51.824707-61.123291
	c9.5718384-14.0426025,18.1541138-28.8067627,25.6295166-44.2088623l78.8873901,14.3273926
	c5.6329956-13.3033447,10.5766602-26.9644165,14.8578491-40.9157104l-69.5673828-39.6912231
	c4.1452637-16.3739624,7.1552124-33.1954651,8.8878174-50.3907776L858.4480591,454.1020813z M279.8612976,263.6607361
	c-23.3104248,21.0704041-42.2583008,46.7989197-55.2668762,75.8582764l-70.1669312-22.7999573
	c18.2815552-43.7575073,46.6914673-82.1752472,82.1629791-112.6248016L279.8612976,263.6607361z M275.6323242,175.8071747
	c39.2137756-24.0220337,84.1872559-39.3535156,132.4708252-43.2101746v73.4931488
	c-32.2857666,3.4014435-62.4612732,13.6871796-89.2867737,29.1560669L275.6323242,175.8071747z M209.5845947,385.3353271
	c-3.1849823,15.1702881-4.9114227,30.8717651-4.9114227,46.9854736c0,16.1160278,1.7264404,31.8175049,4.9114227,46.9854736
	l-69.84375,22.6970825c-5.3435974-22.4061279-8.4740753-45.6597595-8.4740753-69.6787109
	c0-24.0204773,3.1304779-47.2756348,8.4740753-69.6832886L209.5845947,385.3353271z M224.5944214,525.124939
	c13.0085754,29.0570068,31.9564514,54.7863159,55.2668762,75.8567505l-43.2708282,59.5664673
	c-35.479187-30.4487915-63.881424-68.868103-82.1629791-112.6248169L224.5944214,525.124939z M318.8163757,629.3977051
	c26.8255005,15.4681396,57.0010071,25.7546387,89.2867737,29.1553345v73.4915771
	c-48.2835693-3.8566284-93.2570496-19.1850586-132.4708252-43.2078857L318.8163757,629.3977051z M338.0390625,432.3208008
	c0-52.005127,42.1646423-94.1628418,94.1667175-94.1628418c52.0035706,0,94.16745,42.1577148,94.16745,94.1628418
	c0,52.0066833-42.1638794,94.1651611-94.16745,94.1651611C380.2037048,526.4859619,338.0390625,484.3274841,338.0390625,432.3208008
	z M545.5966797,235.2462158c-26.8262329-15.4688873-57.0009766-25.7546234-89.2875061-29.1560669v-73.4931488
	c48.2843323,3.8566589,93.2570496,19.1881409,132.4707947,43.2101746L545.5966797,235.2462158z M627.8218384,204.0942535
	c35.4714966,30.4495544,63.8814087,68.8672943,82.1629639,112.6248016l-70.1669312,22.7999573
	c-13.0162354-29.0578308-31.9556885-54.7878723-55.2745361-75.8582764L627.8218384,204.0942535z M456.3091736,658.5530396
	c32.2865295-3.4030151,62.4612732-13.6871948,89.2875061-29.1553345l43.1832886,59.4390259
	c-39.2137451,24.0228271-84.1864624,39.3512573-132.4707947,43.2078857V658.5530396z M584.5517578,600.9816895
	c23.3104248-21.0704346,42.2575684-46.8012695,55.2661133-75.8582764l70.1669312,22.7999268
	c-18.2815552,43.7567139-46.6837769,82.1760254-82.1629639,112.6248169L584.5517578,600.9816895z M654.8276978,479.3062744
	c3.1849976-15.1679688,4.911438-30.8694458,4.911438-46.9854736c0-16.1137085-1.7264404-31.8175049-4.911438-46.9854736
	l69.8445435-22.6939697c5.3428345,22.4076538,8.4732666,45.6628113,8.4732666,69.6832886
	c0,24.0189514-3.1304321,47.272583-8.4732666,69.6787109L654.8276978,479.3062744z"/>
</svg>
