<?xml version="1.0" encoding="utf-8"?>
<!-- Generator: Adobe Illustrator 19.0.1, SVG Export Plug-In . SVG Version: 6.00 Build 0)  -->
<svg version="1.1" id="Livello_1" xmlns="http://www.w3.org/2000/svg" xmlns:xlink="http://www.w3.org/1999/xlink" x="0px" y="0px"
	 viewBox="0 0 864 864" style="enable-background:new 0 0 864 864;" xml:space="preserve">
<path d="M784.4025269,431.5769043c0-4.7958984-0.1729736-9.5502319-0.3622437-14.2993774l70.355957-15.9554138
	c-0.8172607-11.5967102-1.972229-23.1014099-3.7039795-34.4234619l-72.2866821,0.1001892
	c-1.7436523-9.4403687-3.8405762-18.7523193-6.3227539-27.9136047l65.1235962-31.250946
	c-3.3759155-11.0934448-7.2565918-21.9590149-11.4957886-32.6464233l-70.3084717,16.1506348
	c-3.8093872-8.7901306-7.9558105-17.3954468-12.4384766-25.7973633l56.4440918-44.884491
	c-5.7593994-10.0334625-11.8720703-19.8323669-18.4071655-29.3291473L716.006897,222.739502
	c-5.6517944-7.694519-11.6345825-15.1218262-17.8779297-22.3234711l45.1063843-56.4017792
	c-7.828125-8.4902496-15.9954834-16.657608-24.4857178-24.4864883l-56.4017944,45.1071701
	c-7.2023926-6.2426147-14.6289063-12.2269135-22.3234863-17.8786774l31.4113159-64.9944611
	c-9.4953003-6.5335922-19.2957153-12.6463089-29.3284302-18.4056969l-44.8829956,56.4440804
	c-8.4026489-4.4841385-17.008728-8.6305466-25.7988281-12.4377213l16.1505737-70.3092194
	c-10.6888428-4.2406731-21.5537109-8.1213379-32.6478882-11.4979916l-31.2501831,65.1236191
	c-9.1605225-2.4799728-18.4717712-4.5769272-27.9136353-6.3220444l0.0994873-72.2844391
	c-11.3205872-1.7310085-22.8252869-2.8882303-34.4227295-3.7062283l-15.9561462,70.3559875
	c-4.7491455-0.1892853-9.503479-0.361496-14.2979126-0.361496c-4.7966309,0-9.5487366,0.1722107-14.2978821,0.361496
	L400.9329529,8.3661518c-11.5974731,0.8179979-23.1014099,1.9744778-34.4227295,3.7054863l0.0994568,72.2851791
	c-9.4411011,1.7443695-18.7523193,3.8420715-27.9136047,6.3220444l-31.2494507-65.1236191
	c-11.0942078,3.3766537-21.9590149,7.2565746-32.6486511,11.4972515l16.1513672,70.3092194
	c-8.7901306,3.8071747-17.3969421,7.9543228-25.7995911,12.4384613l-44.8822632-56.4440804
	c-10.0327148,5.759388-19.8330994,11.8706169-29.3284149,18.4049568l31.4112701,64.9952011
	c-7.6952667,5.6517639-15.1210785,11.6353149-22.3242188,17.8779297l-56.4010315-45.1064224
	c-8.4902496,7.8281326-16.657608,15.9962387-24.4857483,24.4864883l45.1056824,56.4010315
	c-6.2426147,7.2023926-12.2254333,14.6296997-17.877182,22.3242188L81.374115,191.3274994
	c-6.5350723,9.4967804-12.647789,19.2949524-18.407177,29.3284149l56.4440804,44.8852234
	c-4.4833984,8.4019165-8.6320267,17.0072327-12.4384689,25.7973633l-70.3084717-16.1506348
	c-4.239933,10.6874084-8.1228237,21.5537109-11.4987354,32.6464233l65.1236191,31.2502136
	c-2.4792252,9.1605225-4.5761795,18.4732361-6.3227768,27.9143372l-72.283699-0.1001892
	c-1.7317505,11.322052-2.8867464,22.8267517-3.7047439,34.4241943l70.3567276,15.9554138
	c-0.1900177,4.7491455-0.3622284,9.5027466-0.3622284,14.298645c0,4.7951355,0.1722107,9.5494995,0.3622284,14.2978821
	L7.9777331,461.8309326c0.8179975,11.5974731,1.9729934,23.1014099,3.7047439,34.4227295l72.283699-0.1002197
	c1.7465973,9.4411316,3.8435516,18.7531128,6.3227768,27.9151001l-65.1236191,31.2501831
	c3.3759117,11.0927124,7.2558346,21.9575806,11.4987354,32.6456909l70.3084717-16.1498413
	c3.8064423,8.7893677,7.9550705,17.3950195,12.4384689,25.7969971L62.966938,642.4963989
	c5.759388,10.0327148,11.8698769,19.8323364,18.4042091,29.3284302l64.9966965-31.4113159
	c5.6517487,7.6953125,11.6345673,15.1210938,17.877182,22.3238525l-45.1056824,56.4006958
	c7.8281403,8.4909668,15.9954987,16.6586914,24.4857483,24.4868774l56.4010315-45.1064453
	c7.2031403,6.2426147,14.628952,12.2269287,22.3242188,17.8779297l-31.4112701,64.994812
	c9.4953156,6.5350952,19.2957001,12.6455688,29.3284149,18.4049683l44.8822632-56.4437256
	c8.4026489,4.4845581,17.0094604,8.6309204,25.7995911,12.4381104l-16.1513672,70.3092041
	c10.6896362,4.2414551,21.5544434,8.1213379,32.6486511,11.4976196l31.2494507-65.1239624
	c9.1612854,2.4799805,18.4725037,4.5776367,27.9136047,6.3227539l-0.0994568,72.2844849
	c11.3213196,1.7313843,22.8252563,2.8874512,34.4227295,3.7054443l15.9561462-70.355957
	c4.7491455,0.1896362,9.5012512,0.3615112,14.2978821,0.3615112c4.7944336,0,9.5487671-0.171875,14.2979126-0.3615112
	l15.9561462,70.355957c11.5974426-0.8179932,23.1021423-1.9748535,34.4227295-3.7062378l-0.0994873-72.2836914
	c9.441864-1.7454834,18.7531128-3.8427734,27.9136353-6.3227539l31.2501831,65.1239624
	c11.0941772-3.3762817,21.9590454-7.2576904,32.6478882-11.4979858l-16.1505737-70.3092041
	c8.7901001-3.8079224,17.3961792-7.953186,25.7988281-12.4377441l44.8829956,56.4437256
	c10.0327148-5.7593994,19.8331299-11.8713379,29.3284302-18.4057007l-31.4113159-64.9940796
	c7.6945801-5.6517334,15.1210938-11.6360474,22.3234863-17.8782959l56.4017944,45.1068115
	c8.4902344-7.8289185,16.6575928-15.9966431,24.4857178-24.4868774l-45.1063843-56.401062
	c6.2433472-7.2023926,12.2261353-14.6296997,17.8779297-22.3242188l64.9967041,31.4120483
	c6.5321045-9.4960938,12.6447754-19.2964478,18.4041748-29.3291626l-56.4440918-44.8840942
	c4.482666-8.4019775,8.6290894-17.0076294,12.4384766-25.7969971l70.3084717,16.1498413
	c4.2391968-10.6881104,8.119873-21.5529785,11.4957886-32.6456909l-65.1235962-31.2509155
	c2.4821777-9.1619873,4.5791016-18.4732361,6.3227539-27.9143677l72.2866821,0.1002197
	c1.7317505-11.3213196,2.8867188-22.8252563,3.7039795-34.4227295l-70.355957-15.9561462
	C784.2295532,441.1264038,784.4025269,436.3720398,784.4025269,431.5769043z M431.1877441,404.1732178
	c15.1344299,0,27.4029236,12.2684937,27.4029236,27.4036865c0,15.1336975-12.2684937,27.4029236-27.4029236,27.4029236
	c-15.1344604,0-27.4044189-12.2692261-27.4044189-27.4029236
	C403.7833252,416.4417114,416.0532837,404.1732178,431.1877441,404.1732178z M402.3143311,141.175766v190.2698822
	c0,51.6437073-27.5506287,99.3637085-72.2747803,125.184845l-164.7753601,95.1326904
	c-16.6390686-36.6688232-25.9116821-77.3609009-25.9116821-120.1803589
	C139.3525085,280.4135437,254.9039917,155.723053,402.3143311,141.175766z M358.9233398,506.6575317
	c44.7241516-25.8211365,99.8254395-25.8211365,144.5495911,0l164.6669617,95.0714722
	c-53.0302734,73.6357422-139.4841919,121.6749268-236.9521484,121.6749268
	c-97.4664612,0-183.9159241-48.0358276-236.946991-121.6675415L358.9233398,506.6575317z M532.3566895,456.6304932
	c-44.7241211-25.8211365-72.2747803-73.5411377-72.2747803-125.1833801V141.1787262
	C607.4818726,155.7349396,723.0214844,280.42099,723.0214844,431.5828247c0,42.8164978-9.2711182,83.5055542-25.9072266,120.1714478
	L532.3566895,456.6304932z"/>
</svg>
