<?xml version="1.0" encoding="utf-8"?>
<!-- Generator: Adobe Illustrator 19.0.1, SVG Export Plug-In . SVG Version: 6.00 Build 0)  -->
<svg version="1.1" id="Livello_1" xmlns="http://www.w3.org/2000/svg" xmlns:xlink="http://www.w3.org/1999/xlink" x="0px" y="0px"
	 viewBox="0 0 864 864" style="enable-background:new 0 0 864 864;" xml:space="preserve">
<path d="M785.0682983,431.5768738c0-4.8002319-0.1729126-9.5593567-0.362854-14.3128052l70.4230957-15.969574
	c-0.8191528-11.6086731-1.975647-23.1238403-3.7089233-34.4561462l-72.3547974,0.1006165
	c-1.7446289-9.4501953-3.8435669-18.7714539-6.3280029-27.9410706l65.1849365-31.2800903
	c-3.380127-11.1041565-7.2634277-21.9801025-11.5066528-32.6775208l-70.374939,16.1665649
	c-3.8123779-8.7982788-7.9620972-17.412323-12.4490967-25.8222656l56.4957886-44.9253693
	c-5.763916-10.0440521-11.883606-19.852829-18.4242554-29.3569031l-65.0545654,31.4402466
	c-5.656189-7.7013245-11.6455078-15.1362152-17.894165-22.3443451l45.149292-56.4546967
	c-7.8359375-8.497818-16.012085-16.6725082-24.5098877-24.5098953l-56.4547119,45.1507187
	c-7.2095337-6.2486572-14.6430054-12.2393646-22.3442993-17.8955994l31.4402466-65.0559845
	c-9.5040894-6.5391846-19.3128662-12.6588669-29.3555298-18.422821l-44.925354,56.4972153
	c-8.4099731-4.4884262-17.0239868-8.6381378-25.8236694-12.4491196l16.1665649-70.3763275
	c-10.6988525-4.2432442-21.5733643-8.1293411-32.6789551-11.5080624L524.098877,90.3585892
	c-9.1696167-2.4830246-18.4894104-4.5819702-27.9396362-6.3294373l0.0992126-72.3505554
	c-11.3309021-1.7332954-22.8460693-2.8911877-34.4561768-3.7103581l-15.9695435,70.4230957
	c-4.7534485-0.1899109-9.5125732-0.3628159-14.3113708-0.3628159c-4.8016663,0-9.5579529,0.172905-14.3114014,0.3628159
	L401.2375793,7.9682374c-11.6072693,0.8191705-23.1238403,1.9756455-34.4547424,3.708941l0.0992126,72.3519745
	c-9.4487915,1.747467-18.7686462,3.8464127-27.9396667,6.3294373l-31.278656-65.1849518
	c-11.1041565,3.3787212-21.9801331,7.2634029-32.6789246,11.5080624l16.1665344,70.3749161
	c-8.7982788,3.8109818-17.4137268,7.9621048-25.8236694,12.450531l-44.9253845-56.4972153
	c-10.0426331,5.7639542-19.8514099,11.8807983-29.355484,18.422821l31.4402466,65.0559845
	c-7.7027435,5.6562347-15.1347961,11.6455231-22.3443451,17.8941803l-56.4546967-45.1492996
	c-8.497818,7.835968-16.6739273,16.0120773-24.5084763,24.5098953l45.1478806,56.4546967
	c-6.2486572,7.2081299-12.2365265,14.6430206-17.8941803,22.3443451l-65.0545654-31.4402466
	c-6.5406036,9.5040741-12.6602859,19.312851-18.4242363,29.355484l56.4972115,44.9267883
	c-4.4870071,8.4099426-8.6409683,17.0239868-12.450531,25.8222656l-70.3749161-16.1665649
	c-4.2432442,10.6974182-8.1307564,21.5747986-11.5094776,32.6775208l65.1849442,31.2800903
	c-2.4815979,9.1696167-4.5805435,18.4908752-6.3280182,27.9410706l-72.3519745-0.1006165
	c-1.7347126,11.3323059-2.8897705,22.8474731-3.7075233,34.4561462l70.4216843,15.969574
	c-0.1899109,4.7534485-0.3628159,9.5125732-0.3628159,14.3128052c0,4.8002014,0.172905,9.5579224,0.3628159,14.3113708
	L7.9141445,461.8592224c0.8177528,11.6086731,1.9728107,23.1238403,3.7075233,34.4561462l72.3519745-0.1006165
	c1.7474747,9.4487915,3.8464203,18.77005,6.3280182,27.9410706l-65.1849442,31.2786865
	c3.3787212,11.1027222,7.2633991,21.9786987,11.5094776,32.6774902l70.3749161-16.1651611
	c3.8095627,8.796875,7.9635239,17.4109497,12.450531,25.8208618L62.9544258,642.694519
	c5.7639503,10.0426025,11.8807945,19.8513794,18.4213982,29.3568726l65.0574036-31.4416504
	c5.6576538,7.7027588,11.6455231,15.1362305,17.8941803,22.3457642l-45.1478806,56.4533081
	c7.834549,8.4992065,16.0106583,16.6738892,24.5084763,24.5098877l56.4546967-45.149292
	c7.209549,6.2486572,14.6416016,12.2393188,22.3443451,17.894165l-31.4402466,65.057373
	c9.5040741,6.5406494,19.312851,12.6574707,29.355484,18.4214478l44.9253845-56.4972534
	c8.4099426,4.4898682,17.0253906,8.6395874,25.8236694,12.4505615l-16.1665344,70.3748779
	c10.6987915,4.2446899,21.5747681,8.1293335,32.6789246,11.5095215l31.278656-65.1849976
	c9.1710205,2.4816284,18.4908752,4.5805664,27.9396667,6.328064l-0.0992126,72.3519287
	c11.3309021,1.7333374,22.8474731,2.8912354,34.4547424,3.7089844l15.9723816-70.4216919
	c4.7534485,0.1898804,9.5097351,0.3613892,14.3114014,0.3613892c4.7987976,0,9.5579224-0.1715088,14.3113708-0.3613892
	l15.9695435,70.4216919c11.6101074-0.817749,23.1252747-1.9770508,34.4561768-3.7089844l-0.0992126-72.3519287
	c9.4502258-1.7474976,18.7700195-3.8464355,27.9396362-6.328064l31.2786865,65.1849976
	c11.1055908-3.380188,21.9801025-7.2648315,32.6789551-11.5095215l-16.1665649-70.3762817
	c8.7996826-3.8110352,17.4136963-7.9592896,25.8236694-12.4491577l44.925354,56.4972534
	c10.0426636-5.7639771,19.8514404-11.8822632,29.3555298-18.4228516l-31.4402466-65.0559692
	c7.7012939-5.65625,15.1347656-11.6469727,22.3442993-17.894165l56.4547119,45.149292
	c8.4978027-7.8359985,16.6739502-16.012085,24.5098877-24.5098877l-45.149292-56.4547119
	c6.2486572-7.2081299,12.2379761-14.6430054,17.894165-22.3443604l65.0574341,31.4416504
	c6.5377808-9.5054932,12.6574707-19.31427,18.4213867-29.3568726l-56.4957886-44.9268188
	c4.4869995-8.4099121,8.6367188-17.0239868,12.4490967-25.8208618l70.374939,16.1651611
	c4.2432251-10.6987915,8.1265259-21.5733643,11.5066528-32.6774902l-65.1849365-31.2800903
	c2.484436-9.1710205,4.583374-18.4908752,6.3280029-27.9396667l72.3547974,0.1006165
	c1.7332764-11.3323059,2.8897705-22.8474731,3.7089233-34.4561462l-70.4230957-15.9709778
	C784.8953857,441.1347961,785.0682983,436.3770752,785.0682983,431.5768738z M550.0557861,463.7583313
	c-0.223938,0.8262634-0.4903564,1.628418-0.7298584,2.446167l-16.5407104-9.549408
	c-44.7666626-25.8463745-72.3420715-73.611908-72.3420715-125.3018188v-19.1087646
	c1.0870361,0.2636108,2.1740723,0.5031128,3.2596741,0.7979126
	C529.1669922,330.8146973,567.8295288,398.2927551,550.0557861,463.7583313z M312.9854736,399.3953857
	c12.1514893-44.759552,47.5430298-76.9736328,89.6353455-87.2033386v19.15979
	c0,51.6913452-27.5768433,99.4568787-72.3420715,125.3032532l-16.594574,9.5791626
	C307.4638672,445.1583557,306.8062744,422.1578369,312.9854736,399.3953857z M431.5213623,404.1474304
	c15.1489563,0,27.428009,12.2804565,27.428009,27.4294434c0,15.1489563-12.2790527,27.428009-27.428009,27.428009
	c-15.147583,0-27.4294434-12.2790527-27.4294434-27.428009C404.0919189,416.427887,416.3737793,404.1474304,431.5213623,404.1474304
	z M359.189209,506.7293091c44.7666626-25.8477783,99.9188843-25.8477783,144.6855469,0l16.5945435,9.5806274
	c-30.1037598,31.545105-76.0920715,46.0294189-121.129425,33.8013916
	c-22.4789734-6.1026611-41.7960815-18.0670776-56.7551575-33.7957153L359.189209,506.7293091z M402.6208191,140.9033508v131.0430908
	c-9.1398621,1.6610107-18.0827026,4.070343-26.7307434,7.2350464l-35.0556641-36.4757233
	c-9.1497498,4.3991394-17.9692993,9.4516296-26.390564,15.1206207l13.7388,48.6881714
	c-7.6092224,6.2770081-14.6671143,13.2583618-21.0674133,20.8902588l-48.6229858-14.067627
	c-5.671814,8.299408-10.7852478,17.0665283-15.2708435,26.2758179l36.2688293,35.3192444
	c-1.7077942,4.6018066-3.2540283,9.3014221-4.5649719,14.1285706c-1.3109436,4.8285522-2.3540649,9.6656189-3.2058105,14.4984436
	l-49.1516113,12.1288147c-0.7879944,10.2127075-0.8106689,20.3616333-0.1148071,30.3914795l49.0623169,12.4519653
	c1.6100159,9.5210571,4.0816956,18.8224792,7.3200989,27.8234253l-113.4876251,65.5208435
	c-16.6555023-36.7025146-25.9356537-77.4342346-25.9356537-120.2918396
	C139.4121704,280.2713623,255.0724335,155.4627533,402.6208191,140.9033508z M307.801178,536.3980103
	c5.9411011,7.0253296,12.4321289,13.6169434,19.54953,19.5849609l-14.0690308,48.6229858
	c8.299408,5.671814,17.0679321,10.7838135,26.2758179,15.2694092l35.3192444-36.2687988
	c4.6018066,1.7092285,9.3014221,3.2540283,14.1299744,4.5664063c4.8285828,1.3095093,9.6642151,2.3526001,14.4984741,3.2058105
	l12.1288147,49.1516113c10.212677,0.7865601,20.360199,0.8092041,30.3900452,0.1148071l12.4519653-49.0623779
	c9.8200989-1.6610107,19.4134827-4.22052,28.6766052-7.6119995l35.0542297,36.475708
	c9.1511841-4.3977051,17.9692993-9.4501953,26.3920288-15.1206055l-13.7388306-48.6881714
	c7.3739624-6.0828247,14.2036743-12.855896,20.4466553-20.2142334l113.3898315,65.4655762
	c-53.0802002,73.7054443-139.614624,121.789856-237.1751709,121.789856
	c-97.5577698,0-184.0893097-48.081604-237.1695404-121.7827759L307.801178,536.3980103z M584.2058105,486.3421936
	c1.4399414-4.0051575,2.777832-8.071228,3.9116211-12.2507019c1.3109741-4.8285522,2.3540649-9.6642151,3.2058105-14.4984436
	l49.1516113-12.1288147c0.7880249-10.2127075,0.8106689-20.3616333,0.1148071-30.3900757l-49.0623169-12.4519653
	c-1.6610107-9.8215332-4.2205811-19.4134521-7.6106567-28.6766052l36.475769-35.0556641
	c-4.3991699-9.1511536-9.4516602-17.967865-15.1220703-26.3905945l-48.6881714,13.7388306
	c-6.2755737-7.6092224-13.256958-14.6685181-20.8902588-21.0674133l14.0690308-48.6243896
	c-8.3007813-5.6718292-17.0679321-10.783844-26.2757568-15.2694397l-35.3192749,36.2688293
	c-4.6018066-1.7077942-9.3013916-3.2540283-14.1299744-4.5649719c-4.5267029-1.2287598-9.0618896-2.206665-13.5928345-3.028656
	v-131.047348c147.5384827,14.5707397,263.1874084,139.3736725,263.1874084,290.6791992
	c0,42.8547668-9.2801514,83.5836487-25.9328613,120.2833557L584.2058105,486.3421936z"/>
</svg>
