<?xml version="1.0" encoding="utf-8"?>
<!-- Generator: Adobe Illustrator 19.0.1, SVG Export Plug-In . SVG Version: 6.00 Build 0)  -->
<svg version="1.1" id="Livello_1" xmlns="http://www.w3.org/2000/svg" xmlns:xlink="http://www.w3.org/1999/xlink" x="0px" y="0px"
	 viewBox="0 0 864 864" style="enable-background:new 0 0 864 864;" xml:space="preserve">
<path d="M767.6524658,432.2588196c0-10.3430176-0.5388794-20.5568542-1.4563599-30.6608276l91.4866333-50.8205261
	c-3.9578857-20.8003235-9.4092407-41.0602417-16.2293701-60.6914368l-104.625,1.7317505
	c-8.6342773-18.6937256-18.93573-36.4439697-30.7157593-53.0874786l53.7814941-89.6940002
	c-13.7337646-15.8730164-28.5883789-30.728363-44.4628906-44.4598923l-89.6932373,53.7822495
	c-16.6420288-11.7822876-34.3930054-22.0844574-53.086731-30.7172318l1.7324829-104.6250458
	c-19.6334229-6.8193722-39.8918457-12.2707109-60.6921387-16.2315426l-50.8197937,91.4880905
	c-10.1054688-0.9167175-20.3178406-1.4556198-30.662323-1.4556198c-10.3414917,0-20.5553284,0.5389023-30.6578369,1.4556198
	L350.7288818,6.7848353c-20.8003235,3.9608321-41.0617065,9.4114285-60.6907043,16.2308006l1.7310181,104.6257935
	c-18.6936951,8.633522-36.4447021,18.9349442-53.0882263,30.7172318l-89.6947327-53.7822495
	c-15.8730164,13.7315292-30.7291031,28.5868759-44.4598846,44.4598923l53.7829895,89.6932526
	c-11.7815399,16.6435089-22.0829773,34.3945007-30.7172318,53.0882263l-104.6250534-1.7317505
	c-6.8201141,19.6311951-12.2707119,39.8911133-16.2322865,60.6914368L98.22435,401.5987244
	c-0.9174652,10.1039734-1.4563599,20.3170776-1.4563599,30.6600952c0,10.3429871,0.5388947,20.5568237,1.4563599,30.6607971
	L6.7347722,513.7405396c3.9615741,20.8006592,9.4121723,41.0598755,16.2322865,60.69104l104.6250534-1.7317505
	c8.6342545,18.694458,18.9356918,36.4450684,30.7172318,53.0889893l-53.7829895,89.6925049
	c13.7307816,15.8729858,28.5868683,30.7294312,44.4598846,44.4606323l89.6947327-53.7822876
	c16.6435242,11.7819214,34.3945313,22.0837402,53.0882263,30.7172241l-1.7310181,104.6257935
	c19.6289978,6.819397,39.8903809,12.2700195,60.6907043,16.230835l50.8197937-91.4880981
	c10.1054688,0.9159546,20.3193054,1.4552612,30.6607971,1.4552612c10.3444824,0,20.5568542-0.5393066,30.662323-1.4552612
	l50.8197937,91.4880981c20.800293-3.9608154,41.0587158-9.4121704,60.6921387-16.2315674l-1.7324829-104.625061
	c18.6937256-8.6331177,36.4447021-18.9353027,53.086731-30.7172241l89.6932373,53.7822876
	c15.8745117-13.7312012,30.729126-28.5876465,44.4628906-44.4606323l-53.7814941-89.6932983
	c11.7800293-16.6438599,22.0814819-34.3937378,30.7157593-53.0881958l104.625,1.7317505
	c6.8171997-19.6311646,12.2714844-39.8911133,16.2293701-60.6914063l-91.4866333-50.8205566
	C767.1135864,452.8156433,767.6524658,442.6018066,767.6524658,432.2588196z M432.2094727,523.8972168
	c-50.6104431,0-91.638031-41.0275879-91.638031-91.6376648c0-50.6104736,41.0275879-91.638031,91.638031-91.638031
	s91.6380615,41.0275574,91.6380615,91.638031C523.8475342,482.8696289,482.8199463,523.8972168,432.2094727,523.8972168z"/>
</svg>
