<?xml version="1.0" encoding="utf-8"?>
<!-- Generator: Adobe Illustrator 19.0.1, SVG Export Plug-In . SVG Version: 6.00 Build 0)  -->
<svg version="1.1" id="Livello_1" xmlns="http://www.w3.org/2000/svg" xmlns:xlink="http://www.w3.org/1999/xlink" x="0px" y="0px"
	 viewBox="0 0 864 864" style="enable-background:new 0 0 864 864;" xml:space="preserve">
<path d="M853.7855835,453.8607178c0.3582153-7.1340637,0.5456543-14.3151245,0.5456543-21.5389099
	c0-7.2237549-0.187439-14.4037476-0.5456543-21.5378418l-80.3189697-13.7385254
	c-1.6813354-16.4699707-4.5708008-32.5790405-8.4998169-48.2764893l70.8265991-40.4093323
	c-4.2338867-13.7977905-9.1228638-27.3067322-14.6936646-40.4622192l-80.2463989,14.5740662
	c-7.1853027-14.7694702-15.3861084-28.9522095-24.5383911-42.441925l52.6774902-62.1287384
	c-8.6824341-11.4736786-17.9627686-22.4593658-27.7487793-32.9752197l-70.3728027,41.1114502
	c-11.7214355-11.3567505-24.2388916-21.8800812-37.480896-31.4840088l28.2645874-76.4364014
	c-12.0289917-7.8057327-24.4743652-15.0028114-37.3046875-21.5752182l-52.0544434,62.6850586
	c-14.8217773-6.6386108-30.1914063-12.2467804-46.0372925-16.7534943l0.4169922-81.4791565
	c-13.9024048-3.1788883-28.0611267-5.6679668-42.453125-7.4352016l-27.4834595,76.7327118
	c-8.0919189-0.5712814-16.2334595-0.9647751-24.4689941-0.9647751c-8.2381897,0-16.3776245,0.3934937-24.4689941,0.9647751
	l-27.4839783-76.7327118c-14.3888245,1.7672348-28.5475464,4.2552452-42.4526367,7.4341335l0.4169922,81.4802246
	c-15.8458557,4.5067139-31.2160034,10.1148834-46.0372925,16.7534943l-52.0549469-62.6850586
	c-12.8298035,6.5713387-25.2757263,13.7694855-37.3041382,21.5741501l28.2640076,76.4374695
	c-13.2419739,9.6039276-25.7594452,20.1283264-37.4803314,31.4845428l-70.3727951-41.1119843
	c-9.7860031,10.5158539-19.066391,21.5015411-27.7488022,32.9752197l52.6774902,62.1287384
	c-9.1522522,13.4907837-17.3530731,27.6724548-24.5384064,42.441925l-80.2468872-14.5740662
	c-5.5702629,13.1554871-10.4597893,26.6644287-14.6936798,40.4616699l70.8271484,40.4098816
	c-3.9295578,15.6974487-6.8190689,31.8065186-8.4998093,48.2764893L10.753499,410.7839661
	c-0.3587866,7.134613-0.5456543,14.3140869-0.5456543,21.5378418c0,7.2237854,0.1868677,14.4037781,0.5456543,21.5378418
	l80.3189697,13.7385254c1.6807404,16.4710693,4.5702515,32.5801392,8.4998093,48.2770081l-70.8271484,40.4104614
	c4.2338905,13.7972412,9.1234169,27.3061523,14.6936798,40.4611206l80.2468872-14.5740967
	c7.1853333,14.7689819,15.3882904,28.9522095,24.5384064,42.4425049l-52.6774902,62.1281738
	c8.6824112,11.4731445,17.9627991,22.4593506,27.7488022,32.9746704l70.3727951-41.1114502
	c11.7208862,11.3568115,24.2383575,21.8806152,37.4803314,31.4851074l-28.2640076,76.4364014
	c12.0284119,7.8057251,24.4743347,15.0033569,37.3041382,21.5751953l52.0549469-62.6850586
	c14.8212891,6.6381226,30.1914368,12.2462769,46.0372925,16.7529907l-0.4169922,81.4802246
	c13.9050903,3.178894,28.0638123,5.6668701,42.4526367,7.4346313l27.4839783-76.7332153
	c8.0913696,0.5701904,16.2308044,0.9647827,24.4689941,0.9647827c8.2355347,0,16.3770752-0.3934937,24.4689941-0.9647827
	l27.4834595,76.7332153c14.3919983-1.7677612,28.5507202-4.2562866,42.453125-7.4351807l-0.4169922-81.4796753
	c15.8458862-4.5067139,31.2155151-10.1148682,46.0372925-16.7529907l52.0544434,62.6850586
	c12.8303223-6.5723877,25.2756958-13.7694702,37.3046875-21.5757446l-28.2645874-76.4358521
	c13.2420044-9.6044922,25.7594604-20.1272583,37.480896-31.4845581l70.3701172,41.1109009
	c9.7854614-10.5153198,19.0690308-21.5004272,27.7514648-32.9746704l-52.6774902-62.1281738
	c9.1522827-13.4902954,17.3530884-27.6735229,24.5383911-42.4425049l80.2463989,14.5740967
	c5.5708008-13.1549683,10.4597778-26.664978,14.6936646-40.4622192l-70.8265991-40.4093628
	c3.9290161-15.6968689,6.8184814-31.8059387,8.4998169-48.2770081L853.7855835,453.8607178z M414.0803528,464.864563
	c-8.6920166-4.858551-14.9707642-12.8116455-17.6830444-22.3942261c-2.7122498-9.5804443-1.5291138-19.6456909,3.331604-28.3355713
	c6.8211975-12.2051392,19.5281982-19.0861206,32.6068115-19.0861206c6.1506348,0,12.3823853,1.5227051,18.1229858,4.7304077
	c17.943573,10.0289307,24.3803711,32.7883606,14.3514404,50.7319336v-0.0021362
	C454.7812195,468.4545593,432.0239258,474.8913574,414.0803528,464.864563z M419.1460571,370.2582092
	c-17.3135376,3.6722412-33.0296631,14.4443665-42.3239441,31.0713196
	c-8.2819824,14.8106079-10.2980042,31.9597168-5.6765137,48.2866211c0.2306519,0.811554,0.54245,1.5835876,0.8008728,2.3812256
	l-27.9190979,16.119751c-4.5019226-11.0593567-7.0048828-23.1374207-7.0048828-35.7953186
	c0-48.0645142,35.7931824-87.903656,82.1235657-94.3190918V370.2582092z M385.0357666,474.743988
	c4.6150818,5.1287231,10.041748,9.5623169,16.2393494,13.0273743c9.7854614,5.4671936,20.4038086,8.0620117,30.885498,8.0620117
	c17.7833862,0,35.1524963-7.4907532,47.3576355-21.0797729l27.8294067,16.0674438
	c-17.4438477,22.3408203-44.6026611,36.7456665-75.0802612,36.7456665c-30.4754639,0-57.6343079-14.4048462-75.0802612-36.7445984
	L385.0357666,474.743988z M492.6395569,452.0262146c9.2344666-28.2650757-2.4666443-60.1105652-29.3756104-75.1539307
	c-5.7362976-3.2055969-11.7609253-5.42453-17.8752441-6.7112427v-32.1583252
	c46.3304138,6.4154358,82.1235657,46.2545776,82.1235657,94.3190918c0,12.6568298-2.5029297,24.7348938-7.0048218,35.7931824
	L492.6395569,452.0262146z M500.0437927,321.1579285c-19.7567139-12.0908813-42.9646301-19.0711975-67.7763977-19.0711975
	s-48.0175476,6.9803162-67.7763977,19.0701294L251.8599091,208.5225677
	c49.3800812-39.8850555,112.1356049-63.8383026,180.407486-63.8383026s131.0274048,23.9532471,180.4096069,63.8372345
	L500.0437927,321.1579285z M323.5914917,360.6681824c-13.6082458,20.5704041-21.5592041,45.1963501-21.5592041,71.6536255
	c0,24.8106995,6.979248,48.0186157,19.0711975,67.7753296L208.4702759,612.7314453
	c-39.8850555-49.3800659-63.8383026-112.1366882-63.8383026-180.4096375c0-69.8960266,25.0829926-134.0300903,66.6893768-183.927002
	L323.5914917,360.6681824z M360.6126709,540.9976807c20.5704041,13.6082764,45.1963806,21.5592041,71.6547241,21.5592041
	s51.0843201-7.9509277,71.6547241-21.5592041L616.194397,653.2710571
	c-49.8990479,41.6063843-114.0320435,66.6882935-183.927002,66.6882935c-69.8970947,0-134.0279846-25.0819092-183.924881-66.6893311
	L360.6126709,540.9976807z M543.4312744,500.0971375c12.09198-19.7567139,19.071228-42.9646301,19.071228-67.7753296
	c0-26.4572754-7.9509888-51.0832214-21.5592041-71.6536255l112.2722778-112.2744446
	c41.6085205,49.8969116,66.6915283,114.0309753,66.6915283,183.9280701c0,68.2740173-23.9532471,131.0306091-63.8404541,180.4117737
	L543.4312744,500.0971375z"/>
</svg>
