<?xml version="1.0" encoding="utf-8"?>
<svg version="1.1" id="Livello_1" x="0px" y="0px" viewBox="0 0 864 864" style="enable-background:new 0 0 864 864;" xmlns="http://www.w3.org/2000/svg">
  <path d="M855.9393311,454.0462341c0.3615723-7.1954651,0.5496826-14.4377136,0.5496826-21.7236633 c0-7.2864075-0.1881104-14.528656-0.5496826-21.7241211l-78.112915-13.3609924 c-1.7646484-17.2737122-4.7946167-34.1720276-8.9863892-50.6057434l68.9521484-39.3397827 c-4.2702637-13.9160767-9.2012939-27.5419006-14.8202515-40.8110657l-78.3014526,14.2210388 c-7.5066528-15.4310608-16.1212158-30.2214203-25.734436-44.2770386l51.4796143-60.715683 c-8.7572632-11.5722809-18.1177368-22.6523438-27.9882202-33.2589417l-68.8219604,40.2056122 c-12.2125244-11.8420258-25.2846069-22.8003693-39.1199951-32.7685089l27.6676025-74.8216858 C650.020874,67.1920853,637.4681396,59.9328842,624.5271606,53.3041l-50.9918823,61.4054031 c-15.4163208-6.9225922-31.4256592-12.758667-47.9329224-17.4096985l0.4088135-79.8494415 c-14.0226135-3.2064981-28.3033752-5.716589-42.8186646-7.4990664l-26.9462585,75.2314072 c-8.4072571-0.6063461-16.8925171-0.9291382-25.4544678-0.9291382c-8.5610657,0-17.0472412,0.3227921-25.4540405,0.9291382 L378.3919373,9.9512987c-14.5130615,1.7824774-28.794281,4.2916765-42.8186951,7.4981737l0.4084167,79.8503342 c-16.5068665,4.6510315-32.5161743,10.4871063-47.9334106,17.4096985L237.056839,53.3041 c-12.9410095,6.6283379-25.4936981,13.8879852-37.625946,21.7606659l27.6676178,74.8225784 c-13.8358154,9.9685822-26.9079132,20.9264832-39.1204224,32.7689514l-68.8219833-40.2060547 c-9.8700485,10.6065979-19.230957,21.6866608-27.9872971,33.2589417l51.4787292,60.715683 c-9.6128082,14.0556183-18.2269287,28.8459778-25.7340164,44.2770386l-78.3014832-14.2210388 c-5.6185036,13.269165-10.5495186,26.894104-14.82024,40.8106079l68.9521713,39.3402405 c-4.1918106,16.4337158-7.2213058,33.3320313-8.9859543,50.6057434L5.6446867,410.5989075 c-0.3611321,7.1954346-0.5501695,14.4372559-0.5501695,21.7236633c0,7.2859497,0.1890373,14.5273132,0.5501695,21.7232056 l77.9653168,13.3360291c1.6915283,17.3459473,4.6572723,34.316925,8.795578,50.8242493l-68.6137772,39.1471558 c4.2707214,13.9165039,9.2017365,27.5414429,14.82024,40.8101807l77.5885773-14.0913086 c7.5168991,15.6365967,16.1702423,30.6222534,25.8441315,44.8588867l-50.875946,60.0040894 c8.75634,11.5722656,18.1172485,22.652832,27.9872971,33.2589722l67.8090286-39.6140137 c12.3667755,12.0890503,25.6243439,23.2662964,39.672821,33.4221191l-27.2070618,73.5773315 c12.1322479,7.8726807,24.6849365,15.1328125,37.625946,21.7606812l50.0310822-60.2484131 c15.7088013,7.1102905,32.0400085,13.0854492,48.8857117,17.8318481l-0.4003906,78.2711792 c14.0244141,3.2064819,28.3056335,5.7156982,42.8186951,7.4986572l26.3920898-73.68573 c8.5873413,0.6331177,17.2585449,0.9648438,26.0077515,0.9648438s17.4208374-0.3317261,26.0082092-0.9648438l26.3925171,73.68573 c14.5152893-1.782959,28.796051-4.2930298,42.8186646-7.4990845l-0.4008179-78.270752 c16.8461914-4.7463989,33.1773682-10.7215576,48.8857422-17.8318481l50.0310669,60.2484131 c12.940979-6.6287842,25.4937134-13.8880005,37.6259155-21.7611084l-27.2070313-73.5769043 c14.0480347-10.1558228,27.305603-21.3326416,39.6723633-33.4212036l67.8063354,39.6130981 c9.8705444-10.6061401,19.2336426-21.6862183,27.9909058-33.2589722l-50.8764038-60.0040894 c9.6738892-14.2366333,18.3272095-29.22229,25.8441162-44.8588867l77.588562,14.0913086 c5.6189575-13.2687378,10.5499878-26.894104,14.8202515-40.8106079l-68.6133423-39.1467285 c4.1378784-16.5077515,7.1040649-33.478302,8.7955933-50.8242493L855.9393311,454.0462341z M606.4000854,537.3602905 c-57.5742798,0-104.2485962-46.6734009-104.2485962-104.2476807s46.6743164-104.2477112,104.2485962-104.2477112 s104.2468262,46.6734314,104.2468262,104.2477112S663.9743652,537.3602905,606.4000854,537.3602905z M665.4616699,613.5280151 c0,29.9160156-24.3394165,54.2554321-54.2536011,54.2554321c-29.9142456,0-54.2536621-24.3394165-54.2536621-54.2554321 s24.3394165-54.2536621,54.2536621-54.2536621C641.1222534,559.274353,665.4616699,583.6119995,665.4616699,613.5280151z M255.1834564,537.3602905c-57.5742798,0-104.2468262-46.6734009-104.2468262-104.2476807 s46.6725464-104.2477112,104.2468262-104.2477112s104.2486115,46.6734314,104.2486115,104.2477112 S312.7577209,537.3602905,255.1834564,537.3602905z M304.6291199,613.5280151 c0,29.9141846-24.337616,54.2536011-54.2536316,54.2536011s-54.2554321-24.3394165-54.2554321-54.2536011 c0-29.9142456,24.3394165-54.2536621,54.2554321-54.2536621S304.6291199,583.6137695,304.6291199,613.5280151z M196.1218414,252.6972046c0-29.9160004,24.3394165-54.2554169,54.2536469-54.2554169s54.2536316,24.3394165,54.2536316,54.2554169 s-24.3394165,54.2536621-54.2536316,54.2536621S196.1218414,282.6132202,196.1218414,252.6972046z M430.7917786,361.7528992 c-57.5742798,0-104.2485962-46.6734619-104.2485962-104.2477112c0-57.5751801,46.6743164-104.2486115,104.2485962-104.2486115 s104.2486267,46.6734314,104.2486267,104.2486115C535.0404053,315.0794373,488.3660583,361.7528992,430.7917786,361.7528992z M474.0812683,433.1126099c0,23.9078369-19.3816528,43.2894897-43.2894897,43.2894897s-43.2894897-19.3816528-43.2894897-43.2894897 s19.3816528-43.2894897,43.2894897-43.2894897S474.0812683,409.2047729,474.0812683,433.1126099z M430.7917786,504.4723206 c57.5742798,0,104.2486267,46.6734314,104.2486267,104.2477112c0,57.5751953-46.6743469,104.2485962-104.2486267,104.2485962 s-104.2485962-46.6734009-104.2485962-104.2485962C326.5431824,551.145752,373.2174988,504.4723206,430.7917786,504.4723206z M556.9544067,252.6972046c0-29.9142151,24.3376465-54.2536316,54.2536621-54.2536316s54.2554321,24.3394165,54.2554321,54.2536316 c0,29.9142456-24.3394165,54.2536621-54.2554321,54.2536621S556.9544067,282.6114502,556.9544067,252.6972046z" style="fill: rgb(1, 56, 70);"/>
</svg>