<?xml version="1.0" encoding="utf-8"?>
<!-- Generator: Adobe Illustrator 19.0.1, SVG Export Plug-In . SVG Version: 6.00 Build 0)  -->
<svg version="1.1" id="Livello_1" xmlns="http://www.w3.org/2000/svg" xmlns:xlink="http://www.w3.org/1999/xlink" x="0px" y="0px"
	 viewBox="0 0 864 864" style="enable-background:new 0 0 864 864;" xml:space="preserve">
<g>
	<path d="M605.7299805,797.5928955l21.5327148,0.3562012c1.402832-4.0400391,2.5249023-8.2097168,3.3398438-12.4904785
		l-18.828125-10.4589844c0.1884766-2.0795898,0.2993164-4.1816406,0.2993164-6.3103027
		c0-2.128418-0.1108398-4.2304688-0.2993164-6.3100586l18.828125-10.4589844
		c-0.8149414-4.2807617-1.9365234-8.4506836-3.3398438-12.4907227l-21.5327148,0.3564453
		c-1.7768555-3.847168-3.8969727-7.5004883-6.3212891-10.9257813l11.0683594-18.4592285
		c-2.8261719-3.2668457-5.8833008-6.3239746-9.1503906-9.1501465l-18.4589844,11.0686035
		c-3.425293-2.4248047-7.0786133-4.5449219-10.9257813-6.3215332l0.3564453-21.5324707
		c-4.0405273-1.4035645-8.2099609-2.5256348-12.4907227-3.3405762l-10.4589844,18.8286133
		c-2.0800781-0.1884766-4.1816406-0.2993164-6.3100586-0.2993164c-2.1289063,0-4.2304688,0.1108398-6.3100586,0.2993164
		l-10.3583984-18.6464844l5.0644531,2.3859863c2.4018555-3.0876465,4.65625-6.2912598,6.7353516-9.6125488l-15.7841797-15.5878906
		c2.1586914-3.8796387,4.0419922-7.9245605,5.6362305-12.1037598l22.1201172,2.0239258
		c1.1948242-3.7028809,2.1962891-7.4851074,3.0126953-11.329834l-20.1855469-9.2592773
		c0.6884766-4.3525391,1.0849609-8.7924805,1.1450195-13.3010254l21.4584961-5.6582031
		c-0.0742188-1.9440918-0.1962891-3.8964844-0.3701172-5.8562012c-0.1733398-1.9597168-0.3964844-3.9030762-0.6655273-5.829834
		l-22.1196289-1.7956543c-0.8520508-4.4277344-2.0234375-8.7282715-3.4667969-12.8920898l18.2421875-12.6655273
		c-1.4799805-3.6411133-3.1308594-7.1884766-4.9589844-10.623291l-21.4189453,5.8833008
		c-2.3041992-3.8339844-4.8701172-7.484375-7.6772461-10.9238281l12.7963867-18.1210938
		c-2.6308594-2.9040527-5.4130859-5.6608887-8.3203125-8.2783203l-18.1025391,12.8449707
		c-3.453125-2.7990723-7.1015625-5.3527832-10.9248047-7.6396484l5.8291016-21.4154968
		c-3.4506836-1.8283691-7-3.4816895-10.6386719-4.9560547l-12.6137695,18.2570496
		c-4.1806641-1.4445801-8.4853516-2.5961914-12.8920898-3.4377441l-1.8461914-22.1142273
		c-3.8481445-0.527832-7.7490234-0.8625488-11.6958008-0.9958496l-5.6108398,21.4772644
		c-2.2084961,0.0395508-4.4267578,0.128418-6.6606445,0.3261719c-2.2353516,0.1982422-4.434082,0.5009766-6.6152344,0.8505859
		l-9.3007813-20.1554871c-3.8613281,0.8254395-7.6425781,1.8408203-11.3378906,3.0375977l2.0722656,22.0939636
		c-4.1904297,1.6040039-8.2250977,3.4946289-12.0864258,5.6520996l-15.628418-15.7536621
		c-3.3232422,2.0913086-6.5263672,4.3432617-9.6015625,6.75l9.5058594,20.0561523
		c-3.3613281,2.9238281-6.5043945,6.0800781-9.4111328,9.4423828l-20.0795898-9.4604492
		c-2.4018555,3.0878906-4.6552734,6.2912598-6.734375,9.612793l15.7841797,15.5878906
		c-2.1586914,3.8796387-4.0419922,7.9240723-5.6362305,12.1035156l-22.1201172-2.0239258
		c-1.1948242,3.7026367-2.1962891,7.4851074-3.0131836,11.329834l20.1860352,9.2595215
		c-0.6884766,4.3527832-1.0849609,8.7922363-1.1450195,13.3007813l-21.4589844,5.6584473
		c0.074707,1.9440918,0.1967773,3.8962402,0.3706055,5.8562012c0.1733398,1.9597168,0.3964844,3.902832,0.6650391,5.8295898
		l22.1201172,1.7956543c0.8520508,4.4277344,2.0229492,8.7285156,3.4667969,12.892334l-18.2426758,12.6655273
		c1.4804688,3.6413574,3.1313477,7.1884766,4.9594727,10.623291l21.4189453-5.8833008
		c2.3041992,3.8337402,4.8706055,7.4841309,7.6772461,10.923584l-12.7963867,18.1210938
		c2.6308594,2.9038086,5.4130859,5.6611328,8.3203125,8.2783203l18.1025391-12.8452148
		c3.4526367,2.7993164,7.1015625,5.3530273,10.9248047,7.6401367l-5.8291016,21.4157715
		c3.4506836,1.8278809,6.9995117,3.4814453,10.6386719,4.9555664l12.6137695-18.2570801
		c4.1806641,1.4445801,8.4853516,2.5964355,12.8920898,3.4377441l1.8461914,22.1142578
		c3.8486328,0.5280762,7.7495117,0.8625488,11.6958008,0.9960938l5.6103516-21.4772949
		c2.2089844-0.0395508,4.4262695-0.128418,6.6616211-0.3266602c2.2338867-0.197998,4.4331055-0.5004883,6.6142578-0.8500977
		l9.3012695,20.1555176c3.8618164-0.8256836,7.6430664-1.8413086,11.3378906-3.0378418l-2.0722656-22.0942383
		c4.1899414-1.6032715,8.2250977-3.4943848,12.0864258-5.6518555l15.628418,15.7536621
		c3.3227539-2.0915527,6.5258789-4.3430176,9.6015625-6.75l-9.5058594-20.0561523
		c3.3613281-2.9238281,6.5043945-6.0793457,9.4111328-9.4423828l14.7158203,6.9335938
		c-4.2114258,0.8120117-8.315918,1.9172363-12.293457,3.2990723l0.3564453,21.5327148
		c-3.847168,1.7766113-7.5004883,3.8967285-10.925293,6.3215332l-18.4599609-11.0686035
		c-3.2666016,2.8261719-6.3242188,5.8833008-9.1499023,9.1501465l11.0683594,18.4592285
		c-2.4243164,3.425293-4.5444336,7.0786133-6.3212891,10.9257813l-21.5327148-0.3564453
		c-1.4033203,4.0400391-2.5253906,8.2099609-3.340332,12.4907227l18.8286133,10.4592285
		c-0.1884766,2.0793457-0.2998047,4.1813965-0.2998047,6.3098145c0,2.1286621,0.1113281,4.2307129,0.2998047,6.3103027
		l-18.8286133,10.4589844c0.8149414,4.2810059,1.9370117,8.4504395,3.340332,12.4904785l21.5327148-0.3562012
		c1.7768555,3.8474121,3.8969727,7.5004883,6.3212891,10.9257813l-11.0683594,18.4592285
		c2.8256836,3.2668457,5.8833008,6.3244629,9.1499023,9.1503906l18.4599609-11.0688477
		c3.4248047,2.4248047,7.078125,4.5449219,10.925293,6.3217773l-0.3564453,21.5324707
		c4.0400391,1.4035645,8.2099609,2.5251465,12.4907227,3.340332l10.4589844-18.8286133
		c2.0800781,0.1887207,4.1816406,0.2995605,6.3105469,0.2995605c2.128418,0,4.2299805-0.1108398,6.3100586-0.2995605
		l10.4589844,18.8286133c4.2807617-0.8151855,8.4501953-1.9367676,12.4907227-3.340332l-0.3564453-21.5324707
		c3.847168-1.7766113,7.5004883-3.8969727,10.9257813-6.3217773l18.4589844,11.0688477
		c3.2670898-2.8259277,6.3242188-5.8835449,9.1503906-9.1503906l-11.0683594-18.4592285
		C601.8330078,805.0931396,603.953125,801.4403076,605.7299805,797.5928955z M447.7480469,692.6158447
		c-43.8134766,3.8835449-82.6171875-28.6015625-86.5009766-72.4152832s28.6010742-82.6179199,72.4145508-86.5014648
		c43.8139648-3.8837891,82.6176758,28.6013184,86.5009766,72.4150391
		C524.0463867,649.9281006,491.5620117,688.7322998,447.7480469,692.6158447z M511.3979492,730.9766846
		c3.3491211,0,6.0737305,2.7243652,6.0737305,6.0732422c0,3.3486328-2.7246094,6.072998-6.0737305,6.072998
		c-3.3486328,0-6.0722656-2.7243652-6.0722656-6.072998C505.3256836,733.7010498,508.0493164,730.9766846,511.3979492,730.9766846z
		 M511.3979492,806.4022217c-3.3486328,0-6.0722656-2.7246094-6.0722656-6.0732422s2.7236328-6.0732422,6.0722656-6.0732422
		c3.3491211,0,6.0737305,2.7246094,6.0737305,6.0732422S514.7470703,806.4022217,511.3979492,806.4022217z M506.0898438,781.6868896
		c-7.1669922,0-12.9975586-5.8305664-12.9975586-12.9970703c0-7.166748,5.8305664-12.9978027,12.9975586-12.9978027
		c7.1674805,0,12.9975586,5.8310547,12.9975586,12.9978027
		C519.0874023,775.8563232,513.2573242,781.6868896,506.0898438,781.6868896z M543.0375977,818.6346436
		c-7.1660156,0-12.996582-5.8308105-12.996582-12.9975586c0-7.1665039,5.8305664-12.9970703,12.996582-12.9970703
		c7.1669922,0,12.9975586,5.8305664,12.9975586,12.9970703C556.0351563,812.803833,550.2045898,818.6346436,543.0375977,818.6346436
		z M531.6567383,768.6898193c0-6.2763672,5.1049805-11.3818359,11.3808594-11.3818359
		c6.2753906,0,11.3818359,5.1054688,11.3818359,11.3818359c0,6.2753906-5.1064453,11.3811035-11.3818359,11.3811035
		C536.7617188,780.0709229,531.6567383,774.96521,531.6567383,768.6898193z M543.0375977,744.7386475
		c-7.1660156,0-12.996582-5.8303223-12.996582-12.9970703c0-7.1665039,5.8305664-12.9975586,12.996582-12.9975586
		c7.1669922,0,12.9975586,5.8310547,12.9975586,12.9975586
		C556.0351563,738.9083252,550.2045898,744.7386475,543.0375977,744.7386475z M574.6777344,730.9766846
		c3.3486328,0,6.0727539,2.7243652,6.0727539,6.0732422c0,3.3486328-2.7241211,6.072998-6.0727539,6.072998
		s-6.0737305-2.7243652-6.0737305-6.072998C568.6040039,733.7010498,571.3291016,730.9766846,574.6777344,730.9766846z
		 M574.6777344,806.4022217c-3.3486328,0-6.0737305-2.7246094-6.0737305-6.0732422s2.7250977-6.0732422,6.0737305-6.0732422
		s6.0727539,2.7246094,6.0727539,6.0732422S578.0263672,806.4022217,574.6777344,806.4022217z M579.9858398,781.6868896
		c-7.1669922,0-12.9975586-5.8305664-12.9975586-12.9970703c0-7.166748,5.8305664-12.9978027,12.9975586-12.9978027
		c7.1674805,0,12.9980469,5.8310547,12.9980469,12.9978027
		C592.9838867,775.8563232,587.1533203,781.6868896,579.9858398,781.6868896z"/>
	<circle cx="379.7529297" cy="136.351944" r="15.4775391"/>
	<path d="M434.2368164,540.1885986c-40.2993164,3.5720215-70.0732422,39.137207-66.5009766,79.4370117
		s39.1376953,70.072998,79.4370117,66.5007324c40.2998047-3.5720215,70.0737305-39.1369629,66.5014648-79.4365234
		C510.1020508,566.3897705,474.5366211,536.616333,434.2368164,540.1885986z M443.5561523,645.3214111
		c-17.7636719,1.5744629-33.4404297-11.5493164-35.0151367-29.3127441
		c-1.574707-17.763916,11.5493164-33.4406738,29.3129883-35.0151367
		c17.7631836-1.574707,33.4404297,11.5490723,35.0151367,29.3132324
		C474.4433594,628.0701904,461.3193359,643.7469482,443.5561523,645.3214111z"/>
	<circle cx="440.7050781" cy="613.1575928" r="10.865201"/>
	<path d="M543.0541992,574.913208c-1.3486328,3.8811035-2.4262695,7.8864746-3.2094727,11.9987793l18.0874023,10.0473633
		c-0.1811523,1.9975586-0.2880859,4.0166016-0.2880859,6.0615234s0.1069336,4.0639648,0.2880859,6.0615234l-18.0874023,10.0473633
		c0.7832031,4.1123047,1.8608398,8.1176758,3.2094727,11.9985352l20.684082-0.3422852
		c1.7070313,3.6958008,3.7436523,7.2053223,6.0727539,10.4956055l-10.6328125,17.7324219
		c2.7148438,3.1379395,5.6518555,6.0751953,8.7900391,8.7897949l17.7324219-10.6328125
		c3.2905273,2.3293457,6.7998047,4.3659668,10.4956055,6.072998l-0.3422852,20.6845703
		c3.8808594,1.3481445,7.8862305,2.4255371,11.9985352,3.2084961l10.046875-18.0869141
		c1.9980469,0.1809082,4.0170898,0.2875977,6.0620117,0.2875977s4.0634766-0.1066895,6.0615234-0.2875977l10.0473633,18.0869141
		c4.1123047-0.782959,8.1171875-1.8605957,11.9985352-3.2087402l-0.3422852-20.6843262
		c3.6958008-1.7067871,7.2050781-3.7436523,10.4956055-6.072998l17.7319336,10.6328125
		c3.1386719-2.7145996,6.0751953-5.6518555,8.7905273-8.7897949l-10.6328125-17.7324219
		c2.3291016-3.2905273,4.3657227-6.7998047,6.0722656-10.4956055l20.6845703,0.3422852
		c1.3481445-3.8808594,2.4257813-7.8862305,3.2089844-11.9985352l-18.0869141-10.0473633
		c0.1811523-1.9975586,0.2875977-4.0166016,0.2875977-6.0615234s-0.1064453-4.0639648-0.2875977-6.0615234l18.0869141-10.0473633
		c-0.7832031-4.1123047-1.8603516-8.1176758-3.2089844-11.9987793l-20.6845703,0.3425293
		c-1.706543-3.6958008-3.7431641-7.2050781-6.0722656-10.4956055l10.6328125-17.7324219
		c-2.715332-3.1381836-5.6518555-6.074707-8.7905273-8.7897949l-17.7319336,10.6328125
		c-3.2905273-2.3293457-6.7998047-4.3659668-10.4956055-6.0727539l0.3422852-20.6843262
		c-3.8813477-1.3481445-7.8862305-2.4260254-11.9985352-3.2089844l-10.0473633,18.0871582
		c-1.9980469-0.1811523-4.0166016-0.2875977-6.0615234-0.2875977s-4.0639648,0.1064453-6.0610352,0.2875977l-10.0478516-18.0871582
		c-4.1123047,0.782959-8.1176758,1.8605957-11.9985352,3.2087402l0.3422852,20.6845703
		c-3.6958008,1.7067871-7.2050781,3.7434082-10.4956055,6.0727539l-17.7324219-10.6328125
		c-3.1381836,2.7150879-6.0751953,5.6516113-8.7900391,8.7897949l10.6328125,17.7324219
		c-2.3291016,3.2905273-4.3657227,6.7998047-6.0727539,10.4956055L543.0541992,574.913208z M617.1782227,655.0301514
		c-14.1621094-1.8398438-26.5429688-9.329834-34.8417969-20.145752l21.8095703-12.592041
		c3.5097656,3.6079102,7.996582,6.2404785,13.0322266,7.512207V655.0301514z M602.7314453,604.4725342
		c0-1.9228516,1.5668945-3.4858398,3.487793-3.4858398s3.4873047,1.5629883,3.4873047,3.4858398
		c0,1.9223633-1.5664063,3.4873047-3.4873047,3.4873047S602.7314453,606.3948975,602.7314453,604.4725342z M619.3706055,620.8548584
		c-0.9604492,1.6677246-3.1064453,2.2355957-4.765625,1.2768555c-1.6660156-0.9621582-2.2387695-3.0983887-1.2788086-4.7641602
		c0.6459961-1.1179199,1.8217773-1.7438965,3.0273438-1.7438965c0.5927734,0,1.1923828,0.1506348,1.7387695,0.467041
		C619.7583008,617.0526123,620.3310547,619.1890869,619.3706055,620.8548584z M630.7436523,655.0301514v-25.2255859
		c5.0361328-1.2717285,9.5229492-3.9042969,13.0327148-7.512207l21.8095703,12.592041
		C657.2866211,645.7003174,644.9057617,653.1903076,630.7436523,655.0301514z M632.34375,614.6400146
		c0.5493164-0.3164063,1.1459961-0.4667969,1.7387695-0.4667969c1.2055664,0,2.3813477,0.6259766,3.0268555,1.7419434
		c0.4638672,0.8081055,0.5893555,1.7470703,0.3476563,2.6479492c-0.2416992,0.8991699-0.8178711,1.651123-1.6225586,2.1162109
		c-1.65625,0.9621582-3.7988281,0.3908691-4.7661133-1.2766113
		C630.1079102,617.7384033,630.6811523,615.6021729,632.34375,614.6400146z M638.2158203,601.569458
		c0-1.9226074,1.5664063-3.4875488,3.4873047-3.4875488s3.4873047,1.5649414,3.4873047,3.4875488
		s-1.5664063,3.4858398-3.4873047,3.4858398S638.2158203,603.4920654,638.2158203,601.569458z M676.4584961,603.0201416
		c0,7.137207-1.4428711,13.9399414-4.0341797,20.1489258l-21.8691406-12.626709
		c0.6762695-2.3945313,1.0625-4.9106445,1.0625-7.5214844c0-2.6105957-0.3867188-5.1269531-1.0625-7.5214844l21.8696289-12.6264648
		C675.015625,589.0809326,676.4584961,595.883667,676.4584961,603.0201416z M630.7436523,551.0118408
		c14.1625977,1.8393555,26.5429688,9.3288574,34.8427734,20.1452637l-21.8100586,12.5925293
		c-3.5092773-3.6083984-7.996582-6.2404785-13.0327148-7.5126953V551.0118408z M628.5512695,585.1868896
		c0.6459961-1.1176758,1.8217773-1.7436523,3.0273438-1.7436523c0.5927734,0,1.1923828,0.1508789,1.7387695,0.467041
		c1.6660156,0.9621582,2.2387695,3.0983887,1.2783203,4.7641602c-0.9638672,1.6643066-3.0966797,2.2338867-4.765625,1.2751465
		c-0.8085938-0.465332-1.3847656-1.2172852-1.6264648-2.1164551
		C627.965332,586.93396,628.0878906,585.9935303,628.5512695,585.1868896z M623.9609375,594.8704834
		c4.5014648,0,8.1508789,3.6489258,8.1508789,8.1503906c0,4.5009766-3.6494141,8.1506348-8.1508789,8.1506348
		s-8.1503906-3.6496582-8.1503906-8.1506348C615.8105469,598.5194092,619.4594727,594.8704834,623.9609375,594.8704834z
		 M617.2016602,589.2855225c-0.2421875,0.8991699-0.8183594,1.6508789-1.6230469,2.1162109
		c-1.6625977,0.9604492-3.7988281,0.3908691-4.7661133-1.2749023c-0.4633789-0.8081055-0.5893555-1.7470703-0.3476563-2.6479492
		c0.2416992-0.8991699,0.8178711-1.651123,1.6230469-2.1162109c0.5463867-0.3164063,1.1459961-0.4672852,1.7387695-0.4672852
		c1.2055664,0,2.3813477,0.6262207,3.0268555,1.7438965C617.3173828,587.4456787,617.4433594,588.3863525,617.2016602,589.2855225z
		 M617.1782227,551.0118408v25.2250977c-5.0356445,1.2722168-9.5224609,3.9047852-13.0322266,7.5126953l-21.8100586-12.5925293
		C590.6352539,560.3406982,603.0161133,552.8511963,617.1782227,551.0118408z M575.4975586,582.8729248l21.8696289,12.6264648
		c-0.6762695,2.3945313-1.0629883,4.9108887-1.0629883,7.5214844c0,2.6108398,0.3862305,5.1269531,1.0629883,7.5214844
		l-21.8686523,12.626709c-2.5913086-6.2089844-4.0351563-13.0117188-4.0351563-20.1489258
		C571.4633789,595.883667,572.9067383,589.0809326,575.4975586,582.8729248z"/>
	<path d="M836.1391602,381.7435608c0.1020508-2.0327148,0.1552734-4.0786133,0.1552734-6.1367188
		s-0.0532227-4.104248-0.1552734-6.1369629l-18.5175781-3.1672363c-0.519043-5.7155762-1.5019531-11.2978516-2.9287109-16.7045898
		l16.3198242-9.3110352c-1.2060547-3.9311523-2.5991211-7.7805176-4.1860352-11.5288086l-18.5175781,3.3632813
		c-2.4301758-5.1345215-5.2807617-10.0288086-8.4995117-14.6516113l12.1699219-14.3537598
		c-2.4736328-3.269043-5.1176758-6.3991699-7.9057617-9.3952637l-16.2338867,9.4836426
		c-4.0073242-3.973877-8.3520508-7.6015625-12.96875-10.8725586l6.5253906-17.6464844
		c-3.4272461-2.2241211-6.9731445-4.2749023-10.628418-6.1474609l-12.0048828,14.4558105
		c-5.0961914-2.3601074-10.4150391-4.3122559-15.9213867-5.8132324l0.0961914-18.7709961
		c-3.9614258-0.9055176-7.9956055-1.6147461-12.0957031-2.1181641l-6.3300781,17.6716309
		c-2.7958984-0.230957-5.6142578-0.3791504-8.46875-0.3791504c-2.8569336,0-5.6782227,0.1484375-8.4765625,0.3796387
		l-6.3300781-17.6721191c-0.6674805,0.0817871-1.3305664,0.1779785-1.9946289,0.2709961l-12.3251953-15.4118805
		c1.7592773-2.0297852,3.4458008-4.1230469,5.0385742-6.2915039l18.3173828,8.8525391
		c1.8408203-2.6760254,3.5634766-5.4382324,5.1865234-8.265625l-15.9072266-12.6491699
		c1.2636719-2.3679199,2.4321289-4.7932129,3.5053711-7.2702637l19.8149414,4.5512695
		c1.1943359-3.0119629,2.2880859-6.0739746,3.2392578-9.2001953l-18.3530273-8.807373
		c0.699707-2.5820313,1.2905273-5.2060547,1.7817383-7.8666992l20.3720703,0.0283203
		c0.4882813-3.1906738,0.8134766-6.4328613,1.0439453-9.7011719l-19.828125-4.4968262
		c0.0537109-1.3381348,0.1025391-2.6779785,0.1025391-4.029541s-0.0488281-2.6914063-0.1025391-4.0297852l19.828125-4.496582
		c-0.2304688-3.2683105-0.5556641-6.510498-1.0439453-9.701416l-20.3720703,0.0283203
		c-0.4912109-2.6604004-1.0820313-5.2849121-1.7817383-7.8666992l18.3530273-8.807373
		c-0.9511719-3.1262207-2.0449219-6.1884766-3.2392578-9.2004395l-19.8149414,4.5517578
		c-1.0732422-2.4772949-2.2416992-4.9025879-3.5053711-7.2702637l15.9072266-12.6494064
		c-1.6230469-2.8276367-3.3457031-5.5893555-5.1875-8.265625l-18.3164063,8.8525391
		c-1.5927734-2.168457-3.2792969-4.2617188-5.0385742-6.2912598l12.7119141-15.8952637
		c-2.2060547-2.3928223-4.5078125-4.6945801-6.9008789-6.9008789l-15.8950195,12.7121582
		c-2.0297852-1.7592773-4.1225586-3.4458008-6.2915039-5.0385742l8.8525391-18.3168945
		c-2.6757813-1.8413086-5.4379883-3.5639648-8.2651367-5.1872559l-12.6494141,15.9072266
		c-2.3676758-1.2636719-4.793457-2.4321289-7.2705078-3.505127l4.5517578-19.8146973
		c-3.0126953-1.1953163-6.074707-2.2888222-9.2011719-3.2404823l-8.8071289,18.3532753
		c-2.581543-0.6987305-5.2055664-1.2897949-7.8662109-1.7817383l0.027832-20.3713417
		c-3.1904297-0.487793-6.4326172-0.8139648-9.7011719-1.0444336l-4.496582,19.8278847
		c-1.3383789-0.0532227-2.6787109-0.1018066-4.0297852-0.1018066c-1.3515625,0-2.690918,0.048584-4.0292969,0.1018066
		l-4.496582-19.8278847c-3.2685547,0.2304688-6.5107422,0.5563965-9.7011719,1.0441895l0.027832,20.3715858
		c-2.6606445,0.4916992-5.284668,1.0830078-7.8666992,1.7817383l-8.8066406-18.3532753
		c-3.1269531,0.9516602-6.1884766,2.045166-9.2011719,3.2402382l4.5517578,19.8146973
		c-2.4770508,1.072998-4.902832,2.2416992-7.2709961,3.5053711l-12.6489258-15.9072266
		c-2.8271484,1.623291-5.5893555,3.345459-8.2651367,5.1870117l8.8520508,18.3171387
		c-2.168457,1.5927734-4.2612305,3.2790527-6.2910156,5.0383301l-15.8955078-12.7119141
		c-2.3925781,2.2060547-4.6943359,4.5080566-6.9003906,6.9008789l12.7119141,15.8950195
		c-1.7592773,2.0297852-3.4453125,4.1230469-5.0380859,6.2915039l-18.3168945-8.8525391
		c-1.7861328,2.5957031-3.456543,5.2744141-5.0366211,8.0131836l-20.7041016,0.0288086
		c-0.5405273-2.9257813-1.1904297-5.8120117-1.9594727-8.651123l20.1826172-9.6848145
		c-1.0463867-3.4379883-2.2490234-6.8054199-3.5629883-10.1174316l-21.7890625,5.0048828
		c-1.1806641-2.723877-2.4658203-5.3908691-3.8549805-7.994873l17.4926758-13.9101563
		c-1.7851563-3.109375-3.6796875-6.1462402-5.7045898-9.0893593l-20.1425781,9.7348671
		c-1.7514648-2.3847656-3.6054688-4.6862793-5.5405273-6.9182129l13.9790039-17.479496
		c-2.4257813-2.6313477-4.9570313-5.1625977-7.5883789-7.5891113l-17.4794922,13.9794922
		c-2.2324219-1.9345703-4.5336914-3.7893066-6.918457-5.5410156l9.7348633-20.1423321
		c-2.9428711-2.0251465-5.9799805-3.9191895-9.0893555-5.7041016l-13.909668,17.4926739
		c-2.6040039-1.3898926-5.2714844-2.6748047-7.9956055-3.8547363l5.0053711-21.7895508
		c-3.3125-1.314209-6.6796875-2.5170898-10.1181641-3.5634766l-9.6845703,20.1826172
		c-2.8393555-0.7685547-5.7246094-1.418457-8.6508789-1.9594727l0.0307617-22.4016113
		c-3.5083008-0.5366211-7.0737305-0.8952637-10.6679688-1.1486816l-4.9448242,21.8041992
		c-1.4716797-0.0585938-2.9453125-0.1118164-4.4311523-0.1118164c-1.4868164,0-2.9594727,0.0532227-4.4311523,0.1118164
		l-4.9448242-21.8041992c-3.5947266,0.253418-7.159668,0.6118164-10.6679688,1.1484375l0.0302734,22.4018555
		c-2.9257813,0.5407715-5.8115234,1.190918-8.6503906,1.9594727l-9.6850586-20.1826172
		c-3.4379883,1.0463867-6.8051758,2.2490234-10.1176758,3.5632324l5.0053711,21.7895508
		c-2.7246094,1.1799316-5.3916016,2.4650879-7.9956055,3.8549805l-13.909668-17.4926739
		c-3.109375,1.7849121-6.1469727,3.6787109-9.0893555,5.7038574l9.7348633,20.1425762
		c-2.3847656,1.751709-4.6865234,3.6062012-6.918457,5.5407715L290.6342773,39.64394
		c-2.6313477,2.4262695-5.1625977,4.9577637-7.5883789,7.5891113l13.9790039,17.4792519
		c-1.9350586,2.2321777-3.7890625,4.5336914-5.5405273,6.918457l-20.1425781-9.7348671
		c-2.0253906,2.943119-3.9199219,5.9797401-5.7045898,9.0893593l17.4926758,13.9101563
		c-1.3891602,2.6040039-2.675293,5.2709961-3.8549805,7.994873l-21.7895508-5.0048828
		c-1.3134766,3.3120117-2.5170898,6.6796875-3.5634766,10.1174316l20.1826172,9.6848145
		c-0.7680664,2.8391113-1.4179688,5.7250977-1.9594727,8.651123l-16.0048828-0.0224609
		c-0.6293945-1.8334961-1.2880859-3.6533203-2-5.4472656l-19.4223633,4.4616699
		c-1.0522461-2.4282227-2.1972656-4.8056641-3.4360352-7.126709l15.5922852-12.3989258
		c-1.5908203-2.7719727-3.2797852-5.4790039-5.0849609-8.1020508l-17.9541016,8.6772461
		c-1.5610352-2.1254883-3.2138672-4.1774902-4.9384766-6.166748l12.4604492-15.5808105
		c-2.1625977-2.3452148-4.4189453-4.6015625-6.7641602-6.7644043l-15.5810547,12.4609375
		c-1.9897461-1.7243652-4.0410156-3.3779297-6.1665039-4.9389648l8.6767578-17.9545937
		c-2.6225586-1.8046875-5.3300781-3.4936523-8.1015625-5.0844727l-12.3989258,15.5925331
		c-2.3208008-1.2387695-4.6982422-2.3840332-7.1269531-3.435791l4.4619141-19.4230995
		c-2.9526367-1.1708984-5.9541016-2.2434082-9.019043-3.1760254l-8.6323242,17.9902344
		c-2.5307617-0.6853027-5.1030273-1.2644043-7.7109375-1.7468262l0.0273438-19.9677734
		c-3.1274414-0.4785156-6.3051758-0.7978516-9.5097656-1.0239258l-4.4072266,19.435791
		c-1.3120117-0.0524902-2.6254883-0.1000977-3.949707-0.1000977c-1.3251953,0-2.6376953,0.0476074-3.949707,0.1000977
		l-4.4082031-19.435791c-3.2036133,0.2260742-6.3818359,0.545166-9.509285,1.0234375l0.0273438,19.9682617
		c-2.6074219,0.4824219-5.1796875,1.0615234-7.7109375,1.7468262l-8.6323242-17.9902344
		c-3.0649414,0.9326172-6.0664063,2.0046387-9.019043,3.1760254l4.4619141,19.4226112
		c-2.4282227,1.052002-4.8061523,2.1975098-7.1269531,3.4362793L86.8886642,52.3512154
		c-2.7719727,1.5908203-5.4790039,3.2790527-8.1020508,5.0844727l8.6772461,17.9545937
		c-2.1259766,1.5610352-4.1767578,3.2141113-6.1665039,4.9387207L65.716301,67.868309
		c-2.345211,2.1625977-4.6015587,4.4191895-6.7641563,6.7644043L71.41259,90.2135239
		c-1.7246094,1.9892578-3.3769531,4.0412598-4.9384766,6.166748l-17.9540977-8.6772461
		c-1.8051758,2.6230469-3.4941406,5.3300781-5.0849609,8.1018066l15.5922852,12.3991699
		c-1.2382813,2.3210449-2.3847656,4.6984863-3.4360352,7.126709l-19.4228516-4.4616699
		c-1.1708984,2.9521484-2.2436523,5.9541016-3.1762695,9.0185547l17.9902344,8.6328049
		c-0.6850586,2.5307617-1.2641602,5.1032715-1.746582,7.7114258l-19.9682617-0.027832
		c-0.4785156,3.1274414-0.7973633,6.3056641-1.0229492,9.5095215l19.4355469,4.4074707
		c-0.0527344,1.3117676-0.1000977,2.6252441-0.1000977,3.9499512c0,1.3249512,0.0473633,2.6379395,0.1000977,3.9499512
		l-19.4355469,4.4077148c0.2255859,3.2038574,0.5444336,6.3818359,1.0229492,9.5092773l19.9682617-0.0275879
		c0.4824219,2.607666,1.0615234,5.1801758,1.746582,7.7111816l-17.9902344,8.6325684
		c0.9326172,3.064209,2.0043945,6.065918,3.1762695,9.0187988l19.4228516-4.4614258
		c1.0512695,2.4277344,2.1977539,4.8051758,3.4360352,7.1262207l-15.5922852,12.3991699
		c1.5908203,2.7714844,3.2788086,5.4787598,5.0839844,8.1020508l17.9550743-8.6774902
		c1.5615234,2.1259766,3.2138672,4.1774902,4.9384766,6.1672363l-12.4604454,15.5803223
		c2.1625977,2.3457031,4.4189453,4.6018066,6.7641563,6.7644043l15.5810547-12.4606934
		c1.9897461,1.7246094,4.0405273,3.3779297,6.1665039,4.9387207l-8.6772461,17.9550781
		c2.6230469,1.8049316,5.3300781,3.4931641,8.1020508,5.0839844L99.28759,240.1978912
		c2.3208008,1.2390137,4.6987305,2.3845215,7.1269531,3.4362793l-4.4619141,19.4223785
		c2.9526367,1.1716309,5.9541016,2.2436523,9.019043,3.1765137l8.6323242-17.9902496
		c2.53125,0.6848145,5.1035156,1.2641602,7.7109375,1.746582L127.28759,269.957428
		c0.3227539,0.0495605,0.6484375,0.090332,0.9716873,0.1362305l11.2890625,23.3581543
		c-2.9248047,2.1479492-5.7470703,4.4221191-8.4838867,6.7944336l-21.4350662-17.142334
		c-3.2270508,2.9750977-6.3310547,6.0793457-9.3061523,9.3061523l17.1425781,21.4345703
		c-2.3725586,2.7373047-4.6459961,5.5600586-6.7944336,8.4838867l-24.7001953-11.9375
		c-2.4833984,3.6091309-4.8066406,7.3327637-6.9956055,11.1459961l21.4511719,17.0581055
		c-1.7036133,3.1933594-3.2797852,6.4638672-4.7270508,9.8041992l-26.7202148-6.1376953
		c-1.6113281,4.0617676-3.0864258,8.1911621-4.3696289,12.4069824l24.75,11.8764648
		c-0.9428711,3.4816895-1.7402344,7.020752-2.402832,10.6086426l-27.4716759-0.0380859
		c-0.6577148,4.3027344-1.097168,8.6750488-1.4077148,13.0827637l26.7382774,6.0637207
		c-0.0722656,1.8046875-0.1376953,3.6113281-0.1376953,5.434082s0.0654297,3.6289063,0.1376953,5.4338379l-26.7382774,6.0639648
		c0.3105469,4.4074707,0.75,8.779541,1.4077148,13.0822754l27.4716759-0.0383301
		c0.6625977,3.5883789,1.4599609,7.1271973,2.402832,10.6091309l-24.75,11.8764648
		c1.2832031,4.215332,2.7578125,8.3449707,4.3696289,12.4069824l26.7202148-6.1379395
		c1.4472656,3.340332,3.0234375,6.6108398,4.7270508,9.8039551l-21.4511719,17.0583496
		c2.1889648,3.8127441,4.5117188,7.5371094,6.9951172,11.1459961l24.7006836-11.9377441
		c2.1484375,2.9243164,4.421875,5.7468262,6.7944336,8.4841309l-17.1425781,21.4345703
		c2.9750977,3.2270203,6.0791016,6.3312683,9.3061523,9.3061218l21.4350662-17.1425476
		c2.7368164,2.3728027,5.559082,4.6469727,8.4838867,6.7944336l-11.9375076,24.7008972
		c3.6088943,2.4836426,7.3330154,4.8061523,11.1460037,6.994873l17.0581055-21.4509277
		c3.1923828,1.7038574,6.4633789,3.2800293,9.8037109,4.7270508l-5.0625,22.0407715l-0.1538086-0.5241699
		c-4.7749023,0.6008301-9.4770508,1.4157715-14.0878906,2.4553223l1.2041016,18.8937988
		c-3.402832,0.8508301-6.7519531,1.8278809-10.0356445,2.9401855l-9.2314453-16.5141602
		c-4.502449,1.6437988-8.896492,3.4987793-13.174324,5.5529785l5.3720703,18.1308594
		c-3.1186523,1.5881348-6.1621094,3.2961426-9.125,5.1223145l-12.6606445-14.032959
		c-4.0097656,2.6030273-7.8818359,5.3925781-11.6040039,8.3583984l9.2695313,16.4782715
		c-2.6777344,2.2353516-5.2495117,4.5864258-7.7348633,7.0268555L73.084465,589.946167
		c-3.3242188,3.418457-6.4814453,6.996582-9.461422,10.71875l12.7373009,14.0371094
		c-2.112793,2.7685547-4.1264648,5.6132813-6.0117188,8.5473633l-17.5024376-7.1518555
		c-2.4799805,4.0632324-4.7670898,8.25-6.8530273,12.5527344l15.4985352,10.8203125
		c-1.4443359,3.1665039-2.7617188,6.3989258-3.9501953,9.6906738l-18.6572266-3.0776367
		c-1.5068359,4.4995117-2.8022461,9.0895996-3.8740234,13.7612305l17.5332031,7.107666
		c-0.6958008,3.3974609-1.2495117,6.8408203-1.6713867,10.3237305l-18.8959961,1.1516113
		c-0.4589844,4.7053223-0.684082,9.4711914-0.6865234,14.2839355l18.671875,3.027832
		c0.0385742,1.7358398,0.0844727,3.4733887,0.1933594,5.222168c0.1088867,1.7490234,0.2797852,3.4787598,0.456543,5.2062988
		l-18.1508789,5.3234863c0.6000977,4.7751465,1.4160156,9.4760742,2.4555664,14.0881348l18.8925781-1.204834
		c0.8510742,3.4038086,1.8286133,6.7519531,2.940918,10.0361328l-16.5146484,9.2307129
		c1.644043,4.5029297,3.4995117,8.8955078,5.5537109,13.173584l18.1303711-5.3720703
		c1.5883751,3.1191406,3.2968712,6.1628418,5.1230431,9.125l-14.0346642,12.6621094
		c2.6044922,4.0097656,5.3925781,7.8803711,8.359375,11.6040039l16.4790001-9.2700195
		c2.2348633,2.6772461,4.5864258,5.2495117,7.0268555,7.7341309l-10.8955078,15.5102539
		c3.4194336,3.3237305,6.9970703,6.4812012,10.7197266,9.4609375l14.0366211-12.736084
		c2.769043,2.1123047,5.612793,4.1259766,8.5473633,6.0117188l-7.1508789,17.5019531
		c4.0620117,2.4802246,8.2504883,4.7675781,12.5527344,6.8520508l10.8193359-15.4970703
		c3.1669998,1.4443359,6.3989334,2.7607422,9.6904373,3.949707l-3.078125,18.6569824
		c4.4995117,1.5068359,9.090332,2.8022461,13.762207,3.8742676l7.1083984-17.5336914
		c3.3964844,0.6962891,6.8408203,1.25,10.3232422,1.6713867l1.1518555,18.8969727
		c4.7045898,0.4587402,9.4716797,0.6833496,14.2841797,0.6862793l3.027832-18.6723633
		c1.7358398-0.0383301,3.4726563-0.0839844,5.2216797-0.1931152c1.7490234-0.1088867,3.4775391-0.279541,5.2050781-0.4570313
		l5.3242188,18.1516113c4.7744141-0.6005859,9.4755859-1.4155273,14.0878906-2.4553223l-1.2041016-18.8937988
		c3.402832-0.8510742,6.7509766-1.8276367,10.0351563-2.9404297l9.2314453,16.5146484
		c4.5019531-1.6437988,8.8964844-3.4987793,13.1748047-5.5532227l-5.3720703-18.1306152
		c3.1181641-1.588623,6.1616211-3.2963867,9.125-5.1225586l12.6601563,14.032959
		c4.0112305-2.6032715,7.8813477-5.3925781,11.6044922-8.3581543l-9.2695313-16.4780273
		c2.6772461-2.2363281,5.2495117-4.5874023,7.734375-7.0275879l15.5097656,10.8945313
		c3.3242188-3.4196777,6.4814453-6.9968262,9.4604492-10.7192383l-12.7368164-14.0373535
		c2.1132813-2.7680664,4.1269531-5.612793,6.012207-8.5473633l17.5024414,7.1516113
		c2.4799805-4.0629883,4.7675781-8.2497559,6.8530273-12.5527344l-15.4980469-10.8200684
		c1.4433594-3.1660156,2.7607422-6.3984375,3.9492188-9.6906738l18.6577148,3.0783691
		c1.5068359-4.4997559,2.8017578-9.0891113,3.8745117-13.7614746l-17.534668-7.107666
		c0.6967773-3.3977051,1.2504883-6.8408203,1.6704102-10.3237305l18.8979492-1.1513672
		c0.4589844-4.7055664,0.6845703-9.4711914,0.6860352-14.2839355l-18.6713867-3.0275879
		c-0.0385742-1.7363281-0.0844727-3.4736328-0.1933594-5.2226563c-0.109375-1.7487793-0.2792969-3.4787598-0.4570313-5.206543
		l18.1508789-5.322998c-0.5991211-4.7751465-1.4150391-9.4760742-2.4550781-14.0881348l-18.8945313,1.2045898
		c-0.8496094-3.4033203-1.8261719-6.7514648-2.9399414-10.0358887l16.5161133-9.230957
		c-1.6445313-4.5026855-3.4995117-8.895752-5.5541992-13.173584l-18.1303711,5.371582
		c-1.5883789-3.1184082-3.2973633-6.1621094-5.1225586-9.125l14.0336914-12.661377
		c-2.6035156-4.0100098-5.3935547-7.8808594-8.3588867-11.6044922l-16.4785156,9.2702637
		c-2.2348633-2.677002-4.5864258-5.2495117-7.0273438-7.7336426l10.8945313-15.5109863
		c-3.418457-3.3239746-6.9956055-6.480957-10.71875-9.4604492l-14.0366211,12.7363281
		c-2.7685547-2.112793-5.612793-4.1264648-8.5473633-6.0119629l7.1508789-17.5019531
		c-3.9824219-2.4316406-8.0874023-4.6748047-12.300293-6.7263184l-0.0371094-26.4335938
		c3.5883789-0.6635742,7.1269531-1.4604492,10.6083984-2.4030762l11.8769531,24.7502441
		c4.2158203-1.2832031,8.3452148-2.7585449,12.4072266-4.369873l-6.1381836-26.720459
		c3.3408203-1.4472656,6.6113281-3.0229492,9.8046875-4.7268066l17.0576172,21.4509277
		c3.8129883-2.1887207,7.5375977-4.5117188,11.1459961-6.994873l-11.9375-24.7008972
		c2.9243164-2.1479492,5.746582-4.4221191,8.4838867-6.7946777l21.4350586,17.1427917
		c3.2265625-2.9750977,6.3310547-6.0795898,9.3061523-9.3061218l-17.1425781-21.4350586
		c2.3725586-2.7368164,4.6459961-5.5595703,6.7944336-8.4838867l24.7011719,11.9379883
		c2.4829102-3.6088867,4.8056641-7.3334961,6.9941406-11.1462402l-21.4506836-17.0581055
		c1.7036133-3.1931152,3.2797852-6.463623,4.7270508-9.8039551l26.7202148,6.1379395
		c1.6118164-4.0620117,3.0864258-8.1911621,4.3696289-12.4069824l-24.75-11.8769531
		c0.9423828-3.4819336,1.7397461-7.0202637,2.402832-10.6086426l27.4716797,0.0383301
		c0.6582031-4.3027344,1.097168-8.6748047,1.4077148-13.0822754l-26.7387695-6.0639648
		c0.0722656-1.8049316,0.1381836-3.611084,0.1381836-5.4338379s-0.065918-3.6296387-0.1381836-5.434082l26.7387695-6.0639648
		c-0.3105469-4.4074707-0.7495117-8.7797852-1.4077148-13.0825195l-27.4716797,0.0380859
		c-0.6630859-3.5876465-1.4604492-7.126709-2.402832-10.6086426l23.78125-11.4116211
		c-1.1767578,2.9812012-2.2402344,6.0192871-3.1879883,9.1083984l20.644043,11.7783203
		c-1.1450195,4.5754395-1.9873047,9.270752-2.4775391,14.0712891l-23.4106445,4.0043945
		c-0.1044922,2.0795898-0.1586914,4.1721191-0.1586914,6.2775879c0,2.1057129,0.0541992,4.1984863,0.1586914,6.277832
		l23.4106445,4.0043945c0.4902344,4.8007813,1.3325195,9.4960938,2.4775391,14.0712891l-20.644043,11.7788086
		c1.2338867,4.0214844,2.6591797,7.9589844,4.2827148,11.7932129l23.3896484-4.2480469
		c2.0947266,4.3049316,4.4853516,8.4387207,7.1523438,12.3708496l-15.3540039,18.1086426
		c2.5307617,3.3442383,5.2358398,6.5463867,8.0883789,9.6113281l20.5117188-11.9829102
		c3.4160156,3.3103027,7.0644531,6.3776855,10.9243164,9.177002l-8.2382813,22.2792969
		c3.5058594,2.2749023,7.1337891,4.3730469,10.8730469,6.2885742l15.1728516-18.2709961
		c4.3198242,1.9348145,8.7998047,3.5693359,13.418457,4.8828125l-0.121582,23.7494812
		c4.0532227,0.9265137,8.1801758,1.6516113,12.3740234,2.1669922l8.0107422-22.3656921
		c2.3583984,0.1660156,4.730957,0.28125,7.1318359,0.28125s4.7739258-0.1147461,7.1323242-0.28125l8.0107422,22.3656921
		c4.1948242-0.5153809,8.3217773-1.2407227,12.3740234-2.1672363l-0.121582-23.7492371
		c4.6186523-1.3134766,9.0981445-2.947998,13.418457-4.8828125l15.1723633,18.2709961
		c3.7397461-1.9157715,7.3671875-4.0136719,10.8735352-6.2888184l-8.2382813-22.2790527
		c3.859375-2.7993164,7.5078125-5.8664551,10.9243164-9.1767578l20.5112305,11.982666
		c2.8520508-3.0649414,5.5581055-6.2668457,8.0888672-9.6113281l-15.3544922-18.1086426
		c2.6679688-3.9321289,5.0581055-8.065918,7.1523438-12.3708496l23.3896484,4.2480469
		c1.6240234-3.8342285,3.0488281-7.7722168,4.2827148-11.7937012l-20.644043-11.7783203
		c1.1455078-4.5751953,1.987793-9.2705078,2.4775391-14.0712891l22.0083008-3.7641602l-7.0727539,4.0351563
		c1.206543,3.9313965,2.5996094,7.7802734,4.1870117,11.5285645l18.5180664-3.3632813
		c2.4301758,5.1342773,5.2807617,10.0280762,8.4990234,14.6508789l-12.1704102,14.3544922
		c2.4736328,3.2687988,5.1176758,6.3991699,7.9057617,9.3952637l16.2348633-9.484375
		c4.0073242,3.9733887,8.3520508,7.6013184,12.9677734,10.8720703l-6.5253906,17.6479492
		c3.4267578,2.223877,6.9731445,4.2749023,10.628418,6.1472168l12.0053711-14.4567871
		c5.0957031,2.3601074,10.4150391,4.3120117,15.9208984,5.8132324l-0.0961914,18.7722168
		c3.9619141,0.9055176,7.9960938,1.614502,12.0957031,2.1181641l6.3300781-17.671875
		c2.7983398,0.2314453,5.6196289,0.3796387,8.4765625,0.3796387c2.8544922,0,5.6733398-0.1481934,8.4692383-0.3791504
		l6.3295898,17.6713867c4.1000977-0.5036621,8.1342773-1.2126465,12.0957031-2.1184082l-0.0961914-18.770752
		c5.5063477-1.5009766,10.8251953-3.453125,15.9213867-5.8134766l12.0048828,14.4558105
		c3.6552734-1.8725586,7.2011719-3.9233398,10.628418-6.1472168l-6.5253906-17.6472168
		c4.6162109-3.270752,8.9609375-6.8989258,12.9677734-10.8723145l16.2338867,9.4838867
		c2.7880859-2.9960938,5.4331055-6.1259766,7.9067383-9.3952637l-12.1704102-14.3544922
		c3.2177734-4.6228027,6.0688477-9.5166016,8.4985352-14.6508789l18.519043,3.3632813
		c1.5869141-3.748291,2.9799805-7.5974121,4.1860352-11.5285645l-16.3203125-9.3115234
		c1.4267578-5.4067383,2.4091797-10.9887695,2.9291992-16.7041016L836.1391602,381.7435608z M724.3256836,290.7372131
		c25.1132813,2.432373,47.0581055,15.809082,61.0292969,35.2817383l-29.2504883,16.8879395
		c-7.8369141-9.5834961-19.0356445-16.3093262-31.7788086-18.3688965V290.7372131z M707.7529297,290.7377014v33.8012695
		c-12.7441406,2.0610352-23.9423828,8.786377-31.7783203,18.3681641l-29.2504883-16.8879395
		C660.6948242,306.5482483,682.6381836,293.1717834,707.7529297,290.7377014z M629.8862305,273.858551
		c2.6606445-0.4919434,5.284668-1.0830078,7.8662109-1.7819824l8.8071289,18.3535156
		c2.9897461-0.9099121,5.9174805-1.956543,8.8022461-3.0905762l1.8461914,4.9931641
		c-4.6162109,3.270752-8.9614258,6.8986816-12.9682617,10.8720703l-15.1625977-8.857666
		c0.2788086-0.0400391,0.559082-0.0749512,0.8369141-0.1174316L629.8862305,273.858551z M611.6870117,258.2477112
		c-27.4682617,0-51.8320313-13.5376129-66.7773438-34.2885895l46.4116211-26.7954102
		c12.6040039-7.2768555,28.1328125-7.2768555,40.7373047,0l46.4067383,26.7932129
		C663.5200195,244.7093658,639.1557617,258.2477112,611.6870117,258.2477112z M689.1547852,261.0887756l0.0825195,16.0932617
		c-5.5063477,1.5009766-10.8251953,3.4526367-15.9208984,5.8127441l-12.0053711-14.4567871
		c-2.9760742,1.5246582-5.8759766,3.173584-8.7021484,4.9318848l-1.3999023-6.0949707
		c2.4770508-1.0732422,4.902832-2.2412109,7.2705078-3.505127l12.6494141,15.9069824
		c2.8271484-1.6230469,5.5893555-3.345459,8.2651367-5.1870117l-8.8525391-18.3168945
		c2.1689453-1.5927887,4.2617188-3.2793121,6.2915039-5.0385895L689.1547852,261.0887756z M619.8300781,94.163475
		c41.5405273,4.1025391,74.1020508,39.2416916,74.1020508,81.8425217c0,12.0666504-2.612793,23.5336914-7.3012695,33.8669434
		l-46.4321289-26.8078613c-12.6044922-7.2770996-20.3686523-20.7255859-20.3686523-35.279541V94.163475z M611.6870117,168.2813873
		c4.2651367,0,7.7226563,3.4575195,7.7226563,7.7229004c0,4.2651367-3.4575195,7.7226563-7.7226563,7.7226563
		c-4.265625,0-7.7231445-3.4575195-7.7231445-7.7226563C603.9638672,171.7389069,607.4213867,168.2813873,611.6870117,168.2813873z
		 M603.5498047,94.1627426v53.6223068c0,14.5544434-7.7646484,28.0029297-20.3686523,35.2800293l-46.4375,26.8105469
		c-4.6894531-10.3342285-7.3027344-21.802002-7.3027344-33.8696289
		C529.440918,133.4032135,562.0063477,98.2625961,603.5498047,94.1627426z M489.1069336,131.9207916l21.8041992-4.9450607
		c-0.206543-2.9338379-0.4892578-5.8464355-0.8759766-8.7268066l13.7861328,10.962883
		c-1.2636719,2.3676758-2.4326172,4.7929688-3.5053711,7.2702637l-19.8144531-4.5517578
		c-1.1953125,3.0119629-2.2895508,6.0744629-3.2407227,9.2004395l5.9331055,2.847168l-14.0869141-3.1945801
		c0.0585938-1.4716797,0.1123047-2.9450684,0.1123047-4.4311523S489.1655273,133.3922272,489.1069336,131.9207916z
		 M487.3608398,156.3653717l22.4023438,0.0310059c0.4428711-2.8947754,0.7592773-5.8295898,1.0004883-8.7858887l4.8500977,2.3273926
		c-0.6987305,2.581543-1.2895508,5.2060547-1.7817383,7.8669434l-20.3710938-0.0283203
		c-0.4882813,3.190918-0.8134766,6.4331055-1.0439453,9.701416l19.8276367,4.496582
		c-0.0532227,1.338623-0.1015625,2.6782227-0.1015625,4.0297852s0.0483398,2.6914063,0.1015625,4.029541l-9.184082,2.0827637
		c0.9121094-2.4384766,1.7602539-4.9077148,2.5234375-7.4155273l-20.1826172-9.6848145
		C486.1704102,162.1768951,486.8203125,159.2913971,487.3608398,156.3653717z M419.4057617,159.8192291
		c2.203125-3.7075195,3.9067383-7.7443848,5.0039063-12.0239258l48.7172852-2.9633789
		c-1.7563477,19.4980469-9.4921875,37.2927246-21.3730469,51.5256348L419.4057617,159.8192291z M439.7592773,208.3531647
		c-14.2329102,11.8820801-32.027832,19.6188965-51.5263672,21.375l2.9638672-48.7216797
		c4.2788086-1.0969238,8.3154297-2.8005371,12.0224609-5.0024414L439.7592773,208.3531647z M451.7529297,76.3475571
		c11.8803711,14.2331543,19.6166992,32.0273438,21.3740234,51.5244141l-48.7182617-2.9633789
		c-1.0976563-4.2788086-2.8012695-8.3154297-5.0039063-12.0227051L451.7529297,76.3475571z M439.7583008,64.3514633
		L403.21875,96.7003403c-3.7070313-2.2021484-7.7436523-3.9055176-12.0219727-5.0024414l-2.9638672-48.7219276
		C407.730957,44.7320747,425.5253906,52.4693794,439.7583008,64.3514633z M379.7529297,105.901268
		c16.7885742,0,30.4526367,13.6604004,30.4526367,30.4526291c0,16.7883301-13.6640625,30.4487305-30.4526367,30.4487305
		c-16.7880859,0-30.4526367-13.6604004-30.4526367-30.4487305
		C349.300293,119.5616684,362.9648438,105.901268,379.7529297,105.901268z M371.2729492,229.7274323
		c-19.496582-1.7575684-37.2910156-9.4946289-51.5234375-21.3762207l36.5371094-32.347168
		c3.7075195,2.2019043,7.7441406,3.9055176,12.0224609,5.0024414L371.2729492,229.7274323z M371.2729492,42.9764595
		l-2.9638672,48.7214394c-4.2783203,1.0969238-8.3144531,2.800293-12.0219727,5.0024414l-36.5366211-32.3466797
		C333.9829102,52.4718208,351.7763672,44.7340279,371.2729492,42.9764595z M307.7543945,76.3490219l32.3466797,36.5368652
		c-2.2026367,3.7072754-3.90625,7.7438965-5.0039063,12.0227051l-48.7177734,2.9633789
		C288.1367188,108.3758774,295.8735352,90.5819321,307.7543945,76.3490219z M335.0966797,147.7953033
		c1.097168,4.279541,2.8007813,8.3164063,5.003418,12.0239258l-32.3461914,36.5366211
		c-11.8813477-14.2324219-19.6181641-32.0268555-21.3745117-51.5239258L335.0966797,147.7953033z M274.1044922,165.0164948
		l-12.965332,6.2214355c0.4213867-2.9020996,0.7163086-5.84375,0.9257813-8.8093262l-19.4360352-4.4077148
		c0.0527344-1.3120117,0.1000977-2.625,0.1000977-3.9499512c0-1.324707-0.0473633-2.6381836-0.1000977-3.9499512
		l6.2055664-1.4072266c0.2290039,2.5830078,0.5214844,5.1479492,0.9091797,7.6826172l22.4013672-0.0310059
		C272.6865234,159.2913971,273.3364258,162.1771393,274.1044922,165.0164948z M248.8378906,123.9559555
		c-0.0893555,1.0041504-0.1713867,2.0107422-0.2426758,3.0200195l21.8046875,4.9448166
		c-0.0585938,1.4716797-0.1123047,2.9453125-0.1123047,4.4313965s0.0537109,2.9594727,0.1123047,4.4311523l-8.5795898,1.9455566
		c-0.199707-2.1931152-0.449707-4.371582-0.7788086-6.5249023l-19.9692383,0.027832
		c-0.4814453-2.6081543-1.0610352-5.1806641-1.746582-7.7114258L248.8378906,123.9559555z M153.1367188,73.8492661
		c40.71875,4.0212402,72.6362305,38.465332,72.6362305,80.2236252c0,11.8273926-2.5610352,23.0681152-7.1572266,33.1967773
		l-31.3222656-18.0842285c0.3974609-1.1052246,0.7666016-2.2275391,1.0795898-3.3808594
		c0.3618164-1.3327637,0.6499023-2.6672363,0.8847656-4.0014648l13.5654297-3.3474121
		c0.2172852-2.8186035,0.2236328-5.6196289,0.0317383-8.387207l-13.5405273-3.4367676
		c-0.4584961-2.7104492-1.1650391-5.357666-2.1005859-7.9143066l10.0668945-9.6748047
		c-1.2143555-2.5256271-2.6083984-4.9589767-4.1733398-7.2834396l-13.4375,3.791748
		c-1.7319336-2.1000977-3.6586914-4.0483398-5.765625-5.8144531l3.8833008-13.4196777
		c-2.2910156-1.5654297-4.7109375-2.9760742-7.2519531-4.2141113l-9.7475586,10.0095215
		c-1.2700195-0.4711914-2.5673828-0.8979492-3.8999023-1.2597656c-1.2490234-0.3391113-2.5009766-0.6088867-3.7514648-0.8359375
		V73.8492661z M153.1367188,121.1368637c0.300293,0.0727539,0.6000977,0.138916,0.8999023,0.2202148
		c18.0668945,4.9047852,28.7373047,23.5280685,23.8320313,41.5954514c-0.0615234,0.2280273-0.1352539,0.449707-0.2011719,0.675293
		l-4.5654297-2.635498c-12.3549805-7.1333008-19.965332-20.315918-19.965332-34.5817795V121.1368637z M125.1918869,174.812149
		c12.3549881-7.1335449,27.5761795-7.1335449,39.9316483,0l4.5795898,2.644043
		c-8.3081055,8.7060547-21.0004883,12.7036133-33.4301758,9.3288574
		c-6.2036133-1.6843262-11.5351639-4.9863281-15.6635818-9.3271484L125.1918869,174.812149z M117.212883,160.9923248
		l-4.5795898,2.6437988c-1.7167969-5.8168945-1.8984375-12.1645508-0.1928711-18.4467773
		c3.3535156-12.3530273,13.1210938-21.2436447,24.7382889-24.0668869v5.2875977
		C137.1787109,140.6764069,129.5678711,153.859024,117.212883,160.9923248z M145.1547852,146.5008698
		c4.1806641,0,7.5698242,3.3891602,7.5698242,7.5700684s-3.3891602,7.5698242-7.5698242,7.5698242
		s-7.5703125-3.388916-7.5703125-7.5698242S140.9741211,146.5008698,145.1547852,146.5008698z M64.5361252,154.0728912
		c0-41.7602463,31.9208984-76.2058029,72.6425858-80.2241135v36.1662598
		c-2.5224609,0.4584961-4.9907227,1.123291-7.3774414,1.9968262l-9.6748123-10.0668945
		c-2.5253906,1.2141113-4.9594727,2.6086426-7.2836914,4.1730957l3.7915039,13.4372559
		c-2.0996094,1.7324219-4.0478516,3.6591797-5.8139648,5.7653809l-13.4194336-3.8823242
		c-1.5654297,2.2905273-2.9765625,4.7102051-4.2143555,7.2517014l10.0092773,9.7478027
		c-0.4711914,1.2700195-0.8979492,2.5668945-1.2597656,3.8991699c-0.3618164,1.3327637-0.6494141,2.6677246-0.8847656,4.0014648
		l-13.5649414,3.3474121c-0.2177734,2.8186035-0.2241211,5.6196289-0.0317383,8.3876953l13.5405273,3.4365234
		c0.4443359,2.6276855,1.1264648,5.1948242,2.0200195,7.6789551l-31.3208008,18.0827637
		C67.0976486,177.1424713,64.5361252,165.9010162,64.5361252,154.0728912z M79.6987228,201.0770416l31.3105469-18.0766602
		c1.6396484,1.9387207,3.4311523,3.7580566,5.3955078,5.4050293l-3.8828125,13.4194336
		c2.2905273,1.5651855,4.7104492,2.9763184,7.2519531,4.2141113l9.7475662-10.0097656
		c1.2700195,0.4716797,2.5668945,0.8981934,3.8999023,1.2602539c1.3325195,0.3615723,2.6669922,0.6494141,4.0009766,0.8847656
		l3.3476563,13.5654297c2.8183594,0.2167969,5.6191406,0.2231445,8.387207,0.0314941l3.4365234-13.5405273
		c2.7104492-0.4584961,5.3579102-1.1647949,7.9145508-2.1008301l9.6743164,10.0668945
		c2.5258789-1.2138672,4.9594727-2.6081543,7.2841797-4.1730957l-3.7919922-13.4372559
		c2.0351563-1.6789551,3.9199219-3.5480957,5.6430664-5.5791016l31.2939453,18.0678711
		c-14.6494141,20.3417969-38.5317383,33.6123047-65.4570313,33.6123047
		C118.2299728,234.6873932,94.3481369,221.4176178,79.6987228,201.0770416z M189.9721222,270.4141541
		c-3.5878906,0.6633301-2.7255402,0.7835083-6.2074738,1.7258911l-3.0517578-6.3598633
		c2.5859375-0.8269043,5.1367188-1.7290039,7.6435547-2.7236328l-4.4619141-19.4228668
		c2.4287109-1.0517578,4.8061523-2.1967773,7.1269531-3.435791l1.7312622,3.4831085l-2.8152924,1.3649902L189.9721222,270.4141541z
		 M138.8598633,261.8858948l2.3452148-10.3401031c1.3120117,0.0522461,2.6245117,0.0996094,3.949707,0.0996094
		c1.3242188,0,2.6376953-0.0473633,3.949707-0.0996094l4.4072266,19.435318
		c3.2045898-0.2255859,6.3823242-0.5456543,9.5097656-1.0236816l-0.0039063-2.8022461l2.6010742,11.3251953
		c-3.340332,1.4467773-6.6113281,3.0227051-9.8037109,4.7270508L138.8598633,261.8858948z M210.628418,289.6690979v52.4274902
		c-1.2504883,0.1696777-2.4941406,0.3620605-3.7216797,0.6120605l-3.9086914-9.1965332
		c-1.9975586,0.4667969-3.9614258,1.0314941-5.8950195,1.6669922l1.4365234,9.8762207
		c-2.21875,0.8010254-4.3823242,1.7255859-6.4790039,2.7736816l-6.1416016-7.8520508
		c-1.8041992,0.9667969-3.5664063,2.0058594-5.2758789,3.1245117l3.9428711,9.1640625
		c-1.9296875,1.3422852-3.7788086,2.7944336-5.5395508,4.3522949l-7.9707031-6.0002441
		c-1.4912109,1.3959961-2.9174805,2.8623047-4.2841797,4.3862305l6.175293,7.8256836
		c-1.5151367,1.7890625-2.9257813,3.6723633-4.2290039,5.6386719l-9.2548828-3.7338867
		c-1.0756836,1.7285156-2.0888672,3.5024414-3.0151367,5.3327637l8.0097656,5.9748535
		c-0.9951172,2.1147461-1.8862305,4.291748-2.6357422,6.5424805l-9.8808594-1.2080078
		c-0.5864258,1.9428711-1.09375,3.9238281-1.5141602,5.9418945l9.2602539,3.6889648
		c-0.1420898,0.7927246-0.2514648,1.5986328-0.3652344,2.4023438h-52.4531326
		C110.9345627,337.9664612,155.1855469,293.7154846,210.628418,289.6690979z M212.0483398,548.9788818l-3.5322266,8.7124023
		l4.9658203-21.8955078c1.8046875,0.0722656,3.6108398,0.1376953,5.4335938,0.1376953
		c1.8222656,0,3.6289063-0.0654297,5.4335938-0.1376953l6.0639648,26.7382813
		c4.0063477-0.2822266,7.9794922-0.6804199,11.9018555-1.2429199l-9.8916016,14.1682129
		c-3.1674805-1.4443359-6.3989258-2.7602539-9.690918-3.9492188l3.0786133-18.657959
		C221.3105469,551.3453369,216.7197266,550.0506592,212.0483398,548.9788818z M218.9155273,446.5502014
		c-8.5693359,0-16.5888672-2.3371582-23.4726563-6.395752l17.2241211-23.7072754
		c1.9418945,0.7519531,4.043457,1.1811523,6.2475586,1.1811523c2.2045898,0,4.3066406-0.4289551,6.2485352-1.1811523
		l17.2246094,23.7072754C235.5043945,444.2130432,227.484375,446.5502014,218.9155273,446.5502014z M205.4438477,411.2052307
		l-17.2172852,23.6982422c-9.5678711-8.480957-15.605957-20.8564453-15.605957-34.6477051
		c0-3.4333496,0.3852539-6.7746582,1.0942383-9.994873l27.875,9.0571289c-0.0166016,0.3125-0.0473633,0.6213379-0.0473633,0.9375
		C201.5424805,404.4042053,203.0087891,408.2145081,205.4438477,411.2052307z M232.3862305,411.205719
		c2.4360352-2.9904785,3.9018555-6.8015137,3.9018555-10.9501953c0-0.3166504-0.0307617-0.6257324-0.0473633-0.9382324
		l27.875-9.0566406c0.7089844,3.2202148,1.0942383,6.5617676,1.0942383,9.9951172
		c0,13.7912598-6.0375977,26.166748-15.605957,34.6477051L232.3862305,411.205719z M233.487793,390.8294983
		c-2.3154297-3.5664063-5.8999023-6.2219238-10.1113281-7.3439941v-29.3061523
		c17.0625,1.6320801,31.4150391,12.5241699,37.9863281,27.5935059L233.487793,390.8294983z M227.3642578,400.2555237
		c0,4.6584473-3.7910156,8.4489746-8.449707,8.4489746c-4.6582031,0-8.4482422-3.7905273-8.4482422-8.4489746
		c0-4.6586914,3.7900391-8.4482422,8.4482422-8.4482422C223.5732422,391.8072815,227.3642578,395.5968323,227.3642578,400.2555237z
		 M214.4526367,383.4855042c-4.2099609,1.1220703-7.7944336,3.7775879-10.109375,7.34375l-27.875-9.0566406
		c6.5712891-15.0690918,20.9228516-25.9606934,37.984375-27.5930176V383.4855042z M106.8886642,409.9823303h52.4633865
		c0.168457,1.2397461,0.3598633,2.4733887,0.6074219,3.6904297l-9.1962891,3.9091797
		c0.4663086,1.9975586,1.03125,3.9606934,1.6669922,5.8950195l9.8759766-1.4370117
		c0.8007813,2.2192383,1.7255859,4.3825684,2.7744141,6.4797363l-7.8525391,6.1411133
		c0.9667969,1.8044434,2.0058594,3.5661621,3.1240234,5.2758789l9.1645508-3.9428711
		c1.3417969,1.9296875,2.7949219,3.7790527,4.3520508,5.5397949l-6,7.970459
		c1.3959961,1.4912109,2.8618164,2.9177246,4.3862305,4.2841797l7.8251953-6.175293
		c1.7895508,1.5148926,3.6728516,2.9257813,5.6391602,4.2287598l-3.7338867,9.255127
		c1.7280273,1.0759277,3.5024414,2.0891113,5.3325195,3.015625l5.9750977-8.0097656
		c2.1147461,0.9946289,4.2915039,1.8859863,6.5424805,2.6359863l-1.2080078,9.880127
		c1.9433594,0.5864258,3.9238281,1.0939941,5.9418945,1.5141602l3.6884766-9.2602539
		c0.7827148,0.1403809,1.5776367,0.2473145,2.3706055,0.3603516v52.4894714
		C155.1855469,509.676178,110.9345627,465.4252014,106.8886642,409.9823303z M171.8881836,556.0018311l11.8764648-24.7502441
		c3.4819336,0.942627,7.0205078,1.7399902,10.6083984,2.4030762l-0.2110748,23.7218018l-0.6971283-11.4327393
		c-4.7055664-0.4587402-9.4711914-0.6831055-14.2836914-0.6860352l-3.0283203,18.6721191
		c-1.7358398,0.0388184-3.472168,0.0837402-5.2216797,0.192627c-1.7490234,0.1091309-3.4780273,0.2802734-5.2045898,0.4575195
		l-3.4848633-11.8811035C165.4116211,553.8968506,168.6235352,555.0079346,171.8881836,556.0018311z M206.5791016,562.4681396
		l-1.6396484,4.0437012c-3.3964844-0.6958008-6.840332-1.2492676-10.3222656-1.6711426l-0.2260742-3.7070313
		C198.4018555,561.7454834,202.4746094,562.1629639,206.5791016,562.4681396z M138.4350586,587.3736572
		c10.4599609-4.067627,21.6914063-6.6452637,33.4804688-7.380127c11.7958984-0.7355957,23.2670898,0.4265137,34.1591797,3.1662598
		c7.7011719,1.9396973,11.5703125,10.645752,8.0307617,17.7651367l-26.6879883,53.6916504
		c-4.2807617,8.6181641-16.2827148,9.3666992-21.6005859,1.3466797l-33.1513672-49.9677734
		C128.2695313,599.3743896,131.0268555,590.2515869,138.4350586,587.3736572z M179.9443359,708.7662354
		c-8.7387695,0.5446777-16.2695313-6.1020508-16.8149414-14.8479004
		c-0.5449219-8.7451172,6.1020508-16.2724609,14.8408203-16.8171387
		c8.7451172-0.5454102,16.2753906,6.0979004,16.8208008,14.8432617
		C195.3364258,700.6903076,188.6894531,708.2208252,179.9443359,708.7662354z M67.3017502,675.1036377
		c3.6826172-23.1381836,14.4443359-44.1096191,30.1210938-60.4580078
		c5.5224609-5.7548828,15.0551758-4.7790527,19.4594727,1.8630371l33.1357498,49.9472656
		c5.3173828,8.0126953-0.0351563,18.7822266-9.6337891,19.3806152l-59.8540115,3.7319336
		C72.5458908,690.0662842,66.0385666,683.0054932,67.3017502,675.1036377z M126.8491135,776.4705811
		c-3.5449219,7.1411133-12.8828125,9.2939453-19.0776367,4.2661133
		c-17.5791016-14.2756348-30.862793-33.7470703-37.3901367-56.2456055
		c-2.2353516-7.6835938,3.3447266-15.4978027,11.3291016-15.9956055l59.8540115-3.7319336
		c9.5986328-0.5983887,16.2475586,9.4226074,11.9667969,18.0373535L126.8491135,776.4705811z M219.5,798.4852295
		c-10.4672852,4.0715332-21.7055664,6.6494141-33.5014648,7.3847656
		c-11.7958984,0.7355957-23.2602539-0.4267578-34.1445313-3.1635742c-7.7084961-1.939209-11.578125-10.6489258-8.0385742-17.7644043
		l26.6948242-53.7028809c4.2802734-8.6181641,16.2822266-9.3666992,21.6005859-1.3469238l33.1586914,49.9675293
		C229.6582031,786.4810791,226.9008789,795.6038818,219.5,798.4852295z M290.6264648,710.7589111
		c-3.6826172,23.1350098-14.4453125,44.1022949-30.121582,60.451416
		c-5.5224609,5.7546387-15.0551758,4.7785645-19.4594727-1.8632813l-33.1357422-49.9401855
		c-5.3173828-8.0126953,0.0351563-18.7819824,9.6342773-19.3806152l59.8535156-3.7316895
		C285.3823242,695.7967529,291.8896484,702.8570557,290.6264648,710.7589111z M250.1499023,605.130249
		c17.5849609,14.2709961,30.8691406,33.7431641,37.3969727,56.2412109
		c2.2348633,7.6838379-3.3447266,15.4980469-11.3295898,15.9960938l-59.8535156,3.7316895
		c-9.5986328,0.5983887-16.2475586-9.4226074-11.9667969-18.0336914l26.6757813-53.6691895
		C234.6171875,602.2513428,243.9550781,600.102417,250.1499023,605.130249z M227.2011719,513.7225342v-52.4899597
		c1.2504883-0.1699219,2.4951172-0.3623047,3.7226563-0.6120605l3.9091797,9.1965332
		c1.9975586-0.467041,3.9609375-1.0314941,5.8950195-1.6674805l-1.4375-9.8759766
		c2.2192383-0.8007813,4.3828125-1.7255859,6.4799805-2.7736816l6.1411133,7.8520508
		c1.8041992-0.9667969,3.5664063-2.0058594,5.2758789-3.1240234l-3.9428711-9.1645508
		c1.9296875-1.342041,3.7788086-2.7949219,5.5395508-4.3520508l7.9707031,6
		c1.4912109-1.3959961,2.9174805-2.8620605,4.284668-4.3864746l-6.1757813-7.8254395
		c1.5151367-1.7888184,2.9257813-3.6721191,4.2290039-5.6386719l9.2548828,3.7341309
		c1.0761719-1.7282715,2.0893555-3.5031738,3.015625-5.3334961l-8.0097656-5.9748535
		c0.9946289-2.114502,1.8857422-4.2912598,2.6357422-6.5422363l9.8803711,1.2087402
		c0.5864258-1.9438477,1.0942383-3.9238281,1.5146484-5.9418945l-9.2607422-3.689209
		c0.1381836-0.7722168,0.2441406-1.5571289,0.3554688-2.3395996h52.4633789
		C326.8959961,465.4256897,282.6445313,509.6771545,227.2011719,513.7225342z M278.487793,393.4095764
		c-0.1708984-1.2612305-0.3647461-2.5158691-0.6166992-3.753418l9.1967773-3.9091797
		c-0.4667969-1.9978027-1.03125-3.9609375-1.6674805-5.8947754l-9.8759766,1.4370117
		c-0.8007813-2.2192383-1.7255859-4.3825684-2.7739258-6.4797363l7.8525391-6.1413574
		c-0.9672852-1.8041992-2.0058594-3.5664063-3.1240234-5.276123l-9.1650391,3.9433594
		c-1.3417969-1.9296875-2.7944336-3.7790527-4.3515625-5.5397949l6-7.970459
		c-1.3964844-1.4916992-2.8623047-2.9182129-4.3867188-4.284668l-7.8251953,6.1755371
		c-1.7890625-1.5151367-3.6723633-2.9255371-5.6386719-4.2285156l3.7338867-9.2556152
		c-1.7285156-1.0754395-3.5024414-2.0888672-5.3334961-3.0151367l-5.9746094,8.0097656
		c-2.1137695-0.9951172-4.2919922-1.8859863-6.5424805-2.6357422l1.2084961-9.8803711
		c-1.9433594-0.5869141-3.9238281-1.0942383-5.9418945-1.5146484l-3.6889648,9.2602539
		c-0.7827148-0.1401367-1.578125-0.2475586-2.371582-0.3605957v-52.4262695
		c55.4433594,4.0456543,99.6948242,48.2971191,103.7412109,103.7404785H278.487793z M421.449707,452.9579163
		c-11.6254883-14.3928223-18.6074219-32.6845703-18.6074219-52.5844727c0-20.3725586,7.3110352-39.065918,19.4379883-53.6096191
		l32.7241211,32.7246094c-3.9667969,5.9958496-6.2841797,13.173584-6.2841797,20.8850098
		c0,7.2316895,2.0341797,13.9960938,5.5585938,19.7548828L421.449707,452.9579163z M481.3793945,409.8587952
		c-2.5336914-1.4160156-4.3637695-3.7341309-5.1542969-6.5273438c-0.7905273-2.7922363-0.4458008-5.7260742,0.9711914-8.2587891
		c1.987793-3.5576172,5.6918945-5.5632324,9.5039063-5.5632324c1.7924805,0,3.6088867,0.4438477,5.2822266,1.3786621
		c5.2299805,2.9233398,7.1064453,9.5571289,4.1831055,14.7871094v-0.0004883
		C493.2421875,410.9051819,486.609375,412.7814026,481.3793945,409.8587952z M482.855957,382.2835999
		c-5.046875,1.0703125-9.6274414,4.2102051-12.3364258,9.0566406c-2.4140625,4.3168945-3.0014648,9.3154297-1.6547852,14.0742188
		c0.0673828,0.2363281,0.1582031,0.4614258,0.2333984,0.6938477l-8.1376953,4.6987305
		c-1.3120117-3.2236328-2.0415039-6.7441406-2.0415039-10.4335938c0-14.0092773,10.4326172-25.6213379,23.9370117-27.4912109
		V382.2835999z M472.9135742,412.7384338c1.3452148,1.494873,2.9267578,2.7871094,4.7333984,3.7971191
		c2.8520508,1.5935059,5.9472656,2.3498535,9.0019531,2.3498535c5.1835938,0,10.2460938-2.1833496,13.8037109-6.1442871
		l8.1113281,4.6833496c-5.0844727,6.5117188-13.0004883,10.7104492-21.8837891,10.7104492
		c-8.8828125,0-16.7988281-4.1987305-21.8837891-10.7102051L472.9135742,412.7384338z M504.2768555,406.1168518
		c2.6918945-8.2385254-0.71875-17.5205078-8.5620117-21.9052734c-1.671875-0.9343262-3.4282227-1.5812988-5.2099609-1.9562988
		v-9.3730469c13.5039063,1.869873,23.9365234,13.4819336,23.9365234,27.4912109
		c0,3.689209-0.7294922,7.2097168-2.0415039,10.4328613L504.2768555,406.1168518z M506.4350586,367.9723206
		c-5.7583008-3.5241699-12.5229492-5.5588379-19.7548828-5.5588379s-13.9956055,2.034668-19.7548828,5.5585938
		l-32.8291016-32.829834c14.3930664-11.6254883,32.6845703-18.6071777,52.5839844-18.6071777
		s38.190918,6.9816895,52.5844727,18.6069336L506.4350586,367.9723206z M486.6801758,484.2120667
		c-20.3730469,0-39.0654297-7.310791-53.6088867-19.4382324l32.7236328-32.7241211
		c5.9956055,3.9663086,13.1733398,6.2836914,20.8852539,6.2836914s14.8896484-2.3173828,20.8852539-6.2836914l32.7246094,32.7246094
		C525.7456055,476.9012756,507.0527344,484.2120667,486.6801758,484.2120667z M551.9116211,452.9586487l-32.8300781-32.8303223
		c3.5244141-5.7587891,5.5585938-12.5231934,5.5585938-19.7548828c0-7.7114258-2.3173828-14.8891602-6.2836914-20.8850098
		l32.7241211-32.7248535c12.1279297,14.543457,19.4389648,33.2368164,19.4389648,53.6098633
		C570.5195313,420.2735901,563.5375977,438.5653381,551.9116211,452.9586487z M623.7700195,332.1214905l-18.5170898-3.3632813
		c-1.5874023,3.748291-2.9804688,7.5974121-4.1870117,11.5285645l16.3193359,9.3110352
		c-1.4262695,5.4069824-2.4091797,10.9892578-2.9282227,16.704834l-18.5170898,3.1674805
		c-0.1020508,2.0327148-0.1557617,4.0786133-0.1557617,6.1367188s0.0537109,4.1037598,0.1557617,6.1364746l18.5175781,3.1674805
		c0.5195313,5.7155762,1.5019531,11.2976074,2.9287109,16.7043457l-7.8232422,4.463623
		c0.0864258-1.8913574,0.137207-3.7922363,0.137207-5.7053223c0-2.1054688-0.0546875-4.1982422-0.1586914-6.2775879
		l-23.4111328-4.0043945c-0.4897461-4.8005371-1.3320313-9.4958496-2.4775391-14.0712891l20.644043-11.7780762
		c-1.2338867-4.0219727-2.6586914-7.9592285-4.2827148-11.7937012l-23.3896484,4.2478027
		c-2.0942383-4.3046875-4.484375-8.4387207-7.1523438-12.3706055l15.3544922-18.1088867
		c-2.5307617-3.3442383-5.2358398-6.5461426-8.0883789-9.6113281l-20.5117188,11.9829102
		c-3.4165039-3.3103027-7.0649414-6.3774414-10.9243164-9.1767578l8.2382813-22.2790527
		c-3.5063477-2.2751465-7.1337891-4.3730469-10.8735352-6.2888184l-15.1723633,18.2709961
		c-4.3203125-1.9348145-8.7998047-3.5693359-13.418457-4.8830566l0.121582-23.7490234
		c-4.0522461-0.9265137-8.1791992-1.6520996-12.3740234-2.1669922l-8.0107422,22.3654785
		c-2.3583984-0.1665039-4.7314453-0.28125-7.1323242-0.28125s-4.7734375,0.1147461-7.1318359,0.28125l-8.0107422-22.3654785
		c-4.1938477,0.5148926-8.3208008,1.2402344-12.3740234,2.166748l0.121582,23.7492676
		c-4.6186523,1.3137207-9.0986328,2.9482422-13.418457,4.8830566l-15.1728516-18.2709961
		c-3.7392578,1.9155273-7.3671875,4.0136719-10.8730469,6.2885742l8.2382813,22.2792969
		c-3.8598633,2.7993164-7.5083008,5.8666992-10.9243164,9.1767578l-20.5117188-11.9829102
		c-2.8525391,3.0651855-5.5576172,6.2670898-8.0883789,9.6113281l15.3540039,18.1088867
		c-2.6674805,3.9321289-5.0576172,8.065918-7.1523438,12.3706055l-23.3896484-4.2478027
		c-0.1606445,0.3791504-0.3100586,0.763916-0.4667969,1.1452637c-1.203125-3.8425293-2.5551758-7.6171875-4.0288086-11.3320313
		l-26.7202148,6.1376953c-1.4472656-3.340332-3.0234375-6.6108398-4.7270508-9.8041992l21.4506836-17.0576172
		c-2.1884766-3.8134766-4.5117188-7.5373535-6.9951172-11.1464844l-24.7001953,11.9375
		c-2.1484375-2.9238281-4.421875-5.746582-6.7944336-8.4836426l17.1425781-21.4348145
		c-2.9750977-3.2268066-6.0795898-6.3308105-9.3061523-9.3061523l-21.4350586,17.1425781
		c-2.7373047-2.3723145-5.5595703-4.6467285-8.4838867-6.7946777l11.9375-24.7004395
		c-3.6083984-2.4831543-7.3330078-4.8061523-11.1459961-6.994873l-17.0576172,21.4509277
		c-3.1933594-1.7043457-6.4638672-3.2797852-9.8046875-4.7268066l6.1381836-26.7204742
		c-4.0620117-1.6115723-8.1914063-3.0866699-12.4072266-4.369873l-11.8769531,24.7497711
		c-3.4814453-0.9423828-7.0200195-1.739502-10.6083984-2.402832l0.0380859-27.4707184
		c-4.3027344-0.6582031-8.6748047-1.0979004-13.0825195-1.4086914l-6.0639648,26.7385406
		c-1.8046875-0.0722656-3.6113281-0.1376953-5.4335938-0.1376953c-1.8227539,0-6.4824219-0.1542969-8.2871094-0.0820313
		l-6.3808899-13.4431152c0.5415039-0.3583984,6.7402649-2.8596344,7.2744446-3.2275543l-8.6767578-17.9545898
		c2.1254883-1.5610352,4.1767578-3.2143555,6.1665039-4.9387207l15.5810547,12.4606934
		c2.3452148-2.1625977,4.6015625-4.4191895,6.7641602-6.7644043l-12.4604492-15.5808105
		c1.7246094-1.9892578,3.3774414-4.0412598,4.9384766-6.166748l17.9550781,8.6774902
		c1.8041992-2.623291,3.4931641-5.3305664,5.0839844-8.1020508l-15.5922852-12.3991699
		c1.2387695-2.3210449,2.3837891-4.6984863,3.4360352-7.1262207l19.4223633,4.4614258
		c1.1713867-2.9528809,2.2431641-5.9541016,3.1757813-9.0187988l-17.9902344-8.6328125
		c0.6855469-2.5310059,1.2651367-5.1032715,1.746582-7.7109375l18.6118164,0.0258789l-5.762207,2.7648926
		c1.0463867,3.4379883,2.2490234,6.8051758,3.5634766,10.1174316l21.7895508-5.0048828
		c1.1796875,2.7241211,2.4658203,5.3908691,3.8549805,7.994873l-17.4926758,13.9104004
		c1.784668,3.1091309,3.6787109,6.1462402,5.7036133,9.0891113l20.1435547-9.7346191
		c1.7514648,2.3847656,3.6054688,4.6862793,5.5405273,6.9182129l-13.9790039,17.4794922
		c2.4257813,2.6313477,4.9570313,5.1625977,7.5883789,7.5888672l17.4794922-13.979248
		c2.2319336,1.9345703,4.5336914,3.7893066,6.918457,5.5407715l-9.7348633,20.1425781
		c2.9423828,2.0251465,5.9799805,3.9191895,9.0893555,5.7041016l13.909668-17.4926758
		c2.6040039,1.3896484,5.2709961,2.6748047,7.9956055,3.8549805l-5.0053711,21.789566
		c3.3125,1.314209,6.6796875,2.5166016,10.1176758,3.5629883l9.6850586-20.1826324
		c2.8388672,0.7685547,5.7246094,1.4187012,8.6503906,1.9594727l-0.0302734,22.4018707
		c3.5083008,0.5366211,7.0732422,0.8950195,10.6679688,1.1484375l4.9448242-21.8042145
		c1.4716797,0.0585938,2.9443359,0.1120605,4.4311523,0.1120605c1.4858398,0,2.9594727-0.0534668,4.4311523-0.1120605
		l4.9448242,21.8042145c3.5942383-0.253418,7.159668-0.6120605,10.6679688-1.1486816l-0.0307617-22.4016266
		c2.9262695-0.5410156,5.8115234-1.190918,8.6508789-1.9594727l9.6845703,20.1826324
		c3.4384766-1.0463867,6.8056641-2.2490234,10.1181641-3.5632324l-5.0053711-21.7898102
		c2.7241211-1.1801758,5.3916016-2.4648438,7.9956055-3.8544922l13.909668,17.4926758
		c3.109375-1.7849121,6.1464844-3.6791992,9.0893555-5.7041016l-9.7348633-20.1425781
		c2.3847656-1.751709,4.6860352-3.6062012,6.918457-5.5407715l17.4794922,13.979248
		c2.6313477-2.4262695,5.1625977-4.9575195,7.5883789-7.5888672l-13.9790039-17.4794922
		c1.9350586-2.2319336,3.7890625-4.5341797,5.5405273-6.918457l20.1430664,9.7348633
		c2.0244141-2.9428711,3.9189453-5.9799805,5.7041016-9.0893555l-17.4926758-13.9101563
		c1.3891602-2.6040039,2.6743164-5.270752,3.8549805-7.994873l16.3867188,3.763916l-4.2016602,0.953125
		c0.2304688,3.2683105,0.5556641,6.510498,1.0439453,9.7011719l20.3710938-0.0283203
		c0.4921875,2.6606445,1.0830078,5.2849121,1.7817383,7.8671875l-18.3530273,8.8068848
		c0.9511719,3.1262207,2.0449219,6.1882324,3.2407227,9.2001953l19.8144531-4.5512695
		c1.0727539,2.4770508,2.2416992,4.9023438,3.5053711,7.2702637l-15.9072266,12.6494141
		c1.6230469,2.8273926,3.3452148,5.5893555,5.1865234,8.2653809l18.3178711-8.8522949
		c1.5927734,2.1687012,3.2788086,4.2614746,5.0380859,6.2912598l-12.7119141,15.8950348
		c2.2060547,2.3928223,4.5078125,4.6948242,6.9003906,6.9008789l15.8955078-12.7119293
		c2.0297852,1.7592773,4.1225586,3.4458008,6.2910156,5.0383453l-8.8520508,18.3168945
		c2.6757813,1.8417969,5.4379883,3.5639648,8.2651367,5.1870117l12.6489258-15.9069824
		c2.3681641,1.263916,4.7939453,2.432373,7.2709961,3.505127l-4.5517578,19.8149414
		c3.0126953,1.1953125,6.0742188,2.2885742,9.2011719,3.2402344l8.8066406-18.3535156
		c2.5820313,0.6989746,5.2060547,1.2900391,7.8666992,1.7819824l-0.027832,20.3713379
		c3.1904297,0.4880371,6.4326172,0.8139648,9.7011719,1.0444336l4.496582-19.828125
		c1.3383789,0.0537109,2.6777344,0.1020508,4.0292969,0.1020508c1.3510742,0,2.6914063-0.0483398,4.0297852-0.1020508
		l4.496582,19.828125c2.3476563-0.1655273,4.6811523-0.3833008,6.9921875-0.6721191
		c-2.4921875,2.7290039-4.871582,5.5620117-7.1054688,8.513916l12.1699219,14.3537598
		C629.0512695,322.092926,626.199707,326.986969,623.7700195,332.1214905z M638.4155273,410.8544006
		c-4.9023438-10.7519531-7.6567383-22.6816406-7.6567383-35.2495117c0-12.5661621,2.7543945-24.4943848,7.65625-35.2458496
		l29.2568359,16.8918457c-2.1733398,5.7080078-3.375,11.8918457-3.375,18.3540039
		c0,6.4633789,1.2016602,12.6484375,3.3764648,18.3579102L638.4155273,410.8544006z M707.7529297,460.4762268
		c-25.1142578-2.4338379-47.0576172-15.8100586-61.0283203-35.2817383l29.2514648-16.8884277
		c7.8364258,9.5820313,19.0332031,16.3076172,31.7768555,18.3686523V460.4762268z M681.0415039,375.6048889
		c0-19.2954102,15.6982422-34.9934082,35.0019531-34.9934082c19.2954102,0,34.9931641,15.697998,34.9931641,34.9934082
		c0,19.2998047-15.6977539,34.9975586-34.9931641,34.9975586
		C696.7397461,410.6024475,681.0415039,394.9046936,681.0415039,375.6048889z M724.3256836,460.4767151v-33.8007813
		c12.7421875-2.0600586,23.9404297-8.786377,31.7768555-18.3693848l29.2519531,16.8881836
		C771.3833008,444.6678772,749.4384766,458.044342,724.3256836,460.4767151z M793.6630859,410.8544006l-29.2573242-16.8916016
		c2.1738281-5.7094727,3.3759766-11.8945313,3.3759766-18.3579102c0-6.4621582-1.2011719-12.6459961-3.375-18.3540039
		l29.2568359-16.8918457c4.9018555,10.7514648,7.65625,22.6796875,7.65625,35.2458496
		C801.3198242,388.17276,798.5654297,400.1024475,793.6630859,410.8544006z"/>
	<path d="M757.7358398,765.5467529l-17.284668,0.2861328c-1.4262695-3.0883789-3.1279297-6.020752-5.074707-8.7705078
		l8.8852539-14.817627c-2.2685547-2.6223145-4.7231445-5.076416-7.3452148-7.3449707l-14.8178711,8.8850098
		c-2.7495117-1.9465332-5.6821289-3.6484375-8.7700195-5.074707l0.2856445-17.2844238
		c-3.2426758-1.126709-6.5898438-2.0270996-10.0258789-2.6816406l-8.3959961,15.1142578
		c-1.6694336-0.1513672-3.3569336-0.2404785-5.0654297-0.2404785s-3.3959961,0.0891113-5.0649414,0.2404785l-8.3959961-15.1142578
		c-3.4365234,0.654541-6.7836914,1.5549316-10.0268555,2.6813965l0.2861328,17.284668
		c-3.0878906,1.4265137-6.0205078,3.1281738-8.7700195,5.074707l-14.8183594-8.8850098
		c-2.6220703,2.2685547-5.0761719,4.7226563-7.3442383,7.3449707l8.8842773,14.817627
		c-1.9458008,2.7495117-3.6479492,5.6821289-5.0742188,8.7705078l-17.284668-0.2861328
		c-1.1264648,3.2431641-2.0268555,6.5900879-2.6816406,10.0263672l15.1147461,8.3959961
		c-0.1518555,1.6691895-0.2407227,3.3564453-0.2407227,5.0651855s0.0888672,3.3959961,0.2407227,5.0651855l-15.1147461,8.3959961
		c0.6547852,3.4362793,1.5551758,6.7832031,2.6816406,10.0263672l17.284668-0.2861328
		c1.4262695,3.0883789,3.128418,6.0209961,5.0742188,8.7705078l-8.8842773,14.817627
		c2.2680664,2.6223145,4.722168,5.0766602,7.3442383,7.3452148l14.8183594-8.8850098
		c2.7495117,1.9462891,5.6821289,3.6481934,8.7700195,5.0744629l-0.2861328,17.284668
		c3.2431641,1.126709,6.590332,2.0270996,10.0268555,2.6813965l8.3955078-15.1142578
		c1.6694336,0.1513672,3.3569336,0.2404785,5.0654297,0.2404785s3.3959961-0.0891113,5.0654297-0.2404785l8.3959961,15.1142578
		c3.4360352-0.6542969,6.7832031-1.5549316,10.0258789-2.6813965l-0.2856445-17.284668
		c3.0878906-1.4262695,6.0205078-3.1281738,8.7700195-5.0744629l14.8178711,8.8850098
		c2.6220703-2.2685547,5.0766602-4.7229004,7.3452148-7.3452148l-8.8852539-14.817627
		c1.9467773-2.7497559,3.6484375-5.6821289,5.074707-8.7705078l17.284668,0.2861328
		c1.1259766-3.2431641,2.0273438-6.5900879,2.6811523-10.0266113l-15.1137695-8.395752
		c0.1513672-1.6691895,0.2407227-3.3564453,0.2407227-5.0651855s-0.0893555-3.3962402-0.2407227-5.0654297l15.1137695-8.395752
		C759.7631836,772.1368408,758.8623047,768.789917,757.7358398,765.5467529z M683.5405273,744.0594482v25.5102539
		c-6.0419922,2.050293-10.828125,6.8361816-12.8779297,12.878418h-25.5102539
		C648.03125,762.6170654,663.7089844,746.9388428,683.5405273,744.0594482z M683.5405273,834.0091553
		c-19.831543-2.8793945-35.5092773-18.5576172-38.3881836-38.388916h25.5102539
		c2.0498047,6.0422363,6.8359375,10.8286133,12.8779297,12.8786621V834.0091553z M690.1264648,799.2381592
		c-5.6259766,0-10.203125-4.5776367-10.203125-10.2041016c0-5.6262207,4.5771484-10.2033691,10.203125-10.2033691
		s10.2036133,4.5771484,10.2036133,10.2033691C700.3300781,794.6605225,695.7524414,799.2381592,690.1264648,799.2381592z
		 M696.7128906,834.0093994v-25.510498c6.0419922-2.0500488,10.828125-6.8364258,12.8779297-12.8786621h25.5112305
		C732.2226563,815.4520264,716.5444336,831.130249,696.7128906,834.0093994z M709.5908203,782.4481201
		c-2.0498047-6.0422363-6.8359375-10.828125-12.8779297-12.878418v-25.5102539
		c19.8310547,2.8791504,35.5092773,18.557373,38.3891602,38.3886719H709.5908203z"/>
</g>
</svg>
