<?xml version="1.0" encoding="utf-8"?>
<!-- Generator: Adobe Illustrator 19.0.1, SVG Export Plug-In . SVG Version: 6.00 Build 0)  -->
<svg version="1.1" id="Livello_1" xmlns="http://www.w3.org/2000/svg" xmlns:xlink="http://www.w3.org/1999/xlink" x="0px" y="0px"
	 viewBox="0 0 864 864" style="enable-background:new 0 0 864 864;" xml:space="preserve">
<path d="M760.7348633,432.0878296c0-10.1427002-0.5286255-20.1585999-1.427063-30.0670471l89.7145386-49.8358459
	c-3.8832397-20.3975525-9.2269287-40.2651367-15.914856-59.5159912l-102.5991821,1.697998
	c-8.4660645-18.3317566-18.5687256-35.7377625-30.1224365-52.0591583l52.741272-87.9564514
	c-13.4666748-15.5658112-28.0346069-30.1331177-43.6010742-43.5991058l-87.9551392,52.7406311
	c-16.3207397-11.5537262-33.7280884-21.6563873-52.0591431-30.1224365l1.697998-102.5985107
	c-19.2521973-6.6872749-39.1184692-12.0329571-59.5160217-15.9169025l-49.8365173,89.7158813
	c-9.9090881-0.8983994-19.923645-1.4270325-30.0663757-1.4270325c-10.1427002,0-20.1572571,0.5286331-30.0663757,1.4270325
	L351.88797,14.8550053c-20.3975525,3.8839455-40.2664795,9.22896-59.5160217,15.916235l1.6980286,102.5991821
	c-18.3311157,8.4667206-35.7384338,18.5687103-52.0591583,30.1224365l-87.9577942-52.7406311
	c-15.5651398,13.4659882-30.1344452,28.0332947-43.5984344,43.5991058l52.7399597,87.9557953
	c-11.5523834,16.3213806-21.6550446,33.7280579-30.1210938,52.0598145l-102.5991821-1.697998
	c-6.6879425,19.2508545-12.0329571,39.1184387-15.9175701,59.5159912l89.7172089,49.8365173
	c-0.8997345,9.9084473-1.42836,19.9236755-1.42836,30.0663757c0,10.1427307,0.5286255,20.1585999,1.42836,30.0670471
	L14.5566998,511.991394c3.884613,20.397583,9.2296276,40.2644653,15.9175701,59.5153198l102.5991821-1.697998
	c8.4660492,18.3324585,18.5687103,35.7391357,30.1210938,52.0604858l-52.7399597,87.9551392
	c13.4639893,15.5657959,28.0332947,30.1344604,43.5984344,43.5997925l87.9564667-52.7406616
	c16.322052,11.5537109,33.7280579,21.6557007,52.0604858,30.1224365l-1.6980286,102.5991821
	c19.2495422,6.6873169,39.1184692,12.0322876,59.5160217,15.9162598l49.8351746-89.7158813
	c9.9091187,0.8983765,19.9250183,1.427002,30.0677185,1.427002c10.1427307,0,20.1572876-0.5286255,30.0663757-1.427002
	l49.8365173,89.7158813c20.3975525-3.8839722,40.2638245-9.2296143,59.5160217-15.9169312l-1.697998-102.5985107
	c18.3310547-8.4660645,35.7384033-18.5687256,52.0591431-30.1224365l87.9551392,52.7406616
	c15.5664673-13.465332,30.1343994-28.0339966,43.6010742-43.5997925l-52.741272-87.9558105
	c11.5537109-16.3213501,21.6563721-33.727356,30.1224365-52.0598145l102.5978394,1.697998
	c6.6865845-19.2508545,12.032959-39.1184082,15.9161987-59.5159912l-89.7145386-49.8358459
	C760.2062378,452.2464294,760.7348633,442.2305603,760.7348633,432.0878296z"/>
</svg>
