<?xml version="1.0" encoding="utf-8"?>
<!-- Generator: Adobe Illustrator 19.0.1, SVG Export Plug-In . SVG Version: 6.00 Build 0)  -->
<svg version="1.1" id="Livello_1" xmlns="http://www.w3.org/2000/svg" xmlns:xlink="http://www.w3.org/1999/xlink" x="0px" y="0px"
	 viewBox="0 0 864 864" style="enable-background:new 0 0 864 864;" xml:space="preserve">
<path d="M859.4468994,453.407196C859.8116455,446.1760864,860,438.898468,860,431.5767517
	s-0.1883545-14.6005249-0.5531006-21.8316345l-81.4091187-13.9234314
	c-1.7047119-16.6950073-4.6323853-33.0228271-8.6139526-48.932251l71.7866821-40.9584656
	c-4.2914429-13.9842224-9.2457275-27.6775818-14.8913574-41.0109253l-81.3375854,14.7721863
	c-7.281189-14.9712524-15.5947266-29.3464813-24.87146-43.0195618l53.3930054-62.9713135
	c-8.7998657-11.6298676-18.2077637-22.7638397-28.1257935-33.4221802l-71.3289185,41.6689453
	c-11.8778076-11.5118561-24.5662842-22.1773376-37.9890137-31.9118195l28.6478882-77.4740753
	c-12.1925049-7.9117889-24.8046265-15.2060928-37.8101807-21.8674011l-52.7611694,63.5351563
	c-15.022522-6.7280655-30.6005859-12.4118729-46.6625366-16.9799042l0.4219971-82.5856857
	c-14.090332-3.2221756-28.4405212-5.7446041-43.0291443-7.5362911l-27.8563843,77.7744827
	c-8.2014465-0.5793533-16.4530029-0.9775009-24.7998962-0.9775009c-8.3516541,0-16.6008301,0.3981476-24.8022766,0.9775009
	L379.5513,7.1280975c-14.5838318,1.791687-28.9364014,4.3129234-43.0291138,7.535099l0.4219971,82.5868835
	c-16.0596313,4.5680313-31.6376343,10.2518387-46.6625366,16.9799042l-52.7612-63.5351563
	c-13.0031433,6.6601181-25.6176605,13.9556122-37.8101959,21.8674011l28.6479187,77.4740753
	c-13.4227448,9.7344818-26.1087952,20.4023438-37.9890137,31.9130096l-71.3289337-41.6701355
	c-9.9180527,10.6583405-19.3258972,21.7923126-28.1257858,33.4221802l53.3929825,62.9725037
	c-9.2767181,13.6730804-17.5878525,28.0471191-24.8714218,43.0183716l-81.3352051-14.7721863
	c-5.6456604,13.3333435-10.6023045,27.0255127-14.8937702,41.0097351l71.7890778,40.9596558
	c-3.9839096,15.9094238-6.911644,32.2372437-8.6163101,48.932251l-81.409111,13.9246216
	c-0.3623905,7.2311096-0.553122,14.508728-0.553122,21.8304443s0.1907315,14.5981445,0.553122,21.8292542l81.409111,13.9258118
	c1.7046661,16.6937866,4.6324005,33.0228271,8.6163101,48.9322205l-71.7890778,40.9584961
	c4.2914658,13.9841919,9.2481098,27.6763916,14.8937702,41.0109253l81.3352051-14.7722168
	c7.2835693,14.9700928,15.5970993,29.3453369,24.8714218,43.0183716l-53.3929825,62.9713135
	c8.7998886,11.6298828,18.2077332,22.7650757,28.1257858,33.4234009l71.3289337-41.670166
	c11.8802185,11.5106812,24.5662689,22.1773682,37.9890137,31.9118652l-28.6479187,77.4752197
	c12.1925354,7.9106445,24.8070526,15.2061157,37.8101959,21.8674316l52.7612-63.536377
	c15.0249023,6.7293091,30.6029053,12.4130859,46.6625366,16.9811401l-0.4219971,82.586853
	c14.0927124,3.2210083,28.445282,5.7434082,43.0291138,7.5339355l27.8563843-77.7733154
	c8.2014465,0.578186,16.4506226,0.977478,24.8022766,0.977478c8.3468933,0,16.5984497-0.399292,24.7998962-0.977478
	l27.8563843,77.7733154c14.588623-1.7905273,28.9388123-4.3129272,43.0291443-7.5350952l-0.4219971-82.5856934
	c16.0619507-4.5680542,31.6400146-10.2518311,46.6625366-16.9811401l52.7611694,63.536377
	c13.0055542-6.6613159,25.6176758-13.9567871,37.8101807-21.8685913l-28.6478882-77.4740601
	c13.4227295-9.7344971,26.1112061-20.3999634,37.9890137-31.9106445l71.3265381,41.6689453
	c9.9180298-10.6583252,19.3283081-21.7935181,28.1281738-33.4234009l-53.3930054-62.9713135
	c9.2767334-13.6730347,17.590271-28.0482788,24.87146-43.0183716l81.3375854,14.7722168
	c5.6456299-13.3345337,10.5999146-27.0267334,14.8913574-41.012146l-71.7866821-40.9572754
	c3.9815674-15.9093933,6.9092407-32.2384338,8.6139526-48.9322205L859.4468994,453.407196z M727.5200806,408.907074h-96.0001221
	c-6.4014282-56.6425781-36.4536133-106.2137756-80.0525513-138.5487976l48.0668335-83.2496643
	C671.5235596,236.4771576,720.5440674,316.8074341,727.5200806,408.907074z M432.2099609,554.0814209
	c-67.5524292,0-122.5070496-54.9546204-122.5070496-122.5046692s54.9546204-122.5046692,122.5070496-122.5046692
	c67.5476685,0,122.5023193,54.9545898,122.5023193,122.5046692S499.7576294,554.0814209,432.2099609,554.0814209z
	 M432.2099609,135.3153839c45.8829346,0,89.3244629,10.4378052,128.0931396,29.0579987l-48.076355,83.2711334
	c-24.5328979-10.7143707-51.5834351-16.6961975-80.0167847-16.6961975s-55.4838867,5.9818268-80.0167542,16.6949921
	l-48.076355-83.2711182C342.8854675,145.7531891,386.3270264,135.3153839,432.2099609,135.3153839z M264.8857117,187.1062317
	l48.0644226,83.2496643c-43.598938,32.3362122-73.6534882,81.9074097-80.0549316,138.551178h-95.9977112
	C143.8759003,316.8062439,192.8939667,236.4759674,264.8857117,187.1062317z M136.8974915,454.2464294h95.9977112
	c6.4014435,56.6437683,36.4559937,106.2149963,80.0549316,138.5499573l-48.0644226,83.2496948
	C192.8939667,626.6775513,143.8759003,546.347229,136.8974915,454.2464294z M432.2099609,727.8381348
	c-45.8829346,0-89.3244934-10.4378052-128.0954895-29.0568237l48.0787354-83.2723389
	c24.5304871,10.7143555,51.5834045,16.696228,80.0167542,16.696228s55.4862671-5.9830322,80.0167847-16.696228
	l48.0787354,83.2711182C521.5344238,717.4003296,478.0928955,727.8381348,432.2099609,727.8381348z M599.5342407,676.0448608
	l-48.0644531-83.2496338c43.5965576-32.335022,73.6487427-81.9062195,80.0501709-138.5487976h96.0001221
	C720.5440674,546.3460693,671.5235596,626.6763306,599.5342407,676.0448608z"/>
</svg>
