<?xml version="1.0" encoding="utf-8"?>
<!-- Generator: Adobe Illustrator 19.0.1, SVG Export Plug-In . SVG Version: 6.00 Build 0)  -->
<svg version="1.1" id="Livello_1" xmlns="http://www.w3.org/2000/svg" xmlns:xlink="http://www.w3.org/1999/xlink" x="0px" y="0px"
	 viewBox="0 0 864 864" style="enable-background:new 0 0 864 864;" xml:space="preserve">
<path d="M783.8880615,416.3806763l64.0120239-14.5169678c-0.8034058-11.3894958-1.9373169-22.6881104-3.6384888-33.807251
	l-65.8193359,0.0917664c-1.8135986-9.949646-4.0976563-19.824646-6.772644-29.6186829l59.3479614-28.4797363
	c-3.3154907-10.8942566-7.1262207-21.5653992-11.2900391-32.0611267l-64.0678101,14.7166748
	c-3.9798584-9.2767334-8.3492432-18.4212341-13.164856-27.397522l51.4008789-40.8736572
	c-5.656311-9.8542938-11.6598511-19.4778442-18.0776367-28.8045197l-59.1167603,28.5715179
	c-5.9310913-8.1126556-12.3300171-15.9860229-19.0429077-23.6812592l41.0706787-51.3558655
	c-7.6876221-8.3384705-15.7089233-16.3593597-24.0474243-24.0483093l-51.3675537,41.0814667
	c-7.6929932-6.7110748-15.5735474-13.0888367-23.6866455-19.019043L668.21521,88.0267334
	c-9.3248901-6.4173431-18.9501953-12.4199753-28.8031616-18.0762558l-40.850708,51.3729706
	c-8.9790039-4.8169479-18.1378784-9.164299-27.4191284-13.1459579l14.7157593-64.0592346
	c-10.4979858-4.1642838-21.1682129-7.976368-32.0637817-11.2923203L525.310791,92.1847229
	c-9.7913208-2.6745377-19.6653748-4.9361496-29.6132507-6.7497559l0.0899658-65.8498993
	c-11.1173401-1.7002583-22.4155273-2.836462-33.8058777-3.6398115l-14.5273132,64.0551834
	c-10.1214905-0.4349594-20.256897-0.4758911-30.3788452-0.0413818L402.5576172,15.94526
	c-11.3903809,0.8033495-22.6889954,1.938653-33.8063354,3.6393614l0.0899658,65.8197632
	c-9.9496765,1.8136063-19.823761,4.0968094-29.6173401,6.7717972l-28.4793091-59.3502388
	c-10.8955994,3.3159523-21.5658264,7.1266899-32.0637817,11.2918701l14.7175598,64.068222
	c-9.2767334,3.9798584-18.4221497,8.3497009-27.3984375,13.1652985l-40.872757-51.400856
	c-9.8533936,5.6562805-19.4782867,11.6575623-28.8036194,18.0753555l28.5715332,59.1181335
	c-8.1135559,5.9306641-15.9869232,12.3304749-23.6821594,19.0428925l-51.3558807-41.0711212
	c-8.3384552,7.6880493-16.3593597,15.7098389-24.0474014,24.0483093l41.0801163,51.3666687
	c-6.7110748,7.6929932-13.0888367,15.5739899-19.019043,23.6866608l-59.1500778-28.5877228
	c-6.4178009,9.3266754-12.4208755,18.9497681-18.0776062,28.8036194l51.3720703,40.8511505
	c-4.8164978,8.9790039-9.164299,18.1379089-13.1459579,27.4182434L44.8112717,277.988678
	c-4.1638298,10.4957275-7.9768143,21.1677551-11.2927666,32.0611267l59.3578835,28.4833374
	c-2.6740875,9.7922363-4.9365997,19.6667786-6.750206,29.6150818l-65.848999-0.0917664
	c-1.7007065,11.1191406-2.8351116,22.4177551-3.6384621,33.808136l64.0524826,14.5255127
	c-0.4349594,10.1228333-0.4758911,20.2586975-0.0413818,30.3819885l-64.0111008,14.51651
	c0.8033504,11.3903809,1.9377556,22.6876526,3.6384621,33.8067932l65.8175125-0.0913086
	c1.8136063,9.9501038,4.0977097,19.8250732,6.7726898,29.6190796l-59.3488808,28.4788818
	c3.3159523,10.8942261,7.126236,21.5653687,11.2927666,32.0615845l64.0650787-14.7162476
	c3.9807587,9.2776489,8.3497009,18.4221802,13.1652985,27.399353l-51.3986053,40.8723145
	c5.6567307,9.8529053,11.6571121,19.4769287,18.0749054,28.8031616l59.1167831-28.5697632
	c5.9311218,8.1135864,12.3309174,15.9873657,19.0437927,23.6831055l-41.0688705,51.3527222
	c7.6880417,8.3388672,15.7089462,16.3602295,24.0474014,24.0482788l51.3648682-41.0787354
	c7.6934509,6.7110596,15.5749054,13.0888062,23.687561,19.0194702l-28.5859222,59.1495972
	c9.3253326,6.4173584,18.9502258,12.4191284,28.8036194,18.0749512l40.8480072-51.369812
	c8.9798889,4.8168945,18.1387939,9.1647339,27.4205017,13.1468506l-14.7148743,64.0560913
	c10.4979553,4.1647339,21.1681824,7.9749756,32.0637817,11.2909546l28.4815674-59.3543091
	c9.7917786,2.6740723,19.6667786,4.9361572,29.6150818,6.7497559l-0.0899658,65.8467407
	c11.1173401,1.7002563,22.4159546,2.8355713,33.8063354,3.638916l14.5259399-64.0511475
	c10.122406,0.4345093,20.2582703,0.4758911,30.3811035,0.0413818l14.5169678,64.0097656
	c11.3903503-0.8033447,22.6885376-1.9395142,33.8058777-3.6397705l-0.0899658-65.8153076
	c9.949646-1.8140259,19.8246765-4.0977173,29.6186829-6.7731323l28.4779663,59.3471069
	c10.8955688-3.315979,21.5657959-7.1276245,32.0637817-11.2918701l-14.7166748-64.0646362
	c9.2772217-3.9807739,18.4230347-8.3501587,27.3997803-13.1661987l40.8709717,51.3986206
	c9.8529663-5.6558228,19.4782715-11.6589355,28.8031616-18.0758057l-28.5697021-59.1149902
	c8.1135254-5.9311523,15.9868774-12.3318481,23.6830444-19.0446777l51.3531494,41.0701904
	c8.338501-7.6884766,16.3598022-15.7102661,24.0474243-24.0482788l-41.0787354-51.3653564
	c6.7114868-7.6934204,13.0892334-15.5744629,19.0194702-23.687561l59.1509399,28.586853
	c6.4151001-9.3262329,12.4186401-18.9506836,18.0749512-28.8036499l-51.3711548-40.8502808
	c4.8164673-8.9789429,9.1642456-18.1378784,13.1459351-27.4186401l64.0570068,14.7139893
	c4.1638184-10.4962158,7.9745483-21.1664429,11.2900391-32.0615845l-59.3547363-28.4824219
	c2.6740723-9.7918091,4.9361572-19.6672363,6.7497559-29.6155396l65.848999,0.0913086
	c1.7011719-11.1191406,2.835083-22.4164124,3.6384888-33.8067932l-64.0529785-14.5259705
	C784.2816162,436.639801,784.3225708,426.503479,783.8880615,416.3806763z M227.1288147,495.6639404
	c38.8423462-38.6048279,101.6259155-38.4132385,140.2307739,0.4282227
	c38.6057434,38.8410034,38.4141235,101.6241455-0.4273071,140.2298584
	c-38.8414612,38.6062012-101.6250305,38.4145508-140.2307739-0.4268799
	C188.0966644,597.0527954,188.2873688,534.2697144,227.1288147,495.6639404z M227.9510498,226.0111847
	c38.8423462-38.6052856,101.625946-38.413681,140.2316895,0.4273071
	c38.6048279,38.8423615,38.413208,101.6259308-0.4282227,140.2312164s-101.6241455,38.4136963-140.2298737-0.4277649
	S189.1096191,264.6164856,227.9510498,226.0111847z M401.4807739,400.6019897
	c17.1078491-17.0039063,44.7599792-16.919342,61.7634277,0.1884766
	c17.003479,17.1073914,16.9198303,44.7599487-0.1879883,61.7634277
	c-17.1078491,17.003479-44.7599792,16.9193726-61.7634583-0.1880188
	C384.2883911,445.2580566,384.3729553,417.6054688,401.4807739,400.6019897z M496.7824707,496.4861755
	c38.8414307-38.6048279,101.6241455-38.413208,140.2307739,0.4277649
	c38.6057129,38.8419189,38.413208,101.6254883-0.4273071,140.2312012
	C597.7435913,675.75,534.960022,675.5584106,496.354248,636.7174072
	C457.7494202,597.8754883,457.94104,535.0919189,496.7824707,496.4861755z M637.4072876,367.4924011
	c-38.8414307,38.6048584-101.625061,38.4132385-140.2307739-0.4281921
	c-38.6048584-38.8414612-38.4132385-101.6246033,0.4281921-140.2303314
	c38.8414612-38.6062012,101.6250305-38.4145813,140.2308044,0.4268646
	C676.4403076,266.1030884,676.2487183,328.8866577,637.4072876,367.4924011z"/>
</svg>
