<?xml version="1.0" encoding="utf-8"?>
<!-- Generator: Adobe Illustrator 19.0.1, SVG Export Plug-In . SVG Version: 6.00 Build 0)  -->
<svg version="1.1" id="Livello_1" xmlns="http://www.w3.org/2000/svg" xmlns:xlink="http://www.w3.org/1999/xlink" x="0px" y="0px"
	 viewBox="0 0 864 864" style="enable-background:new 0 0 864 864;" xml:space="preserve">
<path d="M858.9025269,453.3781433c0.3618164-7.2211914,0.5515137-14.4892578,0.5515137-21.802002
	c0-7.3127136-0.1896973-14.58078-0.5515137-21.8019714l-81.3029175-13.9062195
	c-1.7022095-16.6726685-4.6276245-32.9790955-8.6047974-48.8687744l71.6947021-40.9041748
	c-4.2862549-13.9662781-9.2346802-27.6410522-14.8730469-40.958374l-81.2304077,14.7529297
	c-7.2731934-14.9506836-15.5739746-29.3066254-24.8386841-42.9623413l53.3227539-62.889267
	c-8.7886353-11.6143799-18.1837158-22.7351074-28.0892944-33.3790131l-71.2347412,41.6146393
	c-11.8641357-11.4964752-24.5354614-22.1476898-37.9399414-31.8701782l28.6107788-77.3726501
	c-12.175415-7.901619-24.7734985-15.1865273-37.7612305-21.8393326l-52.6921387,63.4525146
	c-15.003418-6.7194595-30.5620728-12.3959198-46.6018677-16.9575882l0.4226074-82.4777908
	c-14.0732422-3.2183666-28.4057312-5.7379808-42.9733276-7.5266132l-27.8204956,77.6729431
	c-8.1902161-0.5786285-16.4324341-0.9770813-24.769104-0.9770813c-8.3388977,0-16.578186,0.3984528-24.7684021,0.9770813
	L379.6324768,7.6819353c-14.5653992,1.7886324-28.8979187,4.3075142-42.9733276,7.5251484l0.4226379,82.4792557
	c-16.0405579,4.5616684-31.5984497,10.2381287-46.6018677,16.9575882l-52.6921539-63.4525146
	c-12.9877319,6.6520729-25.5858002,13.9377136-37.7612457,21.8393326l28.6107941,77.3726501
	c-13.4052124,9.7224884-26.0758057,20.3751678-37.9406891,31.8709106l-71.2347488-41.6153717
	c-9.9055939,10.6439056-19.2999496,21.7646332-28.088562,33.3790131l53.3227921,62.8899994
	c-9.2647095,13.6549835-17.5655212,28.0109253-24.838707,42.9616089l-81.2304382-14.7529297
	c-5.6390991,13.3173218-10.5875034,26.9906311-14.8737774,40.9576416l71.694725,40.9049072
	c-3.9771805,15.889679-6.902565,32.196106-8.6040421,48.8687744l-81.302948,13.9062195
	c-0.3625607,7.2219238-0.5515318,14.4892578-0.5515318,21.8019714c0,7.3127441,0.188971,14.5800781,0.5515318,21.802002
	l81.302948,13.9062195c1.7014771,16.6726379,4.6268616,32.9798279,8.6040421,48.8687744l-71.694725,40.9049072
	c4.286274,13.96698,9.2346783,27.6410522,14.8737774,40.9576416l81.2304382-14.7529297
	c7.2731857,14.9506836,15.5761948,29.3066406,24.838707,42.9623413l-53.3227921,62.8892212
	c8.7886124,11.6137085,18.1829681,22.7351685,28.088562,33.3790283l71.2347488-41.6153564
	c11.8648834,11.4957275,24.5354767,22.1484375,37.9406891,31.8709106l-28.6107941,77.3734131
	c12.1754456,7.9008789,24.7735138,15.1865234,37.7612457,21.838562l52.6921539-63.4525146
	c15.003418,6.7194824,30.5613098,12.3959351,46.6018677,16.9575806l-0.4226379,82.479248
	c14.0754089,3.2176514,28.4079285,5.7365723,42.9733276,7.5252075l27.8204956-77.6729736
	c8.1902161,0.5771484,16.4295044,0.9770508,24.7684021,0.9770508c8.3366699,0,16.5788879-0.3984375,24.769104-0.9770508
	l27.8204956,77.6729736c14.5675964-1.7886353,28.9000854-4.3082886,42.9733276-7.5259399l-0.4226074-82.4785156
	c16.0397949-4.5616455,31.5984497-10.2380981,46.6018677-16.9575806l52.6921387,63.4525146
	c12.9877319-6.652771,25.5858154-13.9376831,37.7612305-21.8392944l-28.6107788-77.3726807
	c13.40448-9.7224731,26.0758057-20.3737183,37.9399414-31.8701782l71.2318115,41.614624
	c9.906311-10.6438599,19.3035889-21.763855,28.0922241-33.3790283l-53.3227539-62.8892212
	c9.2647095-13.6557007,17.5654907-28.0116577,24.8386841-42.9623413l81.2304077,14.7529297
	c5.6383667-13.3165894,10.586792-26.9921265,14.8730469-40.958374l-71.6947021-40.9041748
	c3.9771729-15.8889465,6.9025879-32.1961365,8.6047974-48.8687744L858.9025269,453.3781433z M322.0908203,288.3141479
	l-51.0837097-29.4926758c42.2738342-39.4729614,98.9534302-63.7007904,161.2142639-63.7007904
	s118.9403687,24.2263641,161.2113037,63.6993256l-51.0836792,29.4926758
	C474.2022095,327.6582031,390.240509,327.6589355,322.0908203,288.3141479z M363.2191162,598.5811157v59.1538086
	c-96.8234863-29.6010742-167.4546967-119.7746582-167.4546967-226.1602478c0-18.3316345,2.1651154-36.1549683,6.1320343-53.2986145
	l51.1921082,29.5556641C321.2382507,447.1772461,363.2191162,519.8900757,363.2191162,598.5811157z M432.2213745,373.6030579
	c32.0166626,0,57.9716187,25.9549561,57.9716187,57.9730835c0,32.0174255-25.9549561,57.9730835-57.9716187,57.9730835
	c-32.0196228,0-57.9745789-25.955658-57.9745789-57.9730835
	C374.2467957,399.5580139,400.2017517,373.6030579,432.2213745,373.6030579z M501.2236023,657.7349243v-59.1552734
	c0-78.69104,41.9808655-151.4038696,110.127655-190.7493896l51.1950073-29.5563965
	c3.9639893,17.1436462,6.132019,34.9691772,6.132019,53.3008118
	C668.6782837,537.9602661,598.0470581,628.1338501,501.2236023,657.7349243z"/>
</svg>
