<?xml version="1.0" encoding="utf-8"?>
<!-- Generator: Adobe Illustrator 19.0.1, SVG Export Plug-In . SVG Version: 6.00 Build 0)  -->
<svg version="1.1" id="Livello_1" xmlns="http://www.w3.org/2000/svg" xmlns:xlink="http://www.w3.org/1999/xlink" x="0px" y="0px"
	 viewBox="0 0 864 864" style="enable-background:new 0 0 864 864;" xml:space="preserve">
<path d="M855.4927368,453.9725952c0.3600464-7.1709595,0.548584-14.3890686,0.548584-21.6504517
	c0-7.2613525-0.1885376-14.4786987-0.548584-21.6504517l-73.4713745-12.5663757
	c-1.7693481-18.2507935-4.9233398-36.1013489-9.3830566-53.4357605l64.7682495-36.9528198
	c-4.2557983-13.8690796-9.1698608-27.4491882-14.7700195-40.6723328l-73.4698486,13.343689
	c-7.8671265-16.3663025-16.9750977-32.0248413-27.1802979-46.873642l48.2721558-56.933548
	c-8.7263184-11.5333557-18.0552979-22.5760803-27.8911743-33.1459503l-64.4483643,37.6489563
	c-12.8878174-12.6297455-26.7337036-24.2851868-41.4295044-34.8311005l25.8745117-69.97435
	c-12.0904541-7.8462677-24.6011963-15.0806007-37.498291-21.6867638l-47.607666,57.3299217
	c-16.3554688-7.455307-33.3815918-13.6859665-50.9547729-18.5923004l0.3817139-74.4704056
	c-13.9741821-3.194912-28.2063904-5.6967554-42.6735229-7.4730797l-25.0987854,70.071701
	c-8.9534912-0.6853409-17.9996643-1.0361252-27.1262207-1.0361252c-9.125,0-18.1696777,0.3500137-27.1216125,1.0353546
	l-25.097229-70.0709381c-14.4640198,1.7763243-28.6962585,4.2773952-42.6735229,7.4723072l0.3801575,74.4704056
	c-17.5731812,4.9063339-34.5977478,11.1369858-50.9547729,18.5923004l-47.607666-57.3291512
	c-12.8970795,6.6053925-25.4062958,13.8404961-37.498291,21.6859932l25.8745422,69.9743576
	c-14.6958313,10.5466766-28.5417328,22.2021179-41.4310913,34.8318634l-64.4452591-37.6489563
	c-9.8373947,10.56987-19.1648331,21.6125946-27.8927002,33.1459503l48.2721329,56.932785
	c-10.2051697,14.8495636-19.313179,30.5073395-27.1803055,46.873642l-73.4698257-13.342926
	c-5.598629,13.2231445-10.5142326,26.8024902-14.7699947,40.6715698l64.7682343,36.9535828
	c-4.4597397,17.3336487-7.6137009,35.184967-9.3830719,53.4357605L8.0863647,410.6724854
	c-0.3600554,7.1717224-0.5485821,14.3883057-0.5485821,21.6496582c0,7.2613831,0.1885266,14.4779358,0.5485821,21.6496887
	l73.4698257,12.5671692c1.769371,18.2507935,4.9233322,36.1021118,9.3830719,53.43573L26.17103,556.9290771
	c4.2557621,13.8683472,9.1713657,27.4476929,14.7699947,40.6708374l73.4698257-13.3428955
	c7.8671265,16.366272,16.9751358,32.0240479,27.1803055,46.8735962l-48.2721329,56.9328003
	c8.7278671,11.532959,18.0553055,22.5760498,27.8927002,33.1463013l64.4452591-37.649292
	c12.8909149,12.6296997,26.73526,24.2851563,41.4310913,34.8318481l-25.8745422,69.9743652
	c12.0919952,7.845459,24.6012115,15.0805664,37.498291,21.6863403l47.607666-57.329895
	c16.3570251,7.4556885,33.3815918,13.6863403,50.9547729,18.5926514l-0.3801575,74.470459
	c13.9772644,3.1948853,28.2095032,5.6959839,42.6735229,7.4726563l25.097229-70.0717163
	c8.9519348,0.68573,17.9966125,1.0357666,27.1216125,1.0357666c9.1265564,0,18.1727295-0.3504028,27.1262207-1.0361328
	l25.0987854,70.0720825c14.4671326-1.7766724,28.6993408-4.2781372,42.6735229-7.4734497l-0.3817139-74.4703979
	c17.5731812-4.9063721,34.5993042-11.1370239,50.9547729-18.5922852l47.607666,57.3302612
	c12.8970947-6.6065063,25.4078369-13.8408813,37.498291-21.6871338l-25.8745117-69.9743652
	c14.6958008-10.5458984,28.541687-22.201355,41.4295044-34.8310547l64.4453125,37.649292
	c9.8358154-10.5702515,19.1679077-21.6129761,27.8942261-33.1463013l-48.2721558-56.9335327
	c10.2052002-14.8488159,19.3131714-30.5073853,27.1802979-46.8736572l73.4698486,13.343689
	c5.6001587-13.2231445,10.5142212-26.8032837,14.7700195-40.6723633l-64.7682495-36.9528198
	c4.4597168-17.3343811,7.6137085-35.1849365,9.3830566-53.43573L855.4927368,453.9725952z M359.9144897,456.0579834
	c1.1775208,3.5541992,2.6115417,6.9909363,4.2789307,10.2917175l-86.1490173,86.1474915
	c-21.3684387-27.2792358-35.6377563-60.3463745-40.0325928-96.439209H359.9144897z M238.0118103,408.5863342
	c4.3948364-36.0920715,18.6625977-69.1592102,40.0325928-96.439209l86.1474609,86.1482544
	c-1.6673584,3.3007813-3.0998535,6.7367554-4.2773743,10.2909546H238.0118103z M311.6114502,278.5785522
	c27.2807312-21.3707581,60.3471069-35.6392975,96.4391785-40.0356903v121.9073029
	c-3.5541992,1.1767578-6.9894104,2.6092529-10.2886353,4.2774048L311.6114502,278.5785522z M284.5856628,251.5519867
	l-50.5159149-50.5159149c47.5937347-40.7457428,107.8543243-67.0993195,173.9808807-72.2227631v71.4586182
	C361.5123291,204.9966888,318.9917908,223.4808044,284.5856628,251.5519867z M251.0170593,285.120575
	c-28.0688477,34.4069214-46.5522003,76.9274292-51.2761993,123.4657593h-71.4609222
	c5.1242218-66.1265564,31.4762421-126.387146,72.2212219-173.9816742L251.0170593,285.120575z M199.74086,456.0579834
	c4.723999,46.5382996,23.2073517,89.0588379,51.2761993,123.4664917l-50.5158997,50.5159302
	c-40.7434387-47.5944824-67.0970001-107.855896-72.2212219-173.9824219H199.74086z M284.5871887,613.0930786
	c34.4061584,28.0704346,76.9251404,46.5545654,123.4634399,51.2792969v71.4586182
	c-66.1265564-5.1234131-126.387146-31.4766235-173.9793396-72.2219849L284.5871887,613.0930786z M311.6145325,586.0665283
	l86.1474609-86.1490173c3.3007813,1.6681519,6.7359924,3.099884,10.2886353,4.2766113v121.9073181
	C371.9585571,621.7050781,338.8921814,607.4373169,311.6145325,586.0665283z M403.5538025,432.3221436
	c0-15.5673523,12.6652832-28.232666,28.232666-28.232666c15.5704651,0,28.2357483,12.6653137,28.2357483,28.232666
	c0,15.5673828-12.6652832,28.232666-28.2357483,28.232666C416.2190857,460.5548096,403.5538025,447.8895264,403.5538025,432.3221436
	z M499.3841248,466.3497009c1.6689453-3.3007813,3.099884-6.7375183,4.2774048-10.2917175h121.9057922
	c-4.3979492,36.0920715-18.6641846,69.1599731-40.0357056,96.439209L499.3841248,466.3497009z M551.9645996,586.0657959
	c-27.2807617,21.3707275-60.3486938,35.6392822-96.4422913,40.0356445V504.1941223
	c3.5541687-1.1767273,6.9909363-2.6092224,10.291687-4.2773743L551.9645996,586.0657959z M503.6615295,408.5863342
	c-1.1775208-3.5541992-2.6084595-6.9901733-4.2774048-10.2901917l86.1474915-86.1474609
	c21.371521,27.2792053,35.6377563,60.3455811,40.0357056,96.4376526H503.6615295z M578.9918823,251.5519867
	c-34.4076538-28.0711823-76.9281921-46.5552979-123.469574-51.2800598v-71.4586182
	c66.1280823,5.1234436,126.3902283,31.4770203,173.9855042,72.2235413L578.9918823,251.5519867z M551.9645996,278.5793152
	l-86.1490479,86.1482544c-3.3007813-1.6681519-6.7390747-3.100647-10.2932434-4.2774048V238.5428619
	C491.6174622,242.9392548,524.6838379,257.2077942,551.9645996,278.5793152z M455.5223083,664.3723755
	c46.5398254-4.7247314,89.0619202-23.2088623,123.469574-51.2792969l50.5144043,50.5151367
	c-47.59375,40.7457886-107.855896,67.098938-173.9839783,72.2227783V664.3723755z M612.55896,579.5244751
	c28.0703735-34.4076538,46.553772-76.9281921,51.2792969-123.4664917h71.4593506
	c-5.1226807,66.1265259-31.4762573,126.387146-72.2227783,173.9816895L612.55896,579.5244751z M663.8382568,408.5863342
	c-4.7255249-46.5383301-23.2089233-89.0588379-51.2792969-123.4649963l50.5158691-50.5158997
	c40.746521,47.5945129,67.1000977,107.8543396,72.2227783,173.980896H663.8382568z"/>
</svg>
