<?xml version="1.0" encoding="utf-8"?>
<!-- Generator: Adobe Illustrator 19.0.1, SVG Export Plug-In . SVG Version: 6.00 Build 0)  -->
<svg version="1.1" id="Livello_1" xmlns="http://www.w3.org/2000/svg" xmlns:xlink="http://www.w3.org/1999/xlink" x="0px" y="0px"
	 viewBox="0 0 864 864" style="enable-background:new 0 0 864 864;" xml:space="preserve">
<path d="M765.2806396,432.0878296c0-10.2932434-0.5369263-20.4584656-1.4501953-30.5143738l91.0498047-50.5770874
	c-3.940979-20.7012939-9.3654175-40.8643188-16.1514893-60.4011841l-104.1264648,1.7234802
	c-8.5932617-18.6048889-18.8442993-36.2695007-30.5704346-52.8340149l53.5245361-89.2647247
	c-13.6661987-15.7972107-28.4505005-30.5814896-44.2476807-44.2476807l-89.2647095,53.5252228
	c-16.5638428-11.7254486-34.229126-21.9785461-52.8326416-30.5704193l1.7214355-104.1244354
	c-19.5361938-6.7874298-39.6978149-12.2118378-60.3991699-16.1542206L461.9565735,99.699585
	c-10.057312-0.911911-20.2225342-1.4488144-30.5150757-1.4488144s-20.4577637,0.5369034-30.5122986,1.4488144l-50.579834-91.0511932
	c-20.7013245,3.9423828-40.8657227,9.3667908-60.401886,16.1528378l1.7241821,104.1258163
	c-18.6035156,8.5925598-36.2688141,18.8449707-52.8326416,30.5704193l-89.2674866-53.5252228
	c-15.7972107,13.6661911-30.5814896,28.45047-44.2449112,44.2476807l53.5217514,89.2647247
	c-11.7233582,16.5638123-21.9771576,34.229126-30.5676575,52.8340149l-104.1264954-1.7234802
	C17.3681755,310.1320496,11.9437666,330.2950745,8,350.9963684l91.0525742,50.5777893
	c-0.9132996,10.0559082-1.4502029,20.2204285-1.4502029,30.5136719c0,10.2932129,0.5369034,20.4584656,1.4502029,30.5143738
	L8,513.1799927c3.9437666,20.7006226,9.3681755,40.8636475,16.1542206,60.4011841l104.1264954-1.7241821
	c8.5904999,18.6055908,18.8442993,36.2715454,30.5676575,52.8353882l-53.5217514,89.2633667
	c13.6634216,15.7971802,28.4477005,30.5828247,44.2449112,44.2483521l89.2674866-53.5252075
	c16.5638275,11.7261353,34.229126,21.9778442,52.8326416,30.5704346l-1.7241821,104.125061
	c19.5361633,6.7874756,39.7005615,12.211853,60.401886,16.1535645l50.5770874-91.0504761
	c10.0572815,0.9118652,20.2225037,1.4481201,30.5150452,1.4481201s20.4577637-0.5362549,30.5150757-1.4481201l50.5770569,91.0504761
	c20.701355-3.9417114,40.8629761-9.3674927,60.3991699-16.1535645l-1.7214355-104.125061
	c18.6035156-8.5919189,36.2687988-18.8442993,52.8326416-30.5704346l89.2647095,53.5252075
	c15.7971802-13.6655273,30.5814819-28.4511719,44.2476807-44.2483521l-53.5245361-89.2640381
	c11.7261353-16.5645142,21.9771729-34.229126,30.5704346-52.8347168l104.1264648,1.7241821
	c6.7833252-19.5375366,12.2105103-39.7005615,16.1514893-60.4019165l-91.0498047-50.5770569
	C764.7437134,452.5462952,765.2806396,442.3810425,765.2806396,432.0878296z M702.3768921,392.4114685H548.694519
	c-12.3488159-36.3988953-41.1812134-65.2299194-77.5801086-77.5808105V161.1524506
	C590.5814819,178.4967346,685.0298462,272.944397,702.3768921,392.4114685z M431.4387512,493.557312
	c-33.89151,0-61.4674072-27.5759277-61.4674072-61.4701843s27.5758972-61.4674072,61.4674072-61.4674072
	s61.4673767,27.5731506,61.4673767,61.4674072S465.3302307,493.557312,431.4387512,493.557312z M391.7630615,161.1531525V314.830658
	c-36.3988953,12.3508911-65.2312622,41.1819153-77.5801086,77.5808105H160.506134
	C177.8504028,272.9457703,272.29599,178.4988098,391.7630615,161.1531525z M160.506134,471.7628174h153.6768188
	c12.3488464,36.3995667,41.1812134,65.232666,77.5801086,77.5828857v153.6781616
	C272.29599,685.6782227,177.8504028,591.2298584,160.506134,471.7628174z M471.1144104,703.0245972v-153.678894
	c36.3988953-12.3502197,65.2312927-41.1833191,77.5801086-77.5828857h153.682373
	C685.0325928,591.2319336,590.5842285,685.6802979,471.1144104,703.0245972z"/>
</svg>
