<?xml version="1.0" encoding="utf-8"?>
<!-- Generator: Adobe Illustrator 19.0.1, SVG Export Plug-In . SVG Version: 6.00 Build 0)  -->
<svg version="1.1" id="Livello_1" xmlns="http://www.w3.org/2000/svg" xmlns:xlink="http://www.w3.org/1999/xlink" x="0px" y="0px"
	 viewBox="0 0 864 864" style="enable-background:new 0 0 864 864;" xml:space="preserve">
<path d="M858.3018799,454.0945129c0.3623047-7.2118225,0.5515747-14.4699707,0.5515747-21.7721558
	c0-7.3025818-0.18927-14.5607605-0.5515747-21.7725525l-75.9713745-12.9944763
	c-1.7605591-17.8636169-4.8583374-35.3398438-9.1998901-52.3251038l66.9839478-38.2166748
	c-4.2797241-13.9473877-9.22229-27.6035156-14.8531494-40.9015808l-75.9682617,13.7971191
	c-7.7282715-16.0126648-16.649231-31.3432312-26.6193237-45.9012604l49.9136963-58.8694763
	c-8.7757568-11.598526-18.1571655-22.7034302-28.0499878-33.3332214l-66.6417236,38.9320221
	c-12.6398926-12.3463287-26.1975098-23.7548218-40.569397-34.1030426l26.7583618-72.3637543
	c-12.1593628-7.8908463-24.7405396-15.1660004-37.7095337-21.8096275l-49.2284546,59.2812233
	c-16.0308838-7.2763138-32.7028809-13.3757019-49.9013672-18.2066269l0.3939819-77.0084991
	c-14.0532227-3.213274-28.3659668-5.7289677-42.9139709-7.5154076l-25.9572449,72.4699783
	c-8.7695923-0.6577988-17.6260986-0.9977036-26.5613708-0.9977036c-8.9337463,0-17.7894592,0.3399048-26.5578918,0.9973145
	L379.6916504,9.0114212c-14.5452881,1.7864399-28.857666,4.3013611-42.9135437,7.5150223l0.3939819,77.00811
	c-17.1985168,4.8309174-33.8709106,10.9303055-49.9021301,18.2070084l-49.2277222-59.2808342
	c-12.9697418,6.6428528-25.5501404,13.9187813-37.7095184,21.808857l26.7583466,72.3637619
	c-14.3726196,10.3486023-27.9294891,21.7574768-40.5701447,34.104187L119.8791885,141.80513
	c-9.8920517,10.6297913-19.273468,21.7346954-28.0500031,33.3332214l49.9141006,58.8698578
	c-9.970459,14.5576477-18.8914642,29.8882141-26.6193085,45.9008789l-75.967926-13.7971191
	c-5.6312447,13.2980652-10.5734081,26.9538269-14.853138,40.9007874l66.9831924,38.2170715
	c-4.3411484,16.9852905-7.4389343,34.4618835-9.1991043,52.3255005L6.1152205,410.5505676
	c-0.3619227,7.2114258-0.5511889,14.4692078-0.5511889,21.7717896c0,7.3021851,0.1892662,14.5595703,0.5511889,21.771759
	l75.9717865,12.994873c1.7605591,17.8640137,4.8579559,35.3398132,9.1991043,52.3250732l-66.9831924,38.2174683
	c4.2797298,13.9473877,9.2218933,27.6027222,14.853138,40.9008179l75.967926-13.7967529
	c7.7278442,16.0126953,16.6488495,31.3432617,26.6196899,45.9008789l-49.9144821,58.869873
	c8.776535,11.5977783,18.1579514,22.703064,28.0500031,33.3328247l66.642128-38.9320068
	c12.6402588,12.3463135,26.1971283,23.7548218,40.5697479,34.1033936l-26.7583466,72.3641357
	c12.1593781,7.8900757,24.7397766,15.1660156,37.7095184,21.8092651l49.2277222-59.281189
	c16.0312195,7.2766724,32.7036133,13.3760376,49.9021301,18.206604l-0.3939819,77.0088501
	c14.0558777,3.2133179,28.3682556,5.7282104,42.9135437,7.5150757l25.9572754-72.4703979
	c8.7684326,0.6577759,17.6241455,0.9981079,26.5578918,0.9981079c8.934906,0,17.7917786-0.3406982,26.5613708-0.9981079
	l25.9572449,72.4703979c14.5480042-1.7868652,28.8607483-4.3021851,42.9139709-7.5158081l-0.3939819-77.0084839
	c17.1984863-4.8309326,33.8709106-10.9299316,49.9013672-18.206665l49.2284546,59.2816162
	c12.9689941-6.6439819,25.5501709-13.9191895,37.7095337-21.8096313l-26.7583618-72.3641357
	c14.3718872-10.3482056,27.9287109-21.7567139,40.5686035-34.1030273l66.6401978,38.9320068
	c9.8920288-10.6297607,19.2765503-21.734314,28.0523071-33.3328247l-49.9136963-58.869873
	c9.9700928-14.5576172,18.8910522-29.8881836,26.6193237-45.9008789l75.9682617,13.7967529
	c5.6308594-13.2980957,10.5734253-26.9542236,14.8531494-40.9015503l-66.9839478-38.2167358
	c4.3415527-16.98526,7.4393311-34.4610596,9.1998901-52.324707L858.3018799,454.0945129z M347.855957,381.5333862
	c-5.0167236,8.3014221-8.8321533,17.4016418-11.2300415,27.057312H128.753067
	c5.1225433-66.1156616,31.4706879-126.3656006,72.2092438-173.9517365L347.855957,381.5333862z M234.5249786,201.0763092
	c47.5853424-40.7385559,107.8353119-67.0867157,173.9501801-72.209259v207.8744049
	c-9.6548767,2.3978577-18.7550964,6.2133179-27.0565491,11.2300415L234.5249786,201.0763092z M336.6259155,456.0539856
	c2.3978882,9.6556702,6.2133179,18.7558899,11.2300415,27.0573425L200.963089,630.0064697
	c-40.7385559-47.5861206-67.0874786-107.836792-72.210022-173.9524841H336.6259155z M381.4194031,516.6732178
	c8.3006592,5.0167236,17.4008789,8.8321533,27.0557556,11.2300415v207.8743896
	c-66.1148682-5.1225586-126.3640442-31.4707031-173.9494019-72.2084961L381.4194031,516.6732178z M381.1806946,432.3223572
	c0-28.1365356,22.8911438-51.0261536,51.026123-51.0261536s51.026123,22.8896179,51.026123,51.0261536
	c0,28.1365051-22.8911438,51.026123-51.026123,51.026123S381.1806946,460.4588623,381.1806946,432.3223572z M455.938446,336.7414551
	V128.8670502c66.1156921,5.1225433,126.3664246,31.4714661,173.9525452,72.210022L482.9949951,347.9714966
	C474.6943359,342.9547729,465.5941162,339.1393127,455.938446,336.7414551z M455.938446,527.9032593
	c9.6556702-2.3978882,18.7558899-6.2133179,27.0565491-11.2300415l146.8952026,146.8952026
	c-47.5861206,40.7377319-107.836853,67.0858765-173.9517517,72.2092285V527.9032593z M516.5576782,483.1105347
	c5.0167236-8.3006592,8.8321533-17.4008789,11.2300415-27.0565491h207.8759155
	c-5.1224976,66.1156921-31.4714355,126.3656311-72.2107544,173.9517517L516.5576782,483.1105347z M527.7877197,408.5906982
	c-2.3978882-9.6556702-6.2133179-18.7558899-11.2300415-27.0565491L663.4536133,234.63974
	c40.7385864,47.5861206,67.0875244,107.8360901,72.210022,173.9509583H527.7877197z"/>
</svg>
