<?xml version="1.0" encoding="utf-8"?>
<!-- Generator: Adobe Illustrator 19.0.1, SVG Export Plug-In . SVG Version: 6.00 Build 0)  -->
<svg version="1.1" id="Livello_1" xmlns="http://www.w3.org/2000/svg" xmlns:xlink="http://www.w3.org/1999/xlink" x="0px" y="0px"
	 viewBox="0 0 864 864" style="enable-background:new 0 0 864 864;" xml:space="preserve">
<path d="M764.8377686,432.2591858c0-10.2814941-0.5362549-20.4342957-1.4478149-30.4786072l90.9420166-50.5174255
	c-3.935791-20.6761475-9.3538208-40.8160095-16.1326294-60.3293152L734.196106,292.65448
	c-8.5813599-18.5822449-18.8223877-36.2266846-30.5328369-52.7709808l53.461853-89.1593628
	c-13.6513672-15.7789459-28.4170532-30.5453033-44.197998-44.1953278l-89.15802,53.4615326
	c-16.5439453-11.7117615-34.1893921-21.9521484-52.7713013-30.5338593l1.7213135-104.0018463
	c-19.5153198-6.7788639-39.6535034-12.1981812-60.3300171-16.1353378l-50.5167236,90.9433441
	c-10.0460205-0.9108582-20.1974792-1.4464569-30.4789429-1.4464569c-10.2814941,0-20.4329224,0.5355988-30.4762573,1.4464569
	L350.3973999,9.3192959c-20.6764832,3.9371567-40.8170166,9.3551273-60.3299866,16.1339893l1.7213135,104.0031967
	c-18.5819092,8.5817108-36.2273712,18.8220978-52.7713013,30.5338593l-89.1607208-53.4615326
	c-15.7779388,13.6500244-30.5466537,28.4163818-44.1946564,44.1953278l53.4611969,89.1586914
	c-11.7104187,16.5449677-21.9511414,34.1894073-30.5331879,52.7716522l-104.002182-1.7206421
	c-6.7795372,19.5133057-12.1978436,39.6531677-16.1353378,60.3293152l90.9443512,50.5187683
	c-0.9122009,10.0436401-1.4481354,20.1957703-1.4481354,30.4772644c0,10.2814636,0.5359344,20.4342651,1.4481354,30.4786072
	L8.4525356,513.255188c3.9374943,20.6768188,9.3558006,40.81604,16.1353378,60.3293457l104.002182-1.7206421
	c8.5820465,18.5828857,18.8227692,36.2280273,30.5331879,52.7722778l-53.4611969,89.15802
	c13.6480026,15.7789917,28.4167175,30.5473633,44.1946564,44.1967163l89.1607208-53.4622192
	c16.5439301,11.711731,34.1893921,21.9514771,52.7713013,30.5345459l-1.7213135,104.0018311
	c19.51297,6.7788696,39.6535034,12.1968384,60.3299866,16.1339722l50.5170898-90.942627
	c10.0460205,0.9108276,20.1974487,1.4464111,30.4789429,1.4464111c10.2814636,0,20.4329224-0.5355835,30.4789429-1.4464111
	l50.5167236,90.942627c20.6765137-3.9371338,40.8146973-9.3551025,60.3300171-16.1339722l-1.7213135-104.0018311
	c18.5819092-8.5817261,36.227356-18.8228149,52.7713013-30.5345459l89.15802,53.4622192
	c15.7809448-13.649353,30.5466309-28.4177246,44.197998-44.1967163l-53.461853-89.1586914
	c11.7104492-16.5449219,21.9514771-34.1887207,30.5328369-52.7716064l104.0032349,1.7206421
	c6.776123-19.5133057,12.1968384-39.6531982,16.1326294-60.3293457l-90.9420166-50.517395
	C764.3015137,452.6934509,764.8377686,442.5406494,764.8377686,432.2591858z M613.5438843,279.4389954
	c0,16.174408-13.156189,29.333313-29.3306274,29.333313c-16.1743774,0-29.3359985-13.158905-29.3359985-29.333313
	s13.1616211-29.3332977,29.3359985-29.3332977C600.3876953,250.1056976,613.5438843,263.2645874,613.5438843,279.4389954z
	 M494.1679688,253.8003235c0,34.6151733-28.1610413,62.7762146-62.7789307,62.7762146
	c-34.6124878,0-62.7735291-28.1610413-62.7735291-62.7762146s28.1610413-62.7789307,62.7735291-62.7789307
	C466.0069275,191.0213928,494.1679688,219.1851349,494.1679688,253.8003235z M486.363739,432.2605286
	c0,30.3115234-24.6631775,54.9719849-54.9747009,54.9719849s-54.9692688-24.6604614-54.9692688-54.9719849
	c0-30.3142395,24.6577454-54.9746704,54.9692688-54.9746704S486.363739,401.9462891,486.363739,432.2605286z
	 M431.3890381,547.9417725c34.6178894,0,62.7789307,28.1610718,62.7789307,62.7762451s-28.1610413,62.7789307-62.7789307,62.7789307
	c-34.6124878,0-62.7735291-28.1637573-62.7735291-62.7789307S396.7765503,547.9417725,431.3890381,547.9417725z
	 M584.2132568,614.4126587c-16.1743774,0-29.3359985-13.1588745-29.3359985-29.333313
	c0-16.1743774,13.1616211-29.333313,29.3359985-29.333313c16.1744385,0,29.3306274,13.1589355,29.3306274,29.333313
	C613.5438843,601.2537842,600.3876953,614.4126587,584.2132568,614.4126587z M609.8519287,495.0367432
	c-34.6178589,0-62.7789307-28.1610413-62.7789307-62.7762146s28.1610718-62.7789307,62.7789307-62.7789307
	c34.6179199,0,62.7789307,28.1637268,62.7789307,62.7789307S644.4698486,495.0367432,609.8519287,495.0367432z
	 M252.9315338,495.0367432c-34.6178741,0-62.7789307-28.1610413-62.7789307-62.7762146s28.1610565-62.7789307,62.7789307-62.7789307
	s62.7789459,28.1637268,62.7789459,62.7789307S287.549408,495.0367432,252.9315338,495.0367432z M307.9062195,585.0793457
	c0,16.1744385-13.1615906,29.333313-29.3359985,29.333313s-29.3306122-13.1588745-29.3306122-29.333313
	c0-16.1743774,13.1562042-29.333313,29.3306122-29.333313S307.9062195,568.9049683,307.9062195,585.0793457z
	 M249.2396088,279.4389954c0-16.174408,13.1562042-29.3332977,29.3306122-29.3332977s29.3359985,13.1588898,29.3359985,29.3332977
	s-13.1615906,29.333313-29.3359985,29.333313S249.2396088,295.6134033,249.2396088,279.4389954z"/>
</svg>
