<?xml version="1.0" encoding="utf-8"?>
<!-- Generator: Adobe Illustrator 19.0.1, SVG Export Plug-In . SVG Version: 6.00 Build 0)  -->
<svg version="1.1" id="Livello_1" xmlns="http://www.w3.org/2000/svg" xmlns:xlink="http://www.w3.org/1999/xlink" x="0px" y="0px"
	 viewBox="0 0 864 864" style="enable-background:new 0 0 864 864;" xml:space="preserve">
<path d="M814.1918945,414.0754089L857,404.3664246c-0.8711548-13.8910217-2.3803711-27.6060791-4.5529785-41.1060486
	l-43.9823608,0.0614929c-2.062439-11.394104-4.6102295-22.7807617-7.7578735-34.1335144l39.6392822-19.0205078
	c-3.934082-13.2922363-8.4997559-26.3067627-13.6589355-39.0234985l-42.8653564,9.8456726
	c-4.6101685-10.8313293-9.690918-21.3372803-15.1829224-31.5401306l34.3910522-27.3453827
	c-6.793396-12.0437469-14.1506348-23.718689-22.0378418-35.0004272l-39.492981,19.0862274
	c-6.8951416-9.4917145-14.1612549-18.6421661-21.8322144-27.3856506l27.4365234-34.3062592
	c-9.2670288-10.2092133-19.0258179-19.9658737-29.236084-29.2360916l-34.3762207,27.4937515
	c-8.8049316-7.6794281-17.9532471-14.9147873-27.3877563-21.741066l19.1572266-39.6392517
	c-11.2806396-7.8903351-22.9577026-15.2454605-34.9993286-22.0367584l-27.4641113,34.5404739
	c-10.2526855-5.5237656-20.744873-10.5822678-31.4574585-15.1617355l9.8859863-43.0391388
	c-12.7178345-5.1591873-25.7366333-9.7227554-39.0267334-13.6578541l-19.06604,39.7272186
	c-11.2192383-3.1222191-22.5847168-5.776001-34.0900879-7.8744354l0.0614624-43.9569435
	c-13.499939-2.1705041-27.2160645-3.6765032-41.1060181-4.5508518l-9.6994324,42.7593536
	c-11.6071167-0.5426292-23.2905273-0.51931-35.0121155,0.0127144l-9.7036743-42.7720642
	c-13.8899536,0.8743486-27.6082153,2.3803477-41.1039124,4.5508518l0.0593567,43.9675407
	c-11.3951416,2.0676994-22.7796936,4.6208-34.1324463,7.7705727l-19.0215759-39.6339493
	c-13.2922363,3.9350986-26.3110046,8.4986668-39.0266724,13.6578541l9.839325,42.8398972
	c-10.803772,4.5890045-21.3192749,9.6634064-31.567688,15.1638489l-27.3093567-34.3433456
	c-12.041626,6.7912979-23.718689,14.1464233-34.9993744,22.0367584l19.0427856,39.402916
	c-9.4832458,6.8644257-18.6421661,14.1390076-27.4365234,21.8438721l-34.2108765-27.3602219
	c-10.2123871,9.2691574-19.9690552,19.0279465-29.2403336,29.2360916l27.3538589,34.1981506
	c-7.6561127,8.7837677-14.890419,17.9766083-21.7559052,27.4873962l-39.482399-19.0798645
	c-7.8892746,11.2817383-15.2444,22.9566803-22.0378227,34.9993744l34.4715843,27.411087
	c-1.39048,2.5827789-2.8466644,5.1157379-4.1841507,7.7377167c-3.9827881,7.8203735-7.5819244,15.7615967-11.0030136,23.7547302
	l-42.9437599-9.8626404c-5.1591854,12.7167358-9.7227535,25.7323303-13.6589127,39.0245361l39.5777817,18.9908447
	c-3.1497726,11.2923584-5.77388,22.6875-7.8595963,34.1621399L9.1342125,363.260376
	c-2.1705036,13.4999695-3.6796818,27.2150269-4.5508509,41.1071167l42.7190742,9.6888428
	c-0.5256691,11.6569214-0.5002327,23.3392639,0.0551109,35.0269165l-42.7741852,9.7015686
	c0.8711691,13.8899536,2.3803473,27.6060791,4.5508509,41.1060181l44.0311279-0.0614624
	c2.0899582,11.4142151,4.6589546,22.7871399,7.8023682,34.0868835l-39.7325134,19.0661011
	c3.9361591,13.2932739,8.4997272,26.3078003,13.6589127,39.0256348l42.9607124-9.8690186
	c4.5805283,10.7868042,9.6485748,21.2874756,15.1384201,31.5210571l-34.4397926,27.3867188
	c6.7934227,12.0426636,14.1464272,23.7165527,22.0378227,34.9993286l39.5099487-19.0925903
	c6.8527756,9.4684448,14.1167526,18.6157227,21.8067856,27.4005127l-27.4322891,34.2977905
	c9.2712784,10.2092285,19.0279465,19.9669189,29.2403336,29.2382202l34.2808228-27.4174805
	c8.7710419,7.647644,17.9490509,14.8724365,27.4471283,21.7315674l-19.1233368,39.5714111
	c11.2806854,7.8903198,22.9577484,15.2454224,34.9993744,22.0367432l27.4662018-34.5415039
	c2.6007843,1.401062,5.152832,2.8678589,7.7938995,4.2138062c7.7896423,3.9700928,15.6916199,7.5819092,23.6529846,10.9924316
	l-9.8753662,42.9946289c12.7156677,5.1591797,25.734436,9.7238159,39.0266724,13.6588745l19.0787964-39.7536621
	c11.2722168,3.1433716,22.6207275,5.8861694,34.0752258,7.9708252l-0.0593567,43.8859863
	c13.495697,2.1726074,27.2139587,3.6775513,41.1039124,4.5529785l9.7058105-42.7837524
	c5.7081604,0.258606,11.4163513,0.5055542,17.1351013,0.5055542c5.9582825,0,11.9187012-0.1865234,17.8791199-0.4663696
	l9.6951904,42.7445679c13.8899536-0.8754272,27.6060791-2.3803711,41.1060181-4.5529785l-0.0614624-44.0311279
	c11.4163513-2.0857544,22.7924194-4.6525879,34.0942993-7.7896729l19.0618286,39.7176514
	c13.2901001-3.9350586,26.3088989-8.4975586,39.0267334-13.6588745l-9.8754272-42.986145
	c10.8143921-4.6017456,21.3044434-9.6751099,31.491394-15.1596069l27.4196167,34.4863892
	c12.0458374-6.7923584,23.718689-14.1464233,34.9993286-22.0367432l-19.1360474-39.6000366
	c9.4768677-6.8824463,18.6167603-14.1358643,27.3475342-21.7940674l34.3952637,27.508606
	c10.2102661-9.2723389,19.9690552-19.0300903,29.236084-29.2382202l-27.5615845-34.4631348
	c7.6688232-8.7922363,14.8946533-17.9278564,21.713501-27.3464355l39.7367554,19.2028198
	c7.887207-11.2817383,15.2444458-22.9556274,22.0378418-34.9993896l-34.6178589-27.5255127
	c5.5195313-10.2410278,10.5748901-20.7194214,15.1511841-31.4193115l43.1239014,9.9071655
	c5.1591797-12.7178345,9.7248535-25.7323608,13.6589355-39.0256348l-39.7940063-19.0947266
	c3.1221924-11.2086182,5.7781372-22.5634766,7.8765259-34.0582581l44.0184326,0.0614624
	c2.1726074-13.499939,3.6818237-27.2160645,4.5529785-41.1060181l-42.8081055-9.7089844
	C814.7366333,437.4708557,814.7196655,425.7948608,814.1918945,414.0754089z M430.8309021,717.8696289
	c-55.0596008,0-106.5157776-15.6535034-150.2141418-42.6915283l128.5090942-176.8833313
	c6.8421631,2.2298584,14.1294861,3.4698486,21.7050476,3.4698486s14.862854-1.2399902,21.7050171-3.4698486l128.5091248,176.8812561
	C537.3424072,702.2140503,485.8904724,717.8696289,430.8309021,717.8696289z M517.8291016,769.5081177
	c-57.6794434,14.9349365-117.2284241,14.8226318-174.0303345,0.0805664l8.6735535-26.7010498
	c25.0921936,6.3165283,51.333252,9.710083,78.3585815,9.710083c27.0210571,0,53.2621155-3.3935547,78.3500977-9.7079468
	L517.8291016,769.5081177z M110.5374374,453.2038269c3.6584854,54.4639587,20.9377365,105.2312927,48.4844742,148.9444885
	l-22.9089813,16.6454468c-15.5157166-24.5072021-28.0893784-51.1085815-37.2843399-79.418396
	c-9.1992035-28.3098145-14.66362-57.2237244-16.5161819-86.1715393H110.5374374z M82.3208923,409.7937317
	c2.9166107-47.0727844,15.409729-93.4884949,37.4666214-136.7756348
	c5.0447311-9.9029236,10.5430527-19.4773102,16.4101944-28.7507019l22.8242035,16.5818787
	c-27.5467377,43.7153015-44.8259888,94.4804993-48.4844742,148.944458H82.3208923z M144.4515686,431.4987793
	c0-23.2820435,2.861496-45.9006348,8.1309052-67.5866089l207.9783478,67.5760193v0.0105896
	c0,15.409729,5.0447388,29.6303406,13.4893494,41.2268677L245.5453186,649.5983887
	C183.7580261,597.0293579,144.4515686,518.7894897,144.4515686,431.4987793z M695.649292,322.6344604l-208.0715942,67.6056824
	c-8.631134-11.840271-20.8275146-20.9038391-35.0417786-25.5352173V146.035141
	C562.5194092,154.3250122,655.3381348,224.9469452,695.649292,322.6344604z M550.4459839,133.5992432l8.6311646-26.5547485
	c54.2965088,21.5163879,102.9844971,56.452179,140.8241577,102.1323853l-22.7987671,16.5628052
	C643.3707275,185.4306335,599.9394531,153.5449982,550.4459839,133.5992432z M466.3644104,431.4987793
	c0,19.5939026-15.9396362,35.5377808-35.5335083,35.5377808c-19.5939026,0-35.5420227-15.9438782-35.5420227-35.5377808
	c0-19.5938721,15.9481201-35.5377502,35.5420227-35.5377502
	C450.4247742,395.9610291,466.3644104,411.9049072,466.3644104,431.4987793z M509.1809998,120.1099091
	c-25.0879822-6.3165054-51.3290405-9.7100372-78.3500977-9.7100372c-27.0253296,0-53.2663879,3.3935318-78.3585815,9.7121582
	l-8.6523438-26.6247101c28.9075317-7.4589844,58.0185852-11.1089935,86.7565613-11.1089935
	c29.7045288,0,58.9851379,3.8874054,87.2229004,11.2043762L509.1809998,120.1099091z M409.1258545,146.035141v218.6676483
	c-14.2185059,4.6314087-26.414856,13.6949463-35.0502319,25.5352173l-208.07164-67.6035461
	C206.315155,224.9469452,299.1381226,154.3250122,409.1258545,146.035141z M184.5550079,225.7396851l-22.8581085-16.6073303
	c37.2843323-45.3092651,85.395752-80.3997803,140.836853-102.2256393l8.6735535,26.6946487
	C261.7138672,153.5471191,218.28685,185.4327545,184.5550079,225.7396851z M184.5550079,637.2578735
	c33.731842,40.3069458,77.1588593,72.1925659,126.652298,92.1383057l-8.6947327,26.7540283
	c-10.1954346-4.0505981-20.2637024-8.5632935-30.162384-13.6080322
	c-43.2913666-22.0568848-80.6816864-52.2659302-110.7126465-88.6324463L184.5550079,637.2578735z M677.1025391,637.2578735
	l22.6843262,16.4801636c-36.4831543,44.300293-84.1918335,80.0690918-140.6672974,102.3485718l-8.673584-26.6882935
	C599.9394531,709.4525757,643.3707275,677.5669556,677.1025391,637.2578735z M616.1122437,649.5962524L487.6073608,472.721405
	c8.4403992-11.5965271,13.4851074-25.8150024,13.4851074-41.2226257v-0.0084839l207.9783936-67.578125
	c5.2694092,21.6859741,8.1308594,44.3045654,8.1308594,67.5866089
	C717.2017212,518.7873535,677.8995361,597.0272827,616.1122437,649.5962524z M751.1158447,453.2038269h28.0343018
	c-3.7602539,59.197113-22.5359497,116.1134949-53.8175049,165.433075l-22.6970215-16.4885864
	C730.1781616,558.4351196,747.4573975,507.6677856,751.1158447,453.2038269z M751.1158447,409.7937317
	c-3.6584473-54.4639587-20.9376831-105.2291565-48.4802246-148.944458l22.8199463-16.5776367
	c15.4182129,24.2549438,28.0936279,50.7864075,37.3776245,79.3547974
	c9.2839966,28.5684204,14.6678467,57.4823303,16.4483643,86.1672974H751.1158447z"/>
</svg>
