<?xml version="1.0" encoding="utf-8"?>
<!-- Generator: Adobe Illustrator 19.0.1, SVG Export Plug-In . SVG Version: 6.00 Build 0)  -->
<svg version="1.1" id="Livello_1" xmlns="http://www.w3.org/2000/svg" xmlns:xlink="http://www.w3.org/1999/xlink" x="0px" y="0px"
	 viewBox="0 0 864 864" style="enable-background:new 0 0 864 864;" xml:space="preserve">
<g>
	<path d="M217.7050323,202.8095856c0.7324219,7.1789551,1.9916992,14.1999512,3.7045898,21.0415039l-30.8696289,17.6125488
		c1.8452148,6.0134277,3.9760742,11.9013672,6.4038086,17.635025l34.9755859-6.352066
		c3.1318359,6.437027,6.7070313,12.6186676,10.6948242,18.4983063l-22.9589844,27.0783691
		c3.7841797,5.0004883,7.8286133,9.7888184,12.0942383,14.3718262l30.671402-17.9182129
		c5.1088867,4.949707,10.5644531,9.5366211,16.3359375,13.7226563l-12.3188477,33.3144531
		c5.2426758,3.4023438,10.6669922,6.5393066,16.2587891,9.4035645l22.6879883-27.3210449
		c6.4599609,2.8930664,13.1586914,5.3374023,20.0654297,7.3017578l-0.1821289,35.5126953
		c6.0605469,1.3857422,12.2314453,2.4699707,18.5029297,3.2404785l11.9790039-33.4438477
		c3.5263672,0.2485352,7.0737305,0.4204102,10.6645508,0.4204102c3.5893555,0,7.1376953-0.1713867,10.6650391-0.4204102
		l11.9785156,33.4438477c6.2724609-0.7705078,12.4433594-1.8549805,18.5029297-3.2404785l-0.1816406-35.5126953
		c6.90625-1.9643555,13.6049805-4.4086914,20.0649414-7.3017578l22.6879883,27.3210449
		c5.5917969-2.864502,11.0161133-6.0012207,16.2587891-9.4035645l-12.3188477-33.3144531
		c5.7714844-4.1860352,11.2270508-8.7724609,16.3359375-13.7224121l30.6704102,17.9179688
		c4.2651367-4.5830078,8.3115234-9.3708496,12.0956726-14.3718262l-22.9594421-27.0783691
		c3.9887695-5.8796387,7.5629883-12.0612793,10.6948242-18.4983063l34.9750671,6.352066
		c2.4282227-5.7336578,4.559082-11.6220856,6.4042969-17.6352692l-30.8695984-17.6123047
		c1.7123718-6.8415527,2.9716492-13.8625488,3.7045593-21.0415039l35.0068359-5.9873047
		c0.15625-3.109375,0.237793-6.2392578,0.237793-9.3876953s-0.081543-6.277832-0.237793-9.387207l-35.0068359-5.987793
		c-0.7329102-7.1784668-1.9921875-14.199707-3.7045593-21.0412598l30.8695984-17.6123047
		c-1.8452148-6.0136642-3.9760742-11.9016037-6.4042969-17.6352463l-34.9750671,6.3520508
		c-3.1318359-6.4372559-6.7060547-12.6188965-10.6948242-18.498291l22.9594421-27.0786133
		c-3.7841492-5.0007324-7.829071-9.7888184-12.0942078-14.3720741l-30.671875,17.9184608
		c-5.1088867-4.9499512-10.5644531-9.5366211-16.3359375-13.7224121l12.3188477-33.3144569
		c-5.2426758-3.4020977-10.6669922-6.5388165-16.2587891-9.4035625l-22.6879883,27.321043
		c-6.4599609-2.8933105-13.1586914-5.3376465-20.0649414-7.302002l0.1816406-35.512207
		c-6.0595703-1.385498-12.2304688-2.470459-18.5029297-3.2407227l-11.9785156,33.4438477
		c-3.5273438-0.2490234-7.0756836-0.4206543-10.6650391-0.4206543c-3.5908203,0-7.1381836,0.1716309-10.6645508,0.4206543
		L343.7709656,4.9179888c-6.2714844,0.7702637-12.4423828,1.8547363-18.5029297,3.2402344l0.1821289,35.5126953
		c-6.9067383,1.9643555-13.6054688,4.4086914-20.0654297,7.302002l-22.6879883-27.321043
		c-5.5917969,2.8642578-11.0161133,6.0014648-16.2587891,9.4030743l12.3188477,33.3149452
		c-5.7714844,4.185791-11.2270508,8.7729492-16.3359375,13.7224121l-30.671402-17.9184608
		c-4.265625,4.5832558-8.3100586,9.3713417-12.0942383,14.3720741l22.9589844,27.0786133
		c-3.9887695,5.8798828-7.5629883,12.0610352-10.6948242,18.498291l-34.9755859-6.3520508
		c-2.4277344,5.7336426-4.5585938,11.621582-6.4038086,17.6350021l30.8696289,17.6125488
		c-1.7128906,6.8415527-2.972168,13.862793-3.7045898,21.0412598l-35.0068359,5.987793
		c-0.15625,3.1096191-0.237793,6.2387695-0.237793,9.387207s0.081543,6.277832,0.237793,9.387207L217.7050323,202.8095856z
		 M366.4135437,312.8003235c-30.4643555,0-58.4155273-10.9318848-80.1630859-29.0664063l48.9326172-48.9333649
		c8.9658203,5.9311523,19.6987305,9.3964844,31.2304688,9.3964844s22.2651367-3.465332,31.2304688-9.3964844l48.9335938,48.9338531
		C424.829071,301.8684387,396.8769226,312.8003235,366.4135437,312.8003235z M392.726532,196.0224762
		c4.0249023-12.3190918-1.074707-26.1987305-12.8032227-32.7553711c-2.5-1.3972168-5.1259766-2.3642578-7.7910156-2.9250488
		V146.325943c20.1933594,2.7961426,35.793457,20.1599121,35.793457,41.1086426
		c0,5.5163574-1.0908203,10.7805176-3.0532227,15.6003418L392.726532,196.0224762z M399.1371765,212.9311676
		c-7.6030273,9.7373047-19.4399414,16.015625-32.7236328,16.015625c-13.2827148,0-25.1196289-6.2783203-32.7236328-16.0151367
		l12.1381836-7.0075684c2.0112305,2.2353516,4.3764648,4.1677246,7.0776367,5.6779785
		c4.2651367,2.3828125,8.8930664,3.5136719,13.4614258,3.5136719c7.7509766,0,15.3208008-3.2646484,20.640625-9.1875
		L399.1371765,212.9311676z M374.3422546,173.2509918c7.8208008,4.3710938,10.6259766,14.2905273,6.2548828,22.1113281v-0.0009766
		c-4.3710938,7.8215332-14.2895508,10.6269531-22.1103516,6.2568359c-3.7880859-2.1176758-6.5249023-5.5839844-7.7070313-9.760498
		c-1.1821289-4.1755371-0.6665039-8.5625,1.4521484-12.3498535c2.9731445-5.3195801,8.5112305-8.3188477,14.2114258-8.3188477
		C369.1239929,171.1889801,371.8403015,171.8527985,374.3422546,173.2509918z M360.6947937,160.3842926
		c-7.5458984,1.6005859-14.3959961,6.2954102-18.4467773,13.5424805
		c-3.6098633,6.4550781-4.4882813,13.9294434-2.4741211,21.0454102c0.1005859,0.3537598,0.2363281,0.6901855,0.3491211,1.0378418
		l-12.168457,7.0256348c-1.9619141-4.8200684-3.0532227-10.0842285-3.0532227-15.6010742
		c0-20.9487305,15.6005859-38.3125,35.793457-41.1086426V160.3842926z M462.7133484,107.2700424
		c18.1347656,21.747551,29.0668945,49.7001877,29.0668945,80.1645432c0,29.7568359-10.4399414,57.1091309-27.824707,78.6318512
		l-49.0913086-49.0923004c5.2700195-8.6108398,8.3120117-18.7260742,8.3120117-29.5395508
		c0-11.53125-3.465332-22.2646484-9.3964844-31.2299805L462.7133484,107.2700424z M366.4135437,62.0686226
		c29.7563477,0,57.1079102,10.4399452,78.6308594,27.823246l-49.0908203,49.0922775
		c-8.6108398-5.2697754-18.7255859-8.3122559-29.5400391-8.3122559c-10.8139648,0-20.9282227,3.0424805-29.5400391,8.3117676
		l-49.0898438-49.091301C309.3056335,72.5085678,336.6576843,62.0686226,366.4135437,62.0686226z M270.1152039,107.2705307
		l48.9326172,48.9340744c-5.9311523,8.965332-9.3969727,19.6987305-9.3969727,31.2299805
		c0,10.8134766,3.0419922,20.9287109,8.3125,29.5395508l-49.0908203,49.0913239
		c-17.3838043-21.5222321-27.8237457-48.874527-27.8237457-78.6308746
		C241.0487823,156.9707184,251.9809113,129.0180817,270.1152039,107.2705307z"/>
	<path d="M551.7484741,344.7580872c-60.4970398-0.0012207-109.5409851,49.0405273-109.54245,109.5380859
		c-0.0014648,60.4972839,49.0405273,109.540741,109.5375671,109.5422058
		c60.4975586,0.0014648,109.5419922-49.0400391,109.5429688-109.537323
		C661.2880249,393.8034973,612.2460327,344.759552,551.7484741,344.7580872z M551.7450562,502.58255
		c-26.6665039-0.0007324-48.2836609-21.6186523-48.2831726-48.2851563
		c0.0004883-26.6669922,21.6191101-48.2839355,48.2851257-48.2832031
		c26.6665039,0.0004883,48.2836914,21.6184082,48.2832031,48.2856445
		C600.0297241,480.9658508,578.4110718,502.5830383,551.7450562,502.58255z"/>
	<circle cx="551.7460327" cy="454.2983704" r="16.2470703"/>
	<path d="M723.4066772,463.0735168c0.1464844-2.9055176,0.222168-5.829834,0.222168-8.7714844
		c0.0004883-2.9421387-0.0756836-5.8662109-0.2216797-8.7714844l-32.7094727-5.5957031
		c-0.6845703-6.7075195-1.8613281-13.2678223-3.4609375-19.6604004l28.8442383-16.4560547
		c-1.7241211-5.6188965-3.7148438-11.1208496-5.9833984-16.4780273l-32.6801758,5.9343262
		c-2.9262695-6.0148926-6.265625-11.7910156-9.9931641-17.284668l21.4536133-25.3010254
		c-3.5356445-4.6728516-7.3154297-9.1467285-11.300293-13.4291992l-28.6591797,16.7416992
		c-4.7739258-4.6252441-9.8710938-8.9106445-15.2636719-12.8220215l11.5107422-31.128418
		c-4.8984375-3.1787109-9.9667969-6.1101074-15.1918945-8.7866211l-21.1992188,25.527832
		c-6.0361328-2.7036133-12.2958984-4.9875488-18.7485352-6.8232422l0.1704102-33.182373
		c-5.6616211-1.2944336-11.4277344-2.3081055-17.2885742-3.0280762l-11.1938477,31.2490234
		c-3.2949219-0.232666-6.6103516-0.3933105-9.9643555-0.3933105c-3.3554688-0.0002441-6.6699219,0.1601563-9.9648438,0.3930664
		l-11.1918945-31.2497559c-5.8598633,0.7197266-11.6264648,1.732666-17.2890625,3.0273438l0.1694336,33.182373
		c-6.4535828,1.8354492-12.7128601,4.1191406-18.7489929,6.8222656l-21.1982422-25.5288086
		c-5.2255859,2.6762695-10.2939453,5.6074219-15.1923828,8.7861328l11.5097656,31.1289063
		c-5.3925781,3.9111328-10.4907227,8.1967773-15.2641602,12.8215332l-28.6586914-16.7431641
		c-3.9853516,4.2824707-7.7651367,8.7558594-11.3007813,13.4287109l21.4521484,25.3022461
		c-3.7275391,5.4936523-7.0673828,11.269043-9.9936523,17.2839355l-32.6801758-5.935791
		c-2.2685547,5.3571777-4.2597656,10.8586426-5.984375,16.4775391l28.8442383,16.4575195
		c-1.6010742,6.392334-2.7773438,12.9528809-3.4624023,19.6604004l-32.7099609,5.5942383
		c-0.1455078,2.9052734-0.2216797,5.8293457-0.2216797,8.7714844c0,2.9416504,0.0756836,5.8652344,0.2211914,8.7709961
		l32.7099609,5.5957031c0.6845703,6.7075195,1.8608398,13.2680664,3.4614258,19.6606445l-28.8447266,16.4560547
		c1.7241211,5.6191406,3.7148438,11.1203308,5.9833984,16.4779968l32.6806641-5.9345703
		c2.9257813,6.0146484,6.2661133,11.7907715,9.9926758,17.2844238l-21.4536133,25.3012695
		c3.5356445,4.6726074,7.3154297,9.1467285,11.300293,13.4289551l28.659668-16.7416992
		c4.7729492,4.6252441,9.8710938,8.9111328,15.2636719,12.8222656l-11.5112305,31.1286621
		c4.8984375,3.1784668,9.9663086,6.1101074,15.1918945,8.7861328l21.1992188-25.5275879
		c6.0361328,2.7036133,12.2954102,4.987793,18.7485046,6.822998l-0.1704102,33.1826172
		c5.6625977,1.2946777,11.4287109,2.3078613,17.2885742,3.0280762l11.1933594-31.2490234
		c3.2949219,0.2324219,6.6098633,0.3930664,9.965332,0.3933105c3.3535156,0,6.6689453-0.1601563,9.9643555-0.3928223
		l11.1918945,31.2495117c5.8608398-0.7197266,11.6274414-1.7331543,17.2890625-3.0275879l-0.1689453-33.182373
		c6.4526367-1.8349609,12.7124023-4.1186523,18.7490234-6.8222656l21.1977539,25.5288086
		c5.2250977-2.6765137,10.293457-5.6074219,15.1923828-8.7861328l-11.5097656-31.128418
		c5.3930664-3.9111328,10.4907227-8.1965332,15.2641602-12.8217773l28.6572266,16.7429199
		c3.9853516-4.2819824,7.7666016-8.7558594,11.3022461-13.4284668l-21.4521484-25.3022461
		c3.7275391-5.4934082,7.0673828-11.2695313,9.9936523-17.2839355l32.6801758,5.935791
		c2.269043-5.3574219,4.2597656-10.8588562,5.9838867-16.4777527l-28.8432617-16.4572754
		c1.6000977-6.3920898,2.7773438-12.9528809,3.4619141-19.6604004L723.4066772,463.0735168z M551.7435913,573.5800781
		c-65.7729187-0.0014648-119.2802429-53.5119629-119.2787781-119.2846375s53.5112305-119.2807617,119.2836609-119.2792969
		c65.7729492,0.0014648,119.2802734,53.5119629,119.2788086,119.284668S617.5160522,573.581543,551.7435913,573.5800781z"/>
	<path d="M471.1332703,667.2722168c-0.7763672-8.5466309-2.2460938-16.8942871-4.3793945-24.9787598l24.4038086-13.9233398
		c-1.8041992-5.8781738-3.8867188-11.6340332-6.2602539-17.2387695l-27.6899414,5.0288086
		c-3.6333008-7.6777344-7.8964844-14.9963379-12.7089844-21.9089355l18.1982422-21.4631348
		c-3.6992188-4.8884277-7.6533203-9.5690918-11.8222656-14.0493164l-24.2749023,14.1811523
		c-5.9916992-5.9423828-12.4892578-11.3669434-19.3920898-16.2578125l9.7578125-26.3876953
		c-5.125-3.3256836-10.4277344-6.3920898-15.8935547-9.1921387l-17.9506836,21.6162109
		c-7.6206055-3.529541-15.5742188-6.4482422-23.8081055-8.692627l0.1435547-28.0688171
		c-5.9233398-1.354248-11.9555664-2.4145508-18.0869141-3.1674805l-9.4648438,26.4250183
		c-4.1806641-0.345459-8.3959961-0.5671387-12.6640625-0.5671387c-4.2719727,0-8.4912109,0.2219238-12.675293,0.5678711
		l-9.4648438-26.4257507c-6.1303711,0.7529297-12.1630859,1.8127441-18.0874023,3.1672363l0.1435547,28.0710144
		c-8.2333984,2.2446289-16.1865234,5.1628418-23.8066559,8.6921387l-17.9516602-21.6176758
		c-5.4663086,2.8000488-10.769043,5.8664551-15.8935547,9.1921387l9.7578125,26.3884277
		c-6.902832,4.8908691-13.4003906,10.3156738-19.3920898,16.2575684l-24.2749023-14.1816406
		c-4.1694336,4.4802246-8.1235352,9.1608887-11.8222656,14.0493164l18.1982422,21.4631348
		c-4.8129883,6.9130859-9.0766602,14.2312012-12.7094727,21.9089355l-27.6894531-5.0288086
		c-2.3735352,5.6047363-4.456543,11.3601074-6.2607422,17.2387695l24.402832,13.9228516
		c-2.1328125,8.0849609-3.6025391,16.4326172-4.3789063,24.979248l-27.6889648,4.7363281
		c-0.152832,3.0395508-0.2329102,6.0986328-0.2329102,9.1765137c0,3.0776367,0.0800781,6.1364746,0.2329102,9.1760254
		l27.6894531,4.736084c0.7768555,8.546875,2.246582,16.894043,4.3798828,24.9787598l-24.4042969,13.9238281
		c1.8041992,5.878418,3.887207,11.6337891,6.2607422,17.2387695l27.690918-5.0290527
		c3.6333008,7.6772461,7.8964844,14.9951172,12.7089844,21.9077148l-18.1992188,21.4645996
		c3.6987305,4.8879395,7.652832,9.5688477,11.8222656,14.0490723l24.2763672-14.1821289
		c5.9916992,5.9414063,12.4882813,11.3662109,19.3911133,16.2568359l-9.7583008,26.3898926
		c5.1245117,3.3251953,10.4272461,6.3920898,15.8935547,9.1918945l17.9516602-21.6176758
		c7.6201324,3.5292969,15.5737457,6.447998,23.8066559,8.692627l-0.1435547,28.0703125
		c5.9243164,1.3544922,11.9570313,2.4145508,18.0874023,3.1677246l9.4648438-26.4250488
		c4.184082,0.3461914,8.4033203,0.567627,12.675293,0.567627c4.2680664,0,8.4838867-0.2214355,12.6645508-0.5668945
		l9.4643555,26.4243164c6.1313477-0.7531738,12.1635742-1.8132324,18.0869141-3.1677246l-0.1435547-28.0683594
		c8.2338867-2.2446289,16.1875-5.1635742,23.8081055-8.6933594l17.9506836,21.6164551
		c5.4658203-2.8000488,10.7685547-5.8666992,15.8935547-9.1921387l-9.7578125-26.3881836
		c6.9023438-4.8908691,13.3989258-10.3161621,19.390625-16.2580566l24.2749023,14.1818848
		c4.1694336-4.4802246,8.1245117-9.1606445,11.8237305-14.0490723l-18.1992188-21.4645996
		c4.8115234-6.9125977,9.074707-14.2304688,12.7080078-21.9077148l27.6918945,5.0290527
		c2.3735352-5.6049805,4.4560547-11.3605957,6.2602539-17.2390137l-24.4047852-13.9238281
		c2.1337891-8.0844727,3.6030273-16.4316406,4.3798828-24.9780273l27.6904297-4.7363281
		c0.152832-3.0395508,0.2319336-6.0986328,0.2319336-9.1762695c0-3.0778809-0.0791016-6.137207-0.2319336-9.177002
		L471.1332703,667.2722168z M331.6254578,554.2773438c37.5522461,3.6369629,70.3671875,23.6396484,91.2583008,52.7575684
		l-43.7387695,25.2529297c-11.7182617-14.3303223-28.4638672-24.3876953-47.5195313-27.4672852V554.2773438z
		 M306.8437195,554.2783203v50.5437012c-19.0566406,3.0817871-35.8012695,13.1384277-47.519043,27.4663086l-43.7387848-25.2529297
		C236.4765167,577.9196777,269.289032,557.9177246,306.8437195,554.2783203z M203.1615753,733.8916016
		c-7.3300781-16.0778809-11.4492188-33.9165039-11.4492188-52.7094727c0-18.7905273,4.1181641-36.6271973,11.4487305-52.7041016
		l43.7485352,25.2587891c-3.25,8.5356445-5.046875,17.7822266-5.046875,27.4453125
		c0,9.6645508,1.796875,18.9135742,5.0488281,27.4509277L203.1615753,733.8916016z M306.8437195,808.0922852
		c-37.5541992-3.6396484-70.3662262-23.6411133-91.2573395-52.7578125l43.7407379-25.2536621
		c11.7177734,14.3283691,28.4609375,24.3852539,47.5166016,27.467041V808.0922852z M266.901825,681.1821289
		c0-28.8530273,23.4736328-52.3266602,52.3388672-52.3266602c28.8530273,0,52.3266602,23.4736328,52.3266602,52.3266602
		c0,28.859375-23.4736328,52.3327637-52.3266602,52.3327637C290.3754578,733.5148926,266.901825,710.0415039,266.901825,681.1821289
		z M331.6254578,808.0932617v-50.543457c19.0541992-3.0805664,35.7988281-13.1384277,47.5166016-27.4682617l43.7412109,25.253418
		C401.9916687,784.4538574,369.1772156,804.4560547,331.6254578,808.0932617z M435.3075867,733.8916016l-43.75-25.2585449
		c3.2514648-8.5373535,5.0483398-17.786377,5.0483398-27.4509277c0-9.6630859-1.7958984-18.909668-5.0463867-27.4453125
		l43.7485352-25.2587891c7.3300781,16.0769043,11.4487305,33.9135742,11.4487305,52.7041016
		C446.7568054,699.9750977,442.6376648,717.8137207,435.3075867,733.8916016z"/>
</g>
</svg>
