<?xml version="1.0" encoding="utf-8"?>
<svg version="1.1" id="Livello_1" x="0px" y="0px" viewBox="0 0 864 864" style="enable-background:new 0 0 864 864;" xmlns="http://www.w3.org/2000/svg">
  <path d="M857.9910278,453.8414917c0.3617554-7.2054443,0.5480347-14.4567566,0.5480347-21.7539978 c0-7.2945251-0.1862793-14.5472107-0.5480347-21.752655l-81.119873-13.8749695 c-1.6981201-16.6354065-4.6164551-32.903656-8.585022-48.7588806l71.5333862-40.8110046 c-4.2763062-13.93573-9.2167358-27.579895-14.8401489-40.8663635l-81.0469971,14.7200012 c-7.2567139-14.9184265-15.5420532-29.2415619-24.78302-42.8654785l53.2025146-62.7485962 c-8.7685547-11.5883636-18.1445313-22.6826782-28.0280151-33.3032074l-71.0744019,41.5210266 c-11.8353882-11.4709167-24.4807129-22.0995483-37.8521729-31.7994843l28.5463867-77.1972656 c-12.1485596-7.884407-24.7182617-15.153286-37.6793823-21.79179l-52.5735474,63.3101234 c-14.96698-6.7033005-30.4901123-12.3672256-46.4938354-16.9188766l0.4211426-82.2929001 c-14.0437012-3.2112646-28.3438721-5.7246637-42.8762512-7.5091505l-27.7580872,77.4982758 c-8.1746216-0.5763779-16.3951111-0.9745789-24.7128296-0.9745789c-8.3204041,0-16.5409241,0.398201-24.7128296,0.9745789 L379.7999573,9.1480207c-14.5350647,1.7844868-28.8352356,4.2978859-42.8762817,7.507802l0.4211731,82.2942505 c-16.0036926,4.551651-31.526825,10.2155762-46.4965515,16.9188766l-52.5735016-63.3101234 c-12.9584503,6.638504-25.530838,13.907383-37.6766815,21.7904396l28.5463715,77.198616 c-13.3741913,9.6999359-26.0167847,20.3299103-37.8548584,31.7994843l-71.0744019-41.5210266 c-9.8835144,10.6205292-19.2567902,21.7148438-28.0253448,33.3032074l53.1998291,62.7485962 c-9.2409821,13.6252747-17.5235977,27.947052-24.7803268,42.8654785l-81.0469971-14.7200012 c-5.6261253,13.2864685-10.5638351,26.9306335-14.8401222,40.8650208L96.2556,347.7009888 c-3.9685287,15.8552246-6.886879,32.1234741-8.587677,48.7588806L6.550734,410.3362122 C6.1862779,417.541626,6,424.7929688,6,432.0874939c0,7.2972412,0.1862779,14.5485535,0.550734,21.7539978l81.1171875,13.875 c1.700798,16.6340637,4.6191483,32.9049988,8.587677,48.7575073l-71.5333405,40.8137207 c4.2762871,13.93573,9.2139969,27.5785522,14.8401222,40.8649902l81.0469971-14.7186279 c7.2567291,14.9157104,15.5393448,29.2401733,24.7803268,42.8654785L92.1898804,689.046814 c8.7685547,11.5883179,18.1418304,22.684021,28.0253448,33.3045654l71.0744019-41.5223999 c11.8380737,11.4695435,24.4806671,22.0982056,37.8548584,31.7981567l-28.5463715,77.1999512 c12.1458435,7.8830566,24.7182312,15.1532593,37.6766815,21.7890625l52.5735016-63.3101196 c14.9697266,6.7059937,30.4928589,12.3699341,46.4965515,16.9215698l-0.4211731,82.2915649 c14.0410461,3.2112427,28.341217,5.7233276,42.8762817,7.5091553l27.7580872-77.498291 c8.1719055,0.576416,16.3924255,0.9746094,24.7128296,0.9746094c8.3177185,0,16.5409241-0.3968506,24.7128296-0.9746094 l27.7580872,77.498291c14.5323792-1.7858276,28.83255-4.2992554,42.8762512-7.5091553l-0.4211426-82.2915649 c16.0037231-4.5516357,31.5268555-10.2155762,46.4938354-16.9215698l52.5735474,63.3101196 c12.9611206-6.637146,25.5308228-13.9060059,37.6793823-21.7890625l-28.5463867-77.1999512 c13.37146-9.6999512,26.0167847-20.3272095,37.8521729-31.796814l71.0744019,41.5210571 c9.8834839-10.6205444,19.2594604-21.7162476,28.0280151-33.3045654l-53.2025146-62.7472534 c9.2409668-13.6253052,17.5263062-27.9497681,24.78302-42.8654785l81.0469971,14.7186279 c5.6234131-13.286438,10.5638428-26.930603,14.8401489-40.8649902l-71.5333862-40.8137207 c3.9685669-15.8525085,6.8869019-32.1234436,8.585022-48.7575073L857.9910278,453.8414917z M685.805603,314.8297424 l-163.1063232,52.997345c-13.9114685-19.5213623-33.8998718-34.423584-57.2601624-41.7504883V154.7739868 C563.4697876,166.3812561,645.9071045,228.7100372,685.805603,314.8297424z M432.2654724,387.3565369 c24.6642456,0,44.728241,20.069397,44.728241,44.7336731c0,24.6642456-20.0639954,44.728241-44.728241,44.728241 s-44.728241-20.0639954-44.728241-44.728241C387.5372314,407.4259338,407.6012268,387.3565369,432.2654724,387.3565369z M399.0918579,154.7753448v171.3012543c-23.360321,7.3269043-43.3487244,22.229126-57.2601624,41.7504883l-163.0982666-52.997345 C218.6319427,228.712738,301.0638733,166.3852997,399.0918579,154.7753448z M152.9299164,432.0874939 c0-18.537323,1.8465729-36.6372986,5.2940674-54.1663208l163.0253754,52.9744263 c-0.0026855,0.4022522-0.0593872,0.7909851-0.0593872,1.1946106c0,24.7857056,8.2610168,47.6222839,22.0347595,66.1231689 L242.4349976,636.9416504C187.4047852,585.9231567,152.9299164,513.0480957,152.9299164,432.0874939z M432.270874,711.4284668 c-49.4634705,0-95.8898315-12.9085083-136.1878967-35.4602661l100.7627258-138.6931763 c11.141571,3.7619629,23.0255432,5.890686,35.4197693,5.890686s24.2808838-2.1300659,35.4224548-5.8920288l100.770874,138.694519 C528.15802,698.5213013,481.7343445,711.4284668,432.270874,711.4284668z M622.1067505,636.9416504l-100.8005371-138.730957 c13.7764282-18.500885,22.03479-41.3361206,22.03479-66.1204834c0-0.4022522-0.0567017-0.7923584-0.0593872-1.1932678 l163.0334473-52.975769c3.4475098,17.5290222,5.2967529,35.6289978,5.2967529,54.1663208 C711.6118164,513.0467529,677.1342773,585.9231567,622.1067505,636.9416504z" style="fill: rgb(1, 56, 70);"/>
</svg>