<?xml version="1.0" encoding="utf-8"?>
<!-- Generator: Adobe Illustrator 19.0.1, SVG Export Plug-In . SVG Version: 6.00 Build 0)  -->
<svg version="1.1" id="Livello_1" xmlns="http://www.w3.org/2000/svg" xmlns:xlink="http://www.w3.org/1999/xlink" x="0px" y="0px"
	 viewBox="0 0 864 864" style="enable-background:new 0 0 864 864;" xml:space="preserve">
<path d="M784.5114746,432.0881653c0-4.792572-0.1724854-9.5441284-0.3619995-14.2900391l70.3117676-15.9445801
	c-0.8173828-11.5904236-1.9713135-23.0874939-3.7022705-34.4021606l-72.237854,0.1004028
	c-1.7450562-9.4352417-3.8408203-18.740387-6.3184204-27.8956299l65.0822144-31.2315979
	c-3.3741455-11.0855713-7.2545776-21.9448547-11.491394-32.6259766l-70.2637329,16.1411743
	c-3.8040771-8.784729-7.9503784-17.3856201-12.4304199-25.7814636l56.4078369-44.8555756
	c-5.7556152-10.0263672-11.8647461-19.8208008-18.3925171-29.3097839l-64.9549561,31.3914185
	c-5.6481323-7.6901855-11.6271973-15.1116638-17.8664551-22.3097076l45.0804443-56.365387
	c-7.8259277-8.4849396-15.9884033-16.6474457-24.4733887-24.4705429l-56.3653564,45.0775986
	c-7.1980591-6.2392426-14.6195679-12.2182922-22.3096924-17.8664246l31.3914185-64.9535599
	c-9.4890137-6.5291519-19.2834473-12.638298-29.3098145-18.3939133l-44.854126,56.407814
	c-8.3972778-4.4814529-16.9981689-8.6249313-25.7828979-12.4304199l16.1411743-70.2637024
	c-10.6796875-4.2368088-21.5404053-8.1172485-32.6245728-11.4914227l-31.2330322,65.0822372
	c-9.1552124-2.4776001-18.4603577-4.5733795-27.8955994-6.3184433l0.1018066-72.2378616
	c-11.3160706-1.7295122-22.8131409-2.8848763-34.4035645-3.7022581L445.8100586,79.458725
	c-4.7459106-0.1894913-9.4946289-0.360611-14.2886047-0.360611c-4.7911682,0-9.5427246,0.1711197-14.2886353,0.360611
	L401.2868042,9.1483555c-11.5904236,0.8173819-23.0874939,1.9713316-34.4007263,3.7022581l0.098999,72.2378616
	c-9.4352417,1.7450638-18.740387,3.8408432-27.8956299,6.3184433l-31.2301941-65.0822372
	c-11.0869751,3.3741741-21.9448547,7.2517872-32.6245728,11.4914227l16.1383362,70.2637024
	c-8.784729,3.8040771-17.3856201,7.948967-25.7800293,12.4304199l-44.8570099-56.407814
	c-10.0263519,5.7556152-19.8179626,11.8619308-29.3097687,18.3925018l31.3914032,64.9549713
	c-7.6901703,5.6481323-15.1116486,11.627182-22.3097076,17.8664246l-56.365387-45.0775986
	c-8.4849243,7.8230972-16.6474304,15.9856033-24.4705353,24.4705429l45.0776062,56.365387
	c-6.2392578,7.1980438-12.2183075,14.6195221-17.8664398,22.3097076L81.931015,191.9929352
	c-6.530571,9.4889832-12.6397171,19.2820129-18.3953285,29.3097839l56.4078102,44.8555756
	c-4.4800415,8.3958435-8.6235123,16.9967346-12.4304199,25.7814636L37.2493744,275.798584
	c-4.2368088,10.6811218-8.1144218,21.5404053-11.488596,32.6259766l65.0822372,31.2301941
	c-2.480423,9.1552429-4.5762024,18.461792-6.3184433,27.8970337l-72.2406921-0.1004028
	c-1.7280979,11.3146667-2.8848763,22.8117371-3.7022581,34.4021606l70.3117828,15.9460144
	c-0.1894989,4.7458801-0.3620224,9.4960327-0.3620224,14.2886047s0.1725235,9.5427246,0.3620224,14.2886353L8.5816231,462.3228149
	c0.8173819,11.5903931,1.9741602,23.0874939,3.7022581,34.4007263l72.2406921-0.098999
	c1.7422409,9.4352417,3.8380203,18.740387,6.3184433,27.8955994l-65.0822372,31.2302246
	c3.3741741,11.0869751,7.2517872,21.9448853,11.488596,32.6259766l70.2637024-16.1397705
	c3.8069077,8.784729,7.9503784,17.3842163,12.4304199,25.7800293l-56.4078102,44.8570557
	c5.7556114,10.0263062,11.8647575,19.8193359,18.3953285,29.3097534l64.9521332-31.3914185
	c5.6481323,7.6901855,11.627182,15.1116333,17.8664398,22.3096924l-45.0776062,56.3654175
	c7.8231049,8.4849243,15.985611,16.6473999,24.4705353,24.47052l56.365387-45.0775757
	c7.1980591,6.2392578,14.6195374,12.2182617,22.3097076,17.866394l-31.3914032,64.9535522
	c9.491806,6.5305786,19.2834167,12.6383057,29.3097687,18.3939209l44.8570099-56.4077759
	c8.3944092,4.4800415,16.9953003,8.6248779,25.7800293,12.4304199l-16.1383362,70.2636719
	c10.679718,4.2382202,21.5375977,8.1158447,32.6245728,11.4899902l31.2301941-65.0822144
	c9.1552429,2.4790039,18.4603882,4.5747681,27.8956299,6.3184204l-0.098999,72.2393188
	c11.3132324,1.7294922,22.8103027,2.8848877,34.4007263,3.7022705l15.9460144-70.3118286
	c4.7459106,0.1895142,9.497467,0.3620605,14.2886353,0.3620605c4.7939758,0,9.5426941-0.1725464,14.2886047-0.3620605
	l15.9460144,70.3118286c11.5904236-0.8173828,23.0874939-1.9741821,34.4035645-3.7036743l-0.1018066-72.237915
	c9.4352417-1.7436523,18.740387-3.8394165,27.8955994-6.3184204l31.2330322,65.0822144
	c11.0841675-3.3741455,21.9448853-7.2531738,32.6245728-11.4899902l-16.1411743-70.2651367
	c8.784729-3.805481,17.3856201-7.9489136,25.7828979-12.4289551l44.854126,56.4077759
	c10.0263672-5.7556152,19.8208008-11.8647461,29.3098145-18.3953247l-31.3914185-64.9521484
	c7.6901245-5.6481323,15.1116333-11.6286011,22.3096924-17.866394l56.3653564,45.0775757
	c8.4849854-7.8231201,16.6474609-15.9855957,24.4733887-24.47052l-45.0804443-56.3654175
	c6.2392578-7.1980591,12.2183228-14.6209106,17.8664551-22.3096924l64.9549561,31.3914185
	c6.5305786-9.4904175,12.6369019-19.2834473,18.3925171-29.3097534l-56.4078369-44.8570557
	c4.4800415-8.395813,8.6263428-16.9953003,12.4304199-25.7800293l70.2637329,16.1397705
	c4.239624-10.6810913,8.1172485-21.5390015,11.491394-32.6259766l-65.0822144-31.2302246
	c2.4776001-9.1552124,4.5733643-18.4603577,6.3184204-27.8955994l72.237854,0.098999
	c1.730957-11.3132324,2.8848877-22.8103333,3.7022705-34.4007263l-70.3117676-15.9460144
	C784.3389893,441.6308899,784.5114746,436.8807373,784.5114746,432.0881653z M725.5610352,403.1234436H544.0994873
	c-10.5326538-40.8945313-42.7159729-73.0750427-83.6105042-83.6105042V138.048584
	C600.5412598,151.6810303,711.9313965,263.0711975,725.5610352,403.1234436z M384.6676636,432.0853577
	c0-25.839447,21.019989-46.8594666,46.859436-46.8594666s46.859436,21.0200195,46.859436,46.8594666
	c0,25.8394165-21.019989,46.8650818-46.859436,46.8650818S384.6676636,457.9247742,384.6676636,432.0853577z
	 M402.5652161,138.048584v181.4643555c-40.8945618,10.5354614-73.0778809,42.7159729-83.6105042,83.6105042H137.4846802
	C151.1143036,263.0683594,262.5072937,151.6753845,402.5652161,138.048584z M137.4846802,461.0472412h181.4700317
	c10.5326233,40.8973694,42.7131348,73.0806885,83.6105042,83.6161499v181.4643555
	C262.5072937,712.4981079,151.1114807,601.1051636,137.4846802,461.0472412z M460.4889832,726.1263428V544.6633911
	c40.8973694-10.5354614,73.0778503-42.7187805,83.6105042-83.6161499h181.4615479
	C711.9313965,601.1022949,600.5412598,712.4953003,460.4889832,726.1263428z"/>
</svg>
