<?xml version="1.0" encoding="utf-8"?>
<svg version="1.1" id="Livello_1" x="0px" y="0px" viewBox="0 0 864 864" style="enable-background:new 0 0 864 864;" xmlns="http://www.w3.org/2000/svg">
  <path d="M783.7817993,432.0881653c0-4.7911377-0.175354-9.5427246-0.3619995-14.2886047l70.3117676-15.9460144 c-0.8201904-11.5904236-1.9741211-23.0874939-3.7050781-34.4007568l-72.237854,0.098999 c-1.7450562-9.4338074-3.8380127-18.740387-6.3184204-27.8956299l65.0822144-31.2301941 c-3.3741455-11.0869751-7.25177-21.9448547-11.4885864-32.625946l-70.2665405,16.13974 c-3.8040771-8.784729-7.9475708-17.3842163-12.4276123-25.7800598l56.4078369-44.8569794 c-5.7584229-10.0263672-11.8676147-19.8193817-18.3953247-29.3097839l-64.9549561,31.3914185 c-5.6453247-7.6901855-11.6243896-15.1116638-17.8636475-22.3097076l45.0776367-56.365387 c-7.8231201-8.4849396-15.9855957-16.6474457-24.47052-24.4705429l-56.3682251,45.0775986 c-7.1952515-6.2378387-14.6166992-12.2182922-22.3097534-17.8664246l31.3942871-64.9521408 c-9.4918213-6.530571-19.2834473-12.6397171-29.3126221-18.3953323l-44.8513184,56.407814 c-8.4000854-4.4800415-16.9981689-8.6235123-25.7828979-12.4290085l16.1383667-70.2651215 c-10.6797485-4.2368088-21.5404663-8.1158352-32.6245728-11.4900093l-31.2330322,65.0822372 c-9.1524048-2.4790115-18.45755-4.574791-27.8927917-6.3184433l0.098999-72.2378616 c-11.3160706-1.7295113-22.8103333-2.8862896-34.4007568-3.7036715L445.0803833,79.460144 c-4.7458801-0.1894989-9.497467-0.36203-14.2886047-0.36203c-4.7940063,0-9.5427246,0.1725311-14.2886353,0.36203 L400.5571289,9.1483555c-11.5903931,0.8173819-23.0903015,1.9727459-34.4035645,3.7022581l0.1018372,72.2392731 c-9.4352417,1.7436523-18.740387,3.8394318-27.898468,6.3184433l-31.2301941-65.0822372 c-11.0869751,3.3741741-21.9420166,7.2517853-32.6245422,11.4900093l16.1411743,70.2637024 c-8.7847595,3.8054886-17.3884583,7.9503784-25.7828979,12.4304199l-44.8569794-56.407814 c-10.0235443,5.7556152-19.8179779,11.8633499-29.3069611,18.3939133l31.3885956,64.9535599 c-7.6873474,5.6481323-15.1088409,11.627182-22.3097076,17.8664246l-56.3625641-45.0775986 c-8.4849396,7.8230972-16.647438,15.9856033-24.4705429,24.4705429l45.0775986,56.365387 c-6.2392426,7.1980438-12.2182922,14.6195221-17.8692627,22.3097076l-64.9493027-31.3914185 c-6.5333939,9.4904022-12.6425476,19.2834167-18.3953285,29.3097839l56.4078102,44.8569794 c-4.4800415,8.3958435-8.6263428,16.9953308-12.4332504,25.7800598l-70.2608719-16.13974 c-4.2368088,10.6810913-8.1172504,21.5389709-11.4914246,32.625946l65.0822372,31.2301941 c-2.4775925,9.1552429-4.5762024,18.4603882-6.3184433,27.8956299l-72.2406921-0.098999 c-1.7280979,11.3132629-2.8848763,22.8103333-3.69943,34.4007568l70.3117828,15.9460144 c-0.1923218,4.7458801-0.3620224,9.497467-0.3620224,14.2886047c0,4.7940063,0.1697006,9.5441284,0.3620224,14.2900391 L7.8519559,462.3228149c0.8145537,11.5903931,1.9713321,23.0874939,3.69943,34.4021301l72.2406921-0.1004028 c1.7422409,9.4352417,3.8408508,18.740387,6.3184433,27.8970642L25.0282822,555.75177 c3.3741741,11.0855713,7.2517853,21.9434814,11.4914246,32.6259766l70.2608719-16.1411743 c3.8069077,8.784729,7.9532089,17.3856201,12.4332504,25.7814941l-56.4078102,44.8555908 c5.7527809,10.0263062,11.8619347,19.8207397,18.392498,29.3097534l64.9521332-31.3914185 c5.6509705,7.6901855,11.6300201,15.1116333,17.8692627,22.3096924l-45.0775986,56.3654175 c7.8231049,8.4849243,15.9856033,16.6473999,24.4705429,24.47052l56.3625641-45.0775757 c7.2008667,6.2392578,14.6223602,12.2196655,22.3097076,17.866394l-31.3885956,64.9549561 c9.4889832,6.5305786,19.2834167,12.6369019,29.3069611,18.3925171l44.8569794-56.4077759 c8.3944397,4.4814453,16.9981384,8.6263428,25.7828979,12.4304199l-16.1411743,70.2636719 c10.6825256,4.239624,21.5375671,8.1172485,32.6245422,11.4914551l31.2301941-65.0822754 c9.1580811,2.4776001,18.4632263,4.5733643,27.898468,6.3184814l-0.1018372,72.237854 c11.3132629,1.730896,22.8131714,2.8848877,34.4035645,3.7022705l15.9460144-70.3104248 c4.7459106,0.1895142,9.4946289,0.3606567,14.2886353,0.3606567c4.7911377,0,9.5427246-0.1711426,14.2886047-0.3606567 l15.9460144,70.3104248c11.5904236-0.8173828,23.0846863-1.9727783,34.4007568-3.7022705l-0.098999-72.237854 c9.4352417-1.7451172,18.740387-3.8408813,27.8927917-6.3184814l31.2330322,65.0822754 c11.0841064-3.3742065,21.9448242-7.2546387,32.6245728-11.4914551l-16.1383667-70.2636719 c8.784729-3.8069458,17.3828125-7.9489746,25.7828979-12.4304199l44.8513184,56.4077759 c10.0291748-5.7556152,19.8208008-11.8647461,29.3126221-18.3939209l-31.3942871-64.9535522 c7.6930542-5.6481323,15.114502-11.6271362,22.3097534-17.866394l56.3682251,45.0775757 c8.4849243-7.8231201,16.6473999-15.9855957,24.47052-24.47052l-45.0776367-56.3654175 c6.2392578-7.1980591,12.2183228-14.6195068,17.8636475-22.3096924l64.9549561,31.3914185 c6.5305786-9.4890137,12.6369019-19.2834473,18.3953247-29.3097534l-56.4078369-44.8555908 c4.4800415-8.395874,8.6235352-16.9967651,12.4276123-25.7814941l70.2665405,16.1411743 c4.2368164-10.6824951,8.1144409-21.5404053,11.4885864-32.6259766l-65.0822144-31.2316284 c2.4804077-9.1552124,4.5733643-18.4603577,6.3184204-27.8955994l72.237854,0.1004028 c1.730957-11.3146362,2.8848877-22.8117371,3.7050781-34.4021301l-70.3117676-15.9446106 C783.6064453,441.6322937,783.7817993,436.8821716,783.7817993,432.0881653z M430.7917786,705.7583008 c-84.4363708,0-160.0427551-38.456543-210.2848511-98.7532959l141.1750793-81.5090942 c19.354126,14.3579712,43.2165833,22.9630737,69.1097717,22.9630737c25.893158,0,49.7556152-8.6051025,69.1097412-22.9630737 l141.1750793,81.5090942C590.8345337,667.3017578,515.2281494,705.7583008,430.7917786,705.7583008z M687.5372925,526.8195801 l-141.1835938-81.5133057c0.4949341-4.3442688,0.8060303-8.7408752,0.8060303-13.215271 c0-47.6994629-28.8685303-88.7410583-70.0289307-106.6895142V162.4229584 c128.8945923,22.0876923,227.3282471,134.5653229,227.3282471,269.6680298 C704.4590454,465.3773804,698.468689,497.286377,687.5372925,526.8195801z M430.7917786,385.2258911 c25.839447,0,46.859436,21.0256653,46.859436,46.8651123s-21.019989,46.859436-46.859436,46.859436 s-46.859436-21.019989-46.859436-46.859436S404.9523315,385.2258911,430.7917786,385.2258911z M384.4527283,162.4229584v162.9785309 c-41.1603699,17.9484558-70.0289307,58.9900513-70.0289307,106.6895142c0,4.4743958,0.3110962,8.8710022,0.8060608,13.215271 l-141.1835785,81.5133057c-10.931427-29.5332031-16.9217834-61.4421997-16.9217834-94.7285767 C157.1244965,296.9882813,255.5581665,184.5106506,384.4527283,162.4229584z" style="fill: rgb(236, 125, 0);"/>
</svg>