<?xml version="1.0" encoding="utf-8"?>
<!-- Generator: Adobe Illustrator 19.0.1, SVG Export Plug-In . SVG Version: 6.00 Build 0)  -->
<svg version="1.1" id="Livello_1" xmlns="http://www.w3.org/2000/svg" xmlns:xlink="http://www.w3.org/1999/xlink" x="0px" y="0px"
	 viewBox="0 0 864 864" style="enable-background:new 0 0 864 864;" xml:space="preserve">
<path d="M855.2423096,453.9372864c0.3605347-7.1593933,0.5482178-14.3656921,0.5482178-21.615509
	c0-7.2492371-0.1876831-14.4549866-0.5482178-21.615509l-78.4144287-13.412262
	c-1.7191772-17.0325928-4.7019653-33.6948853-8.8064575-49.9154053l69.1650391-39.4618835
	c-4.2487183-13.8466187-9.1555786-27.4042358-14.7468872-40.6064758l-78.4304199,14.2443848
	c-7.4066162-15.2561951-15.9074707-29.8828583-25.3880615-43.7930145l51.5246582-60.7695007
	c-8.7125854-11.5145264-18.026062-22.5391846-27.8477783-33.0922699l-68.8353882,40.2133179
	c-12.0787964-11.7423096-25.0046387-22.6027222-38.6824341-32.4999542l27.6452026-74.7620621
	c-12.0719604-7.8335495-24.5617065-15.0558853-37.4382935-21.6521339l-50.8779907,61.2691154
	c-15.2985229-6.9001389-31.1773682-12.7123413-47.5529785-17.3553543l0.4074707-79.5882187
	c-13.951355-3.1905346-28.161377-5.6880207-42.6048889-7.4615564l-26.8302612,74.9097214
	c-8.368042-0.6077805-16.7876282-1.0244064-25.3079224-1.0244064c-8.519165,0-16.9387207,0.416626-25.3067932,1.0244064
	l-26.8313904-74.9097214c-14.440094,1.7735357-28.6489868,4.2704496-42.6037903,7.460412l0.4074707,79.5887909
	c-16.376709,4.6435852-32.254425,10.4557877-47.552948,17.3553543l-50.8791504-61.2685432
	c-12.8754425,6.5951042-25.3663025,13.8185844-37.4371185,21.6521339l27.644043,74.7603531
	c-13.6777954,9.8977966-26.6047516,20.7582092-38.6824188,32.5010834l-68.8354034-40.212738
	c-9.820549,10.5530853-19.1340485,21.5777435-27.8477783,33.0922699l51.5235291,60.7672119
	c-9.4805908,13.9113007-17.9814377,28.5385284-25.3880539,43.7941437l-78.4293213-14.2432251
	c-5.5901566,13.20224-10.4958534,26.7592773-14.7457008,40.605896l69.1627502,39.4601746
	c-4.105629,16.2216492-7.0884247,32.8851013-8.8075943,49.9188538L9.1998215,410.707428
	c-0.3593998,7.1593628-0.5471125,14.3651123-0.5471125,21.6143494c0,7.2498169,0.1877127,14.4549866,0.5471125,21.615509
	l78.4110031,13.412262c1.7191696,17.0337219,4.7019653,33.6965942,8.8075943,49.9176636l-69.1627502,39.4607544
	c4.2498474,13.847229,9.1555443,27.4036865,14.7457008,40.6065063l78.4293213-14.2443848
	c7.4066162,15.2561646,15.9074631,29.8839722,25.3880539,43.7952881l-51.5235291,60.7666626
	c8.7137299,11.513916,18.0272293,22.5397339,27.8477783,33.0928345l68.834259-40.2127686
	c12.0788116,11.7423096,25.0057678,22.6027222,38.6835632,32.5005493l-27.644043,74.7609253
	c12.070816,7.8329468,24.561676,15.0564575,37.4371185,21.6515503l50.8791504-61.2680054
	c15.2985229,6.8995972,31.176239,12.711792,47.552948,17.3547974l-0.4074707,79.5881958
	c13.9548035,3.1905518,28.1636963,5.6875,42.6037903,7.4616089l26.8313904-74.909729
	c8.3680725,0.6077271,16.7876282,1.0244141,25.3067932,1.0244141c8.5202942,0,16.9398804-0.416687,25.3079224-1.0244141
	l26.8302612,74.909729c14.443512-1.7741089,28.6535339-4.2716064,42.6048889-7.4616089l-0.4074707-79.5887451
	c16.3756104-4.6430054,32.2544556-10.4552612,47.5529785-17.3553467l50.8779907,61.269104
	c12.8765869-6.5957031,25.366333-13.8186035,37.4382935-21.65271l-27.6452026-74.7609253
	c13.6777954-9.8978271,26.6047363-20.7576294,38.6824341-32.5005493l68.8331299,40.2139282
	c9.8205566-10.5531006,19.1374512-21.5777588,27.8500366-33.0928345l-51.5246582-60.7689819
	c9.4805908-13.9112549,17.9814453-28.5379639,25.3880615-43.7929688l78.4304199,14.2443848
	c5.5913086-13.2028198,10.4981689-26.760437,14.7468872-40.6070557l-69.1650391-39.4613647
	c4.1044922-16.2210388,7.0872803-32.882782,8.8064575-49.9159546L855.2423096,453.9372864z M296.6877747,432.3217773
	c0,14.3771362,2.2708435,28.2289124,6.4360046,41.2405701c-45.4354858,26.1045837-90.5333252,52.3762512-135.8646393,79.1498718
	c-16.7464447-36.7091675-26.088562-77.4782104-26.088562-120.3904419
	c0-151.0933533,115.7371063-275.6483765,263.2089844-289.7095947c0.524231,52.5605316,0.7313843,104.6483459,0.6226501,156.9238892
	C343.2701416,312.1723022,296.6877747,366.9086914,296.6877747,432.3217773z M432.2204895,352.1137695
	c44.2290955,0,80.2079773,35.981781,80.2079773,80.2080078c0,44.2285156-35.9788818,80.2097168-80.2079773,80.2097168
	c-44.2279358,0-80.2080078-35.9812012-80.2080078-80.2097168
	C352.0124817,388.0955505,387.9925537,352.1137695,432.2204895,352.1137695z M330.4393311,521.6744385
	c24.8581238,28.2816162,61.2582397,46.182312,101.7811584,46.182312c39.6667786,0,75.4064636-17.1304321,100.2142029-44.380127
	c45.2969971,26.2774048,90.5894165,52.1885376,136.4506836,78.06073
	c-52.855835,73.713623-139.2423096,121.8337402-236.6648865,121.8337402
	c-97.8186035,0-184.5221405-48.5081177-237.3184662-122.7310791
	C240.1257629,573.9265137,285.1137085,547.7166138,330.4393311,521.6744385z M560.550293,475.826355
	c4.645874-13.6663818,7.2040405-28.2878723,7.2040405-43.5045776c0-65.0966187-46.1382446-119.6040955-107.426239-132.5831299
	c0.1087341-52.3556366-0.09729-104.521286-0.621521-157.1585083
	c147.6412659,13.8952637,263.561554,138.526947,263.561554,289.7416382c0,43.3048401-9.5206909,84.4223633-26.5567017,121.3925171
	C650.9462891,527.8969727,605.7489014,502.04422,560.550293,475.826355z"/>
</svg>
