<?xml version="1.0" encoding="utf-8"?>
<!-- Generator: Adobe Illustrator 19.0.1, SVG Export Plug-In . SVG Version: 6.00 Build 0)  -->
<svg version="1.1" id="Livello_1" xmlns="http://www.w3.org/2000/svg" xmlns:xlink="http://www.w3.org/1999/xlink" x="0px" y="0px"
	 viewBox="0 0 864 864" style="enable-background:new 0 0 864 864;" xml:space="preserve">
<path d="M791.1820068,431.5772705c0-5.2201233-0.1735229-10.3995361-0.3953857-15.566864L856,401.2222595
	c-0.8209839-11.6355591-1.979248-23.1782837-3.717041-34.5368958l-67.059021,0.092804
	c-1.8773804-10.2750244-4.1743164-20.398407-6.9081421-30.3512573l60.4368896-29.0013123
	c-3.3872681-11.1299744-7.2801514-22.032074-11.5336914-32.7545776l-65.2616577,14.9911194
	c-4.1207275-9.5604553-8.6323242-18.9126587-13.5370483-28.0256348l52.4082031-41.6766815
	c-5.777771-10.0660248-11.9109497-19.8981323-18.4674683-29.4261475l-60.4111938,29.1967468
	c-6.118103-8.3682251-12.6044312-16.4406738-19.4046631-24.2414551l41.9256592-52.4248352
	c-7.8535767-8.5176392-16.0482788-16.712326-24.5666504-24.5674515l-52.4241333,41.926445
	c-7.8007813-6.8009949-15.87323-13.2873077-24.2421875-19.4054108l29.1967773-60.4112473
	c-9.5272827-6.5557404-19.3601685-12.6889267-29.425415-18.4667053l-41.6744385,52.4082336
	c-9.114502-4.9054947-18.4666748-9.4178467-28.0286255-13.5385818l14.9918823-65.2593994
	c-10.7247925-4.2542915-21.6253662-8.1494064-32.7561035-11.5359364L526.5405884,84.650238
	c-9.9520874-2.7330704-20.0754395-5.0307541-30.3504944-6.9081345l0.0920715-67.0560379
	c-11.3578796-1.7370319-22.8998413-2.8975673-34.5361328-3.7177901l-14.7896729,65.2111053
	c-5.1650696-0.2218475-10.3429565-0.395401-15.5615845-0.395401c-5.2201538,0-10.3995667,0.1743088-15.5668945,0.395401
	L401.0382385,6.9682765c-11.636322,0.8202229-23.1790466,1.9807582-34.5368958,3.7177901l0.092041,67.0567932
	c-10.2742615,1.8781357-20.397644,4.1750641-30.3504944,6.9081345l-29.0005798-60.4369125
	c-11.1307068,3.3865299-22.031311,7.2801361-32.756073,11.5344296l14.9918823,65.2616577
	c-9.5612183,4.1207352-18.9141541,8.6323318-28.0286865,13.5385818l-41.673645-52.408989
	c-10.0660248,5.7777786-19.8996429,11.9094543-29.4253845,18.4651947l29.1959991,60.4127579
	c-8.3682404,6.118103-16.4406738,12.6044159-24.2414703,19.4054108l-52.4248352-41.926445
	c-8.5191498,7.8536148-16.713829,16.0498123-24.5674362,24.5674515l41.9271927,52.4248352
	c-6.8009949,7.8000336-13.2880707,15.87323-19.4061584,24.2414551l-60.4104996-29.1967468
	c-6.5564957,9.5280151-12.689682,19.3586121-18.4682159,29.4253845l52.4097443,41.6766815
	c-4.9054947,9.1130066-9.4170914,18.4651794-13.5378265,28.0263977L35.565239,274.6710205
	c-4.2535381,10.7225037-8.1494083,21.6246033-11.5366936,32.7545776L84.46772,336.4276733
	c-2.7330704,9.9520874-5.0307541,20.07547-6.9081345,30.3504944l-67.0583038-0.092804
	c-1.7377853,11.3586121-2.896812,22.9013367-3.7170348,34.5368958l65.2126083,14.7896423
	c-0.2218399,5.1665955-0.3953934,10.3452454-0.3953934,15.5653687c0,5.2201538,0.1735535,10.3980408,0.3946457,15.5638733
	L6.7842488,461.9308167c0.8202229,11.6355286,1.9792495,23.1775208,3.7170348,34.5368652l67.0583038-0.0935669
	c1.8773804,10.274292,4.1743088,20.3976746,6.9073792,30.3504944L24.0285454,555.727478
	c3.3872852,11.128479,7.2801361,22.0305786,11.5366936,32.7530518l65.2609024-14.9903564
	c4.1199799,9.5619507,8.6323395,18.9141235,13.5370712,28.0278931l-52.4082336,41.6751709
	c5.7785339,10.06604,11.908699,19.8973999,18.4652023,29.425415l60.4127655-29.1960449
	c6.1180878,8.3682251,12.6051636,16.4414673,19.4053955,24.2415161l-41.9256821,52.4240723
	c7.8536072,8.5183716,16.0482864,16.7130737,24.5674362,24.5674438l52.4240875-41.9257202
	c7.8000336,6.8010254,15.8739777,13.2873535,24.242218,19.4053955l-29.1959991,60.4112549
	c9.5257416,6.557251,19.3593597,12.687439,29.4253845,18.4659424l41.673645-52.4082031
	c9.1145325,4.9055176,18.4674683,9.4171143,28.0286865,13.5385742l-14.9918823,65.2601318
	c10.724762,4.2557983,21.6253662,8.1479492,32.756073,11.5359497l29.0013428-60.4368896
	c9.9520874,2.7322998,20.07547,5.0299683,30.3497314,6.9073486l-0.092041,67.0575562
	c11.3578491,1.7370605,22.9005737,2.8960571,34.5368958,3.717041l14.7896423-65.2111206
	c5.1673279,0.2211304,10.3467407,0.3946533,15.5668945,0.3946533c5.2186279,0,10.3965149-0.1735229,15.5615845-0.3938599
	l14.7896729,65.2103271c11.6362915-0.8209839,23.1782532-1.9815063,34.5361328-3.7185669l-0.0920715-67.0552368
	c10.2750549-1.8773804,20.398407-4.1750488,30.3504944-6.9081421l29.0013428,60.4368896
	c11.1307373-3.3880005,22.031311-7.2816162,32.7561035-11.5359497l-14.9918823-65.2601318
	c9.5619507-4.1199951,18.9141235-8.6323242,28.0294189-13.5378418l41.673645,52.4074707
	c10.0652466-5.7785034,19.8981323-11.9101563,29.425415-18.4659424l-29.1960449-60.4104614
	c8.3682251-6.118103,16.4414673-12.605957,24.2414551-19.4069214l52.4241333,41.9264526
	c8.5183716-7.8543701,16.7130737-16.0490723,24.5666504-24.5674438l-41.9249268-52.4240723
	c6.8009644-7.8008423,13.2872925-15.8740234,19.4053955-24.2422485l60.4127808,29.1967773
	c6.5534668-9.5280151,12.6866455-19.3601685,18.4644165-29.4261475l-52.4082031-41.6751709
	c4.9047241-9.1137695,9.4171143-18.4659424,13.5378418-28.0271606l65.2608643,14.9903564
	c4.25354-10.7224731,8.1464233-21.6231079,11.5336914-32.7530518l-60.4361572-29.0013428
	c2.7330933-9.9528198,5.0300293-20.0769653,6.9074097-30.3520203l67.059021,0.0935669
	c1.737793-11.3593445,2.8960571-22.9013367,3.717041-34.5368652l-65.2125854-14.7896729
	C791.0084839,441.9753113,791.1820068,436.7974243,791.1820068,431.5772705z M527.2634888,573.2275391
	c-11.2084351-12.6904297-10.6712036-31.5140381,1.3612671-43.4257813c0.3319702-0.3289795,0.6624756-0.6594849,0.9915161-0.9922485
	c11.9116821-12.0316772,30.7352905-12.5689697,43.4249878-1.3604736
	c22.5323486,19.9019165,52.0935669,32.0045166,84.4542847,32.0045166c13.5913696,0,26.6741943-2.1746826,38.97229-6.1210938
	c-29.1296387,63.1669312-80.1554565,114.1912842-143.3209229,143.3208618
	c3.9464111-12.2980347,6.1210938-25.3808594,6.1210938-38.972229
	C559.2680054,625.3203735,547.1646118,595.7591553,527.2634888,573.2275391z M553.1469116,166.4981995
	c63.1654663,29.1311188,114.1882935,80.1554565,143.319397,143.3208923
	c-12.2980347-3.9464111-25.3793945-6.1210938-38.9707642-6.1210938c-32.3621826,0-61.9226685,12.103363-84.4534912,32.0052795
	c-12.6904907,11.209198-31.5140991,10.6719666-43.4257813-1.3605042c-0.3297729-0.3320007-0.6610107-0.663269-0.993042-0.9922485
	c-12.0316772-11.9117126-12.5689697-30.7353516-1.3604736-43.4250183
	c19.9018555-22.5316162,32.005249-52.0928345,32.005249-84.4550323
	C559.2680054,191.8790741,557.0933228,178.7962646,553.1469116,166.4981995z M657.4955444,491.4573059
	c-33.0202026,0-59.8830566-26.862854-59.8830566-59.8800354c0-33.0201721,26.862854-59.8830261,59.8830566-59.8830261
	s59.8830566,26.862854,59.8830566,59.8830261C717.3786011,464.5944519,690.5157471,491.4573059,657.4955444,491.4573059z
	 M431.3947754,501.8885498c-38.7730713,0-70.3143005-31.5412292-70.3143005-70.3112793s31.5412292-70.31427,70.3143005-70.31427
	c38.7670288,0,70.3082581,31.54422,70.3082581,70.31427S470.1618042,501.8885498,431.3947754,501.8885498z M491.2717896,657.6810913
	c0,33.0201416-26.8628845,59.8830566-59.8770142,59.8830566c-33.0202026,0-59.8830566-26.862915-59.8830566-59.8830566
	c0-33.0202026,26.862854-59.8830566,59.8830566-59.8830566C464.408905,597.7980347,491.2717896,624.6608887,491.2717896,657.6810913
	z M371.5117188,205.4704742c0-33.0171661,26.862854-59.8800354,59.8830566-59.8800354
	c33.0141296,0,59.8770142,26.8628693,59.8770142,59.8800354c0,33.0201874-26.8628845,59.8830414-59.8770142,59.8830414
	C398.3745728,265.3535156,371.5117188,238.4906616,371.5117188,205.4704742z M309.6365967,696.6533203
	c-63.1669617-29.1311035-114.1913147-80.1554565-143.3209076-143.3208618
	c12.2980499,3.9464111,25.3808746,6.1210938,38.9722748,6.1210938c32.3614349,0,61.9219055-12.1026001,84.4535217-32.0045166
	c12.6904297-11.2084961,31.5132751-10.6712036,43.4257507,1.3604736c0.32901,0.3327637,0.6595154,0.663269,0.9922791,0.9922485
	c12.0332031,11.9117432,12.5704651,30.736145,1.3612366,43.4257813
	c-19.901886,22.5316162-32.0052795,52.0928345-32.0052795,84.4535522
	C303.5154724,671.2724609,305.690155,684.3552856,309.6365967,696.6533203z M145.4049072,431.5772705
	c0-33.0201721,26.862854-59.8830261,59.8830566-59.8830261s59.8830566,26.862854,59.8830566,59.8830261
	c0,33.0171814-26.8628693,59.8800354-59.8830566,59.8800354S145.4049072,464.5944519,145.4049072,431.5772705z
	 M334.1610107,333.349762c-0.3327637,0.3297424-0.6640015,0.6610107-0.9937744,0.9937744
	c-11.9117126,12.0324402-30.735321,12.5689392-43.4257507,1.3605042
	c-22.5316162-19.9026794-52.0920868-32.0060425-84.4535217-32.0060425c-13.5914001,0-26.6727142,2.1746826-38.9707794,6.1195984
	c29.1311188-63.1639404,80.1539459-114.1867676,143.3194122-143.3178864
	c-3.9464417,12.2980652-6.1211243,25.379364-6.1211243,38.9707642c0,32.3614502,12.1033936,61.9219208,32.0060425,84.4535065
	C346.7299805,302.6144409,346.1934814,321.4380493,334.1610107,333.349762z"/>
</svg>
