<?xml version="1.0" encoding="utf-8"?>
<!-- Generator: Adobe Illustrator 19.0.1, SVG Export Plug-In . SVG Version: 6.00 Build 0)  -->
<svg version="1.1" id="Livello_1" xmlns="http://www.w3.org/2000/svg" xmlns:xlink="http://www.w3.org/1999/xlink" x="0px" y="0px"
	 viewBox="0 0 864 864" style="enable-background:new 0 0 864 864;" xml:space="preserve">
<g>
	<path d="M431.520874,159.984436c-150.4085083,0-272.3388062,121.9302979-272.3388062,272.3393555
		c0,150.4085083,121.9302826,272.3376465,272.3388062,272.3376465s272.3399048-121.9291382,272.3399048-272.3376465
		C703.8607788,281.9147339,581.9293823,159.984436,431.520874,159.984436z M431.520874,552.3668823
		c-66.2975769,0-120.0442505-53.7455139-120.0442505-120.0430908c0-66.2998962,53.7466736-120.0447998,120.0442505-120.0447998
		s120.0442505,53.7449036,120.0442505,120.0447998C551.5651245,498.6213684,497.8184509,552.3668823,431.520874,552.3668823z"/>
	<circle cx="431.520874" cy="432.3232117" r="40.3933029"/>
	<path d="M858.3040771,454.130249c0.3632813-7.2236938,0.5518799-14.4936829,0.5518799-21.8076172
		c0-7.3145142-0.1885986-14.5845032-0.5518799-21.8075867l-81.3223877-13.9099426
		c-1.7020264-16.6764832-4.6282959-32.9867859-8.6063843-48.8799438l71.7116089-40.9140015
		c-4.2858887-13.9700623-9.2359009-27.6485596-14.876709-40.9677734l-81.2494507,14.7557373
		c-7.2745972-14.9541931-15.5778198-29.314209-24.8449097-42.9724579l53.3358765-62.9044189
		c-8.7904053-11.6177216-18.1882324-22.7402191-28.0952148-33.387146l-71.2521973,41.6250305
		c-11.8682861-11.4991302-24.5418091-22.1535797-37.9489746-31.8777313l28.6170654-77.3917236
		c-12.1795044-7.9029007-24.7801514-15.1902275-37.770813-21.8446312l-52.7041016,63.468502
		c-15.0073853-6.7215195-30.5701904-12.3993378-46.6132202-16.9628906l0.4223633-82.4979401
		c-14.0759888-3.2178564-28.412262-5.7379904-42.9834595-7.5274248l-27.8279419,77.6919785
		c-8.1921692-0.5785446-16.4352417-0.9777374-24.7731934-0.9777374c-8.3426208,0-16.583374,0.3991928-24.7755432,0.9777374
		L378.9197083,8.3262911c-14.5688477,1.7894344-28.9051514,4.3084116-42.983429,7.5274248l0.4223328,82.4979401
		c-16.0441589,4.5635529-31.6058044,10.2413712-46.6132202,16.9628906l-52.7041321-63.468502
		c-12.9917603,6.6538239-25.5924225,13.9417305-37.7707672,21.8446312l28.6170654,77.3917236
		c-13.4071655,9.7241516-26.0818787,20.3797607-37.9489594,31.8777313l-71.2522202-41.6250305
		c-9.9081268,10.6469269-19.3048248,21.7694244-28.0952148,33.387146l53.3358994,62.9049988
		c-9.2671051,13.6588287-17.5703583,28.0176849-24.8449631,42.9718781l-81.2494431-14.7557373
		c-5.6407928,13.3192139-10.5908089,26.9971313-14.8778152,40.9666138l71.712738,40.9151611
		c-3.9792175,15.893158-6.904335,32.2034607-8.6064072,48.8799438l-81.323494,13.9099426
		c-0.3621683,7.2236633-0.5507731,14.4930725-0.5507731,21.8075867c0,7.3139343,0.1886048,14.5827637,0.5507731,21.8064575
		l81.323494,13.9104919c1.7020721,16.6759338,4.6271896,32.9873657,8.6064072,48.8799744l-71.712738,40.9145508
		c4.2870064,13.9700928,9.2370224,27.6473999,14.8778152,40.9672241l81.2494431-14.7557373
		c7.2746048,14.9530029,15.580162,29.3135986,24.8449631,42.9718628l-53.3358994,62.9049683
		c8.79039,11.6165771,18.187088,22.7402344,28.0952148,33.3865967l71.2522202-41.625
		c11.8670807,11.4990845,24.5417938,22.1541138,37.9489594,31.8782959l-28.6170654,77.3922729
		c12.1783447,7.9023438,24.779007,15.1902466,37.7707672,21.8435059l52.7041321-63.4679565
		c15.0074158,6.7215576,30.5690613,12.3999023,46.6132202,16.9623413l-0.4223328,82.4984741
		c14.0782776,3.2184448,28.4145813,5.7374268,42.983429,7.5274658l27.8267822-77.6920166
		c8.1921692,0.5780029,16.4329224,0.9771729,24.7755432,0.9771729c8.3379517,0,16.5810242-0.3986206,24.7731934-0.9771729
		l27.8279419,77.6920166c14.5711975-1.7900391,28.9074707-4.3095703,42.9834595-7.5280151l-0.4223633-82.4979248
		c16.0430298-4.562439,31.605835-10.2407837,46.6132202-16.9623413l52.7041016,63.4679565
		c12.9906616-6.6544189,25.5913086-13.9411621,37.770813-21.8446655l-28.6170654-77.3911133
		c13.4071655-9.7241821,26.0806885-20.3786011,37.9489746-31.8777466l71.2487183,41.6244507
		c9.9081421-10.6463623,19.3082886-21.7694092,28.0986938-33.3865967l-53.3358765-62.9049683
		c9.2670898-13.6582642,17.5703125-28.0188599,24.8449097-42.9718628l81.2494507,14.7557373
		c5.6408081-13.3198242,10.5908203-26.9977417,14.876709-40.9678345l-71.7116089-40.9139404
		c3.9780884-15.8926086,6.9043579-32.2040405,8.6063843-48.8799744L858.3040771,454.130249z M728.0774536,432.3226318
		c0,163.5240479-133.0325317,296.5588989-296.5565796,296.5588989S134.9642639,595.8466797,134.9642639,432.3226318
		S267.9967957,135.7637329,431.520874,135.7637329S728.0774536,268.798584,728.0774536,432.3226318z"/>
</g>
</svg>
