<?xml version="1.0" encoding="utf-8"?>
<!-- Generator: Adobe Illustrator 19.0.1, SVG Export Plug-In . SVG Version: 6.00 Build 0)  -->
<svg version="1.1" id="Livello_1" xmlns="http://www.w3.org/2000/svg" xmlns:xlink="http://www.w3.org/1999/xlink" x="0px" y="0px"
	 viewBox="0 0 864 864" style="enable-background:new 0 0 864 864;" xml:space="preserve">
<path d="M853.2229004,453.6010437c0.3577881-7.1257935,0.543335-14.2976379,0.543335-21.5128784
	s-0.1855469-14.387085-0.543335-21.5128784l-80.2232666-13.7216187
	c-1.6793213-16.4508667-4.5654297-32.5406494-8.4900513-48.2192688l70.7426758-40.3612671
	c-4.2290039-13.7810364-9.1135254-27.2743835-14.6760864-40.4140015l-80.1511841,14.5566101
	c-7.1765747-14.7521667-15.3689575-28.9176636-24.5091553-42.3916626l52.614502-62.0543671
	c-8.6716309-11.4602661-17.942627-22.4326324-27.7169189-32.9357758l-70.2888184,41.0621033
	c-11.7058716-11.3434753-24.210083-21.8539581-37.4351196-31.4466858l28.230896-76.3453293
	c-12.0142822-7.7965927-24.4450684-14.9851303-37.2615967-21.5495911l-51.9924316,62.6103516
	c-14.8029175-6.6305389-30.15448-12.2318573-45.9812622-16.7332001l0.4165039-81.3826523
	c-13.887146-3.1751041-28.0292969-5.6607227-42.4023743-7.4261522l-27.4512634,76.6416855
	c-8.0829163-0.5706787-16.2139282-0.9638062-24.4396973-0.9638062c-8.2284241,0-16.3580933,0.3931274-24.4396667,0.9638062
	l-27.4512634-76.6416855c-14.3730774,1.7654295-28.5151978,4.2503805-42.4023743,7.4254847l0.4165039,81.383316
	c-15.8268127,4.5013428-31.1783752,10.1026611-45.982605,16.7332001l-51.9924164-62.6103516
	c-12.8152313,6.5637932-25.2473145,13.7529984-37.2602539,21.5489197l28.2308655,76.3460007
	c-13.2263794,9.5927277-25.7292328,20.104538-37.4364624,31.4473419l-70.2888107-41.0627594
	c-9.7742767,10.5031433-19.0439529,21.4755096-27.7155838,32.9357758l52.6131592,62.0550385
	c-9.1401978,13.473999-17.3312531,27.6388245-24.507782,42.3909912l-80.1511841-14.5566101
	c-5.5639381,13.1396179-10.4470711,26.6322937-14.6760941,40.4133301l70.7426758,40.3619385
	c-3.9246597,15.6786194-6.8107529,31.7684021-8.4914169,48.2192688l-80.2219315,13.72229
	c-0.3590937,7.1257935-0.5446472,14.2969666-0.5446472,21.512207s0.1855536,14.3864136,0.5446472,21.512207l80.2219315,13.7223206
	c1.6806641,16.4508667,4.5667572,32.5412903,8.4914169,48.2192383l-70.7426758,40.3619385
	c4.229023,13.7810669,9.1121559,27.2737427,14.6760941,40.4133301l80.1511841-14.5566406
	c7.1765289,14.7515259,15.368927,28.9177246,24.507782,42.3917236L95.8861847,686.206604
	c8.6716309,11.4596558,17.9413071,22.4326782,27.7155838,32.935791l70.2888107-41.0627441
	c11.7072296,11.3434448,24.210083,21.8546143,37.4364624,31.4473267l-28.2308655,76.3460083
	c12.0129395,7.7958984,24.4450226,14.9851074,37.2602539,21.5489502l51.9924164-62.6103516
	c14.8042297,6.6304932,30.1557922,12.2318115,45.982605,16.7331543l-0.4165039,81.3833618
	c13.8871765,3.1751099,28.0292969,5.6600342,42.4023743,7.4254761l27.4512634-76.6417236
	c8.0815735,0.5700073,16.2112427,0.9638062,24.4396667,0.9638062c8.225769,0,16.3580933-0.3931274,24.4396973-0.9638062
	l27.4512634,76.6417236c14.3730774-1.7654419,28.5152283-4.2510376,42.4023743-7.4261475l-0.4165039-81.3826904
	c15.8267822-4.5013428,31.1783447-10.1026611,45.9812622-16.7331543l51.9924316,62.6103516
	c12.8165283-6.5645142,25.2473145-13.7530518,37.2615967-21.5496216l-28.230896-76.3453369
	c13.2250366-9.5927124,25.729248-20.1032104,37.4351196-31.4466553l70.2874756,41.0620728
	c9.774292-10.5031128,19.0466309-21.4754639,27.7182617-32.935791l-52.614502-62.0543213
	c9.1401978-13.473999,17.3325806-27.6401978,24.5091553-42.3917236l80.1511841,14.5566406
	c5.562561-13.1395874,10.4470825-26.6329346,14.6760864-40.4140015l-70.7426758-40.3612671
	c3.9246216-15.677948,6.81073-31.7683716,8.4900513-48.2192383L853.2229004,453.6010437z"/>
</svg>
