<?xml version="1.0" encoding="utf-8"?>
<!-- Generator: Adobe Illustrator 19.0.1, SVG Export Plug-In . SVG Version: 6.00 Build 0)  -->
<svg version="1.1" id="Livello_1" xmlns="http://www.w3.org/2000/svg" xmlns:xlink="http://www.w3.org/1999/xlink" x="0px" y="0px"
	 viewBox="0 0 864 864" style="enable-background:new 0 0 864 864;" xml:space="preserve">
<path d="M765.4203491,432.088501c0-4.5240479-0.1628418-9.0093689-0.3417358-13.4893494l66.3721924-15.0518799
	c-0.7716064-10.9403076-1.8609009-21.7932129-3.494873-32.4739075l-68.1929321,0.0947876
	c-1.6446533-8.9059143-3.6229858-17.6910095-5.9644165-26.3332825l61.4356079-29.4809875
	c-3.1851196-10.4651184-6.845459-20.715271-10.8449097-30.7972412l-66.3267212,15.2354126
	c-3.5936279-8.2918396-7.5049438-16.4101563-11.7339478-24.3362427l53.2472534-42.3422699
	c-5.4331665-9.4652405-11.2000122-18.709549-17.364624-27.6681976l-61.3128662,29.6325226
	c-5.331665-7.2586212-10.975647-14.2649384-16.8653564-21.0590057l42.5518799-53.2071838
	c-7.3847656-8.0095062-15.0899048-15.7146606-23.0994263-23.1000977l-53.2072144,42.552536
	c-6.7947388-5.8889923-13.800354-11.5343628-21.0596313-16.8660278l29.6325073-61.3134918
	c-8.9573364-6.1639862-18.2029419-11.9301682-27.6675415-17.3632813l-42.3409424,53.2472382
	c-7.9267578-4.2303619-16.0457153-8.1416779-24.3382568-11.7332764l15.2368164-66.3274384
	c-10.0839844-4.0000801-20.3334961-7.6617622-30.7992554-10.8468781l-29.4803467,61.435627
	c-8.6422729-2.339447-17.4260559-4.3177948-26.3326111-5.9644165l0.0934448-68.1903229
	c-10.6793518-1.6332703-21.5322571-2.7245674-32.4732361-3.496151l-15.0525513,66.3714905
	c-4.4799805-0.1788788-8.9653015-0.3410721-13.4880066-0.3410721c-4.5253906,0-9.0080261,0.1621933-13.4880371,0.3410721
	l-15.0525208-66.3714905c-10.9410095,0.7715836-21.7938843,1.8622131-32.4732361,3.4954872l0.0934448,68.190979
	c-8.9065857,1.6459503-17.6903381,3.6249695-26.3326111,5.9644165l-29.4803467-61.435627
	c-10.4657593,3.1851158-20.715271,6.8454628-30.7992554,10.8462105l15.2367859,66.3274384
	c-8.292511,3.5915909-16.411499,7.5035782-24.3382568,11.7339401l-42.3409424-53.2472382
	c-9.4645691,5.4331131-18.7102203,11.1979599-27.6675262,17.3626175l29.6325226,61.3141556
	c-7.2592773,5.331665-14.2649384,10.9763641-21.0596771,16.8653564l-53.2071838-42.5518646
	c-8.0095062,7.3847656-15.7146606,15.0905914-23.0994263,23.1000977l42.5518646,53.2065125
	c-5.8896637,6.7947388-11.5336914,13.8010559-16.8653564,21.0596771l-61.3128204-29.6325226
	c-6.1646576,8.9586487-11.9315033,18.2022858-17.364624,27.6675262l53.2472382,42.3429413
	c-4.2290192,7.9260864-8.1430054,16.0444031-11.7339325,24.3362427l-66.326767-15.2354126
	c-3.9994164,10.0819702-7.6624336,20.3327942-10.8475494,30.7972412l61.435627,29.4803467
	c-2.3387756,8.6422424-4.317131,17.4273376-5.9644165,26.3339233l-68.1903152-0.0947876
	c-1.6339417,10.6806946-2.7232361,21.5335999-3.4948196,32.4745789l66.3721542,15.0518799
	c-0.1788788,4.4799805-0.3417358,8.9646301-0.3417358,13.488678s0.1628571,9.0086975,0.3417358,13.488678L32.966507,460.6290588
	c0.7715836,10.9410095,1.860878,21.7932129,3.4948196,32.4739075l68.1903152-0.0947876
	c1.6472855,8.9065857,3.6256409,17.6910095,5.9644165,26.3339233l-61.435627,29.4803467
	c3.1851158,10.4644775,6.8454628,20.7145996,10.8475494,30.7972412l66.326767-15.2354126
	c3.5909271,8.2918701,7.5049133,16.4101563,11.7339325,24.3362427l-53.2472382,42.3429565
	c5.4331207,9.4645386,11.1972961,18.7088623,17.3619537,27.6675415l61.3154907-29.6325684
	c5.331665,7.2593384,10.9756927,14.2649536,16.8653564,21.0596924l-42.5518646,53.206543
	c7.3847656,8.0101929,15.08992,15.715332,23.0994263,23.1000977l53.2071838-42.5518799
	c6.7947388,5.8889771,13.8003998,11.5343628,21.0596771,16.8653564l-29.6325226,61.3141479
	c8.9573059,6.1646729,18.2029572,11.9295044,27.6675262,17.3626099l42.3409424-53.2471924
	c7.9267578,4.2303467,16.0457458,8.142334,24.3382568,11.7338867l-15.2367859,66.3274536
	c10.0839844,4.0007324,20.3334961,7.6610718,30.7992554,10.8461914l29.4803467-61.4356079
	c8.6422729,2.3394775,17.4260254,4.3184814,26.3326111,5.9644165l-0.0934448,68.190979
	c10.6793518,1.6333008,21.5322266,2.723938,32.4732361,3.4954834l15.0525208-66.37146
	c4.480011,0.178833,8.9626465,0.3410645,13.4880371,0.3410645c4.5227051,0,9.0080261-0.1622314,13.4880066-0.3410645
	l15.0525513,66.37146c10.940979-0.7715454,21.7938843-1.862854,32.4732361-3.4961548l-0.0934448-68.1903076
	c8.9065552-1.6466064,17.6903381-3.624939,26.3326111-5.9644165l29.4803467,61.4356079
	c10.4657593-3.1851196,20.715271-6.8468018,30.7992554-10.8468628L564.5043945,737.94104
	c8.2925415-3.5922241,16.411499-7.5028687,24.3382568-11.7332153l42.3409424,53.2471924
	c9.4645996-5.4331055,18.7102051-11.1992798,27.6675415-17.3632813l-29.6325073-61.3134766
	c7.2592773-5.331665,14.2648926-10.9770508,21.0596313-16.8660278l53.2072144,42.5525513
	c8.0095215-7.385437,15.7146606-15.0905762,23.0994263-23.1000977L684.03302,650.1574707
	c5.8897095-6.7940674,11.5336914-13.8010254,16.8653564-21.0596924l61.3154907,29.6332397
	c6.1619873-8.9586792,11.928833-18.2036133,17.3619995-27.6682129L726.3286133,588.72052
	c4.2290039-7.9260864,8.1403198-16.0443726,11.7339478-24.3362427l66.3267212,15.2354126
	c3.9994507-10.0826416,7.65979-20.3321533,10.8449097-30.7972412l-61.4356079-29.4810181
	c2.3414307-8.6429138,4.3197632-17.4266663,5.9644165-26.333252l68.1929321,0.0947876
	c1.6339722-10.6806946,2.7232666-21.5328979,3.494873-32.4739075l-66.3721924-15.0518799
	C765.2575073,441.0971985,765.4203491,436.6125488,765.4203491,432.088501z M432.2086487,703.3653564
	c-149.8223267,0-271.276825-121.4545288-271.276825-271.2768555s121.4544983-271.276825,271.276825-271.276825
	c149.8210754,0,271.276825,121.4545288,271.276825,271.276825S582.0297241,703.3653564,432.2086487,703.3653564z"/>
</svg>
