<?xml version="1.0" encoding="utf-8"?>
<!-- Generator: Adobe Illustrator 19.0.1, SVG Export Plug-In . SVG Version: 6.00 Build 0)  -->
<svg version="1.1" id="Livello_1" xmlns="http://www.w3.org/2000/svg" xmlns:xlink="http://www.w3.org/1999/xlink" x="0px" y="0px"
	 viewBox="0 0 864 864" style="enable-background:new 0 0 864 864;" xml:space="preserve">
<path d="M852.2017212,453.6010437c0.3577271-7.1257935,0.5446167-14.2976379,0.5446167-21.5128784
	s-0.1868896-14.387085-0.5446167-21.5128784l-80.2232666-13.7216187
	c-1.6793213-16.4508667-4.5654297-32.5406494-8.4901123-48.2192688l70.7426758-40.3612671
	c-4.2290039-13.7810364-9.1121216-27.2743835-14.6760864-40.4140015l-80.1511841,14.5566101
	c-7.1765137-14.7521667-15.3675537-28.9176636-24.5090942-42.3916626l52.614502-62.0543671
	c-8.6716309-11.4602661-17.9413452-22.4326324-27.7155762-32.9357758l-70.2888184,41.0621033
	c-11.7072754-11.3434753-24.210083-21.8539581-37.4364624-31.4466858l28.230835-76.3453293
	c-12.0142212-7.7965927-24.4450073-14.9851303-37.2602539-21.5495911l-51.9923706,62.6103516
	c-14.8042603-6.6305389-30.1558228-12.2318573-45.982605-16.7332001l0.4164429-81.3826523
	c-13.8858032-3.1751041-28.0279236-5.6607227-42.4023132-7.4261522l-27.4512939,76.6416855
	c-8.0815735-0.5706787-16.2138977-0.9638062-24.4396667-0.9638062c-8.2284546,0-16.3580933,0.3931274-24.4396973,0.9638062
	l-27.4512634-76.6416855c-14.3717346,1.7654295-28.5138855,4.2503805-42.4023743,7.4254847l0.4165039,81.383316
	c-15.8267822,4.5013428-31.1783752,10.1026611-45.982605,16.7332001l-51.9924164-62.6103516
	c-12.8152161,6.5637932-25.2459869,13.7529984-37.2602539,21.5489197l28.2308655,76.3460007
	c-13.2263794,9.5927277-25.7292175,20.104538-37.4364624,31.4473419l-70.2888031-41.0627594
	c-9.7742767,10.5031433-19.0439529,21.4755096-27.7155838,32.9357758l52.6144791,62.0550385
	c-9.14151,13.473999-17.3325806,27.6388245-24.5091019,42.3909912l-80.1511841-14.5566101
	c-5.563942,13.1396179-10.4470749,26.6322937-14.6760979,40.4133301l70.7426758,40.3619385
	c-3.9246597,15.6786194-6.8107529,31.7684021-8.4900818,48.2192688l-80.2232742,13.72229
	c-0.3577585,7.1257935-0.5446463,14.2969666-0.5446463,21.512207s0.1868877,14.3864136,0.5446463,21.512207l80.2232742,13.7223206
	c1.6793289,16.4508667,4.5654221,32.5412903,8.4900818,48.2192383l-70.7426758,40.3619385
	c4.229023,13.7810669,9.1121559,27.2737427,14.6760979,40.4133301l80.1511841-14.5566406
	c7.1765213,14.7515259,15.3702469,28.9177246,24.5091019,42.3917236L94.8649826,686.206604
	c8.6716309,11.4596558,17.9413071,22.4326782,27.7155838,32.935791l70.2888031-41.0627441
	c11.7072449,11.3434448,24.210083,21.8546143,37.4364624,31.4473267l-28.2308655,76.3460083
	c12.014267,7.7958984,24.4450378,14.9851074,37.2602539,21.5489502l51.9924164-62.6103516
	c14.8042297,6.6304932,30.1558228,12.2318115,45.982605,16.7331543l-0.4165039,81.3833618
	c13.8884888,3.1751099,28.0306396,5.6600342,42.4023743,7.4254761l27.4512634-76.6417236
	c8.081604,0.5700073,16.2112427,0.9638062,24.4396973,0.9638062c8.225769,0,16.3580933-0.3931274,24.4396667-0.9638062
	l27.4512939,76.6417236c14.3743896-1.7654419,28.51651-4.2510376,42.4023132-7.4261475l-0.4164429-81.3826904
	c15.8267822-4.5013428,31.1783447-10.1026611,45.982605-16.7331543l51.9923706,62.6103516
	c12.8152466-6.5645142,25.2460327-13.7530518,37.2602539-21.5496216l-28.230835-76.3453369
	c13.2263794-9.5927124,25.729187-20.1032104,37.4364624-31.4466553l70.2861328,41.0620728
	c9.774292-10.5031128,19.0466309-21.4754639,27.7182617-32.935791l-52.614502-62.0543213
	c9.1415405-13.473999,17.3325806-27.6401978,24.5090942-42.3917236l80.1511841,14.5566406
	c5.5639648-13.1395874,10.4470825-26.6329346,14.6760864-40.4140015l-70.7426758-40.3612671
	c3.9246826-15.677948,6.810791-31.7683716,8.4901123-48.2192383L852.2017212,453.6010437z M431.1870728,724.0343628
	c-161.2371826,0-291.9455566-130.708374-291.9455566-291.9455566c0-161.237793,130.7083893-291.946167,291.9455566-291.946167
	s291.9455566,130.708374,291.9455566,291.946167C723.1326294,593.3259888,592.4242554,724.0343628,431.1870728,724.0343628z"/>
</svg>
