<?xml version="1.0" encoding="utf-8"?>
<!-- Generator: Adobe Illustrator 19.0.1, SVG Export Plug-In . SVG Version: 6.00 Build 0)  -->
<svg version="1.1" id="Livello_1" xmlns="http://www.w3.org/2000/svg" xmlns:xlink="http://www.w3.org/1999/xlink" x="0px" y="0px"
	 viewBox="0 0 864 864" style="enable-background:new 0 0 864 864;" xml:space="preserve">
<path d="M851.7645874,453.7998047c0.3572388-7.1140442,0.5435181-14.2738342,0.5435181-21.4771729
	c0-7.2033691-0.1862793-14.3637085-0.5435181-21.4782715l-64.807373-11.0844421
	c-1.8179932-20.0033875-5.2567749-39.5405579-10.25-58.4623108l57.1159668-32.5871887
	c-4.2220459-13.7580566-9.0965576-27.2296448-14.6517944-40.3477173l-64.807373,11.7701111
	c-8.5039063-17.9697266-18.4816284-35.0985107-29.7457886-51.2774811l42.5927124-50.2344971
	c-8.6575317-11.4411621-17.9119873-22.3959656-27.6696777-32.8818512l-56.8153687,33.1906738
	c-14.0232544-13.9078369-29.2305908-26.6043854-45.3867188-38.0515442l22.8377075-61.7595367
	c-11.9950562-7.7839432-24.4051514-14.9606094-37.1986084-21.5142136l-42.0132446,50.5923233
	c-17.8357544-8.2604904-36.451416-15.0918579-55.7227783-20.3448715l0.3365479-65.6945343
	c-13.8631592-3.1697826-27.9822998-5.6516876-42.3323669-7.4141302l-22.1525269,61.8477707
	c-9.7849121-0.8087845-19.6504517-1.3272781-29.6401672-1.3272781c-9.9984131,0-19.8726807,0.5195847-29.6663208,1.3289108
	l-22.1525269-61.8494034c-14.3478699,1.7624426-28.467041,4.2432585-42.3334656,7.4130392l0.3365784,65.6999817
	c-19.2702942,5.2535553-37.8848572,12.0838394-55.7195129,20.3437881l-42.0153961-50.5955963
	c-12.7935028,6.5530624-25.2046661,13.7302704-37.1986389,21.5136642l22.837677,61.7622681
	c-16.1560822,11.4471588-31.3634033,24.1437073-45.3866882,38.0504456l-56.8153381-33.1917572
	c-9.7576981,10.4858856-19.0121536,21.4406891-27.6696854,32.8818512l42.5927048,50.2344971
	c-11.2641525,16.1800537-21.2429733,33.3077545-29.7458344,51.2774811l-64.8073196-11.7701111
	c-5.5552864,13.1180725-10.4297791,26.588562-14.6528854,40.347168l57.1148834,32.5866394
	c-4.9921341,18.9228516-8.4320526,38.460022-10.2489624,58.4634094L11.1167736,410.845459
	c-0.3572807,7.1140137-0.5446358,14.2738037-0.5446358,21.4771729c0,7.2033386,0.187355,14.3625793,0.5446358,21.4766235
	l64.8073196,11.0849609c1.8179932,20.0033875,5.2579193,39.5400391,10.2511368,58.4623413l-57.1181488,32.5882568
	c4.2231064,13.758606,9.097599,27.2290649,14.6528854,40.347168l64.8105927-11.7706299
	c8.5039444,17.9686279,18.4816742,35.0963135,29.7447433,51.2747192l-42.5948868,50.237793
	c8.6575317,11.4406128,17.9119873,22.3959351,27.6696854,32.8818359l56.8186035-33.1933594
	c14.0232849,13.906189,29.2295227,26.6027222,45.3845062,38.0493164l-22.8387604,61.7650146
	c11.9939728,7.7828369,24.4051361,14.9605713,37.1986389,21.5136719l42.0153961-50.5961304
	c17.8346558,8.260498,36.4503174,15.0913086,55.7195129,20.3453979l-0.3365784,65.6983643
	c13.8664246,3.1697388,27.9855957,5.651123,42.3334656,7.4135742l22.1525269-61.8477783
	c9.7936401,0.8104248,19.6679077,1.3289185,29.6663208,1.3289185c9.9897156,0,19.8563538-0.5184937,29.6412659-1.3267212
	l22.1514282,61.8455811c14.3500671-1.7624512,28.4692078-4.2438354,42.3323669-7.4141235l-0.3365479-65.6934814
	c19.2713623-5.25354,37.8870239-12.0854492,55.7227783-20.3464966l42.0132446,50.5928955
	c12.793457-6.5535889,25.2035522-13.730835,37.1986084-21.5142212l-22.8377075-61.7611694
	c16.1550293-11.4471436,31.3601685-24.1448364,45.3834839-38.0515137l56.8153076,33.1922607
	c9.7587891-10.4859009,19.0154419-21.4401245,27.6729736-32.8818359l-42.5949097-50.2372437
	c11.2619629-16.1789551,21.2396851-33.3066406,29.7436523-51.2752686l64.8117065,11.7706299
	c5.5552368-13.118103,10.4297485-26.5891113,14.6517944-40.3477173l-57.1181641-32.5882568
	c4.9932251-18.9217529,8.4320679-38.4584045,10.2511597-58.4606934L851.7645874,453.7998047z M262.1645508,368.0806274
	c-7.6074829,19.9772339-11.8120728,41.6188965-11.8120728,64.2354431c0,22.6198425,4.2056732,44.2669373,11.8164063,64.2485352
	l-102.3959045,59.1169739c-17.1571198-37.6300049-26.7971802-79.3807068-26.7971802-123.365509
	c0-43.9793396,9.6389771-85.7256775,26.7949982-123.3534851L262.1645508,368.0806274z M188.8510895,258.7765503
	c48.8941498-68.1448517,125.6921844-114.9595795,213.5877228-123.4776917v118.2971191
	c-44.6013489,7.2131653-83.7922668,30.7501526-111.2168579,64.2844543L188.8510895,258.7765503z M291.227417,546.7626343
	c27.4245911,33.5354004,66.6122437,57.0734863,111.2113953,64.2866211v118.2982178
	c-87.8944397-8.5181274-164.691391-55.3317261-213.5866241-123.4787598L291.227417,546.7626343z M308.9552917,432.3160706
	c0-67.5304871,54.9396362-122.4700928,122.4984436-122.4700928c67.5305176,0,122.4700928,54.9396057,122.4700928,122.4700928
	c0,67.5446777-54.9395752,122.4842834-122.4700928,122.4842834
	C363.894928,554.800354,308.9552917,499.8607483,308.9552917,432.3160706z M460.4403381,253.5926971V135.2966766
	c87.8912048,8.5126648,164.693573,55.3284912,213.5888367,123.478775l-102.369812,59.1039124
	C544.232605,284.3395691,505.0394897,260.800415,460.4403381,253.5926971z M460.4403381,611.0536499
	c44.5958862-7.2098999,83.7868347-30.7501831,111.2124939-64.2888794l102.3752441,59.1049805
	c-48.8963623,68.1525269-125.6976318,114.9672241-213.587738,123.4799194V611.0536499z M600.7113647,496.5646057
	c7.6096191-19.9815979,11.8153076-41.6286926,11.8153076-64.2485352c0-22.6165466-4.2034912-44.2582092-11.8109741-64.2354431
	l102.3926392-59.118042c17.1560669,37.6278076,26.7960815,79.3741455,26.7960815,123.3534851
	c0,43.9848022-9.6411133,85.7355042-26.7971802,123.365509L600.7113647,496.5646057z"/>
</svg>
