<?xml version="1.0" encoding="utf-8"?>
<!-- Generator: Adobe Illustrator 19.0.1, SVG Export Plug-In . SVG Version: 6.00 Build 0)  -->
<svg version="1.1" id="Livello_1" xmlns="http://www.w3.org/2000/svg" xmlns:xlink="http://www.w3.org/1999/xlink" x="0px" y="0px"
	 viewBox="0 0 864 864" style="enable-background:new 0 0 864 864;" xml:space="preserve">
<path d="M767.8137207,432.2591858c0-10.361145-0.5396729-20.5925903-1.4586182-30.714386L858,350.6365967
	c-3.9658813-20.8365173-9.4257813-41.1313477-16.2571411-60.7967834l-104.8074951,1.7348938
	c-8.6477661-18.7259827-18.9678955-36.5068665-30.7686768-53.1796875l53.8746338-89.848526
	c-13.7565308-15.9009705-28.6365967-30.7815094-44.5396118-44.5375748l-89.8474731,53.8756943
	c-16.671814-11.8023224-34.4537354-22.1224518-53.1791992-30.7702179l1.7348633-104.8064575
	c-19.6664429-6.8308802-39.9602051-12.2917919-60.7973022-16.2592163L462.5054321,97.694664
	c-10.1238098-0.9174194-20.3537292-1.4576111-30.7148743-1.4576111c-10.3605957,0-20.5910339,0.5401917-30.7112732,1.4576111
	L350.1685181,6.0487223c-20.8360291,3.9674253-41.1328735,9.4273119-60.7962646,16.258194l1.734375,104.8074799
	c-18.7254639,8.6482849-36.5074005,18.9678955-53.1791992,30.7702179l-89.8500519-53.8756943
	c-15.9004669,13.7560654-30.7830429,28.6366043-44.5370636,44.5375748l53.8751831,89.848526
	c-11.8013,16.6723022-22.1214294,34.4537048-30.7697067,53.1796875l-104.8064575-1.7348938
	c-6.8319063,19.6654358-12.292305,39.9602661-16.2602425,60.7967834l91.6479874,50.9092407
	c-0.9194641,10.1212769-1.4596558,20.3522034-1.4596558,30.7133484c0,10.3605957,0.5401917,20.5920715,1.4596558,30.7133179
	L5.5790935,513.8817139c3.9679379,20.8365479,9.4283371,41.1308594,16.2602425,60.7957764l104.8064575-1.734375
	c8.6482773,18.7265015,18.9684067,36.5079346,30.7697067,53.1802368l-53.8751831,89.8480225
	c13.7540207,15.9004517,28.6365967,30.78302,44.5370636,44.5380859l89.8500519-53.8757324
	c16.6717987,11.8023071,34.4537354,22.1219482,53.1791992,30.770752l-1.734375,104.8069458
	c19.6633911,6.8308716,39.9602356,12.2907715,60.7962646,16.2581787l50.9076843-91.6459351
	c10.1233215,0.9174194,20.3537598,1.4576416,30.7143555,1.4576416c10.361145,0,20.5910645-0.5402222,30.7148743-1.4576416
	l50.9071655,91.6459351c20.8370972-3.9674072,41.1308594-9.4282837,60.7973022-16.2592163L572.4750366,737.40448
	c18.7254639-8.6483154,36.5073853-18.9684448,53.1791992-30.770752l89.8474731,53.8757324
	c15.9030151-13.7550659,30.7830811-28.6376343,44.5396118-44.5380859l-53.8746338-89.8480225
	c11.8007813-16.6728516,22.1209106-34.4537354,30.7686768-53.1802368l104.8074951,1.734375
	c6.8287964-19.664917,12.2912598-39.9602051,16.2571411-60.7962646l-91.6448975-50.9087219
	C767.2740479,452.8512573,767.8137207,442.6197815,767.8137207,432.2591858z M397.4208984,296.5466919
	c-25.5158386,6.4459534-48.2502441,19.7848206-66.0342102,38.0659485l-110.5092926-63.8047791
	c42.0538788-54.8059235,104.7844086-92.7545166,176.5435028-102.074707V296.5466919z M397.5387878,362.6629028
	c-1.2249146,4.5563354-4.1452637,8.365387-8.2229004,10.7229919c-8.4242859,4.8668823-19.24823,1.9803772-24.1484375-6.4608459
	c-2.3493958-4.0945435-2.9874878-8.8522644-1.7620544-13.4167786c1.2249451-4.5558167,4.1447754-8.365387,8.2229004-10.7229614
	c2.7691345-1.6026611,5.8063354-2.3663025,8.8102417-2.3663025c6.1082153,0,12.0657654,3.1719666,15.3381958,8.8353271
	C398.1261292,353.3406677,398.7637024,358.1065979,397.5387878,362.6629028z M359.5625305,439.6138611
	c0,9.7409668-7.937439,17.6706848-17.6707153,17.6706848s-17.6712036-7.929718-17.6712036-17.6706848
	c0-9.7420044,7.9379272-17.6625061,17.6712036-17.6625061S359.5625305,429.8718567,359.5625305,439.6138611z
	 M297.0395508,394.1486206c-3.4256897,12.1329041-5.3845215,24.8823853-5.3845215,38.1105652
	c0,13.2281494,1.9567871,25.9776306,5.3845215,38.1100159l-110.8070374,63.9790649
	c-13.1297607-31.4606018-20.4444733-65.929718-20.4444733-102.0932007c0-36.1593628,7.3126526-70.628479,20.4403687-102.0849609
	L297.0395508,394.1486206z M331.3866882,529.9057007c17.7839661,18.2811279,40.5183716,31.6199951,66.0342102,38.0639038
	v127.8156128c-71.7570496-9.3222656-134.489624-47.2734375-176.5414581-102.0767822L331.3866882,529.9057007z
	 M384.3823853,529.0917969c-8.4412231-4.875061-11.3441467-15.6989746-6.4782715-24.1397095
	c3.2729492-5.6643982,9.2299805-8.8358765,15.3387146-8.8358765c3.0033875,0,6.0411072,0.7636719,8.8102417,2.366333
	c8.4407043,4.8745728,11.3441467,15.6990356,6.4772339,24.1402588
	C403.6639404,531.0722046,392.7897644,533.9495239,384.3823853,529.0917969z M390.4906006,432.2591858
	c0-22.8087463,18.4897156-41.2984314,41.2989502-41.2984314c22.808197,0,41.2979126,18.4896851,41.2979126,41.2984314
	c0,22.8061523-18.4897156,41.2984314-41.2979126,41.2984314
	C408.9803162,473.5576172,390.4906006,455.0653381,390.4906006,432.2591858z M532.1924438,334.6126404
	c-17.7824707-18.2831726-40.5189209-31.6199951-66.0352783-38.0659485V168.7331543
	c71.7590942,9.3201904,134.4901123,47.2687836,176.5440063,102.074707L532.1924438,334.6126404z M539.3574829,424.9045105
	c0,9.7419739-7.937439,17.6624756-17.6707153,17.6624756c-9.7327881,0-17.6707153-7.9205017-17.6707153-17.6624756
	c0-9.7409973,7.9379272-17.6707153,17.6707153-17.6707153C531.4200439,407.2337952,539.3574829,415.1635132,539.3574829,424.9045105
	z M500.1731873,511.0100708c-1.2249451,4.5557861-4.1452637,8.3653564-8.2229004,10.7229614
	c-8.3904724,4.8751221-19.24823,1.9804077-24.1479492-6.4689941c-4.8668823-8.4330444-1.9639587-19.2564697,6.4608459-24.1315613
	c2.7850342-1.6031799,5.8058472-2.366333,8.8102417-2.366333c6.1082153,0,12.0657654,3.1719971,15.3377075,8.827179
	C500.7605286,501.6878357,501.3981018,506.4455872,500.1731873,511.0100708z M455.0482788,341.8955688
	c3.2724304-5.6633606,9.2299805-8.8348389,15.3381958-8.8348389c3.0039063,0,6.0411072,0.7636414,8.8102417,2.3657837
	c8.4412231,4.8751221,11.3441467,15.6990356,6.4772339,24.13974c-4.8833008,8.4330444-15.6903076,11.3195496-24.1479187,6.4608459
	c-4.0950623-2.357605-7.0148926-6.1666565-8.2398071-10.7229614
	C452.0782166,350.7478333,452.6988525,345.9824219,455.0482788,341.8955688z M466.1571655,695.7852173V567.9696045
	c25.5163574-6.4439087,48.2507935-19.7827759,66.0352783-38.0639038l110.5067139,63.8027344
	C600.6472778,648.5117798,537.9141846,686.4629517,466.1571655,695.7852173z M566.5395508,470.3692017
	c3.4271851-12.1323853,5.3845215-24.8818665,5.3845215-38.1100159c0-13.2281799-1.9593506-25.9776611-5.3845215-38.1105652
	L677.350708,330.170105c13.1271973,31.4564819,20.4393311,65.9255981,20.4393311,102.0849609
	c0,36.1634827-7.3121338,70.6325989-20.4414063,102.0932007L566.5395508,470.3692017z"/>
</svg>
